/* XPM */
static char *HD_wallpaper_sound_souls_anime_soul_soul_eater__1__removebg_preview__1_1673457694[] = {
/* columns rows colors chars-per-pixel */
"60 60 217 2 ",
"   c None",
".  c #045B8B",
"X  c #045987",
"o  c #06638E",
"O  c #046292",
"+  c #02659C",
"@  c #0B6997",
"#  c #126A98",
"$  c #036AA2",
"%  c #056CA3",
"&  c #0D73A4",
"*  c #0273AD",
"=  c #0B75AB",
"-  c #0878AE",
";  c #1C77A4",
":  c #167CAA",
">  c #1A7DAD",
",  c #1773A7",
"<  c #0376B2",
"1  c #057AB7",
"2  c #0C7BB3",
"3  c #047CBA",
"4  c #087CB8",
"5  c #157EB2",
"6  c #197CB0",
"7  c #227EAC",
"8  c #267EA5",
"9  c #1881AE",
"0  c #0B84BE",
"q  c #0D80B7",
"w  c #1481B4",
"e  c #1A82B3",
"r  c #1F88B3",
"t  c #1384BA",
"y  c #1A8ABD",
"u  c #1887BD",
"i  c #1C91BF",
"p  c #2683AC",
"a  c #2A85AC",
"s  c #2587B6",
"d  c #238DB6",
"f  c #248AB9",
"g  c #2A8DBC",
"h  c #288BB8",
"j  c #338BB3",
"k  c #2C94BE",
"l  c #2791BB",
"z  c #3D92B5",
"x  c #3591BB",
"c  c #3892B9",
"v  c #469ABA",
"b  c #0584C4",
"n  c #0A84C1",
"m  c #0B89C5",
"M  c #098ECE",
"N  c #128BC4",
"B  c #1B8CC2",
"V  c #118EC9",
"C  c #1C92C5",
"Z  c #1592CC",
"A  c #1B95CB",
"S  c #1E98CF",
"D  c #048BD1",
"F  c #0A94DB",
"G  c #1495D0",
"H  c #1C9BD4",
"J  c #1B9EDD",
"K  c #1996D1",
"L  c #218FC2",
"P  c #2395C5",
"I  c #2B95C3",
"U  c #2D99C6",
"Y  c #2297CA",
"T  c #249ACB",
"R  c #2B9FCD",
"E  c #359AC4",
"W  c #3B9BC4",
"Q  c #349DCA",
"!  c #399AC6",
"~  c #249ED3",
"^  c #289DD3",
"/  c #1DA0DC",
"(  c #2EA1CF",
")  c #32A2CF",
"_  c #25A1D5",
"`  c #2BA4D4",
"'  c #25A5DA",
"]  c #28A5D8",
"[  c #26A8DE",
"{  c #2DAADC",
"}  c #32A4D3",
"|  c #32ACDD",
" . c #37ABD9",
".. c #35B0DD",
"X. c #3BB4DE",
"o. c #0595E1",
"O. c #1DA3E2",
"+. c #1CA6E8",
"@. c #24AAE1",
"#. c #30AEE1",
"$. c #27B2ED",
"%. c #34B4E5",
"&. c #3DB7E1",
"*. c #39B9E6",
"=. c #36BBEB",
"-. c #3EBCEA",
";. c #3DBFF1",
":. c #469AC2",
">. c #49A1C8",
",. c #47A4D3",
"<. c #5BABD4",
"1. c #4FB8DF",
"2. c #40B3DD",
"3. c #6AB8DA",
"4. c #67B1D1",
"5. c #7ABDDD",
"6. c #45BBE4",
"7. c #4BBDE4",
"8. c #41BEEA",
"9. c #41B7E0",
"0. c #50BFE8",
"q. c #4EC4E7",
"w. c #42C1EE",
"e. c #4AC5EB",
"r. c #4DC9ED",
"t. c #46C0E7",
"y. c #53C4E5",
"u. c #59C7E7",
"i. c #5AC7EB",
"p. c #53CAEE",
"a. c #57C8E7",
"s. c #59D0EF",
"d. c #4DCAF1",
"f. c #45C7F2",
"g. c #56CDF0",
"h. c #58CAF2",
"j. c #5CD3F3",
"k. c #5BD4F4",
"l. c #66C0E7",
"z. c #79C0E2",
"x. c #6FD1E7",
"c. c #6AD3ED",
"v. c #64D2EA",
"b. c #73DBED",
"n. c #6BD5F2",
"m. c #66D9F5",
"M. c #6ADBF2",
"N. c #73D4F3",
"B. c #73DFF5",
"V. c #7DDBF2",
"C. c #76E0EE",
"Z. c #7BE2ED",
"A. c #69E0F8",
"S. c #7DE2F1",
"D. c #78E4F8",
"F. c #81C3E4",
"G. c #94CCE9",
"H. c #8DDFE7",
"J. c #84D9E7",
"K. c #97DBE9",
"L. c #8CD1F0",
"P. c #95DCF7",
"I. c #88E3EE",
"U. c #94E4EC",
"Y. c #9CE6EE",
"T. c #83E0F4",
"R. c #8BE1F4",
"E. c #8BEAF3",
"W. c #85ECF9",
"Q. c #85E6F7",
"!. c #93EEF5",
"~. c #9DECF4",
"^. c #9BE4FA",
"/. c #9DECFB",
"(. c #9AE6F5",
"). c #8EF1F4",
"_. c #8EF2FB",
"`. c #92F1F5",
"'. c #95F4FA",
"]. c #9DF6F9",
"[. c #9CF9FA",
"{. c #97F8FA",
"}. c #ACE6EB",
"|. c #A7E8EC",
" X c #BBE9EC",
".X c #BEF0EF",
"XX c #ABEFFA",
"oX c #A6EDF5",
"OX c #B3ECF6",
"+X c #A4F3F7",
"@X c #AFF6FA",
"#X c #A4FBFA",
"$X c #ACFBF9",
"%X c #A7FAF7",
"&X c #BCF7F9",
"*X c #B2FBFA",
"=X c #BBFBFB",
"-X c #B1F4FA",
";X c #C4EEEE",
":X c #CCEBF3",
">X c #D6EBF4",
",X c #CAF4F4",
"<X c #C9F5F9",
"1X c #C3FBFB",
"2X c #CCFBFB",
"3X c #C5F5F5",
"4X c #DEF3F6",
"5X c #D6F7F8",
"6X c #D4FCFC",
"7X c #DBFDFB",
"8X c #D9F4F6",
"9X c #EAF6F9",
"0X c #E5FAFB",
"qX c #EDFCFC",
"wX c #E5F2F7",
"eX c #F4FCFD",
"rX c #FCFEFE",
/* pixels */
"                                                          ; ! 7 .                                                       ",
"                                                          , :.:.#                                                       ",
"                                                        + 6 <.4.7                                                       ",
"                                                      O , :.5.3.s O                                                     ",
"                                                    . $ x z.z.,.>                                                       ",
"                                                    O 5 3.G.<.f #                                                       ",
"                                                  X & ! L.F.L = o                                                       ",
"                                                  O 5 7.P.l.e & o                                                       ",
"                                                . % C i.^.N.^ 5 @                                                       ",
"                                                $ < A h.^.^.6.P :                                                       ",
"                                                $ < V 8.P.XXV. .y :                                                     ",
"                                                  * b { n.XXoXn. .i :                                                   ",
"                                                  $ b K %.P.XX^.i.] i :                                                 ",
"                                                    1 M K 0./.XXR.7._ y :                                               ",
"                                                    < b G ] m.XX@XV.7.` y                                               ",
"                                                      4 D F 8./.&X~.b.6._ u                                             ",
"                                                        D o.@.V.=X&X!.n.9.S q                                           ",
"                                                        b F O.M.@X<X-XE.v...Z 2                                         ",
"                                                        3 D / D.*X6X3X+XJ.u. .A 2                                       ",
"                                                        * m X.Q.*X6X3X+XW.c.&._ B                                       ",
"                                                        * A p.'.=X6X1X+XE.b.6.{ S -                                     ",
"                                                        m #.A.+X=X6X1X].).C.t.{ T                                       ",
"                                                      0 / e.W.$X1X6X1X].).C.t.| A                                       ",
"                                                      K *.M.'.*X=X2X=X[.).Z.q.{ C                                       ",
"                                                    N [ p.W.[.$X1X1X*X[.`.Z.e.] m                                       ",
"                                                  t _ *.M.).%X*X1X=X$X[.).D.q._ 0                                       ",
"                                                w Z { g.W.{.%X$X=X$X#X[.).Z.q._ n                                       ",
"                                              h B / w.D.{.[.%X$X$X%X[.[.).Z.y._ n *                                     ",
"                                            c U K @.k._.[.%X=X1X1X*X#X].`.Z.y._ m <                                     ",
"                                          v ! ^ O.;.Q.$X1X7X0XqX0X7X2X*X`.Z.y._ N 4                                     ",
"                                          >.} J $.m.@X6X0XqXeXeXeXqXqX5X XI.u._ V 0 5                                   ",
"                                        v >.^ +.f.`.2XqXeXeXeXeXeXeXeX9X,XU.u.] Z t t                                   ",
"                                        v Q J $.A.$X7XeXrXeXeXrXeXeXeXeX>X}.x. .Z m e                                   ",
"                                        W T / ;.W.1XeXeXrXrXrXrXrXrXrXeXwX XG.X.G u N w                                 ",
"                                      z W Y O.d.[.6XeXrXrXrXrXrXrXrXrXeXwX:XK.1.H 0 y e                                 ",
"                                      z E Y [ k.#X7XqXrXrXrXrXrXrXrXrXeXwX>XK.7./ N y r                                 ",
"                                      j E P [ m.%X6XqXeXrXrXrXrXrXrXrXeX9X>X|.0.' V B f                                 ",
"                                      a I P [ j.#X2X0XeXrXrXrXrXrXrXrXeX9X4XY.q.{ A L h                                 ",
"                                      ; g P ~ r.'.1X0XqXeXrXrXrXrXrXeXrXeX8XP.8.| Y P s                                 ",
"                                      ; s f Y %.D.%X<X0XeXeXeXrXrXeXeXeXeX:XM.-.} P I a                                 ",
"                                        5 t B [ s.`.}.;X4XqXeXrXeXeXeXeX0X~.p.*.( I x p                                 ",
"                                        = 5 2 S &.M.~.|. X8X0XeXeXeXqX4X Xn.8...U x j                                   ",
"                                        $ * 1 m H %.M.E.Y.|.}.;X,X;X.XY.n.-...) I g                                     ",
"                                          $ * 1 m H *.k.C.Z.I.U.H.I.b.p.=.%.} U g p                                     ",
"                                            $ * 4 N ~ *.w.r.k.k.p.e.=.%.{ ) I s >                                       ",
"                                              $ * - e T } | X.&... .` R U f w                                           ",
"                                                      e r d k k l d r e 9                                               ",
"                                                                      &                                                 ",
"                                                                                                                        ",
"                                                                                                                        ",
"                                                                                                                        ",
"                                                                                                                        ",
"                                                                                                                        ",
"                                                                                                                        ",
"                                                                                                                        ",
"                                                                                                                        ",
"                                                                                                                        ",
"                                                                                                                        ",
"                                                                                                                        ",
"                                                                                                                        "
};
