/* XPM */
static char *_0e445c2c42c481c8aab065db14371ebxrQ5zdoJvy9UIsft[] = {
/* columns rows colors chars-per-pixel */
"64 64 111 2 ",
"   c None",
".  c #CDAB07",
"X  c #CCA60C",
"o  c #C6AA0A",
"O  c #C8A90F",
"+  c #D2A603",
"@  c #D5AC04",
"#  c #DBAD03",
"$  c #D4AE0C",
"%  c #DDAD09",
"&  c #D3B105",
"*  c #DCB107",
"=  c #CBAC12",
"-  c #C4AD1C",
";  c #C5B015",
":  c #CEB413",
">  c #D2B713",
",  c #DBB110",
"<  c #D6B914",
"1  c #D9BA14",
"2  c #DFB719",
"3  c #E3AF00",
"4  c #E3AF0C",
"5  c #E2B204",
"6  c #EAB403",
"7  c #EDBD03",
"8  c #E6B50A",
"9  c #EBB30A",
"0  c #EDB909",
"q  c #F0B600",
"w  c #F5BB03",
"e  c #F8BB01",
"r  c #F2BB0B",
"t  c #E3B613",
"y  c #E4BB15",
"u  c #ECBB14",
"i  c #E1B719",
"p  c #F3BF13",
"a  c #ECC302",
"s  c #EFC801",
"d  c #F5C404",
"f  c #FEC606",
"g  c #F5CC02",
"h  c #FBCC03",
"j  c #F5C30C",
"k  c #FDC60A",
"l  c #F5CD0A",
"z  c #FCCA0B",
"x  c #EED503",
"c  c #F6D201",
"v  c #F9D303",
"b  c #F7D00C",
"n  c #EDCA12",
"m  c #E2CF1D",
"M  c #ECCE1B",
"N  c #F4C616",
"B  c #FAC612",
"V  c #F6CC11",
"C  c #FBCB13",
"Z  c #F3C61A",
"A  c #F5C918",
"S  c #E3D61C",
"D  c #F2D113",
"F  c #DBD42D",
"G  c #E7C724",
"H  c #EECC25",
"J  c #EACD2A",
"K  c #F7C724",
"L  c #F8C625",
"P  c #F7C924",
"I  c #E9D323",
"U  c #F2D224",
"Y  c #E7CC30",
"T  c #D7C656",
"R  c #F6CE42",
"E  c #FBCC47",
"W  c #F4CF4D",
"Q  c #FACC4D",
"!  c #EECE5C",
"~  c #F2CF54",
"^  c #FBCD55",
"/  c #F1CF5A",
"(  c #F8CF59",
")  c #F2D058",
"_  c #F0DC58",
"`  c #DFCC66",
"'  c #E3CD64",
"]  c #ECD56B",
"[  c #EDDE6A",
"{  c #F4D665",
"}  c #F3D669",
"|  c #F8DB6F",
" . c #EDD670",
".. c #EED975",
"X. c #EDDB7A",
"o. c #F2DA75",
"O. c #F9DC70",
"+. c #F2DD7D",
"@. c #EAE161",
"#. c #EBE76D",
"$. c #F7E27E",
"%. c #F3DD86",
"&. c #F7E381",
"*. c #FFECB6",
"=. c #FDEEB9",
"-. c #FBF4BB",
";. c #FCF5C2",
":. c #FEF9C3",
">. c #FDF5CC",
",. c #FDFDCD",
"<. c #FEF6D0",
/* pixels */
"                                                                                                                                ",
"                                                                                                                                ",
"                                                                                                                                ",
"                                                                                                                                ",
"                                                                                                                                ",
"                                                        #.F m U U G Y _                                                         ",
"                                                        @.S x v g l D J                                                         ",
"                                                        [ I v v h z b M                                                         ",
"                                                        +.J b z h k h M                                                         ",
"                                                        %.H z k k k l M                                                         ",
"                                                        %.M h h f j C H                                                         ",
"                                                        +.n v h f z V P                                                         ",
"                                                        O.N h k d v l L &.                                                      ",
"                                                      <.| A k k h v h L &.                                                      ",
"                                                      <.O.B z k g v h L &.                                                      ",
"                                                      <.O.C k f g v h K &.                                                      ",
"                                                      <.O.C k k g v h K $.                                                      ",
"                                                      >.O.C k f g c l L $.                                                      ",
"                                                      >.} C z k g c h L X.                                                      ",
"                                                      >.} C k h g c h K ..                                                      ",
"                                                      >.} C k f g c h P X.                                                      ",
"                                                      >.} C f f g v h K X.                                                      ",
"                                                      >.} C f h c c h P X.,.                                                    ",
"                                                      :.{ C k h h v h P X.,.                                                    ",
"                                                      =.( C l l h h f Z ..:.                                                    ",
"                                                      *.( C V b h f f Z ..:.                                                    ",
"                                                      *.^ C V l h f f Z ..:.                                                    ",
"                                                      *.^ V V b h f f N o.:.                                                    ",
"                                                      *.^ C l l h f f A ..:.                                                    ",
"                                                      *.^ C V b h f f A o.:.                                                    ",
"                                                      =.^ C V b h f k A ..:.                                                    ",
"                                                      =.^ z V b h f k A  .                                                      ",
"                                                      -.Q C V b h f k A ]                                                       ",
"                                                        E C V b h f k N ]                                                       ",
"                                                          C V b h f f N                                                         ",
"                                                          C l b h f f A                                                         ",
"                                                          C z b h h h V                                                         ",
"                                                          C z z c z h N                                                         ",
"                                                          C k b c h h z                                                         ",
"                                                          C l l c h z N                                                         ",
"                                                          C C z c h h N                                                         ",
"                                                        R C C b c z h C                                                         ",
"                                                        W B C z g h z A                                                         ",
"                                                      -.) B B j l f z A                                                         ",
"                                                      -.~ B N j g d k Z                                                         ",
"                                                      ;./ N r a s a j Z                                                         ",
"                                                      -./ p r a a q z Z                                                         ",
"                                                      ;.! p 0 0 a 7 j Z                                                         ",
"                                                      >.' i u r w w r y                                                         ",
"                                                      >.' 1 u r e e r i                                                         ",
"                                                      >.' < u r e r 0 i                                                         ",
"                                                      >.' < t 9 q 6 0 i                                                         ",
"                                                      >.` > t 9 6 6 8 2                                                         ",
"                                                      >.` > , 8 6 6 8                                                           ",
"                                                      <.` : , 4 6 5 *                                                           ",
"                                                        T : , 4 # 5 @                                                           ",
"                                                          : $ % 3 # @                                                           ",
"                                                            $ @ # @ $                                                           ",
"                                                            X + # @ $                                                           ",
"                                                            X + # @ &                                                           ",
"                                                            = . & & & ;                                                         ",
"                                                            - = . = o                                                           ",
"                                                                                                                                ",
"                                                                                                                                "
};
