/* XPM */
static char *result[] = {
/* columns rows colors chars-per-pixel */
"64 64 249 2 ",
"   c #94670E",
".  c #9B790E",
"X  c #A56304",
"o  c #B36E02",
"O  c #A67C0C",
"+  c #B47302",
"@  c #B97A07",
"#  c #AA7B10",
"$  c #C47B11",
"%  c #CB7609",
"&  c #B68907",
"*  c #BA9415",
"=  c #B38E13",
"-  c #AF9824",
";  c #C6880C",
":  c #D7890A",
">  c #CC9504",
",  c #CC960B",
"<  c #C39208",
"1  c #DE9A03",
"2  c #D89806",
"3  c #CC8715",
"4  c #D59B15",
"5  c #D08E11",
"6  c #E98E0D",
"7  c #F58E05",
"8  c #E69605",
"9  c #EC9602",
"0  c #E59C03",
"q  c #EC9A03",
"w  c #EC940B",
"e  c #EC9B0A",
"r  c #E6990C",
"t  c #F39602",
"y  c #FA9403",
"u  c #F29B02",
"i  c #F2950B",
"p  c #F39C0C",
"a  c #FB9807",
"s  c #EC8E14",
"d  c #EB9513",
"f  c #EC9C13",
"g  c #EC931B",
"h  c #E29A16",
"j  c #F39513",
"k  c #F19B1B",
"l  c #F29D12",
"z  c #CCA805",
"x  c #DDA302",
"c  c #DCAB01",
"v  c #DCA309",
"b  c #D7AA05",
"n  c #D8B306",
"m  c #C1A71B",
"M  c #D4A717",
"N  c #CCB317",
"B  c #D8B616",
"V  c #E5A303",
"C  c #EDA303",
"Z  c #E4AB02",
"A  c #ECAB04",
"S  c #E4A40B",
"D  c #ECA40B",
"F  c #E5AD0B",
"G  c #ECAC0B",
"H  c #F3A303",
"J  c #FAA401",
"K  c #F3AC03",
"L  c #FAAC03",
"P  c #F4A30B",
"I  c #F4AC0B",
"U  c #FAAB0A",
"Y  c #F9A409",
"T  c #E4B401",
"R  c #ECB403",
"E  c #E3BA02",
"W  c #ECBC02",
"Q  c #EDB40A",
"!  c #EDBB0A",
"~  c #E4B60B",
"^  c #F4B403",
"/  c #FAB306",
"(  c #F3BB03",
")  c #FABC04",
"_  c #F4B40A",
"`  c #FAB40A",
"'  c #F5BB0A",
"]  c #FBBA0B",
"[  c #ECA311",
"{  c #EFAE14",
"}  c #E7A719",
"|  c #F3A414",
" . c #F4AC12",
".. c #F2AB1A",
"X. c #FAA514",
"o. c #EBB412",
"O. c #EDBE14",
"+. c #E7B719",
"@. c #F3B414",
"#. c #FAB214",
"$. c #F3BB12",
"%. c #F4BB1A",
"&. c #FDBD1B",
"*. c #F8B51A",
"=. c #D88D22",
"-. c #EF9B21",
";. c #F39F22",
":. c #C8AD23",
">. c #D8AE27",
",. c #D6B527",
"<. c #D0B130",
"1. c #F1AE21",
"2. c #EABA24",
"3. c #F9B723",
"4. c #E7BD34",
"5. c #E9AD25",
"6. c #DDC012",
"7. c #E5C202",
"8. c #ECC302",
"9. c #EDCA01",
"0. c #ECC40A",
"q. c #EECC0C",
"w. c #E6C50A",
"e. c #F4C402",
"r. c #FAC404",
"t. c #F4CB03",
"y. c #FDCC03",
"u. c #F5C50C",
"i. c #FBC40C",
"p. c #F3CC0B",
"a. c #FCCC0C",
"s. c #EED302",
"d. c #ECD406",
"f. c #F5D203",
"g. c #FCD302",
"h. c #F4DA02",
"j. c #FDDC03",
"k. c #F3D20B",
"l. c #FCD30B",
"z. c #F5D80D",
"x. c #FCDC0B",
"c. c #ECCD12",
"v. c #EAC919",
"b. c #F3C313",
"n. c #FDC413",
"m. c #F4CC13",
"M. c #FDCA13",
"N. c #FEC41B",
"B. c #FCCC1C",
"V. c #F4C71C",
"C. c #EFD419",
"Z. c #FCD512",
"A. c #FBDC13",
"S. c #FCD41A",
"D. c #F5D817",
"F. c #FDE403",
"G. c #F5ED01",
"H. c #FEED02",
"J. c #FCE30C",
"K. c #FEEB0A",
"L. c #F6E204",
"P. c #F5F203",
"I. c #FDF402",
"U. c #F6F905",
"Y. c #FDFB03",
"T. c #FDF30C",
"R. c #FDFC0B",
"E. c #F6FA0A",
"W. c #FCE414",
"Q. c #FEEA13",
"!. c #FBE21A",
"~. c #FEEC19",
"^. c #F4E317",
"/. c #FFF215",
"(. c #FCFD15",
"). c #FFF51B",
"_. c #FCFB1B",
"`. c #F3FA1D",
"'. c #DEC338",
"]. c #EECD2A",
"[. c #E8C625",
"{. c #FBC323",
"}. c #F4CC26",
"|. c #FAC922",
" X c #F4C62C",
".X c #F3CA2B",
"XX c #F9CB2E",
"oX c #F9C427",
"OX c #EDD52C",
"+X c #F7D626",
"@X c #EBCB35",
"#X c #EDCB3A",
"$X c #E6C838",
"%X c #F4CA34",
"&X c #F4CB3C",
"*X c #F7C733",
"=X c #ECD433",
"-X c #E8D335",
";X c #F2DB3B",
":X c #F5D837",
">X c #FDE325",
",X c #FBEA25",
"<X c #FDE62A",
"1X c #F8E929",
"2X c #FBFC2B",
"3X c #F9F827",
"4X c #F5E334",
"5X c #FBEC34",
"6X c #FAEC3B",
"7X c #F6E639",
"8X c #FBFB3F",
"9X c #F8F73A",
"0X c #EFF920",
"qX c #D4BC44",
"wX c #ECCA42",
"eX c #E7C748",
"rX c #F3C946",
"tX c #EBD24B",
"yX c #E8D242",
"uX c #F2D143",
"iX c #F6D647",
"pX c #E7CC58",
"aX c #EAD658",
"sX c #F5D759",
"dX c #FBEB44",
"fX c #F6E849",
"gX c #FDFB43",
"hX c #FCF34D",
"jX c #FDF94C",
"kX c #F9F545",
"lX c #F5EB58",
"zX c #F7E757",
"xX c #FBF553",
"cX c #FCF35D",
"vX c #FBFA54",
"bX c #EBDB65",
"nX c #F7D463",
"mX c #EEDB75",
"MX c #F8D976",
"NX c #F9CF74",
"BX c #F7E961",
"VX c #FDF664",
"CX c #FDF866",
"ZX c #F3E777",
"AX c #FEF374",
"SX c #EFE560",
"DX c #F0DD80",
"FX c #F1E68C",
"GX c None",
/* pixels */
"GXGXGXGXGXGXGXGXGXGXGXGXGXGXGXGXGXGXGXGXGXGXGXGXGXGXGXGXGXGXGXGXGXGXGXGXGXGXGXGXGXGXGXGXGXGXGXGXGXGXGXGXGXGXGXGXGXGXGXGXGXGXGXGX",
"GXGXGXGXGXGXGXGXGXGXGXGXGXGXGXGXGXGXGXGXGXGXGXGXGXGXGXGXGXGXGXGXGXGXGXGXGXGXGXGXGXGXGXGXGXGXGXGXGXGXGXGXGXGXGXGXGXGXGXGXGXGXGXGX",
"GXGXGXGXGXGXGXGXGXGXGXGXGXGXGXGXGXGXGXGXGXmXpXtX$X-X=XOXOX4X4X4X5X5X6X6X6XkXfXGXGXGXGXGXGXGXGXGXGXGXGXGXGXGXGXGXGXGXGXGXGXGXGXGX",
"GXGXGXGXGXGXGXGXGXGXGXGXGXGXGXGXGXGXZXbXtX$Xv.v.S.D.A.z.z.x.J.x.x.x.x.J.J.W.1X6XfXlXGXGXGXGXGXGXGXGXGXGXGXGXGXGXGXGXGXGXGXGXGXGX",
"GXGXGXGXGXGXGXGXGXGXGXGXGXGXGXGXFXbXyX-XC.Z.a.a.l.l.a.a.t.r.e.e.e.t.e.t.e.y.z.!.,X1X6XcXGXGXGXGXGXGXGXGXGXGXGXGXGXGXGXGXGXGXGXGX",
"GXGXGXGXGXGXGXGXGXGXGXGXGXGXGXmXtX-Xv.c.p.a.a.y.r.) ] ' / ^ ^ R ^ ^ ^ ^ ) ] ( 0.p.W.~.5XdXGXGXGXGXGXGXGXGXGXGXGXGXGXGXGXGXGXGXGX",
"GXGXGXGXGXGXGXGXGXGXGXGXGXGXnXtXOXc.f.g.y.a.i.] U I K I A I I _ / K I / ` ` ' ( ' 8.z.!.1X5XhXGXGXGXGXGXGXGXGXGXGXGXGXGXGXGXGXGX",
"GXGXGXGXGXGXGXGXGXGXGXGXGXnXrX.Xm.g.g.g.y.y.) K K C K K L ^ K K A K / / ] ) ] ) ' $.O.q.z.Q.3XjXGXGXGXGXGXGXGXGXGXGXGXGXGXGXGXGX",
"GXGXGXGXGXGXGXGXGXGXGXGXNXrXXXN.g.g.g.y.r.) ^ A C A H K K K K K ^ / / ) ( r./ / $.*.@.! 7.s.J.5XxXGXGXGXGXGXGXGXGXGXGXGXGXGXGXGX",
"GXGXGXGXGXGXGXGXGXGXGXNXrX%XB.a.l.l.g.y.) ^ A A A H K K K K K K _ _ R ( ^ ( ^ / ` ] ' ' 8.8.d.1X6XxXGXGXGXGXGXGXGXGXGXGXGXGXGXGX",
"GXGXGXGXGXGXGXGXGXGXMXrX[.m.p.t.j.x.y.) ^ K C H J L J J J L L I K G Q ^ R ( ' / ^ / ( ( W 0.w.c.+X3XgXGXGXGXGXGXGXGXGXGXGXGXGXGX",
"GXGXGXGXGXGXGXGXGXGXiXv.p.s.h.j.j.g.e.( ^ J L Y Y J J J J J I K V Q n.( W R ( ^ ^ ( ) ( ( 0.9.7.d.W.9XGXGXGXGXGXGXGXGXGXGXGXGXGX",
"GXGXGXGXGXGXGXGXGXsX}.p.t.s.G.K.F.e.W R K U U U J J J J Y p U I c p.A.p.R R ^ ^ ) ) ' ( W W W 8.8.k.>XfXGXGXGXGXGXGXGXGXGXGXGXGX",
"GXGXGXGXGXGXGXGXMX Xa.l.s.h.K.Q.f.W R ^ K L U L J J J J X.| ..F n W.).x.W R K ^ / ^ ( ( ( R ( e.( e.Z.+XdXGXGXGXGXGXGXGXGXGXGXGX",
"GXGXGXGXGXGXGXGXsX{.e.f.h.J.Q.J.9.8.W _ / / / L L L J H p X.D b W././.Q.g.W R ^ ^ ^ ) ' ' ' R ( ) ) r.!.6XGXGXGXGXGXGXGXGXGXGXGX",
"GXGXGXGXGXGXGXmXrXb.9.s.J.Q.Q.f.8.( ( _ / L L L L L U Y D D v 7.~.T.I.T.W.8.R ( ^ ^ ^ ' ' ] / ( ) ( ( z.1XlXGXGXGXGXGXGXGXGXGXGX",
"GXGXGXGXGXGXGXbX].l.t.h.Q.Q.J.t.W ( ' ^ / U L L L L I  .D 1 c !./.Y.Y.R./.A.8.R W ^ _ ] ` ` ` ] ( W ( t.A.dXAXGXGXGXGXGXGXGXGXGX",
"GXGXGXGXGXGXMXuXm.g.f.L.Q.~.k.e.e.( ' / / / / L / L  .@.Z c 9./.Y.Y.Y.Y.E.~.z.E T ^ ] #.` / #._ ' ! 0.8.k.<XcXGXGXGXGXGXGXGXGXGX",
"GXGXGXGXGXGXnX}.f.g.h.L.).W.t.e.e.( ' ] ] / / / / K G $.c E W.T.I.Y.Y.U.E.(.~.q.T T ] ] U ` / _ Q ! W 8.t.z.6XAXGXGXGXGXGXGXGXGX",
"GXGXGXGXGXGXrXa.f.f.x././.Z.e.e.e.' ) / ) / / ^ ^ _ Q Z b z.).T.Y.Y.Y.Y.E.E.).W.7.T ^ ] / ` _ _ R ! W ( ( j.+XcXGXGXGXGXGXGXGXGX",
"GXGXGXGXGXMX%Xa.f.f.j./.Q.t.u.e.) r.) ) ) ^ ^ ^ ^ ^ T z w.).T.Y.Y.Y.Y.Y.U.E._.,Xk.E T ( ( ^ ^ _ ' ! W ( W t.A.dXGXGXGXGXGXGXGXGX",
"GXGXGXGXGXnX|.y.g.f.J.J.x.a.e.e.i.r.) ( ^ ) ( ( W W E E W.(.P.I.Y.Y.Y.Y.U.U.T./.W.k.8.E R W R ( ! W ' W ( 8.Z.6XzXGXGXGXGXGXGXGX",
"GXGXGXGXGXiXn.a.f.h.J.J.l.e.u.e.t.r.( ( e.( 8.W ( 8.z.J.K.G.P.P.I.I.I.T.P.P.G.K./.Q.x.f.7.W E W W W ( R ( W p.<XfXGXGXGXGXGXGXGX",
"GXGXGXGXAXOXa.y.l.x.J.l.t.8.e.e.a.r.e.e.W 8.e.y.x.W.J.H.I.I.G.P.H.K.K.H.I.P.G.G.K.Q.Q.Q.A.k.e.e.W R R R ! W e.D.dXGXGXGXGXGXGXGX",
"GXGXGXGXSXC.l.a.p.z.J.l.( e.W e.r.e.e.e.r.g.l.A.A.J.F.H.G.P.G.G.K.J.F.F.H.G.G.F.F.F.L.J.J.W.x.Z.a.i.' $.O.' 8.c.4XCXGXGXGXGXGXGX",
"GXGXGXGXtXc.t.t.t.A.x.e.W ( R ' n.u.p.g.j.F.F.j.l.j.F.H.F.F.F.F.j.F.j.F.F.F.F.F.J.x.J.L.J.L.j.x.k.S.B.$. .Q T 0.1XhXGXGXGXGXGXGX",
"GXGXGXGXyXq.f.9.t.l.l.( ( Q Q @.v v.+Xl.h.h.h.h.x.x.j.j.j.j.j.j.j.j.j.j.j.j.g.j.x.A.l.j.j.F.j.j.x.S.|.1 V V Z 0.>XhXGXGXGXGXGXGX",
"GXGXGXGXwXd.t.t.t.l.l.( ( I @.{ + , |.A.l.g.j.g.l.g.g.g.g.j.g.f.g.j.j.g.g.j.g.l.g.l.k.g.g.j.f.f.S.B.o.> V S V E D.dXGXGXGXGXGXGX",
"GXGXGXGX#Xq.f.y.t.a.y.R ^ _ &...; + 5.|.Z.a.l.f.t.f.g.y.f.g.f.g.g.g.g.g.g.g.g.g.a.g.a.g.f.f.g.f.Z.$.2 1 { D G T k.fXGXGXGXGXGXGX",
"GXGXGXGX#Xk.y.y.y.M.r.R K I #.[ ..+ & oX|.n.i.t.a.l.g.y.y.y.y.y.g.g.g.y.g.g.y.y.y.y.a.g.g.y.y.a.M.o.> S D r V Z m.;XGXGXGXGXGXGX",
"GXGXGXGX#Xp.y.y.t.a.] K L L #. .3.h + h oX|.u.a.l.y.y.y.y.y.y.g.y.y.y.g.y.a.a.y.r.a.y.a.t.y.a.i.$.2 1 [ f q V c c.;XGXGXGXGXGXGX",
"GXGXGXGX#Xp.t.t.r.i.i.^ / J L U #.3.3 + %.{.n.M.a.y.y.y.y.g.y.y.y.y.g.y.y.y.y.y.y.a.y.y.r.i.i.b.F 2 [ [ l p D V 0.;XGXGXGXGXGXGX",
"GXGXGXGX@Xp.r.t.r.i.] K J L L L #.#.[ o 5 {.N.a.r.y.y.y.y.y.y.y.y.a.y.y.y.y.y.r.r.y.y.r.y.n.n.@.2 S D r p | D Z 0.:XGXGXGXGXGXGX",
"GXGXGXGX@Xp.t.t.i.i.i.K H J J L U #.*.4 X { N.i.r.y.y.y.y.y.y.y.y.g.y.y.y.y.y.a.y.y.y.y.a.M.&.S 8 0 P e l P D V 0.=XGXGXGXGXGXGX",
"GXGXGXGX$X0.e.e.i.M.i.K C J J J Y U #...@ @ {.n.a.y.y.y.y.y.y.y.y.y.y.y.y.y.a.y.t.y.g.a.M.n.#.2 0 e q w e P V Z w.=XGXGXGXGXGXGX",
"GXGXGXGX$X0.e.t.i.M.] K C J J J L L U ..} X 4 N.a.r.y.y.y.y.y.y.y.y.y.y.y.y.y.a.g.y.g.y.a.n.S 8 r Y 9 e p H 0 V 0.=XGXGXGXGXGXGX",
"GXGXGXGX'.c.9.e.i.n.i.K H H u J L K I ..1.@ $ &.n.a.a.y.y.y.g.y.y.y.g.y.y.g.g.g.g.g.g.g.a.$.1 8 p p t q p C V Z q.;XGXGXGXGXGXGX",
"GXGXGXGXeXv.9.t.r.n.n.K H P H J H C I | ..4 o } B.l.g.g.g.g.g.g.g.g.g.g.g.g.g.g.g.j.j.g.M.$.2 r e t t q p e V Z k.fXGXGXGXGXGXGX",
"GXGXGXGXpXv.9.e.) n.&./ K H H H C C H P w ;.@ 2 A.J.j.x.l.F.x.j.j.j.j.j.j.j.l.j.j.F.F.j.l.b.e r d f w q e d [ F +XsXGXGXGXGXGXGX",
"GXGXGXGXGX[.9.e.) i.N.' V D H q q q q u w ;.$ , A.F.F.F.F.H.F.F.F.H.F.F.H.F.F.F.F.H.F.F.A.b.0 8 w i i e r d [ F OXzXGXGXGXGXGXGX",
"GXGXGXGXGX$X8.e.) n.N.' V q 9 q q 9 t u t -.$ , Q.K.H.H.H.H.H.I.H.I.H.H.H.H.H.H.H.I.I.H.Q.b.V q q i w p w l D Q :XBXGXGXGXGXGXGX",
"GXGXGXGXGXwXb.) ) ] N.b.V 9 9 9 q t y u t 1.3 > ,XT.I.I.I.I.I.I.I.I.I.I.I.Y.I.I.Y.P.Y.I./.m.V q p t u p 6 e A $.iXGXGXGXGXGXGXGX",
"GXGXGXGXGXeXO.) ^ ) M.b.R q 9 9 t t t u t k $ < 3X).U.U.Y.Y.Y.I.R.R.R.R.R.R.R.R.U.E.R.(.).k.x C u t t i w 8 V b.uXGXGXGXGXGXGXGX",
"GXGXGXGXGXGX2.O.' ( n.p.W p t 9 t i 7 y t l ; & 5X_.(.(.(.(.(.(.(.(.(.(.(.(.(.R.(.(._._.3XC.x 0 H u u j w 0 R }.rXGXGXGXGXGXGXGX",
"GXGXGXGXGXGX4.%.( R e.t.( H 9 t i 7 y y y d ; & 7X3X0X2X2X2X2X2X2X2X0X3X2X3X`.3X`.0X2X3X9XC.c C q t i w p 0 ~ &XGXGXGXGXGXGXGXGX",
"GXGXGXGXGXGXeX2.! E e.t.e.K q 9 i 7 7 y t 6 5 & kX9XgX9X8XgXgX9X9X9XgXkX9XgX9X2X9X8XgX9X9XOXx 0 q a i j r V v.tXGXGXGXGXGXGXGXGX",
"GXGXGXGXGXGXGX4.+.W W 9.M./ C q i i y 7 y j 3 O kXvXkXvXvXhXhXhXcXdX7X7XvXvXgX9XgXjXjXvXxX].v D q i w i 0 o.#XGXGXGXGXGXGXGXGXGX",
"GXGXGXGXGXGXGX'.+.! W W M.n.A 0 i a y y u 6 3 # lXlXCXcXcXVXcXzX,.m * = - :.fXdXxXCXCXCXzX%Xv G | 9 i D Z 2.pXGXGXGXGXGXGXGXGXGX",
"GXGXGXGXGXGXGXGX,.O.! R i.M.R V 9 i 7 y y d $   BXVXVXBXBX'.* = * , 4 4 ; & O * $XsXBXAXVX;Xv V #.l p V Q %XGXGXGXGXGXGXGXGXGXGX",
"GXGXGXGXGXGXGXGX<.F Q A R n.a.A r w a 7 y g =.  nXlXtX4.* = 4 5.} ..1.3.{ +.v * . . - qXeX@Xv x D p q ^ b.uXGXGXGXGXGXGXGXGXGXGX",
"GXGXGXGXGXGXGXGXGX>.+.R T u.S.n.V 9 i 7 i g =.X <.M * ; 4 } f f P e P *. ._ A o.+.M * # O 2 F V 0 [ [ O.].GXGXGXGXGXGXGXGXGXGXGX",
"GXGXGXGXGXGXGXGXGXGX2.R T W M.M._ 0 8 w s g -.% % : r f r d X.p P P P L I _ R ( Q S 1.1.1 V V V x v 2.#XGXGXGXGXGXGXGXGXGXGXGXGX",
"GXGXGXGXGXGXGXGXGXGX>.! T E 0.i.i.K q q i w p q | 9 r f w w i 9 u P H H A A A W R ^ I @.@.G V Z T T C.yXGXGXGXGXGXGXGXGXGXGXGXGX",
"GXGXGXGXGXGXGXGXGXGXGX>.B n n e.a.) C 9 H t t 9 u q r 8 e r u u u H H C A A A A _ ] ^ L K A A T 7.d.C.GXGXGXGXGXGXGXGXGXGXGXGXGX",
"GXGXGXGXGXGXGXGXGXGXGXGX,.M b E r.y.) K u u y t u u 0 0 e p q u u q C C A A _ Q A K K K K A c ~ v.^.GXGXGXGXGXGXGXGXGXGXGXGXGXGX",
"GXGXGXGXGXGXGXGXGXGXGXGXGXN N b E r.y.) H q t j s j q q q 9 t 9 u u H H C C D F Q  .@.L R Z ~ +XdXGXGXGXGXGXGXGXGXGXGXGXGXGXGXGX",
"GXGXGXGXGXGXGXGXGXGXGXGXGXGX:.z z E a.M.] U w j s d 0 q q u u t u u u H C C V R o.{ { G R u.+XdXGXGXGXGXGXGXGXGXGXGXGXGXGXGXGXGX",
"GXGXGXGXGXGXGXGXGXGXGXGXGXGXGX:.N n E b.M.N. .D e q q q t u t t y u t t u H Z c T Q Z T p.>X4XGXGXGXGXGXGXGXGXGXGXGXGXGXGXGXGXGX",
"GXGXGXGXGXGXGXGXGXGXGXGXGXGXGXGX:.N n n u.M.M.] ^ V C q q q 9 t y t q q D C A c n E t.A.<X7XGXGXGXGXGXGXGXGXGXGXGXGXGXGXGXGXGXGX",
"GXGXGXGXGXGXGXGXGXGXGXGXGXGXGXGXGXGXN N n w.p.f.t.( G A 0 q 0 9 q 9 9 0 q C v n w.k.D.1XGXGXGXGXGXGXGXGXGXGXGXGXGXGXGXGXGXGXGXGX",
"GXGXGXGXGXGXGXGXGXGXGXGXGXGXGXGXGXGXGXGXm N w.c.Z.S.|.oX%.@. .I D D S D G o.%.}.:X7XGXGXGXGXGXGXGXGXGXGXGXGXGXGXGXGXGXGXGXGXGXGX",
"GXGXGXGXGXGXGXGXGXGXGXGXGXGXGXGXGXGXGXGXGXGX:.N B [..X.XXXoXoX3.%.%.%.b.V.|..X&XGXGXGXGXGXGXGXGXGXGXGXGXGXGXGXGXGXGXGXGXGXGXGXGX",
"GXGXGXGXGXGXGXGXGXGXGXGXGXGXGXGXGXGXGXGXGXGXGXGXGXGX,.$X&X&X&X*X X X.X.X%XGXGXGXGXGXGXGXGXGXGXGXGXGXGXGXGXGXGXGXGXGXGXGXGXGXGXGX",
"GXGXGXGXGXGXGXGXGXGXGXGXGXGXGXGXGXGXGXGXGXGXGXGXGXGXGXGXGXGXGXGXGXGXGXGXGXGXGXGXGXGXGXGXGXGXGXGXGXGXGXGXGXGXGXGXGXGXGXGXGXGXGXGX"
};
