/* XPM */
static char *_39080fd92a44147d9046d18e755a8a0edPaCCHIaPFDFUp9[] = {
/* columns rows colors chars-per-pixel */
"64 64 248 2 ",
"   c None",
".  c #985700",
"X  c #A25B02",
"o  c #9D700F",
"O  c #A46302",
"+  c #AA6804",
"@  c #B26A04",
"#  c #BA750B",
"$  c #B67808",
"%  c #A87813",
"&  c #B07E19",
"*  c #C47B0B",
"=  c #BD870B",
"-  c #AC8614",
";  c #B98A12",
":  c #B68E12",
">  c #BC8D22",
",  c #B49327",
"<  c #B6A130",
"1  c #C6860B",
"2  c #CB9408",
"3  c #D79401",
"4  c #DD9B02",
"5  c #DA9808",
"6  c #CB8B12",
"7  c #C48418",
"8  c #D68B13",
"9  c #CB9719",
"0  c #D89716",
"q  c #ED8E0C",
"w  c #EA8E0B",
"e  c #F38E0E",
"r  c #E59403",
"t  c #EC9503",
"y  c #E59B03",
"u  c #EA9B03",
"i  c #E6940C",
"p  c #EB940B",
"a  c #E59B0C",
"s  c #EB9B0B",
"d  c #F29404",
"f  c #F19C03",
"g  c #F2930C",
"h  c #F39D0C",
"j  c #FA9F08",
"k  c #E69412",
"l  c #EB9413",
"z  c #ED9B12",
"x  c #E79B19",
"c  c #F39115",
"v  c #F19B12",
"b  c #F29719",
"n  c #F18D11",
"m  c #CDA705",
"M  c #D4A304",
"N  c #DCA401",
"B  c #DDAB02",
"V  c #DDA60D",
"C  c #DAAA08",
"Z  c #DCB402",
"A  c #D8B40A",
"S  c #DAA413",
"D  c #E5A403",
"F  c #EBA302",
"G  c #E4AA03",
"H  c #ECAC03",
"J  c #E6A30A",
"K  c #ECA40B",
"L  c #E5AC0A",
"P  c #EAAC0B",
"I  c #F3A303",
"U  c #FAA403",
"Y  c #F2AB04",
"T  c #F3A40B",
"R  c #F4AC0B",
"E  c #F9AE0A",
"W  c #F9A709",
"Q  c #E5B501",
"!  c #ECB403",
"~  c #E5BB01",
"^  c #ECBB03",
"/  c #E6B10B",
"(  c #ECB30C",
")  c #EDBB0B",
"_  c #E6BC0C",
"`  c #F2B304",
"'  c #F9B302",
"]  c #F3BB04",
"[  c #F3B40B",
"{  c #FAB20A",
"}  c #F3BB0B",
"|  c #FAB908",
" . c #E2A313",
".. c #EDA412",
"X. c #ECAC13",
"o. c #EEA41B",
"O. c #EBAD1A",
"+. c #F4A412",
"@. c #F3AB13",
"#. c #F6A919",
"$. c #ECB212",
"%. c #EDBA13",
"&. c #E9B818",
"*. c #F4B312",
"=. c #FAB611",
"-. c #F3BA12",
";. c #F9BD14",
":. c #F5B41A",
">. c #F5BD1D",
",. c #C89726",
"<. c #D19B2E",
"1. c #D09A31",
"2. c #D6A438",
"3. c #D1B732",
"4. c #E5A924",
"5. c #F5AB21",
"6. c #EBB224",
"7. c #F4BB22",
"8. c #E2BF37",
"9. c #DCC219",
"0. c #E6C203",
"q. c #EBC303",
"w. c #E7CA02",
"e. c #ECCC03",
"r. c #EDC20A",
"t. c #E9CA0B",
"y. c #F2C203",
"u. c #F6CD03",
"i. c #FACB05",
"p. c #F3C20B",
"a. c #FBC60B",
"s. c #F3CC0C",
"d. c #FBCB0B",
"f. c #ECD304",
"g. c #EDD50B",
"h. c #EDD801",
"j. c #F4D203",
"k. c #FAD404",
"l. c #F5DB03",
"z. c #FBDB04",
"x. c #F3D50A",
"c. c #FBD40B",
"v. c #F5DB0A",
"b. c #FADC0C",
"n. c #EEC311",
"m. c #EDC91A",
"M. c #F3C413",
"N. c #FCC614",
"B. c #F3CA14",
"V. c #FBCC14",
"C. c #F4C31B",
"Z. c #FAC41D",
"A. c #F4CC1A",
"S. c #FBCC1C",
"D. c #ECD719",
"F. c #F4D513",
"G. c #F2DB14",
"H. c #FCDC13",
"J. c #F4DC1A",
"K. c #F9D518",
"L. c #F5E203",
"P. c #FBE303",
"I. c #F6EC04",
"U. c #FCEA04",
"Y. c #FCE30B",
"T. c #FDEB0C",
"R. c #F4E50C",
"E. c #F6F502",
"W. c #FCF204",
"Q. c #F5FA03",
"!. c #FBFB05",
"~. c #FCF40A",
"^. c #F5FC0B",
"/. c #FBFA0A",
"(. c #F4F50D",
"). c #EFE113",
"_. c #FDE413",
"`. c #FDEC13",
"'. c #F5E41B",
"]. c #FBE61C",
"[. c #FCEC1E",
"{. c #F5E817",
"}. c #FCF413",
"|. c #F6FA15",
" X c #FBFA14",
".X c #FFF21B",
"XX c #F2FD1A",
"oX c #EFF800",
"OX c #DAC237",
"+X c #EDC928",
"@X c #F2C422",
"#X c #F1CD21",
"$X c #FAC828",
"%X c #EDD427",
"&X c #F6D725",
"*X c #E6CD31",
"=X c #EBCE33",
"-X c #E9C838",
";X c #F4C836",
":X c #ECD133",
">X c #ECD43C",
",X c #E8D833",
"<X c #F3D936",
"1X c #EEE22A",
"2X c #F4E425",
"3X c #F6EC23",
"4X c #FBEB21",
"5X c #F7E42D",
"6X c #FDEB2C",
"7X c #F8E727",
"8X c #F6F925",
"9X c #F5F92A",
"0X c #F9F428",
"qX c #ECE03D",
"wX c #F4EC32",
"eX c #FBEE34",
"rX c #F6E83A",
"tX c #F9F73A",
"yX c #EEFE36",
"uX c #DDB243",
"iX c #EEDB48",
"pX c #EBD754",
"aX c #F4DD56",
"sX c #F0CF48",
"dX c #EEEC46",
"fX c #F1E444",
"gX c #F7E947",
"hX c #F4F344",
"jX c #FEF543",
"kX c #F6FB44",
"lX c #F9F54B",
"zX c #F9F948",
"xX c #F4E454",
"cX c #FAEE54",
"vX c #F6EB5A",
"bX c #F4F454",
"nX c #FCF553",
"mX c #FCF45C",
"MX c #F9F959",
"NX c #EDD76D",
"BX c #EDE466",
"VX c #F8E865",
"CX c #F6F164",
"ZX c #FDF264",
"AX c #FFF968",
"SX c #F4E277",
"DX c #FEF673",
"FX c #FBEE8C",
/* pixels */
"                                                      FXSXVXxXxXqXrXhXzXDXFX                                                    ",
"                                              BXvXxXiXiX>X5X5X2X2X3X3XwXgXbXmXZX                                                ",
"                                          NXiX,XD.g.g.x.f.j.j.j.x.x.x.G.G.'.3X3X3XrXmX                                          ",
"                                      pXiX:X:X$XB.u.q.q.^ ~ ! ! ^ ) $.$.r.e.j.l.L.I.[.rXmX                                      ",
"                                  NX-Xm.s.s.-.( ) H G H ! Y Y ' R E @.[ ` ] ^ q.e.j.v.G.5XgXcX                                  ",
"                              SXpX:XA.r.! Y H F P K P R Y Y Y Y ' E { { { [ } ! ) ^ w.F.4X4X].6XbX                              ",
"                            BX,XD.s.^ R T Y U U I ..T T Y Y Y Y Y ' ' ' ' ' ` } :.&.m._ r.g.R.`.wXbX                            ",
"                          pX,XG.e.! G K h h f U I T R R Y H Y ` ' Y ` ` ` ' ] [ %.%.&._ ~ 0.f.l.[.wXdX                          ",
"                        fX%XG.s.! H K h h W U U Y Y R I H P P *.P J P P ! ` ` ] ] ^ ^ q.q.q.q.j.g.).3XlX                        ",
"                      xX%XF.t.Q ! T #.o.+.h I Y I I I Y H H ) G L %./ ( [ [ ` ! ` ^ ] ] y.y.q.y.q.w.).8XhX                      ",
"                    vX1XF.p.! ! *.T +.+.T f I F U I Y I H H G M m.&XQ ( [ P H ` ` ' ] ` ] } ] ] p.0.w.R.3XhX                    ",
"                  CX5X'.B.} ( [ R E E Y Y Y I R W j h K ..P M _ &X6XF.~ Q H ! ` ` ` { ` { =.*.[ ! r.0.w.I.3XrX                  ",
"                CXwX'.F.) [ ( R [ R Y Y Y Y H F j j h +...M A 4X[..X.Xg.Z ~ Q ! ` { E { =.{ } [ ` ] ] y.k.Y.[.jX                ",
"                xX{.g.t.) [ R [ R R Y Y H Y Y Y U j T o.S m D.[.}.~.}.`.f.Z ~ ] ` ' { { { { [ [ ] ] | ] y.k.`.eXAX              ",
"              CXrX{.e.r.) [ [ ( [ [ R Y Y Y W Y W W s L M D.4XI.~. X/. X{.w.~ ! ! ' ' E { [ [ } ] ] | ] y.y.Y.6XnX              ",
"              vXeXG.w.r.} -.[ [ [ [ R R Y Y R Y K R [ M 9.4X}. X/./.(.(.`._.q.Z H ` Y [ { { -.} ] | } p.p.y.e.&XtXCX            ",
"            VXwX{.e.0.r.} } } [ [ [ [ R E R W Y ( L M A 3X`.W.Q.Q.oX^. X}..Xv.~ Q H ! ` } =.} [ ] ] } -.p.p.q.g.3XhX            ",
"            rX4Xl.q.) p.p.} } } } ` [ ` ` E Y Y ! m A ].`.~.!.E.oXQ.Q.^.~.}.`.k.^ ! ! ! ` ! ` ^ ] ] -.-.-.) _ e.R.3XvX          ",
"          BXwXY.j.r.a.} p.} p.) ^ [ } [ [ ` [ H M m G..XI./.!.!.Q.Q.^./.W.T.`.Y.j.~ ^ ! ! ! ! ^ ^ ^ -.-.-.} ) t.h.`.rX          ",
"          xX'.l.u.p.} a.p.p.) ^ ^ ` } ] ] ! ` ] A t.`.}.W.W.E.E.E.Q.Q.W.W.W.T.`._.k.q.^ ~ Q ~ ^ ^ ^ ( [ } } ) ^ w.{.eXVX        ",
"          rXJ.e.^ p.] y.y.^ ^ p.^ ^ ^ ] ] y.y.d.H.4X}.U.U.P.U.I.I.I.E.E.W.U.U.T._._._.H.d.e.^ Z Q Q ! } [ } ) q.e.v.7XgX        ",
"        iX&XK.^ ) } ! y.p.r.^ y.y.^ q.s.c.c.b.].].Y.P.P.U.U.U.Y.T.T.U.U.U.U.U.U.Y._._.H.b.b.v.e.q.^ ^ ! ! ` ] } r.n.J.5X        ",
"        >XG.s.) %.} ^ ] d.p.^ r.s.j.c.b.b.b.b.b.Y.l.P.U.P.P.b.Y._.P.P.P.P.P.P.P.Y.Y.z.z.b.{._.R.H.K.i.] } | ] ) V &.K.'.        ",
"        <Xs.r./ $.! ^ ] ) M.V.c.H.H.b.k.z.l.z.P.P.P.P.z.P.z.b.H.b.z.z.l.z.L.l.z.b.Y.b.b.l.v.l.l.F.H.c.V.S.H H [ S A 0.`.CX      ",
"      iX&XB.! H @.! } N 1 6.S.k.c.b.x.x.v.l.l.l.z.z.z.k.k.z.k.k.k.c.z.k.z.z.k.k.k.k.k.z.z.z.z.z.c.s.d.S.C.3 y @.K C 0.{.lX      ",
"      <XK.p.` H [ Y } V O 6 Z.d.u.k.H.x.j.j.j.j.j.j.i.k.k.j.k.k.k.k.i.k.j.j.k.c.i.i.i.i.i.i.j.j.j.F.B.B.5 5 +.+.K G ~ H.eX      ",
"      ,XB.} Y Y E ` } P 1 O S $XB.u.j.f.e.j.j.u.j.u.u.u.u.i.u.i.u.u.u.i.u.u.u.i.i.i.i.i.i.u.j.j.s.V.B.C 2 a ..h K G Q G.wX      ",
"      *XF.} F Y @.R [ *.:.# X 6.S.u.u.u.u.c.i.k.i.i.i.i.i.u.i.i.u.i.u.i.u.u.s.i.i.i.i.i.i.k.i.k.d.S._ 2 J s v z u G Z x.7X      ",
"      :XA.} F I T R R @.:. .@ # 7.S.i.i.c.d.d.i.u.u.i.i.i.y.i.i.i.d.i.i.i.d.i.i.i.i.i.i.i.i.a.d.S.C.2 V 4 s ..z u D B x.'.      ",
"      =XS.] F I h W F K :.5.0 X 1 >.V.i.i.i.d.i.i.i.i.d.i.i.i.i.i.i.i.i.i.i.i.i.i.i.a.a.a.a.a.N.N.$.2 D J a l z s D B s.J.qX    ",
"      *XB.` u u h I W @.X.O.o.8 O 0 >.a.i.i.d.V.a.i.i.i.i.i.d.a.i.a.a.i.i.i.i.i.i.i.i.a.a.a.V.N.[ 3 4 D K z z z J D B t.G.qX    ",
"      *XB.` F f h I T @.+.@.:.5.* @ 5.S.y.i.k.N.a.i.d.i.d.i.i.i.i.i.i.d.i.i.i.i.i.i.i.i.a.N.N.-.y 3 4 y K s v z s F G s.'.      ",
"      *XB.` F f f I I W T +.@.#.b @ # 7.d.i.s.s.i.i.i.i.u.i.i.i.i.i.i.u.u.i.i.i.i.i.i.u.a.V.;.D 4 s y K y s z v s F G s.&X      ",
"      =Xm.] Y I h u K F T T E @.5.0 X 6 $Xp.s.e.u.u.u.u.u.u.u.u.i.i.i.u.i.i.i.i.u.u.k.i.a.V.-.3 u u y K r s s v f D H s.eX      ",
"      >XA.} I I f I F u s F W s o.b * O 6.A.x.j.j.j.j.i.i.i.k.k.j.i.k.i.i.i.k.j.j.j.k.k.a.S.[ 3 u r r u r y s h s F ! V.rX      ",
"        &X-.H I f I F F u u u s s K  .. 2.$Xj.l.l.k.k.z.k.z.k.k.z.k.k.z.z.z.z.k.z.j.z.j.c.V.-.4 u r u r y t p h s F ! V.gX      ",
"        +XM.[ I f h y y s t t u u a J O 1.&Xz.P.L.l.L.L.P.b.P.P.P.z.z.z.z.Y.b.Y.Y.P.L.L.z.H.p.N u u i y u u i b x 5 Q F.        ",
"        >XA.` s h i r u s p u u u x a + <.J.T.P.I.I.I.I.U.U.U.Y.U.U.U.U.U.U.T.Y.T.I.I.I.I._.M.N u u u r y r t z x  ._ J.        ",
"          A.] u b l r y i p t t t z a + <.6X~.U.~.W.T.W.~.W.W.W.W.W.W.W.W.W.~.T.~.W.!.W.~.].B.D y u u a r r r p k X.M.%X        ",
"          #Xy.u k b i r i t t d d s y @ ,.eX}. X~.~.~.~.~./././.^./.^./.!.!./.~.~.!.W.W..X[.B.N u u u s p w t r y / $X;X        ",
"          =Xa.H l l p t i p t d g g p $ ,.eXXXXX X X X X X X XXXXXXXXXXX X X X X X X X|..X6XA.N u u u p k l u y D } $X          ",
"            B.] s w p t i t d d g n p # ; gX9XyX9X9X8X8X8X8X8X9X9X9X9X8X9X9X8X9X9X9X9XtXtXeX#XB F u u s l l u y D C.sX          ",
"            :XN.' r t t i t t e e e p # > jXtXyXtXyXyXtXtXjXtXjXjXtXtXjXzXhXzXzXkXkXkXkXjXlX%XM F f u u l z y y ] C.            ",
"              @X! K r u i t d d e n v # & gXzXbXbXMXbXlXnXnXnXgX-X3.OXiXmXAXAXmXMXbXbXmXmXmX:XV F f u J x a y ! M.-X            ",
"              -X;.:.y y t t t d q w l * % vXcXmXAXmXmXmXxXOX< 9 9 ; $ = , < OXvXZXZXCXDXZXZXsXL F f u K J N L A.;X              ",
"                8.$XJ 4 t t d d n k z * + aXZXDXVXpX8.9 : 2 2 5  .O.O.0 ,.- - % - 3.pXBXVXVX;X5 u f u K D N ( ;X                ",
"                  ;X( D u t t t w k b * + sXpXuX9 = 1 0 0  . .X.X.K ..@.O.:. . .S = o - <.uX4.z f I y D D Q M.                  ",
"                    C.[ u d d g l k x 8 X 6 7 * 0 k a k a y a s K @.@.K P K K H P O.4.9 6 # 8 b T I a D Q s.&X                  ",
"                    :X@X@.f d d p l l k 8 k i k w p q t h h h h z z x #.K Y [ ` H ! / L &.&.O.P K F H Q t.%X                    ",
"                      >X$XU u t p z w w q q q t t q d d d d f t p a o.o.P H P ( ) / / L N L B C P G ~ u.&X                      ",
"                        $X>.*.J r p t q g q e g p u u u u u u y y F D D D G G P P P P P L L G L $.n.F.J.                        ",
"                          ;X@X( H u t q c c e q p i i i i i s s K D D D G K D P P P $.( P P L $.t.K.<X                          ",
"                            -Xm.a.' u t c c g p a l k k l k k i y y D D D F F P X.$.$.P G ! ^ c.].1X                            ",
"                                A.a.| f p h p r u t p p w l p l p y K u s K K K K L C Q w.x.Y.`.0X                              ",
"                                  ;X$XN.[ Y y y u t t t q n w p p p s s b z K D D Z ~ f._.[.0X                                  ",
"                                      $X$XC.%.L s u t t t t s d t t i u l s F H ^ e.f.).wX                                      ",
"                                          =X+Xm.N.=.[ R Y H Y D D F D H H } s.c.F.G.).                                          ",
"                                                +X@XA.S.M.y.^ r._ r.n.M.j.x.F.                                                  ",
"                                                            +X+X                                                                ",
"                                                                                                                                ",
"                                                                                                                                ",
"                                                                                                                                ",
"                                                                                                                                ",
"                                                                                                                                "
};
