/* XPM */
static char *result[] = {
/* columns rows colors chars-per-pixel */
"53 64 237 2 ",
"   c #AE7709",
".  c #A27D1A",
"X  c #CC7905",
"o  c #AD8B03",
"O  c #B78407",
"+  c #AF8A12",
"@  c #BC9114",
"#  c #B99205",
"$  c #BCA402",
"%  c #C78906",
"&  c #D68803",
"*  c #CB9303",
"=  c #C19905",
"-  c #DC9B0C",
";  c #DA9705",
":  c #DB9A13",
">  c #C88814",
",  c #E88E04",
"<  c #E59503",
"1  c #EB9501",
"2  c #E59B04",
"3  c #EC9B03",
"4  c #ED950A",
"5  c #E49E0B",
"6  c #ED9C0B",
"7  c #E7950C",
"8  c #F39403",
"9  c #F39B02",
"0  c #F2950B",
"q  c #F29D0B",
"w  c #F89706",
"e  c #E29E13",
"r  c #EB9913",
"t  c #F19F13",
"y  c #CDA501",
"u  c #CDAC02",
"i  c #CAAA06",
"p  c #D4A502",
"a  c #DAA404",
"s  c #D3AB02",
"d  c #DBAB03",
"f  c #DDA20B",
"g  c #D4AB0A",
"h  c #DCAC0C",
"j  c #CDB203",
"k  c #CDB40D",
"l  c #D4B303",
"z  c #DCB305",
"x  c #DDBB03",
"c  c #D6B10A",
"v  c #DBB40A",
"b  c #DBBA0A",
"n  c #C9A81B",
"m  c #D9A717",
"M  c #CCB41A",
"N  c #DDB114",
"B  c #D5B319",
"V  c #E4A403",
"C  c #ECA403",
"Z  c #E3AA03",
"A  c #ECAC02",
"S  c #E4A40C",
"D  c #EAA40A",
"F  c #E6AE08",
"G  c #ECAB0C",
"H  c #F2A303",
"J  c #FAA203",
"K  c #F3AB04",
"L  c #FAAC06",
"P  c #F2A40B",
"I  c #FAA20C",
"U  c #F3AB0B",
"Y  c #FBAC0B",
"T  c #E3B403",
"R  c #EBB402",
"E  c #E4BC01",
"W  c #ECBB02",
"Q  c #E2B30B",
"!  c #ECB30C",
"~  c #E5BE0C",
"^  c #ECBB0B",
"/  c #F3B302",
"(  c #F9B404",
")  c #F3BC02",
"_  c #FBBE05",
"`  c #F2B40D",
"'  c #FDB10C",
"]  c #F3BC0A",
"[  c #FBBC0B",
"{  c #E6A415",
"}  c #EDA314",
"|  c #EDAD14",
" . c #E4A91C",
".. c #E4A817",
"X. c #F1A312",
"o. c #F4AC12",
"O. c #F6A817",
"+. c #E6BF12",
"@. c #ECBA13",
"#. c #E7B317",
"$. c #F2B212",
"%. c #FDB414",
"&. c #FABB15",
"*. c #F4B61A",
"=. c #FBB41A",
"-. c #FDBC1A",
";. c #F3BB17",
":. c #CFA222",
">. c #C9AE29",
",. c #DDAC25",
"<. c #CCB826",
"1. c #D4B626",
"2. c #D4AF3A",
"3. c #DBB534",
"4. c #E7A522",
"5. c #EBBD23",
"6. c #E7BA2B",
"7. c #E8BC33",
"8. c #E0B938",
"9. c #E4C403",
"0. c #EDC302",
"q. c #EDCB04",
"w. c #ECCA0A",
"e. c #E3C909",
"r. c #F4C303",
"t. c #FCC505",
"y. c #F4CB03",
"u. c #FCCC03",
"i. c #F5C30A",
"p. c #FDC40B",
"a. c #F6CA0B",
"s. c #FDCC0B",
"d. c #ECD806",
"f. c #F5D203",
"g. c #FDD203",
"h. c #FEDB03",
"j. c #F6D10A",
"k. c #FDD20B",
"l. c #FDDC0C",
"z. c #E5C212",
"x. c #EEC11C",
"c. c #E8C819",
"v. c #F3C314",
"b. c #FBC513",
"n. c #FCCC13",
"m. c #FCC41A",
"M. c #F2C91B",
"N. c #FBCB1B",
"B. c #F3C917",
"V. c #EED41D",
"C. c #FBD312",
"Z. c #FDDC13",
"A. c #F2D41F",
"S. c #F9D819",
"D. c #FEE202",
"F. c #FCEA02",
"G. c #FCEC0A",
"H. c #F6E406",
"J. c #FEF204",
"K. c #FEF30D",
"L. c #FCFA0A",
"P. c #FEE315",
"I. c #FDEE11",
"U. c #FCE41C",
"Y. c #FEED1B",
"T. c #FEF313",
"R. c #FCFE14",
"E. c #FEF21B",
"W. c #FBFF1E",
"Q. c #F6FA1B",
"!. c #DFCA35",
"~. c #E9C523",
"^. c #ECC62A",
"/. c #E9CB26",
"(. c #F1C823",
"). c #FACD21",
"_. c #F3C528",
"`. c #ECD320",
"'. c #ECD32D",
"]. c #EEDC2A",
"[. c #FED521",
"{. c #F7D723",
"}. c #EEC932",
"|. c #EBC937",
" X c #E9D539",
".X c #F3D634",
"XX c #F2C939",
"oX c #ECE728",
"OX c #FDEB23",
"+X c #F9E72A",
"@X c #F7FA26",
"#X c #FBFD23",
"$X c #FAFC29",
"%X c #F9F524",
"&X c #FBE936",
"*X c #FBF536",
"=X c #FCFC34",
"-X c #FCFA3B",
";X c #EABB45",
":X c #DFD047",
">X c #EFC844",
",X c #E4CC4B",
"<X c #E9C746",
"1X c #F2CD47",
"2X c #E6D546",
"3X c #F5DE4C",
"4X c #ECCB59",
"5X c #F0CC52",
"6X c #F2CE5C",
"7X c #EBD454",
"8X c #F6DC5A",
"9X c #F5D053",
"0X c #EEE047",
"qX c #FCEE4B",
"wX c #F8E949",
"eX c #FBF242",
"rX c #FEFA4A",
"tX c #FCE758",
"yX c #FEF559",
"uX c #EDCD6A",
"iX c #E9D869",
"pX c #F5DA6C",
"aX c #F5D668",
"sX c #ECD77B",
"dX c #F5DB79",
"fX c #FFF165",
"gX c #FCE56F",
"hX c #F9DB85",
"jX c #E6DE84",
"kX c #ECE181",
"lX c #F7E288",
"zX c #E8E290",
"xX c #FDE796",
"cX c #FAEA9E",
"vX c #FEEFB1",
"bX c #FAE9A6",
"nX c None",
/* pixels */
"nXnXnXnXnXnXnXnXnXnXnXnXnXnXnXnXnXnXnXnXnXnXnXnXnXnXnXnXnXnXnXnXnXnXnXnXnXnXnXnXnXnXnXnXnXnXnXnXnXnXnXnXnX",
"nXnXnXnXnXnXnXnXnXnXnXnXnXnXnXnXnXnXnXnXzXjXkXkXkXsXsXsXiXnXnXnXnXnXnXnXnXnXnXnXnXnXnXnXnXnXnXnXnXnXnXnXnX",
"nXnXnXnXnXnXnXnXnXnXnXnXnXnXnXnXnXvXcXlXiX:X!./.^.^.~.`.`.oXoXoXnXnXnXnXnXnXnXnXnXnXnXnXnXnXnXnXnXnXnXnXnX",
"nXnXnXnXnXnXnXnXnXnXnXnXnXnXnXnXxXpX7X X'.A.S.q.y.r.u.g.h.H.H.d.oX3XnXnXnXnXnXnXnXnXnXnXnXnXnXnXnXnXnXnXnX",
"nXnXnXnXnXnXnXnXnXnXnXnXnXnXnXxX8X.Xc.e.f.f.y.u.u.t.s.p.s.r.w.w.c.`.].eXnXnXnXnXnXnXnXnXnXnXnXnXnXnXnXnXnX",
"nXnXnXnXnXnXnXnXnXnXnXnXnXnXbXiX/.B.a.g.f.g.u.u.t.b.-.-.$.! ! ^ W 0.f.U.qXnXnXnXnXnXnXnXnXnXnXnXnXnXnXnXnX",
"nXnXnXnXnXnXnXnXnXnXnXnXnXvXhX,X(.s.g.f.f.y.u.u.t.( ' %.C A ` ] ] R 0.q.'.nXnXnXnXnXnXnXnXnXnXnXnXnXnXnXnX",
"nXnXnXnXnXnXnXnXnXnXnXnXnXhX7X}.M.a.u.g.y.g.u.g.p.( L Y C A ] i.[ / 0.0./.8XnXnXnXnXnXnXnXnXnXnXnXnXnXnXnX",
"nXnXnXnXnXnXnXnXnXnXnXnXxX4X}.N.N.n.s.y.g.g.k.s.[ U P P G G ` ` ] ] ) 0.+. XgXnXnXnXnXnXnXnXnXnXnXnXnXnXnX",
"nXnXnXnXnXnXnXnXnXnXnXnXaX}.v.C.n.s.u.u.g.g.k.p.K P } } O.o.| ! ` [ ] W e./.8XnXnXnXnXnXnXnXnXnXnXnXnXnXnX",
"nXnXnXnXnXnXnXnXnXnXnXhX1XM.s.u.u.u.g.u.g.h.g.t.Z U q P =.U A / / [ ` ~ 0.e.`.nXnXnXnXnXnXnXnXnXnXnXnXnXnX",
"nXnXnXnXnXnXnXnXnXnXnXaX}.s.u.u.u.u.g.u.g.h.g.) A L H H L / / t.W r.^ ^ 0.x e..XnXnXnXnXnXnXnXnXnXnXnXnXnX",
"nXnXnXnXnXnXnXnXnXnXhX>XN.k.s.s.u.u.u.g.g.P.r./ L 9 J L C _ 0.Z.x r.R [ ) ) i.c.nXnXnXnXnXnXnXnXnXnXnXnXnX",
"nXnXnXnXnXnXnXnXnXnXaX}.k.g.u.s.u.t.g.g.j.Z.r./ L J J L C R y.Y.9.0.R &.( _ ) z.nXnXnXnXnXnXnXnXnXnXnXnXnX",
"nXnXnXnXnXnXnXnXnXnX6X(.g.g.u.t.u.t.g.f.P.g.r./ ' L L J A d P.Y.S.x R b.K p.W +.nXnXnXnXnXnXnXnXnXnXnXnXnX",
"nXnXnXnXnXnXnXnXnXhX>XM.g.g.u.t.u.u.g.g.P.y.r./ ( ' L K A z Y.OXY.x R p.R [ R ^ nXnXnXnXnXnXnXnXnXnXnXnXnX",
"nXnXnXnXnXnXnXnXnXuX|.n.g.g.g.u.u.u.y.l.P.0.y.) / L / Z R q.Y.E.OXw.E t.A / R +.nXnXnXnXnXnXnXnXnXnXnXnXnX",
"nXnXnXnXnXnXnXnXnX4X^.n.u.u.g.u.y.g.q.P.g.0.W ) ] K R R E P.I.T.Y.S.E W R R W ^ nXnXnXnXnXnXnXnXnXnXnXnXnX",
"nXnXnXnXnXnXnXnXnX5X(.s.u.u.u.u.y.f.y.P.g.0.r.r.] R T W 9.E.T.T.OXU.9.W T R W ^ nXnXnXnXnXnXnXnXnXnXnXnXnX",
"nXnXnXnXnXnXnXnXdX1XN.s.u.u.s.s.y.y.y.P.u.0.r.) i.W z 9.q.T.T.K.%XP.f.0.T R ^ v.~ nXnXnXnXnXnXnXnXnXnXnXnX",
"nXnXnXnXnXnXnXnXpXXXb.s.t.t.s.n.y.f.u.P.y.r.r.r.i.0.E x H.T.L.K.E.Y.D.y.E T ^ b.W nXnXnXnXnXnXnXnXnXnXnXnX",
"nXnXnXnXnXnXnXnX6X}.a.u.t.t.n.a.a.y.k.Z.r.u.) _ W 0.w.e.E.K.G.K.G.T.G.h.0.T ! ] W nXnXnXnXnXnXnXnXnXnXnXnX",
"nXnXnXnXnXnXnXnX5XM.u.u.u.t.n.a.y.q.g.k.r.t._ t.W w.Z.P.E.G.F.J.D.G.J.F.k.i.^ R W z.nXnXnXnXnXnXnXnXnXnXnX",
"nXnXnXnXnXnXnXnX>Xb.g.u.u.u.s.a.y.0.s.u.) t.) t.j.j.Z.%XH.G.F.F.G.F.F.F.Z.S.b.] W 0.nXnXnXnXnXnXnXnXnXnXnX",
"nXnXnXnXnXnXnXpX'.y.u.g.u.u.s.u.0.y.u.u./ t.r.y.Z.l.l.G.D.D.F.D.D.D.h.h.h.k.[.B.W z nXnXnXnXnXnXnXnXnXnXnX",
"nXnXnXnXnXnXnX7X`.f.u.n.p.t.s.u.q.0.s.r.W R s.y.Z.l.D.D.D.D.h.h.g.h.g.h.g.u.[.N.z s nXnXnXnXnXnXnXnXnXnXnX",
"nXnXnXnXnXnXnX7XA.y.s.s.t.t.s.u.r.0.a.] ] Z T C.C.l.l.h.l.g.h.g.g.g.g.h.g.u.S.;.p p nXnXnXnXnXnXnXnXnXnXnX",
"nXnXnXnXnXnXnX,XA.y.t.s._ t.a.a.W a.b.R $.$.O ).n.n.j.j.g.g.s.u.g.g.u.g.g.k.).! p p nXnXnXnXnXnXnXnXnXnXnX",
"nXnXnXnXnXnXnX,X{.y.t.s.t._ y.r.W b.N.A $.-.  $.N.n.a.j.u.u.t.u.u.u.u.u.u.s.b.Z Z s nXnXnXnXnXnXnXnXnXnXnX",
"nXnXnXnXnXnXnX,XA.y.s.s.t.r.r.W W i.N.V *.*.< ; N.b.s.s.u.a.u.s.u.g.y.u.u.s.b.; Q * nXnXnXnXnXnXnXnXnXnXnX",
"nXnXnXnXnXnXnX,XA.y.t.p._ ) r.0.0.W n.A P o.=.% N.b.n.s.u.g.s.u.u.u.s.u.s.n.$.V Z a nXnXnXnXnXnXnXnXnXnXnX",
"nXnXnXnXnXnXnX,XA.u.t.p.t.) 0.0.W W p./ C o.%.% &.i.s.k.g.k.u.u.g.y.k.s.k.p.C S V f nXnXnXnXnXnXnXnXnXnXnX",
"nXnXnXnXnXnXnX,XM.t.t.[ t.W 0.W W W i./ K H Y ; V b.s.u.g.g.u.u.u.u.s.s.s._ 2 2 2 S ,.nXnXnXnXnXnXnXnXnXnX",
"nXnXnXnXnXnXnX,Xc.t.t.t.t.) E 9.0.T p./ K P Y U * b.t.u.g.u.u.u.u.y.u.u.u.( 2 D D { ,.nXnXnXnXnXnXnXnXnXnX",
"nXnXnXnXnXnXnXnXB.r._ _ _ W E E E T b.A U o.O.%.& ] n.u.k.u.g.u.g.y.u.s.u./ 2 D D { nXnXnXnXnXnXnXnXnXnXnX",
"nXnXnXnXnXnXnXnXM.r._ _ ) W E E E T N.V G O.X.=.& Z n.s.u.g.u.g.g.u.g.u.t.K < X.2 S nXnXnXnXnXnXnXnXnXnXnX",
"nXnXnXnXnXnXnXnX(.i.) ) ) W x 9.E T N.C K I P o.2 ; N.k.j.h.g.h.h.g.h.g.s./ < 6 2 : nXnXnXnXnXnXnXnXnXnXnX",
"nXnXnXnXnXnXnXnX}.v.) ) ~ T z b ~ z b.G J w w 9 G * {.C.l.D.D.D.D.D.D.D.k.A < 4 5 - nXnXnXnXnXnXnXnXnXnXnX",
"nXnXnXnXnXnXnXnX|.x.] W R T b b v v -.K H 9 9 3 G * {.U.P.D.F.F.F.F.F.D.k./ 2 0 3 - nXnXnXnXnXnXnXnXnXnXnX",
"nXnXnXnXnXnXnXnX>Xx.] R W T v l v z -.' 9 8 8 H C * +XU.T.G.J.J.J.F.J.G.U.] 2 9 6 e nXnXnXnXnXnXnXnXnXnXnX",
"nXnXnXnXnXnXnXnX<X6.@.^ R T l v z d &.%.3 9 1 C V = +XOX%XT.L.L.L.L.L.R.U.` 3 9 9 e nXnXnXnXnXnXnXnXnXnXnX",
"nXnXnXnXnXnXnXnXnX^.#.^ T z z z g d ` %.3 9 < 3 d = &X+X$XQ.R.R.R.R.R.W.OXi.3 3 3 { nXnXnXnXnXnXnXnXnXnXnX",
"nXnXnXnXnXnXnXnXnX8.5.@.Q T d c s s ! &.2 9 < V a # &X*X=X$X#XW.W.#X#X#X+Xv.3 1 3 { nXnXnXnXnXnXnXnXnXnXnX",
"nXnXnXnXnXnXnXnXnX2.6.+.p ~ s v u d d -.3 1 3 2 f # qXeXoX-X=X@X@X$X%X*X&X@.C 1 q nXnXnXnXnXnXnXnXnXnXnXnX",
"nXnXnXnXnXnXnXnXnXnX6.#.d z N v l z d %.H 3 3 2 f O qXwXwXrXoXrX-X*XrXeXqXN V P P nXnXnXnXnXnXnXnXnXnXnXnX",
"nXnXnXnXnXnXnXnXnXnX3.#.z d Q s l l d ` ' H 6 < : # tXyX2XyX'.1. X-XrXyXtX~.| 2 D nXnXnXnXnXnXnXnXnXnXnXnX",
"nXnXnXnXnXnXnXnXnXnX3.N z d d y j l s ! -.P q < e > tXtXfX>.= + o >.3XfXfX,...| nXnXnXnXnXnXnXnXnXnXnXnXnX",
"nXnXnXnXnXnXnXnXnXnXnXN z d s y j j d Z -.P 6 7 7 > gX9X:.n ,.6.m @ . 2.pX7.#.f nXnXnXnXnXnXnXnXnXnXnXnXnX",
"nXnXnXnXnXnXnXnXnXnXnXB v z p p u s s V &.P P 4 r X ;X> 4.: 4.m 5.5.,.+ O : *.nXnXnXnXnXnXnXnXnXnXnXnXnXnX",
"nXnXnXnXnXnXnXnXnXnXnXnXM v s a d a d d ! &.o.< r & X 7 O.5 e F R T *.4.: - S nXnXnXnXnXnXnXnXnXnXnXnXnXnX",
"nXnXnXnXnXnXnXnXnXnXnXnX>.k v a p h h p Q -.*.2 , 0 0 , < 6 U A R W | } } } | nXnXnXnXnXnXnXnXnXnXnXnXnXnX",
"nXnXnXnXnXnXnXnXnXnXnXnXnXB z s p h g y h m.-.D 7 0 0 0 1 2 C K Z / A C | ..#.nXnXnXnXnXnXnXnXnXnXnXnXnXnX",
"nXnXnXnXnXnXnXnXnXnXnXnXnX1.u s y h g y s v.-.` < 1 , 8 9 3 C H C U ` A R h nXnXnXnXnXnXnXnXnXnXnXnXnXnXnX",
"nXnXnXnXnXnXnXnXnXnXnXnXnXnXi j u g u y s T ` &.3 9 8 8 8 9 9 3 q D K W E b nXnXnXnXnXnXnXnXnXnXnXnXnXnXnX",
"nXnXnXnXnXnXnXnXnXnXnXnXnXnXnXj s p s u s d / m.K 9 8 w w 8 8 w t V R W x nXnXnXnXnXnXnXnXnXnXnXnXnXnXnXnX",
"nXnXnXnXnXnXnXnXnXnXnXnXnXnXnX$ B i s l s s T &.%.I 8 w w 0 0 0 r D A 9.e.nXnXnXnXnXnXnXnXnXnXnXnXnXnXnXnX",
"nXnXnXnXnXnXnXnXnXnXnXnXnXnXnXnX1.m i u s y s R -.=.I 0 8 4 4 4 } S Q z.nXnXnXnXnXnXnXnXnXnXnXnXnXnXnXnXnX",
"nXnXnXnXnXnXnXnXnXnXnXnXnXnXnXnXnXn n M k i j T ` -.-.I 4 < 3 2 ; N ~.nXnXnXnXnXnXnXnXnXnXnXnXnXnXnXnXnXnX",
"nXnXnXnXnXnXnXnXnXnXnXnXnXnXnXnXnXnXnX<.<.M k j s @.N.-.K A A F h 6.nXnXnXnXnXnXnXnXnXnXnXnXnXnXnXnXnXnXnX",
"nXnXnXnXnXnXnXnXnXnXnXnXnXnXnXnXnXnXnXnXnXnXnXj u Q v.N.b.nXnXnXnXnXnXnXnXnXnXnXnXnXnXnXnXnXnXnXnXnXnXnXnX",
"nXnXnXnXnXnXnXnXnXnXnXnXnXnXnXnXnXnXnXnXnXnXnXnXnXnXnXnXnXnXnXnXnXnXnXnXnXnXnXnXnXnXnXnXnXnXnXnXnXnXnXnXnX",
"nXnXnXnXnXnXnXnXnXnXnXnXnXnXnXnXnXnXnXnXnXnXnXnXnXnXnXnXnXnXnXnXnXnXnXnXnXnXnXnXnXnXnXnXnXnXnXnXnXnXnXnXnX",
"nXnXnXnXnXnXnXnXnXnXnXnXnXnXnXnXnXnXnXnXnXnXnXnXnXnXnXnXnXnXnXnXnXnXnXnXnXnXnXnXnXnXnXnXnXnXnXnXnXnXnXnXnX",
"nXnXnXnXnXnXnXnXnXnXnXnXnXnXnXnXnXnXnXnXnXnXnXnXnXnXnXnXnXnXnXnXnXnXnXnXnXnXnXnXnXnXnXnXnXnXnXnXnXnXnXnXnX"
};
