/* XPM */
static char *result[] = {
/* columns rows colors chars-per-pixel */
"64 64 255 2 ",
"   c #B05800",
".  c #9E6801",
"X  c #93750D",
"o  c #A26901",
"O  c #AC6F01",
"+  c #A77807",
"@  c #B57C02",
"#  c #B97704",
"$  c #AB7E17",
"%  c #B46B06",
"&  c #C47D0A",
"*  c #D57C18",
"=  c #C46A0B",
"-  c #BA8407",
";  c #AE8719",
":  c #B69411",
">  c #B9881D",
",  c #BFAE10",
"<  c #C18C0B",
"1  c #C68808",
"2  c #D78C0A",
"3  c #C9940B",
"4  c #D39403",
"5  c #DE9B02",
"6  c #D59809",
"7  c #D88715",
"8  c #D89615",
"9  c #CF9B13",
"0  c #E59403",
"q  c #ED9502",
"w  c #E49B02",
"e  c #EC9B02",
"r  c #E4940B",
"t  c #EC960B",
"y  c #EC9C0B",
"u  c #E59B0A",
"i  c #F19603",
"p  c #F29B04",
"a  c #F3960B",
"s  c #F39B0A",
"d  c #FA9B05",
"f  c #E69514",
"g  c #EB9412",
"h  c #EB9C13",
"j  c #E79917",
"k  c #F3951C",
"l  c #F19D11",
"z  c #E78B0F",
"x  c #DDA401",
"c  c #DBAC02",
"v  c #D7A80A",
"b  c #DDB302",
"n  c #D9B807",
"m  c #CDA917",
"M  c #D6A817",
"N  c #CCB517",
"B  c #DAB516",
"V  c #CDAE09",
"C  c #E2A302",
"Z  c #ECA302",
"A  c #E4AB01",
"S  c #ECAC02",
"D  c #ECA30C",
"F  c #ECAD0B",
"G  c #E5A60C",
"H  c #F3A303",
"J  c #FAA503",
"K  c #F3AC03",
"L  c #FAAC04",
"P  c #F2A40B",
"I  c #FBA40A",
"U  c #F5AB0B",
"Y  c #FAAB0B",
"T  c #E3B402",
"R  c #EDB402",
"E  c #E4BB01",
"W  c #ECBB02",
"Q  c #EBB40B",
"!  c #E6BB0D",
"~  c #EBBC0A",
"^  c #E3B40C",
"/  c #F4B403",
"(  c #FAB403",
")  c #F3BB03",
"_  c #FABB02",
"`  c #F4B40A",
"'  c #FBB30B",
"]  c #F3BB0A",
"[  c #FABC0B",
"{  c #E3A314",
"}  c #EBA411",
"|  c #E9A91A",
" . c #F2AC13",
".. c #FBAC14",
"X. c #F2AC1B",
"o. c #F7A515",
"O. c #ECB313",
"+. c #ECBB16",
"@. c #E5B717",
"#. c #F5B313",
"$. c #FBB312",
"%. c #F3BC14",
"&. c #FDBC12",
"*. c #F4B41B",
"=. c #FCB31B",
"-. c #F3BD1C",
";. c #FBBF1F",
":. c #CA952B",
">. c #F69821",
",. c #C9A823",
"<. c #D7AD28",
"1. c #D8B928",
"2. c #D9A433",
"3. c #DCBC39",
"4. c #CDBA38",
"5. c #E4AD24",
"6. c #E8AD21",
"7. c #E9B929",
"8. c #F9BB25",
"9. c #E7AB34",
"0. c #E2B633",
"q. c #F0AA21",
"w. c #DFC114",
"e. c #E4C103",
"r. c #EDC302",
"t. c #E6CA02",
"y. c #ECCB03",
"u. c #ECC30C",
"i. c #EDCB0B",
"p. c #E7C00E",
"a. c #F3C403",
"s. c #FBC403",
"d. c #F5CC02",
"f. c #FDCC03",
"g. c #F5C40B",
"h. c #FCC40C",
"j. c #F5CC0A",
"k. c #FDCC0C",
"l. c #ECD302",
"z. c #EED20D",
"x. c #EDDD07",
"c. c #F3D402",
"v. c #FCD303",
"b. c #F3DB02",
"n. c #FDDB02",
"m. c #F3D30B",
"M. c #FDD30B",
"N. c #F2DB0C",
"B. c #FDDC0B",
"V. c #E6CD13",
"C. c #ECCB13",
"Z. c #EECB1D",
"A. c #EBC419",
"S. c #FCC413",
"D. c #F4CB12",
"F. c #FCCA13",
"G. c #F4CB1A",
"H. c #FDCB1C",
"J. c #F8C317",
"K. c #ECD318",
"L. c #FDD412",
"P. c #FEDC14",
"I. c #FDD21B",
"U. c #FDDB1A",
"Y. c #F4D718",
"T. c #F5E304",
"R. c #FEE402",
"E. c #FDEB03",
"W. c #FDE40B",
"Q. c #FFEC0A",
"!. c #FEF303",
"~. c #F5FB05",
"^. c #FBFB03",
"/. c #FDF40B",
"(. c #F5FA0C",
"). c #FCFB0B",
"_. c #F3F30E",
"`. c #FDE314",
"'. c #FEEC15",
"]. c #FDE41E",
"[. c #FEEB1D",
"{. c #F4E818",
"}. c #F4F213",
"|. c #FDF313",
" X c #FDFB13",
".X c #FDF31C",
"XX c #FCFA1C",
"oX c #F6F916",
"OX c #EFEF0D",
"+X c #DFD031",
"@X c #EDCA2C",
"#X c #EAC925",
"$X c #FBC523",
"%X c #F4CB24",
"&X c #F9CD21",
"*X c #F9C82A",
"=X c #F4DA24",
"-X c #F4DD2C",
";X c #F8D626",
":X c #ECCC33",
">X c #E7C838",
",X c #F2CD3A",
"<X c #F4CD33",
"1X c #ECD334",
"2X c #E8D239",
"3X c #F2DC34",
"4X c #F6D93B",
"5X c #EDD023",
"6X c #FCEB24",
"7X c #F6EB2C",
"8X c #F9E627",
"9X c #FCF325",
"0X c #FBFA24",
"qX c #FBFC2B",
"wX c #FAF629",
"eX c #F6E738",
"rX c #FEFB34",
"tX c #FFF53D",
"yX c #FDFB3D",
"uX c #F8F536",
"iX c #E6BE4F",
"pX c #DDCE4E",
"aX c #ECCC45",
"sX c #E8C744",
"dX c #EAD547",
"fX c #F6DB46",
"gX c #EBCC56",
"hX c #E6CD56",
"jX c #EDDA52",
"kX c #EBD657",
"lX c #F1D454",
"zX c #F3D858",
"xX c #F2CA50",
"cX c #F9ED45",
"vX c #F8E748",
"bX c #FCF643",
"nX c #FDF44C",
"mX c #FAF74A",
"MX c #F7EA57",
"NX c #FCF454",
"BX c #FFFC5C",
"VX c #FAF657",
"CX c #EFE653",
"ZX c #EBD565",
"AX c #F1DC61",
"SX c #E5C060",
"DX c #FAE867",
"FX c #FBF56C",
"GX c #FAF768",
"HX c #F8EE76",
"JX c #FDF272",
"KX c #FAF574",
"LX c #FBF489",
"PX c #F8EF89",
"IX c None",
/* pixels */
"IXIXIXIXIXIXIXIXIXIXIXIXIXIXIXIXIXIXIXIXIXIXIXIXIXIXIXIXIXIXIXIXIXIXIXIXIXIXIXIXIXIXIXIXIXIXIXIXIXIXIXIXIXIXIXIXIXIXIXIXIXIXIXIX",
"IXIXIXIXIXIXIXIXIXIXIXIXIXIXIXIXIXIXIXIXIXIXIXIXIXIXIXIXIXIXIXIXIXIXIXIXIXIXIXIXIXIXIXIXIXIXIXIXIXIXIXIXIXIXIXIXIXIXIXIXIXIXIXIX",
"IXIXIXIXIXIXIXIXIXIXIXIXIXIXIXIXIXIXIXIXIXIXIXIXIXIXIXIXIXIXIXIXIXIXIXIXIXIXIXIXIXIXIXIXIXIXIXIXIXIXIXIXIXIXIXIXIXIXIXIXIXIXIXIX",
"IXIXIXIXIXIXIXIXIXIXIXIXIXIXIXIXIXIXIXIXIXIXFXMXvXeXeXeXeXeXeX3X3X3X3X1X1X2X2X2XdXIXIXIXIXIXIXIXIXIXIXIXIXIXIXIXIXIXIXIXIXIXIXIX",
"IXIXIXIXIXIXIXIXIXIXIXIXIXIXIXIXIXIXIXHXMXvXeX8XN.P.B.T.B.B.B.B.B.B.B.m.z.i.z.V.V.#XaXIXIXIXIXIXIXIXIXIXIXIXIXIXIXIXIXIXIXIXIXIX",
"IXIXIXIXIXIXIXIXIXIXIXIXIXIXIXIXIXHXMXcX8XY.B.v.v.d.d.f.a.d.d.f.s.f.f.v.M.M.M.M.m.j.G.<XdXIXIXIXIXIXIXIXIXIXIXIXIXIXIXIXIXIXIXIX",
"IXIXIXIXIXIXIXIXIXIXIXIXIXIXIXFXCXuX7XT.l.y.a.a.a.[ [ ` / / / / / / _ _ s.f.f.v.f.f.v.j.5X>XpXIXIXIXIXIXIXIXIXIXIXIXIXIXIXIXIXIX",
"IXIXIXIXIXIXIXIXIXIXIXIXIXIXNX7X8X{.N.l.r.a.) [ $.=.=.=.$.' L L K L L K K / _ _ f.f.f.f.c.D.V.+XdXIXIXIXIXIXIXIXIXIXIXIXIXIXIXIX",
"IXIXIXIXIXIXIXIXIXIXIXIXHXVX6XT.l.i.r.~ W ) ( _ ' $.=.=.$.Y Y Y Y Y Y H H Z S K _ s.k.v.v.c.l.l.V.:XIXIXIXIXIXIXIXIXIXIXIXIXIXIX",
"IXIXIXIXIXIXIXIXIXIXIXJXvX7X`.c.y.~ +.%.%.' _ _ _ ( K ( ( U U K L Y L L H H Z K ( _ k.M.M.n.v.v.N.C.@XgXIXIXIXIXIXIXIXIXIXIXIXIX",
"IXIXIXIXIXIXIXIXIXIXKXcX{.x.y.) ] _ [ / ( ' _ _ ( / K / / / / K K K H H p H H H K K ) s.M.B.n.v.f.f.H.:XIXIXIXIXIXIXIXIXIXIXIXIX",
"IXIXIXIXIXIXIXIXIXHXMX7Xx.t.r.` ) _ _ _ _ ( ' ` ` ` R R / R / K K H H Y U U P U Y K ) W j.L.L.k.v.f.L.%XaXIXIXIXIXIXIXIXIXIXIXIX",
"IXIXIXIXIXIXIXIXDXcXeXK.t.y.r.W ) ) ) ( ( ( ` ` ` T T j.x T / H J I J H K Z H K I L ) R ) k.I.P.L.v.d.Z.1XgXIXIXIXIXIXIXIXIXIXIX",
"IXIXIXIXIXIXIXDXbX8XD.i.r.r.y.W W ) ( / ' ( K ) W E m.].u.b C L I I J H Z S K L L L ( / ) ) F.L.`.n.b.N.Z.>XzXIXIXIXIXIXIXIXIXIX",
"IXIXIXIXIXIXIXCXeX=Xe.W a.) r.W ) ) ( ( ( U S R E i.[.6X].e.x K I I d I K K K K L L _ ( / ] g.L.W.E.b.b.z.Z.,XzXIXIXIXIXIXIXIXIX",
"IXIXIXIXIXIXKXvX-XV.e.r.a.) ) ) ] / ` ( / R W T r.`.'.'.XXN.T C H s I I I K K K L L L ' ` ] a.c.W.E.E.b.c.j.H.:XIXIXIXIXIXIXIXIX",
"IXIXIXIXIXHXcXeXV.e.r.a.) ) [ ` ` ` ` / ` A W e.N.0X X/.|.|.m.c w s o.I I Y U S / L ' ' ' ` ~ y.b.E.!.R.b.c.f.D.dXIXIXIXIXIXIXIX",
"IXIXIXIXIXmX7XN.i.E ~ ) [ ` ' ' ` U ` / R E E l.|. X X).~. X'.E x P ..s I Y ( / R ' ' Y ' ] a.y.l.T.!.E.c.d.f.j.5XIXIXIXIXIXIXIX",
"IXIXIXIXKXuX}.l.y.~ g._ [ ` ' $.$.` / ] E E l.|. X).).^.^.).oX[.n G D o...Y ( ` R ` L ' ` [ a.y.t.b././.n.c.f.j.j.4XIXIXIXIXIXIX",
"IXIXIXIXVX{.T.t.r.) ] _ ( ` ' ' [ ` W T E y.W.XX).).).^.^.^. X9XY.3 O.$.Y L K / W ) ( _ [ s.a.y.t.l.`.'.`.M.k.f.c.;XIXIXIXIXIXIX",
"IXIXIXGXuX{.l.e.W W ) ) ) ( ` / ) R E E e.W.|. X).^.^.^.^.^. XXX9Xw.v S K / / R W W ) _ _ a.a.r.r.y.m.].6XI.j.f.f.G.xXIXIXIXIXIX",
"IXIXIXcX7Xx.e.W ] [ [ / / ) ) ) R W r.y.b././././.^.).!.!.^.).|..X6XV T W ) ) W W E a.a.a.a.r.a.j.y.i.U.6XU.m.v.v.D.aXIXIXIXIXIX",
"IXIXIXuXOXN.E ] [ [ ) / ) ) R W r.y.c.W.Q././.!.!.^.^.!.!.^.(._.}.}.{.c.a.) W W r.r.r.a.r.r.a.g.k.g.r.L.8X`.N.c.f.j.>XIXIXIXIXIX",
"IXIXBX9XT.y.! O.%.` ) R ) W a.f.v.B.W.Q.Q./.E.!.!.E.!.!.!.T./._.OX}.}.`.B.v.f.g.r.e.e.r.r.a.d.k.g.a.r.D.P.`.b.c.f.k.@XhXIXIXIXIX",
"IXIXVX7Xz.r.g.] Q F ) a.j.v.n.R.W.Q.Q.Q.E.E.E.E.E.E.E.E.E.R.E.E.T./.T.Q.R.W.W.M.m.d.y.W r.g.g.%.] g.r.a.M.B.b.c.d.j.G.dXIXIXIXIX",
"IXIXnX=X! T Q R Q -.J.m.M.n.R.R.E.R.R.R.R.R.R.R.Q.R.R.R.R.R.R.R.R.R.R.R.R.n.W.B.L.B.v.d.j.) H.*.O.] W W c.B.n.c.f.v.j.1XIXIXIXIX",
"IXIXvXK.^ A A x 6 $X&XL.M.n.n.R.R.n.n.R.n.R.R.n.n.n.n.n.n.n.n.R.R.n.n.R.n.n.n.B.B.B.n.k.D.H.7.O.;.` R W a.v.B.d.f.v.i.1XIXIXIXIX",
"IXLXvXV.b S F C 4 | &XL.d.v.n.b.b.n.n.n.n.v.n.n.n.n.v.n.n.n.n.n.n.n.n.n.n.n.n.v.n.v.M.M.I.%X- 4 *.#.R R r.f.M.f.f.f.c.@XZXIXIXIX",
"IXJXeXC.c G F F 6 6 J.D.k.v.c.f.v.c.v.v.n.v.v.v.v.v.v.v.v.n.v.v.v.v.v.v.v.v.v.v.v.f.M.I.&X: o 6 #.$.` R R f.f.f.f.f.d.5XAXIXIXIX",
"IXzX-Xu.x G D w G 3 6 k.M.M.v.f.v.f.j.v.v.f.f.v.f.v.v.f.v.f.v.f.f.v.f.k.f.f.f.v.v.v.G.%XM o 2 8.*. .U S S a.M.f.f.s.v.5XlXIXIXIX",
"IXjX=X! A } } D G { 4 ~ S.k.k.M.d.f.d.f.f.f.f.f.f.f.f.f.f.f.f.v.f.f.f.k.s.s.f.f.v.f.&X7.O @ *.8. .P U S K s.k.f.s.s.d.G.zXIXIXIX",
"LXjX=X~ x } } s u D u 4 %.F.F.k.k.k.k.f.f.k.f.f.f.f.f.f.f.f.f.f.f.f.h.f.f.k.k.v.s.F.;X< o { =.X...U K H S h.k.f.s.s.f.Z.zXIXIXIX",
"LXjX=X~ C D P e D y e 4 D &.S.k.k.k.M.k.s.k.k.f.s.f.f.f.f.f.s.f.f.f.f.s.f.k.h.k._ ;X8 . 3 *.$.U ..Y I H S _ k.k.s.s.d.Z.zXIXIXIX",
"LXjX-X~ G D P e p H u Z 4  .F.k.k.k.F.F.f.f.f.s.f.f.f.f.f.f.f.f.f.f.f.f.k.k.S.h.;X+.o - 8. .Y Y Y Y Y H S [ k.f.h._ d.Z.zXIXIXIX",
"IXAX3X! C D e p H e P Z r q [ k.F.k.k.k.k.s.k.f.f.f.f.s.s.f.f.f.f.f.f.f.f.h.H.S.$X1 # { X.F L L J J H H F [ k.s.h.[ j.#XlXIXIXIX",
"IXAX3X! u D e p p q p s a 0 F g.k.k.k.k.f.k.f.f.f.f.f.f.k.k.f.f.f.f.f.f.f.k.H.$X9 O 8 q. .K L J J p H Z S h.M.f.S.[ g.A.kXIXIXIX",
"IXDXfX@.C } i e e e w s a 0 C g.L.j.f.v.f.f.f.f.f.f.f.f.f.f.f.k.f.f.f.v.f.k.F.8.% & q.X.$.L L J J d H Z K h.M.d.h.g.i.w.kXIXIXIX",
"IXPXfX+.C l t e C w w y s q C k.L.c.c.c.c.v.f.v.f.f.v.v.v.v.v.M.F.M.v.c.n.d.I.2   7 q.o.Y L J J I J I F K g.v.a.a.W i.#XZXIXIXIX",
"IXIXCXA.S e t w u 5 w f a i A L.P.b.R.b.n.n.v.B.M.n.n.n.n.n.n.M.L.W.n.n.W.B.I.# = k h D Z H J J J s I P ` h.f.d.) g.i.>XIXIXIXIX",
"IXIXzX%XF e 0 w w 5 r t i e A L.`.R.E.E.E.R.R.R.R.R.Q.E.E.R.W.R.W.R.E.E.E.W.;X# * >.t 0 e e p p p s p P ` F.f.a.) g.p.>XIXIXIXIX",
"IXIXDX@XF C w 0 r f f r p H A L.[.Q./.!.!.!.Q.Q.E.!./.^.!.!.!.!./.!.!.!.E.|.L.& * k t t q q i i i p q H [ F.f.a.) ] @.sXIXIXIXIX",
"IXIXIXaXQ C C 0 f j f r p Z T B..X|.).).~.^./.).).^.^.^.~.~.^.^.^.^.^.^./.|.U.1 7 k t t q q q i q p 0 Z &.S.g.a.) %.7.gXIXIXIXIX",
"IXIXIXlXA.C C 0 f j f y p Z T P..X|. X X(.}.). X X(.~.~.~.).).~.^.).^.^.)..XU.@ * k t q a q i i p e w K S.F.a.) ~ @.sXIXIXIXIXIX",
"IXIXIXhX>Xv x w f f g y H C A 8X9X9XXXXXoXoX0XXXoXoXoX(.}.}.}.oX(.~.(.).XXwX=X& 7 g a a a q q q p e e ' H.H.) ~ %.@.iXIXIXIXIXIX",
"IXIXIXIXaX@.C 0 0 g g y H S G 8XrXrX0XqXrXqXwXuXuXwX[..XwXwX9X0X0X0XqXqXqXuX=X@ 7 a q a a q q t p e S [ F.h.~ ~ A.1.SXIXIXIXIXIX",
"IXIXIXIXgX#XT 5 0 t a s D D @.eXbXbXyXyXuXbXbXmXbXtXtXyXtXtXyXyXyXyXuXyXmXmX1X@ 2 r q p s t t e e Z / k.k.~ W u.+.>XIXIXIXIXIXIX",
"IXIXIXIXIX<XQ w e e p s } } | vXnXmXmXmXVXBXVXVXCX@XB 1.vXnXNXnXnXNXNXBXGXGX2X- 2 r q p s y t 0 w Z _ k.W T E C.B >XIXIXIXIXIXIX",
"IXIXIXIXIXfXJ.S p q e s l | M MXBXBXBXBXCXjXaX,.; - - 3 : ; ,.dXGXVXGXGXFXFX2X@ 3 t e i q s y e w / k.f.W T E p.B IXIXIXIXIXIXIX",
"IXIXIXIXIXIX<X&.Z w e y h j 0.AXJXzXpX4.: X + : 9 6.7.q.| <.9 ; : <.dXDXJXJX3.# 2 h i i q p e e C [ k.k.W ~ ~ B 3.IXIXIXIXIXIXIX",
"IXIXIXIXIXIXlX<X^ S K H y | 9.2.:.> $ $ : B ^ ^ O.O.} h D u D  .{ 3 1 :.5.xX9.& 8 k a d p p e F ) k.a.W T O.B 2.IXIXIXIXIXIXIXIX",
"IXIXIXIXIXIXIXaXZ.R A S U X.{ 1 < 9 5.6.7.+.R S A S F D $.H e D h f j 8 7 7 & = 2 g a i i 0 s ' F.k.T T n 1.<.IXIXIXIXIXIXIXIXIX",
"IXIXIXIXIXIXIXIX4Xi.E S Z Z ` R Q O.O.^ Q ` R / K K Z D L H e e D y h h h r 2 z l a e 0 0 y X.8.H.e.b n N +XIXIXIXIXIXIXIXIXIXIX",
"IXIXIXIXIXIXIXIXjX=Xc.) S A S S R S F F Q R / K K K H H H p q e s y y t z 0 a i q a w 5 5 X.8.$X%.b e.n , IXIXIXIXIXIXIXIXIXIXIX",
"IXIXIXIXIXIXIXIXIXvX=XD.~ A A S S F #.#. .U K K H Z H H H p q q e p s s i i q i d p w x Q 8.*X8.T b n N IXIXIXIXIXIXIXIXIXIXIXIX",
"IXIXIXIXIXIXIXIXIXIXIX4X;X] A F F O. . . .P P P H H H p p p q q q i i s 0 i i i i q S W S.S.%.Q b v N IXIXIXIXIXIXIXIXIXIXIXIXIX",
"IXIXIXIXIXIXIXIXIXIXIXIXfX-XD.~ T S Q Q U  .P D D p p P p i q q i a p a i d p i i J / k.L.a.T c B m IXIXIXIXIXIXIXIXIXIXIXIXIXIX",
"IXIXIXIXIXIXIXIXIXIXIXIXIXvX8XL.E b T E R S Z D D y y e e q q i q i q p p p p p I $.F.k.~ b T n m IXIXIXIXIXIXIXIXIXIXIXIXIXIXIX",
"IXIXIXIXIXIXIXIXIXIXIXIXIXIXvX8X{.N.t.b c A A S D G y y e e e p q 0 0 q 0 e K ` &.J.&XQ c n V IXIXIXIXIXIXIXIXIXIXIXIXIXIXIXIXIX",
"IXIXIXIXIXIXIXIXIXIXIXIXIXIXIXIXmXeXY.V.e.b c C C C w Z w w w w e e Z H H ` S.H.F.%.^ B N ,.IXIXIXIXIXIXIXIXIXIXIXIXIXIXIXIXIXIX",
"IXIXIXIXIXIXIXIXIXIXIXIXIXIXIXIXIXCXvX8X=Xu.u.R A A A C C Z Z H K ( _ [ h.S.H.F.u.b v m IXIXIXIXIXIXIXIXIXIXIXIXIXIXIXIXIXIXIXIX",
"IXIXIXIXIXIXIXIXIXIXIXIXIXIXIXIXIXIXIXIXfX<X*X%XG.g.a.g.h.[ &.S.S.S.H.J.&.J.-.B v IXIXIXIXIXIXIXIXIXIXIXIXIXIXIXIXIXIXIXIXIXIXIX",
"IXIXIXIXIXIXIXIXIXIXIXIXIXIXIXIXIXIXIXIXIXIXIXIX@X%XZ.D.$X$X$X&X$X$X$X8.7.IXIXIXIXIXIXIXIXIXIXIXIXIXIXIXIXIXIXIXIXIXIXIXIXIXIXIX",
"IXIXIXIXIXIXIXIXIXIXIXIXIXIXIXIXIXIXIXIXIXIXIXIXIXIXIXIXIXIXIXIXIXIXIXIXIXIXIXIXIXIXIXIXIXIXIXIXIXIXIXIXIXIXIXIXIXIXIXIXIXIXIXIX",
"IXIXIXIXIXIXIXIXIXIXIXIXIXIXIXIXIXIXIXIXIXIXIXIXIXIXIXIXIXIXIXIXIXIXIXIXIXIXIXIXIXIXIXIXIXIXIXIXIXIXIXIXIXIXIXIXIXIXIXIXIXIXIXIX"
};
