/* XPM */
static char *d4ba00fc741644068e983c5d177e964bbtJl58Vj8hSX4knG[] = {
/* columns rows colors chars-per-pixel */
"64 64 231 2 ",
"   c None",
".  c #A7860A",
"X  c #BF9E0B",
"o  c #BC881F",
"O  c #AA9411",
"+  c #BE903A",
"@  c #D88C0A",
"#  c #C39F05",
"$  c #D39504",
"%  c #D79E02",
"&  c #DE9C03",
"*  c #D39E0D",
"=  c #DA9F08",
"-  c #D98917",
";  c #CC9418",
":  c #DF9F1B",
">  c #E38D05",
",  c #E38E0C",
"<  c #E69504",
"1  c #EC9502",
"2  c #E49D02",
"3  c #EB9C02",
"4  c #E6930D",
"5  c #EC950A",
"6  c #E49D09",
"7  c #EC9C0B",
"8  c #F39A03",
"9  c #FA9F04",
"0  c #F39B0B",
"q  c #F99B0B",
"w  c #EC9B13",
"e  c #E99517",
"r  c #F19910",
"t  c #CDAE03",
"y  c #CEAC0C",
"u  c #CFA20E",
"i  c #D5A303",
"p  c #DDA502",
"a  c #D4AA02",
"s  c #DAAB02",
"d  c #D5A60B",
"f  c #DCA50C",
"g  c #D5AB0B",
"h  c #DBAD09",
"j  c #CCB106",
"k  c #DCB103",
"l  c #DDB30B",
"z  c #DCB801",
"x  c #CCA211",
"c  c #C8A619",
"v  c #DCA311",
"b  c #D3A616",
"n  c #CAB215",
"m  c #DBB914",
"M  c #E4A301",
"N  c #EBA202",
"B  c #E4AA03",
"V  c #EBAB04",
"C  c #E5A40C",
"Z  c #EDA609",
"A  c #E5AA0A",
"S  c #ECA90B",
"D  c #F3A504",
"F  c #FCA603",
"G  c #F3AB03",
"H  c #FAAA00",
"J  c #F3A30A",
"K  c #FFA50B",
"L  c #F4AC0C",
"P  c #FDAD0A",
"I  c #E3B403",
"U  c #ECB304",
"Y  c #E5BA02",
"T  c #ECBC03",
"R  c #E4B30A",
"E  c #ECB50B",
"W  c #E5BA0B",
"Q  c #EDBB0C",
"!  c #F2B303",
"~  c #FCB301",
"^  c #F4BC03",
"/  c #F4B50B",
"(  c #FCB30C",
")  c #F3BC0B",
"_  c #F9BD0E",
"`  c #E3A311",
"'  c #E4AD12",
"]  c #EFAE11",
"[  c #F2AB16",
"{  c #E5B112",
"}  c #EAB613",
"|  c #E3BD12",
" . c #ECBC11",
".. c #E2BC1F",
"X. c #E9B21D",
"o. c #F1B710",
"O. c #FBB214",
"+. c #F3BA14",
"@. c #F9BD12",
"#. c #F3BA1A",
"$. c #F9BD19",
"%. c #C58D20",
"&. c #DC9924",
"*. c #D19626",
"=. c #E09420",
"-. c #E29D32",
";. c #D8AF28",
":. c #D9B127",
">. c #D6B429",
",. c #DAB42A",
"<. c #D7BB2D",
"1. c #CAAC36",
"2. c #DBB234",
"3. c #ECAF27",
"4. c #E4BA28",
"5. c #EAA83D",
"6. c #E5B138",
"7. c #EDC303",
"8. c #EBCA03",
"9. c #E6C10B",
"0. c #EDC20C",
"q. c #E9CA0D",
"w. c #F4C303",
"e. c #F9C503",
"r. c #F5CB03",
"t. c #FCCC02",
"y. c #F4C50B",
"u. c #FCC40B",
"i. c #F4CB0A",
"p. c #FDCC0C",
"a. c #E8D807",
"s. c #F5D203",
"d. c #FCD302",
"f. c #FBDB02",
"g. c #F4D20B",
"h. c #FDD30B",
"j. c #F5D90C",
"k. c #FDDD0A",
"l. c #E7C711",
"z. c #EBCA13",
"x. c #E6CA18",
"c. c #F4C412",
"v. c #FCC512",
"b. c #F3CA13",
"n. c #FCCD14",
"m. c #F3C21A",
"M. c #FCC31B",
"N. c #FBCC19",
"B. c #F3CF1B",
"V. c #ECD31C",
"C. c #F3D013",
"Z. c #FCD213",
"A. c #FCDC13",
"S. c #FBD419",
"D. c #FCDB1B",
"F. c #F2D018",
"G. c #FDE404",
"H. c #FEEA03",
"J. c #FDE20B",
"K. c #FEEC0C",
"L. c #F6E507",
"P. c #F5F301",
"I. c #FEF403",
"U. c #FCF903",
"Y. c #FEF40D",
"T. c #FEF90B",
"R. c #F4E212",
"E. c #FEE313",
"W. c #FEEC13",
"Q. c #FFE71C",
"!. c #FEF412",
"~. c #FFFA1E",
"^. c #FEF81A",
"/. c #DDC426",
"(. c #D5C630",
"). c #E5C52D",
"_. c #EDCC2B",
"`. c #ECC524",
"'. c #F4C422",
"]. c #F3CF22",
"[. c #F7C72A",
"{. c #F4CC2C",
"}. c #F8CB2E",
"|. c #F8CB28",
" X c #ECD322",
".X c #E9D62B",
"XX c #FED422",
"oX c #F4D32C",
"OX c #E5CD36",
"+X c #EFCB34",
"@X c #E9C836",
"#X c #F0C832",
"$X c #EBD235",
"%X c #EDD73E",
"&X c #EBE621",
"*X c #FFED25",
"=X c #FEE622",
"-X c #FEFA23",
";X c #FFF52A",
":X c #FFF92D",
">X c #EEE636",
",X c #F4E63E",
"<X c #FEF435",
"1X c #FFFB3B",
"2X c #FEF539",
"3X c #DFB442",
"4X c #EBCA41",
"5X c #F3CB4B",
"6X c #EEDD4A",
"7X c #F4DB4D",
"8X c #F1D644",
"9X c #F0C258",
"0X c #F3DE51",
"qX c #F6E54C",
"wX c #F7E947",
"eX c #FEF94E",
"rX c #FFF545",
"tX c #F9E854",
"yX c #F9F658",
"uX c #F4DD77",
"iX c #FAE465",
"pX c #FCE169",
"aX c #F8EB65",
"sX c #FEF362",
"dX c #F6E07A",
"fX c #FCEB76",
"gX c #FBF377",
"hX c #F9E78C",
"jX c #FBF689",
"kX c #FBE792",
"lX c #FFFA92",
/* pixels */
"                                                                                                                                ",
"                                                                                                                                ",
"                                                                                                                                ",
"                                                            kXkXkXhXdX                                                          ",
"                                                        yXwXwX7X7X8X+X X_.@X                                                    ",
"                                                    jXyX&XR.R.S.XXB.g.s.s.B.`.                                                  ",
"                                                    gX>Xa.a.7.w.v.N.n.t.r.t.c.].                                                ",
"                                                  jX0X X8.9.I U ( @.u.p.t.e.r.p.z.                                              ",
"                                                lXaX$Xl.7.! ! G D L _ u.p.t.t.t.s.V.                                            ",
"                                                gXwXx.7.^ ~ ~ F H G ! u.n.p.r.t.f.g.x.                                          ",
"                                                tX X9.E ( ( P F H G U v.XXN.i.s.f.s.z.                                          ",
"                                              jX6Xz.W E O.O.P F F G N ) XX].y.d.d.r.b.                                          ",
"                                              aXoXT )  .U ^ G ( J J G ! n.XX8.s.d.S.n.i.                                        ",
"                                              qXz.Q Q Q I w.! ~ L Z L ! y.D.s.s.t.N.N.i.                                        ",
"                                              %X9.^ Q Q Y i.p.G L J L ! ) Z.k.d.t.Z.n.t.                                        ",
"                                            fX.X7.) Q Q Y g.D.U J L L ! ) Z.f.d.r.n.n.p.N.                                      ",
"                                            iXV.7.^ Q W 8.A.Q.R Z S L ! ^ i.J.d.t.t.p.p.N.                                      ",
"                                            qXl.Y ^ Q W g.W.W.W E A / ^ T r.E.d.t.t.t.p.Z.].                                    ",
"                                            8Xl.T ! T z g.!.W.g.B E E ! ^ w.E.h.r.e.t.p.i.].                                    ",
"                                            $X9.T / Y z R.Y.Y.J.I E / ^ w.7.D.k.t.e.t.d.r.F.                                    ",
"                                          gX).0.^ ^ I 8.W.U.T.W.Y T Q ^ ^ 7.Z.A.d.r.t.t.s.g. X                                  ",
"                                          gX).Q ^ ! I g.!.U.U.T.8.W Q ^ w.7.C.D.t.t.d.p.t.g. X                                  ",
"                                          fX).o.^ ! 7.A.Y.P.P.T.j.7.U w.w.8.q.D.r.s.t.t.d.s. X                                  ",
"                                          iX4.E ^ T i.W.T.P.P.T.W.i.T w.7.y.q.S.r.r.e.t.d.s.V.                                  ",
"                                          7X| / T s.J.K.K.H.P.H.W.J.s.8.r.r.T Z.r.r.e.u.t.d.F.                                  ",
"                                          8XW _ p.L.K.J.H.H.G.G.J.L.J.s.r.T T h.t.w.w.u.t.d.b.+X                                ",
"                                          OXI v.h.J.f.f.G.G.H.G.G.G.J.d.w.w.0.p.i.e.w.u.e.t.i.+X                                ",
"                                          <.s / p.h.f.f.f.G.f.f.f.d.h.h.w.Q W i.e.w.e.u.t.t.i._.                                ",
"                                          >.i V p.h.k.d.f.d.d.f.d.d.h.Z.I i U y.i.w.^ u.t.t.i._.                                ",
"                                          >.s N u.p.h.d.d.d.d.d.d.p.p.p.f % Q c.w.T w.u.t.t.g.{.                                ",
"                                          >.s M ^ h.t.d.d.d.d.d.d.t.u.c.% V E ) y.7.^ ^ e.t.t.}.                                ",
"                                        dX>.p N ( p.e.t.d.d.t.t.t.u.v.} $ U E Q y.^ ) ) e.t.g.}.                                ",
"                                        dX,.p N ! u.u.t.t.t.d.t.p.u.N.C $ ! V Q 0.T ) ) e.r.i.|.                                ",
"                                        uX:.p 3 D u.t.t.t.t.d.t.p.v.M.& C ! M ) y.Y Q ) e.e.u.}.                                ",
"                                          :.M N M ) p.p.d.t.t.t.Z.v.M.$ G ! B ) 0.I Q ) ^ t.e.}.                                ",
"                                          ,.M 8 2 ^ h.h.t.t.t.r.p.n.$.@ L V V y.y.T W +.^ e.y.[.                                ",
"                                          ,.N 8 1 ! Z.t.t.d.d.r.g.Z.A < K F G _ T Y R o.^ ^ i.'.                                ",
"                                          :.C 0 1 U p.g.s.d.d.t.g.S.M 1 K F D _ T Y W / ^ ^ i.`.                                ",
"                                          :.2 8 2 ! S.j.f.d.d.d.k.D.= 0 K 9 D _ U I Y / ^ ^ y.                                  ",
"                                          ;.6 8 3 Q A.J.G.f.G.G.E.D.* 0 q 8 D @.Y I I U ^ ^ 8.                                  ",
"                                          2.C 8 2 y.E.K.H.H.H.H.W.=Xu 7 8 8 D @.I k I U T T 7.                                  ",
"                                          2.C 3 M i.W.Y.I.I.H.I.!.*Xx 5 1 8 Z $.Y s I I T T 9.                                  ",
"                                          3X` 8 M 8.!.T.U.U.U.T.~.*Xu 7 1 3 S #.I z s I Y Y |                                   ",
"                                            : 3 M 7.^.^.T.T.T.!.~.;Xb < 1 3 Z #.s k s I Y Y                                     ",
"                                            &.3 M C.;X-X-X~.-X-X:X<Xx < 1 3 S #.s a k B I z                                     ",
"                                            &.7 V B.<X1X<X2X1X1XrXrXc > 8 3 } } a a s I I m                                     ",
"                                            -.e % oXrXeXeX>XwXyXeXtXb , 1 3 #.A a a s k z m                                     ",
"                                            5.w C +XtXsX(.O c 6XsXtX*.4 0 M '.f a k a I B                                       ",
"                                              ` v 5XpX1.. X # x 5XpX*., 6 B c.k t k a B W                                       ",
"                                              { f 6.+ o 4.A R $ %.9X: 4 & R  .h i g f i l                                       ",
"                                              3.` ; *.3.X.E S & e - - 1 2 E  .s d i h s                                         ",
"                                              4.' C [ [ ] G N [ e e > 8 D / { f u i R g                                         ",
"                                              4X{ V N L G D 8 0 r > q 8 D / A v v i k g                                         ",
"                                                ..B G G D D 9 5 5 5 8 3 / ) f v v a a                                           ",
"                                                ).R U V D F 0 r 5 7 2 N _ U p f v h g                                           ",
"                                                  4.k U Z 7 0 5 5 3 2 E c.I p h f g                                             ",
"                                                  OXm h S C w 4 3 N B m. .a a s f b                                             ",
"                                                    /.l p 7 r 5 2 2 +.'.l t a s g                                               ",
"                                                    OX| A 6 5 0 N V v.#.y t t a                                                 ",
"                                                        } A 3 D H _ u.l y n j                                                   ",
"                                                          ) Q u.n.b.| g n                                                       ",
"                                                                                                                                ",
"                                                                                                                                ",
"                                                                                                                                "
};
