/* XPM */
static char *ed1bb2b13abe4f7eed1e2019be4eb988Bi20v4Xp51WzNbo6[] = {
/* columns rows colors chars-per-pixel */
"63 63 216 2 ",
"   c None",
".  c #15151D",
"X  c #3E1A0D",
"o  c #1B1C24",
"O  c #1E1E28",
"+  c #191722",
"@  c #1E2027",
"#  c #22232C",
"$  c #26292F",
"%  c #2B2C34",
"&  c #282833",
"*  c #2F323B",
"=  c #2A3037",
"-  c #33333C",
";  c #34393F",
":  c #201F28",
">  c #451D0E",
",  c #522613",
"<  c #552915",
"1  c #5C2B16",
"2  c #5C2C1B",
"3  c #522714",
"4  c #632E1B",
"5  c #632F16",
"6  c #64311A",
"7  c #6A341C",
"8  c #69351A",
"9  c #733B1F",
"0  c #5C2F22",
"q  c #5D332B",
"w  c #5E3529",
"e  c #4D3B3D",
"r  c #483535",
"t  c #5B3C33",
"y  c #543D3C",
"u  c #573733",
"i  c #432F2E",
"p  c #683A25",
"a  c #753B22",
"s  c #643F36",
"d  c #602D20",
"f  c #5D4139",
"g  c #7B4529",
"h  c #64433A",
"j  c #6A4338",
"k  c #794A37",
"l  c #7A5039",
"z  c #343441",
"x  c #363943",
"c  c #3D3D4A",
"v  c #3A3A45",
"b  c #483D45",
"n  c #523F43",
"m  c #3D4249",
"M  c #43424C",
"N  c #4C434B",
"B  c #484349",
"V  c #574345",
"C  c #454453",
"Z  c #4B4653",
"A  c #464B53",
"S  c #4B4A55",
"D  c #4C4B5B",
"F  c #48475A",
"G  c #514D5C",
"H  c #574C55",
"J  c #4E525B",
"K  c #53515E",
"L  c #59545D",
"P  c #664B48",
"I  c #724D44",
"U  c #6A524E",
"Y  c #6B524B",
"T  c #7B5443",
"R  c #795649",
"E  c #634D53",
"W  c #6B5454",
"Q  c #6A565B",
"!  c #6C5A5D",
"~  c #645358",
"^  c #7C5D55",
"/  c #745C5B",
"(  c #765956",
")  c #7B615F",
"_  c #4E4E62",
"`  c #514F62",
"'  c #4E5463",
"]  c #545364",
"[  c #5C5463",
"{  c #555B62",
"}  c #555569",
"|  c #59576B",
" . c #5B5A6D",
".. c #585A6A",
"X. c #5D5C72",
"o. c #645C65",
"O. c #675C68",
"+. c #715D64",
"@. c #615E73",
"#. c #5A6368",
"$. c #5E6076",
"%. c #5F6379",
"&. c #65666C",
"*. c #766367",
"=. c #636175",
"-. c #646D72",
";. c #63647A",
":. c #6A6A7B",
">. c #696576",
",. c #6C7479",
"<. c #697478",
"1. c #776F7A",
"2. c #8B4729",
"3. c #834C2B",
"4. c #8B4B2B",
"5. c #854527",
"6. c #88512E",
"7. c #95572E",
"8. c #854E31",
"9. c #8D5333",
"0. c #84543C",
"q. c #8D5A3E",
"w. c #8B553C",
"e. c #925533",
"r. c #9C5B35",
"t. c #945A3A",
"y. c #9C5D3A",
"u. c #935835",
"i. c #A15E3A",
"p. c #A25E35",
"a. c #9D603E",
"s. c #A4623C",
"d. c #AC653C",
"f. c #AD693E",
"g. c #A56439",
"h. c #B46B3E",
"j. c #B76D3E",
"k. c #B9723E",
"l. c #8B5B43",
"z. c #855A48",
"x. c #955E43",
"c. c #825E53",
"v. c #804F40",
"b. c #9C6344",
"n. c #986349",
"m. c #876357",
"M. c #976854",
"N. c #8C604D",
"B. c #A46542",
"V. c #AB6642",
"C. c #AD6A43",
"Z. c #A3694B",
"A. c #AD6D49",
"S. c #B46D43",
"D. c #B96E41",
"F. c #B76F49",
"G. c #B77143",
"H. c #BB7245",
"J. c #BD744A",
"K. c #B9734B",
"L. c #AE7051",
"P. c #8F6E65",
"I. c #C1764C",
"U. c #C3794D",
"Y. c #C07147",
"T. c #C57B51",
"R. c #C87D52",
"E. c #747C81",
"W. c #706F87",
"Q. c #83798E",
"!. c #748285",
"~. c #7B8589",
"^. c #7C8A8D",
"/. c #788588",
"(. c #7D8F91",
"). c #7E9293",
"_. c #808A8D",
"`. c #828D92",
"'. c #898197",
"]. c #839295",
"[. c #849598",
"{. c #8A9599",
"}. c #8B9B9D",
"|. c #879699",
" X c #919C9F",
".X c #8D9EA1",
"XX c #919DA1",
"oX c #8FA0A3",
"OX c #93A2A5",
"+X c #95A6A9",
"@X c #9AA6AA",
"#X c #96A9AB",
"$X c #9BAAAD",
"%X c #99A3A6",
"&X c #9EADB1",
"*X c #9FB1B3",
"=X c #A1ABAF",
"-X c #A2AEB1",
";X c #A3B2B5",
":X c #A6B5B9",
">X c #A9B6BA",
",X c #A6B9BB",
"<X c #ABBABD",
"1X c #A8B4B7",
"2X c #B1BDBF",
"3X c #AEBEC1",
"4X c #B2BEC2",
"5X c #AFC0C2",
"6X c #B3C2C5",
"7X c #B8C7CA",
"8X c #BFCCD0",
"9X c #C2CED2",
"0X c #C4D1D5",
"qX c #CAD6DA",
"wX c #CDD9DD",
"eX c #C5D0D4",
/* pixels */
"                                                                                                                              ",
"                                                  $X^.|.6X7X<X2X9X4X2X1X X                                                    ",
"                                            $X-X=X$X*X#X=X9X9X9XqXwXwX1X].%X1X                                                ",
"                                      >X<XE.%X&X+X}.OX6X;X-X=X-X<X7X<X-X4X<X4X_. X1X                                          ",
"                                  {.4X0XqX&X].;X*X#XOX<X4X<X$X=X-X-X<X4X>X4X<X`.1X<X,X:X                                      ",
"                              -X%X{..X,X3XXXE.;X,X;X&X>X<X%XE.`.$X1X>X4X7X9X%X[.5X,X,X,X,X;X                                  ",
"                          _.#.oXOX&X&X#X$X*X[.XX<X$X{.<.A % # # x { _.=X7X4X`.;X,X$X#X#X&X-X~.-.                              ",
"                      -X1X;X<.-.+X[.[.oX&X,XXXJ { x # o # & - * $ o o % S o.-.,X;XOX}.).OXXX{ OX6X-X                          ",
"                    -X;X:X,X;XE..XOX[.XX$X(.m . + # z M D ] ] D G A x % : . @ -.$X;XOXOX$X/.}.qXqX<X@X%X                      ",
"                  -X&X$X#X*X:X+X^.&X$X`.J # O * C o.W b C F G G Z F n e H c # o - ,.$X>X[.~.;X7X6X;X:X1X=X                    ",
"                -X*X$X#X.X.X.X$XXXE.{ $ # x _ o.m.b.5.u F D ] ] F Z 0 , 0.U K C % # m -.~.$X;X;X[.*X6X<X>X=X                  ",
"              OX.X).}.*X*XOX[.XX~.* o z K o.M.0.9.h.5.u F _ G ` ` F q , r.g a.^ K M & + { 1X0X+X}.OX;X;X>X1X                  ",
"              #.^.@X;X>X<X3X$X,.% & F o.U t.f.R +.i.5.u } X._ ] X.` s , r.j z.e.l./ D z # J _.~.#X}.OX$X;X].                  ",
"            XX,.-.}.<X<X<X-X,.$ - D &.n.9.f.V.*.Q.x.a u _ } K ] } _ s , 9.O.Q.0.g.S.n.L c # * _.#XoX$X@X,.-.~.                ",
"          1X<X1X{.-.`.;X$X#.# z K U 8.S.d.D.H.q.x.F.5.u ] ..] ] | } s < y.M.P.e.s.S.j.l.H M $ x ).-XOX<.,.*X7X<X              ",
"        ;X<X<X3X<X;X~.-.S O x [ m.k g S.F.H.I.i.i.H.5.u _  .K {  .` s < i.J.H.y.g.D.D.9.j ! m # = #.<.].}.^./.).@X            ",
"        ,X,X*X3X<X5X<XJ . - ' m.C.6.5.S.H.J.U.s.a.J.2.q X.;.K ] ;.| s 2 s.I.U.y.B.J.H.e.5.Z.U m O @ [.*X*X*X#X*X<X-X          ",
"      -X,X,X*X,X,X<X+X; & D W V.k.6.g G.J.J.U.y.s.J.2.u } $.] ] @.} j 2 s.I.U.y.C.J.H.e.3.H.b.E x o <.$XoX}.#X$X,X;X          ",
"      ;X;X,X*X+X.X$X<.# M L l j.G.6.g H.J.U.U.b.s.U.4.u } @.] L @.} s 2 B.I.U.y.S.J.H.9.6.H.j.0.C % x +XoXoX}.oX*X;X          ",
"      $X;X+X).(.)..Xc * H z.4.D.h.9.g I.J.U.T.y.s.J.2.q } X.] { @.| s 2 V.I.U.y.A.U.J.9.4.H.D.7.f c $ <.$XoXOXOX&X-X          ",
"      ;X<XOX^.(..X,.% A U s.4.x.T w g U.U.U.R.t.B.I.2.q } ;.` ] W._ s < V.U.T.s.F.K.J.8.a b.V.e.j H % M +X$X+X#X,X<X-X        ",
"      +X&X}.)..X+XA * S l i.W [ [ ] I I.J.U.R.u.B.I.4.q } X.G ` @.} s < S.R.U.i.A.S.F.k Z [ ( 0.3.T v $ ~.;X&X$X;X<X;X        ",
"      ;X;X%X+X=X`.& b E 9.c.| ~ ( o.! K.T.J.R.8.B.U.4.q } $.K ` @.| s < S.T.I.x.S.C.A.[ o.~ [ H k s.B $ J &X;X-X1X>X-X        ",
"      {.`.].].`.A # C R u.O.E y.A.! R U.T.T.T.3.V.I.2.q ] X.K G X.} s 2 S.U.I.i.A.V.F.+./ B.I [ ^ d.Y = # :.{.{.`.`.          ",
"      ;X-X}.,.`.* # C z.c. .h f.S.l.3.H.K.H.K.k d.I.2.q ` @.G D @.} t 2 F.T.J.y.C.d.J.0.z.J.g.( O.V.R * . ..}. XOXOX          ",
"      8XqXqXOX;Xm # F [ o.@.O.*.+.*.o.+.+.+.O.O.m.K.2.0 | @.G S ;...u 2 V.L.P.R c.c.m.I R M.m.(  .( ~ - + _.6X6X3X<X1X        ",
"      6X0XwX6X$Xm @ ' X.| >.>.>.=.=.@.@.@.@. .;.*.L.4.q ] $.] S $.} u 4 x.1.@.X.X.X.$.;.;.;.;.W.:.] | x o ~.,X7X3X;X;X        ",
"      $X3X7X&X;XA @ D m.+. .h x.Z.0.l Z.Z.B.Z.I y.I.2.q ] X.K Z $...t 4 Z.M.+.R ^ ^ m.E ( m.m./ X.! =.x o ^.<X6X<X&X;X        ",
"    $X|.oX5X,X;XA # V s.n.@.t g.A.R w.I.I.I.U.9.t.I.4.0 ` X._ Z X.' t 4 S.T.F.y.F.F.Y.k l.J.d.^ &.Z.l.; o `.3XOX#XOX;X        ",
"    -X}.~.#X*X;XA # N f.j./ [ I l.o.( H.I.G.H.t.e.I.2.0 ` ;.G Z X.X.h p V.T.I.y.K.J.K.U ( B.l ~ +.j.t.; o `.*X(.#XoX:X        ",
"    -XoX).|.*X<XA @ N B.H.b.{ ] [ ..( J.U.s.A.t.9.J.4.d G $.K Z @.} s p V.R.I.y.K.U.F.[ o.E G o.x.k.t.- @ ).oX!.oX#X:X        ",
"    ;X$X}.}.*X<XS @ V s.H.h.k / Q f q.J.U.y.C.y.8.J.2.0 K X.] S @.| s 7 d.R.I.t.S.U.K.I G [ +.l.i.D.l.- @ [./.E.oX#X;X        ",
"      OXOX+X$X$XB @ N s.H.h.3.S.h.4.y.I.J.r.g.t.3.H.4.2 F  .] Z X._ s 0 V.Y.F.2.V.R.I.4.k x.A.S.g.j.q.- # ~.<.<.OX X}.        ",
"      !.#.E._.<.@ @ B s.H.h.9.H.J.e.a.J.H.9.*.1.m.K.2.0 ` X.| G @.| s < i.i.c.Q.P.I.Y.e.y.Y.H.V.d.h.q.- . m <.,.!.!.~.        ",
"    <X9X].$X3X&Xm @ M s.H.f.9.S.G.e.i.I.j.l :.:.Q.F.4.4 G  . .` X.} s 3 i.x.O.W.Q.L.I.t.a.Y.D.F.f.j.q.- @ ~.>X>X<X<X<X        ",
"    4X0X#X3X7X5XL @ B a.j.h.9.G.H.e.i.Y.G.w.O.:.^ J.4.d G } o.` X.] t 3 i.t.E W.m.F.I.i.r.H.j.H.S.j.q.- # OX7X7X7X<X<X        ",
"    >X;X$X<X6X5X#.O B b.D.h.6.G.D.e.i.F.V.0.E =.P B.2.d F | @.} X._ u < i.w.E W.W b.J.y.r.H.k.H.j.h.q.* # }.,X7X7X3X3X        ",
"    @X}.oX].oX$X#.o b a.j.s.3.H.D.e.s.S.v.! z.R i E 5.4 b @.X. .X._ u < 8.Q z.c.j E Z.y.u.H.k.H.j.d.q.= % OX$X,X,X*X:X        ",
"    `.+X.X.X#X$X#.o b x.j.r.g K.S.4.d.p.W m.H.s.2 n s d ` X.@.X.X.} r , P c.F.a.4.P m.s.7.H.j.J.h.d.l.- % @X6X5X#X+X*X        ",
"    @X*XoX#X*X,X$.O M b.j.g.6.J.S.5.V.p.( / S.g.0 H 8.d n | @.X. ._ r 1 I +.A.i.g P N.p.9.H.k.H.h.h.z.- = %X4X$XXX&X*X        ",
"    ;X;X:X;X;X>X<.@ c b.h.f.7.j.D.5.x.D.y.W U I n c.2.4 b } @.X.X.D i p e.( W P n c.S.i.9.H.j.H.j.j.T - * #X;X;X;X:X;X        ",
"      ].`._.`.].A o c x.h.h.7.S.D.e.r.D.D.B.n.l.k C.2.4 F } @.@. .D i a d.V.n.v.w.K.F.i.7.H.j.D.G.j.l - $ ,.{.`._.`._.        ",
"      {.^.<.OX=XJ o m n.S.h.e.s.q.8.7.H.F.H.H.K.9.C.2.d G @.@.@.X.| i a h.H.J.d.i.Y.H.i.3.d.j.S.G.j.R * = `.OX}.}.{.`.        ",
"    ;X*X$X/.9XqX,.@ v t.j.f.R ~ ] H k S.D.H.Y.J.e.S.2.d n ` @.@. .F i 7 V.I.J.V.y.I.F.0.V Q z.V.k.j.T * ; $X;X4X6X>X:X        ",
"    $X}.*X].6X9X,.o v l.j.l.[ K W @.Q C.H.H.H.K.y.h.2.4 Z _ X.@. .F r 4 d.J.Y.d.y.Y.B.~ ..[ ] ^ g.j.I * ; $X3X*X;X<X<X        ",
"    +X[.#XOX+X7X,.o x q.f.*.H q.y.! Y S.H.D.F.D.y.S.2.4 b } @.X. ._ u 2 d.J.H.V.y.J.V.o./ w.U  .N.h.l * - ).!.}.;X<X<X=X      ",
"    $X(.}.#X.X$X-.o v l.n.@.h f.V.n.3.d.j.D.F.F.p.h.2.5 n X.@.X.X.} u 2 g.Y.H.C.r.D.H.z.z.h.s.~ *.V.I * $ { (.,X5X;X<X-X      ",
"    &X.XOX$X*X>X-.o c ~ ! =.W ) c.m.U ( ^ c.m.m.l.h.2.6 b D X.@.} F h 6 p.F.M.x.0.b.Z.q.l b.n.( #.m.E * = /.<X<X;X$X-X=X      ",
"    %X$X$X$X$XOX#.o C ..} ;.,.:.%.;.;.;.$.$.} ;.*.b.2.6 n D  .@.| A t p l.*.=.@. .o.@.=.=.>.W.>.;.` } x * `.$X=X&X$XOX        ",
"     X{.{._.`. XL + M *.+. .I R z.c.j T c.z.^ ) 0.h.2.6 b _  .X.| F s 9 t.) &.Q ~ ! +.O.o.+.+.+.X.o.@.x % ~.{.~.^.<._.        ",
"    <X0X9X9X9XwX{.# x R M.X.s r.V.M.g g.j.k.k.g.4.f.2.7 N X.| X.X.} s 9 p.S.V.i.9.S.d.V.g d.i.R  .n.Q * D 3X7X<X;X<.<X        ",
"    2X0XeXqXqX9X{.# z T f.+.S k u.! f a.G.j.j.g.5.d.2.7 n S  . .} C P a p.h.S.g.e.j.h.c.P e.6.Q +.d.P * ] 6X7X,X*X/.2X        ",
"    >X0XqXwX6X;X{.$ x T h.x.o.L E &.H a.S.G.k.g.j z.5.7 b Z .. .] C h a k +.z.d.7.j.B.[ [ t H { l d.P = K <X5X5X,X[.6X        ",
"    2X8X4X4X#X<X}.$ z I g.g.T K [ H w r.d.d.d.e.@.W.s 5 n _ ..] ] F f 7 j Q.P.e.6.d.g.W } } o.I 3.p.V z #.;X,X5X,XoX;X        ",
"      }.oX+X).;X X& - h 4.3.2 p g p 8 g 6.4.4.g y R d , b } ] K  .] r 1 p l k a 7 4.4.a t y j 5.7 3.e z ..:X*XoX,X+X@X        ",
"      !.,X[.^.$X}.% - r 5 1 X , 5 6 > 1 6 6 6 1 X , , X e C ] F ] C r X , 6 5 , , 5 5 4 5 > 5 1 , 1 r z #.:X*XoX;X>X;X        ",
"      &X:X).(.#XXX* c b b e r r e y r e y e e e r e i - Z ` ] K ] ] N e e V y n e V V V n e y y e y M c -.1X-X%X&X<X1X        ",
"      <X5X$X$X:XOX- z F C C C C _ F D F ` D ] ] J ] ] L ] ] [  ...[ } .. . .}  . . .@. .| .. . .] K G c :.<X:X-X:X3X>X        ",
"      :X<X:X:X<XXXv z ` F b C C  .C A C X.D D D ` @.G ] ` X.[ } ] } ;.} | |  .@.[  ..... .=.} ] ] } ] c :.;X>X:X:X:X-X        ",
"                                                                                                                              ",
"                                                                                                                              ",
"                                                                                                                              ",
"                                                                                                                              "
};
