/* XPM */
static char *a1c85cf3eedc43beb1d569d8ca6641b70XcJeCbiKiw2yl2o[] = {
/* columns rows colors chars-per-pixel */
"64 64 187 2 ",
"   c None",
".  c #000000",
"X  c #0B0602",
"o  c #0E0904",
"O  c #080708",
"+  c #0B0B0B",
"@  c #100702",
"#  c #140A05",
"$  c #150E0A",
"%  c #190F08",
"&  c #190D06",
"*  c #1E120A",
"=  c #17110C",
"-  c #131313",
";  c #1A1512",
":  c #171817",
">  c #1E1916",
",  c #1A1A1A",
"<  c #22130A",
"1  c #2A160B",
"2  c #2C190C",
"3  c #331C0D",
"4  c #221D19",
"5  c #211A15",
"6  c #321F11",
"7  c #3A1E11",
"8  c #37200E",
"9  c #39200F",
"0  c #2D231C",
"q  c #24201D",
"w  c #372111",
"e  c #3B2211",
"r  c #33261D",
"t  c #1F2220",
"y  c #242423",
"u  c #272927",
"i  c #2A2925",
"p  c #282728",
"a  c #2C2C2B",
"s  c #302922",
"d  c #3A322A",
"f  c #343434",
"g  c #3B3E3C",
"h  c #363A37",
"j  c #432514",
"k  c #462914",
"l  c #4C2B16",
"z  c #4E2D18",
"x  c #472A1B",
"c  c #502F17",
"v  c #512D19",
"b  c #592E1C",
"n  c #5A3516",
"m  c #54311A",
"M  c #59341B",
"N  c #5E3819",
"B  c #573416",
"V  c #61361F",
"C  c #623A1C",
"Z  c #4C392C",
"A  c #543826",
"S  c #5E3A21",
"D  c #453C31",
"F  c #493F33",
"G  c #643420",
"H  c #6A3723",
"J  c #653A20",
"K  c #6C3A22",
"L  c #633E28",
"P  c #733C25",
"I  c #783E27",
"U  c #7A3E29",
"Y  c #3C413F",
"T  c #54412D",
"R  c #4A4034",
"E  c #48443B",
"W  c #504438",
"Q  c #554A3C",
"!  c #574436",
"~  c #6E4421",
"^  c #684128",
"/  c #734424",
"(  c #7B4227",
")  c #764824",
"_  c #7A4926",
"`  c #714128",
"'  c #7D4429",
"]  c #7E4B29",
"[  c #79593C",
"{  c #3E4240",
"}  c #424643",
"|  c #454946",
" . c #474C48",
".. c #494D4A",
"X. c #514941",
"o. c #4C514D",
"O. c #56534B",
"+. c #4E5450",
"@. c #525552",
"#. c #555A55",
"$. c #5A5D56",
"%. c #575C58",
"&. c #5A5E59",
"*. c #5D615C",
"=. c #61655E",
"-. c #696457",
";. c #5F6560",
":. c #626661",
">. c #656962",
",. c #6A6E66",
"<. c #6C6F6A",
"1. c #6D7167",
"2. c #6E726A",
"3. c #72766C",
"4. c #74796E",
"5. c #797B6F",
"6. c #727272",
"7. c #767A71",
"8. c #7A7E75",
"9. c #7C7F75",
"0. c #7A7D73",
"q. c #7A7F79",
"w. c #7A7F78",
"e. c #804F27",
"r. c #83462A",
"t. c #854B2A",
"y. c #8C4D2D",
"u. c #83532D",
"i. c #8D522B",
"p. c #8E5A2B",
"a. c #93542D",
"s. c #905C2F",
"d. c #915531",
"f. c #995632",
"g. c #945C30",
"h. c #9C5C32",
"j. c #A15F34",
"k. c #9E6434",
"l. c #A36335",
"z. c #A86537",
"x. c #A46A35",
"c. c #AA6E36",
"v. c #A66338",
"b. c #AB6539",
"n. c #A66A38",
"m. c #AE693A",
"M. c #B36C3C",
"N. c #B96F3E",
"B. c #AE7137",
"V. c #AE7438",
"C. c #B27539",
"Z. c #BA723F",
"A. c #B67540",
"S. c #BD7340",
"D. c #BF7B42",
"F. c #C07542",
"G. c #C37C43",
"H. c #7D8077",
"J. c #7E8076",
"K. c #7D8176",
"L. c #7B8178",
"P. c #7F8379",
"I. c #7D8279",
"U. c #7E847B",
"Y. c #7E837C",
"T. c #7F857C",
"R. c #7E8279",
"E. c #808277",
"W. c #808379",
"Q. c #80847A",
"!. c #828579",
"~. c #81877E",
"^. c #82877D",
"/. c #84877D",
"(. c #81857B",
"). c #85897E",
"_. c #84897E",
"`. c #C58045",
"'. c #C98246",
"]. c #828481",
"[. c #838981",
"{. c #878B81",
"}. c #858A81",
"|. c #898D82",
" X c #898D85",
".X c #8C9187",
"XX c #8D938A",
/* pixels */
"                                                                                                                                ",
"                                                  U.[.U.^.R.U.^.[.[.[.L.L.                                                      ",
"                                                >. X_._.)._.^._.P.H.8.8.6.                                                      ",
"                                                :.W.0.H.I.0.H.W.7.>.>.1.:.                                                      ",
"                                                *.7.0.0.7.K.H.E.3.>.,.3.*.                                                      ",
"                                                  1.K.7.5.0.H.W.7.,.>.>.o.                                                      ",
"                                                  >.7.4.H.4.5.H.3.3.2.2. .                                                      ",
"                                            L.,.o.%.2.0.0.2.4.H.0.0.7.>.o.7.7.[.                                                ",
"                        :.2.7.        ,.[.L.U.L.*. .,.4.2.,.3.7.6.0.0.*.*. XL.L.L.7.;.      4.R.>.                              ",
"                      3.^.I.,.>.  *._.U.7.3.2.2.*.} >.H.7.0.P.7.0.0.8.%.2.Y.2.<.3.L.T.;.>.0.).|. X2.                            ",
"                  *.R.H.7.7.7.2.*.2.T.L.L.L.L.4.2.o.,.W.P.P.^.P.H.4.4.#.L.8.7.2.2.2.7.*.1..X|._.W.W.,.                          ",
"                #.L.7.4.7.4.7.7.2.*.,.T.L.4.4.2.1.+.$.,.3.6.2.4.3.1.,.@.U.4.7.7.3.5.*.@.I.).)._.).E.H.1.                        ",
"                @.4.4.4.7.0.7.7.L.1.@.3.4.7.1.R d 0 s i i p y y p y y t } $.3.3.4.1.%.I.).).E.).W.}.).2.                        ",
"                  @.>.0.7.4.4.4.7.H.;.@.$.R x 3 2 2 2 @ X . . . . . . . . + y } *.@.3.).E.I.E.H.H.U.>.                          ",
"                    o.*.7.7.4.7.0.4.$.Z z k k e 8 2 2 @ X . . . . . . . . . . O : Y 4.).K.K.W.^.7.&.$.                          ",
"                  1.8.%.=.7.4.3.3.O.A / K B z e 8 8 2 o X . . . . . . . . . . . . O u @.1.3.H.2.@.3.4.=.                        ",
"                :.}.U.5.@.*.3.*.X.^ u.d.` M z e 8 8 2 o X . . . . . . . . . . . . . . - } *.#.#.7.W.W.3.*.                      ",
"              >.H.H.4.K.1.o...W A s.h.h.] S m j 9 8 2 X X X . . . . . . . . . . . . . . + f @.W.W.^.}.H.,.                      ",
"              2.5.5.5.I.I.:.Z ] i.k.v.v.] N m k 9 8 2 @ X X . . . . . . . . . . . . . . . - ..3.H.^.W.W.4.=.                    ",
"            +.*.3.4.0.H.4.! ] A.x.l.m.v.] J m l j 3 2 & X . . . . . . . . . . . . . . . . . : &.5.W.0.0.3.@.#.                  ",
"            2.;.*.:.2.H.-.L A.G.V.m.M.b.] S m l j 3 1 # @ . . . . . . . . . . . . . . . . . . u =.5.1.*.*.*.*.                  ",
"          2.H.0.7.7.>.,.[ d.A.G.V.M.M.l._ J M k 9 3 1 # o . . . . . . . . . . . . . . . . . . O Y *.*.4.4.4.1.                  ",
"          4.3.4.4.0.6.X.h.A.A.G.C.M.M.l._ V m k 7 3 1 # o . . . . . . . . . . . . . . . . . . . : #.4.4.4.4.3.=.                ",
"          4.5.3.4.2.1.W h.S.S.'.C.M.N.l./ M z k 7 2 1 # o . . . . . . . . . . . . . . . . . . . X o.2.3.3.3.4.5.                ",
"        3.3.0.3.3.3.-.T n.S.S.G.V.m.Z.l._ m l j e 3 1 @ X . . . . . . . . . . . . . . . . . . . . Y ,.7.2.6.q.6.                ",
"        | &.&.&.*.$.E z v.A.v.D.x.n.N.b.] S m k e e 0 ; # o . . . . . . . . . . . . . . . . . . . + { %.%.;.%.%.                ",
"  ..,.P.}. X X X X7.D B v.b.v.G.x.b.Z.b.] J m l j r a 4 * o . . . . . . . . . . . . . . . . . . . . { q.[.q.Y.[. X|.0.>.        ",
"  #.3.3.8.<.<.3.8.1.R C h.A.A.G.V.m.S.m._ C m l e 4 p y , # . . . . . . . . . . . . . . . . . . . O { 2.L.q.n.}.8.3.5.&.{       ",
"  :.^.7.8.4.3.,.2.>.R N x.C.m.G.V.M.N.l._ C M k 2 > p p 4 o . . . . . . . . . . . . . . . . . . . O } R.7.8.W.(.0.4.5.$.{       ",
"  >.}.4.H.^./.0.2.<.R N x.Z.A.'.V.M.M.j._ V m k w y , : , o . . . . . . . . . . . . . . . . . . . . | [.3.4.8.W.9.K.0.*.{       ",
"  *.P.7.8.H.W.W.5.>.R C n.S.S.'.C.m.M.k./ M c j 0 y - - ; o . . . . . . . . . . . . . . . . . . . O  ..X3.0.8.9.8.8.0.*.{       ",
"  %.7.2.7.3.3.7.L.>.R N x.S.S.'.V.m.m.h./ c l e 0 y : : = o . . . . . . . . . . . . . . . . . . . . | .X0.7.7.0.7.3.1.%.{       ",
"  @.1.=.:.>.>.<.4.:.R N l.F.F.'.C.b.b.a./ v l e > p t : & o . . . . . . . . . . . . . . . . . . . O } ^.3.1.>.1.>.:.=.@.{       ",
"   .%.%.#.@.@.@.@.o.R C l.Z.F.'.m.j.b.j.) v j 7 ; , ; * < o . . . . . . . . . . . . . . . . . . . . g #.#.#.#.#.@.+.o.| Y       ",
"        { *.3.7.1.*.D n k.Z.F.G.k.j.M.b./ l j e < = * 2 < X . . . . . . . . . . . . . . . . . . . O g *.2.8.1.#.{               ",
"        ..^.XXXXU.2.R n x.Z.F.G.x.j.M.b.~ l e e 1 2 6 2 * X . . . . . . . . . . . . . . . . . . . . }  XR.P.6.=.                ",
"        | L._.}.K.1.R n l.Z.S.'.k.j.M.z./ k j e w w 2 1 * o . . . . . . . . . . . . . . . . . . . .  .XX7.7.4.=.                ",
"        | 1.K.R.K.1.D n k.S.F.G.k.j.M.z./ c l e w 6 2 * # o . . . . . . . . . . . . . . . . . . . O  . X3.7.4.>.                ",
"        E ,.3.E.E.1.D n k.Z.S.'.c.z.N.z._ c l j 7 3 1 $ o . . . . . . . . . . . . . . . . . . . . O } W.1.>.1.:.                ",
"        E ,.5.K.3.=.R C l.S.F.'.B.M.Z.m._ m z j 9 2 1 # o . . . . . . . . . . . . . . . . . . . . . } 8.,.;.;.*.                ",
"        | 1.1.,.>.*.R n k.Z.F.G.k.z.M.j.) B k j 7 3 1 # X . . . . . . . . . . . . . . . . . . . . . { 1.2.:.=.&.                ",
"        { %.$.$.o. .R B k.Z.S.G.x.z.m.h.~ l k j 7 3 1 @ X . . . . . . . . . . . . . . . . . . . . O g *.*.&.&.#.g               ",
"   .*.:.:.;.:.;.*.#.R n k.C.S.'.c.j.z.a.~ l l j 9 3 1 # X . . . . . . . . . . . . . . . . . . . . . Y *.*.*.=.*.%.*.*.#.        ",
"  %._._.}..X.X XT.4.R N x.Z.S.G.B.h.h.a./ c j j 9 3 1 @ X . . . . . . . . . . . . . . . . . . . . O | XXR.W.E.E.H.^.H.=.{       ",
"  *.R.5.0.0.9.0.4.*.R N l.Z.F.G.j.f.a.y.C l j j 9 3 1 @ . . . . . . . . . . . . . . . . . . . . . O } Y.=.=.3.5.W.E.0.*.Y       ",
"  *.R.4.H.W.K.4.K.*.R n l.M.N.F.l.a.y.y.K l j 7 7 2 1 o . . . . . . . . . . . . . . . . . . . . . . | }.,.=.4.!. XE.5.*.}       ",
"  >._.4.!.E.0.1.1.,.Z n k.M.z.F.l.i.y.r.C j j 7 3 3 < . . . . . . . . . . . . . . . . . . . . . . .  .XX5.4.5.K.E.5.0.*.}       ",
"  ;._.5.E.E.E.4.1.=.R n l.z.h.Z.p.r.r.( C j 7 3 3 < X . . . . . . . . . . . . . . . . . . . . . . O | .XK.E.E.E.K.3.4.*. .      ",
"  *.W.7.K.H.0.2.1.*.R N k.h.p.M.e.I I P V j 7 7 < . . . . . . . . . . . . . . . . . . . . . . . . . | ^.L.L.5.I.).4.2.%.Y       ",
"  #.2.3.3.>.:.=.=.%.D N k.a.i.j._ P H C M j 7 & . . . . . . . . . . . . . . . O . . . . . . . . . O g ;.2.2.,.,.2.=.*. .Y       ",
"  | @.@.o. .#.%.@.o.D n h.a.t.f.P C H G M 7 # . . . . O . O O + + O + O + O + + - - - - - , , , , , g  .@.@.%.+.o.| h Y         ",
"        | 2.R.^.I.1.D n h.a.( y.K G H H k o . . O O O + + + + + - : , , , , y p a a f h f f f f h f | 8.^._.R.,.                ",
"        | 1.2.7.0.3.D B l.y.I r.J G H x $ O + +                   a f f g g } } ..+.+.+.@.o.o.@.@.o.@. X3.3.2.=.                ",
"        | 2.7.7.3.1.D n g.e.I ' V b v     + -                       %.&.:.,.6.6.6.q.6.6.6.6.6.6.    %..X3.0.7.;.                ",
"        ..4.0.2.3.3.D B s.( P r.K                                   ].                              %./.3.6.4.1.                ",
"        ..5.7.3.3.,.D B s.I I r.                                                                    @.9.3.4.7.4.                ",
"         .3.2.,.>.=.D n s.( H                                                                       o.2.3.8.W.3.                ",
"         .,.>.:.=.$.D l u./                                                                         ..1.2.7.0.2.                ",
"          ..o.o...} f                                                                                 ..o.o.+.o.                ",
"                                                                                                                                ",
"                                                                                                                                ",
"                                                                                                                                ",
"                                                                                                                                ",
"                                                                                                                                "
};
