/* XPM */
static char *f18da71a3a6344e9a8cf49101284d8f52FjsTqhSE2GsrQhj[] = {
/* columns rows colors chars-per-pixel */
"64 64 40 1 ",
"  c #67B24B",
". c #6AB44E",
"X c #6CBA4E",
"o c #6CB551",
"O c #6EBB51",
"+ c #72BE54",
"@ c #76BD5A",
"# c #79BD5D",
"$ c #7DBD61",
"% c #74C256",
"& c #76C25A",
"* c #7AC35D",
"= c #7DCB5E",
"- c #7EC562",
"; c #7ECC61",
": c #80C75F",
"> c #81C665",
", c #82CD65",
"< c #88CF67",
"1 c #83C669",
"2 c #86CD6A",
"3 c #89CE6D",
"4 c #83D165",
"5 c #86D26A",
"6 c #8AD26D",
"7 c #8BD96E",
"8 c #8CCF71",
"9 c #87D170",
"0 c #8DD372",
"q c #8EDA71",
"w c #8DD778",
"e c #91D575",
"r c #92D976",
"t c #94D779",
"y c #9AD67D",
"u c #96D97B",
"i c #98DB7D",
"p c #98E07D",
"a c #9CDC81",
"s c #9DE083",
/* pixels */
"4444;;;;;;2,2,2,7e<<<<<<<<<e60668ee8ett80eeereeyyi63tttaw8wtayta",
"4;;47;;79w679006<<<<<ee000<e6eee88ee8tye88888e00uye3tataaataauta",
";==;;;;7;;22,22,<<<<<<<<<e8e0000eeeeyuyueyttyreyuy88wtwaattwttww",
"4;;47;;;59990606rr<7<r<78<8<8660e33ee3eeee008088aattaaaaawtaattt",
"4;=;7;;;55636666<<e<<07<8<838066yetuuuttreeee0082811883888888818",
"==%=;===**-*-*>*::::::<:<<2<23331##$>##*$##$$##:$-$$1-$$-$$$1111",
"=%%=====,,22,32,<<<<00e<<<12233<u63tueeyyruyyruuwytwawwyaa8attwa",
"4==;77;565666666<<e7<<<<e0eeeeeet<<titturrrrryuuwyttaa8aa88tatwt",
";;;;445425666666<<<<e0<<6<660880838yueeeteetiyuy-aaaa9-aa88aawww",
"4;;;4542,2266652<<77eee786888080teeuiuuryrryiiupaa99aaaaaawaaaaa",
"7;;5574444666663<<:<<<<<e0e0q0e0e08tuueer00ryrryaaaa9aaaa9a9wata",
";75;545566996066e7q77ee<86686<<<uruypiyyiuuypiiyaaaaaaaaaaaaaaaa",
";;;;45;;223363356<<:6<<<rree00e08<<8e888e880e8ee-aa-a99a$a-98888",
";;=;;;;;-;;>,,>,::::::::%#%###@@1$$>1$$>1:$>11>1$--$$$$---$$-1-$",
";===;;;;;;2,2,2,6<<<<3<<00080000t838e888e888yeeea$aaaa9aaa8a8aa8",
";;=7477426663663e0<<6660<680000eteeeeeeee88erreeaa999aaaaaaaaaa8",
"7;;7;;7;7699736267666663e000ee88err00ry0eeeeeeeea$19aaaaaaaaayaa",
";;;;;7;7;2626322566269e000eee888ryyruuuyereeyrtr9a88aaaaa1yyyyyy",
"7;77;77;463769007q6260rreuuyeeey00re0e8888008800a118$a9aaaaaaayy",
"=;;;7;;7,222625526622666<0re888eeyuuyyyeuyyuuyuyaaaaaaaaawyyyyyy",
";=;77;;76666663327000rr00ryyyeyy00eeeee8008888089999a8aaayayyyyy",
"%%%%%%%%.oooo.   O@@*--*##::#$$$>>13<>>1>>>>1>>11$$$1$$$$$$$$$$$",
"=;;;7;=;,;2,2-,>;4660ee08eeeeee8e88e08808e0eeeetw9aaa1a$88y88yy8",
";;7;;;7;,2369666796626628<888ee8y08yy0ey8888eett98199a$a88888888",
";;;;;;;;77776666556366we66etee88r8<8eueeetttttee090wrreeyyyttytt",
";;;;7;77;;;752222536600e0eeeeeeey08eyytreeteteeew00euyrr88t8eeee",
";;7;;7;77qqq009642666000e633888ey08euuyutettuereeerrrrrraayyryye",
";;;;7;;;;;5;2,224709q000e0ee8eeer08euyrutytyutuuq0666qee888treye",
"77;777;77qqwrrqr56600760338eeeeer888reeee8e8t800prrruppurryyyrrr",
"X%X%%X%=O+@@&@##*--,>,>>->12111181>1<<1181131233-#-&#::@##%##@@#",
"=;;==;;;---;-;-;;;--->>,>>,1211<81181>118333383895;966e<<<<8<<<<",
";;;7;;;;599qr0r09q6990qee0e0eeyyuyetteetteee8eewqqwwe7e<ee08ye88",
";;;4;24452233666062366666666000000r0rr0000006000r660uprr00ere06,",
"444;445425526697q637090e90000q00000e000000e00e0ee620rr6660000032",
";;;;4;44422226666222766007766676rrurrrrr00600606r63euueeee0erre0",
"475479546776060r0626067r000q0000<08008e<00ee0e0e0320r00006360000",
";;;;454757667900q9660690000rwrrr000rrqe0errererer06ere00ee00rtuu",
"%%%%O&&O&@@@#**-2>-,,-,>,,,,23250606088<222222223233062232326006",
"%%%%OOOOO@@@@@@*;-*-;--,->-->;1-:>>>>>:>,>>>>>,>-**---*-@@@@#***",
"=7;;477764667090w6360rqr0q0090qwrerrrrrr0eqreeeqteerte0e000eeree",
"==;;;;;;;222222232222226;a;a;a9906633600000e0e0e6000660623360360",
";=;;;7;7;222262266666666;-9;;-9-6633336030600e003000006066060006",
";;;;;7779690976633262325aaa;aa;weee6606e0eeeeeeeeeer0eee0eeeeee0",
"==;;;;;;;;2;222225626532;;-a;9;w33222333333666663663323632236233",
";;;;;;772566666626666662;a;;a;ww0e0006e0000er0eq0rree0rr00000000",
";;;;7;;;54666666,22222,2a;;a;a-;06066e06000er0eqerrreerr000e0000",
"===%%===&**----*>,,222,---**--&*->>>>>>>->>>>>>>>>2>>>>,>->->-*-",
";;;;;;;;6469669633609663;a;wa;w936600363666000603606033636333322",
";==;4===44=444449;9995952999999900666300333333062360qeereqrrrrrr",
";;;;=444444==4;4;;9292299999ww99333333330000060e236w0r00ew0r6e00",
";=;==4=44747777792699999q99wwwww000e000000363663330ee006ee00e060",
";;====4======;7;;;;4;95;;9;9-99-23333332000030662360ee000e6e6066",
"7===4=74;;;;;7775599w9q999a;a;ww36000666ee00eeee220eerer00066333",
"========qq;;7;7;5567qq969w;awwww9e00e00063668800233eereerreeee00",
"========;&=&&;==&&****-*$-------;>----->,1,,,,,,,,12,22267606766",
"==4474=4q;w;;q;;2;;45542;2;;;w9;22,2,2222,211,,>>-*****---*---->",
"%%=;;;;;;;;w;;;;7<4<6776579956992,,,,>>6666666766666667e60066666",
"====;;;;;;;q;qw;4444,,,,5999569932363<<63,<4<636,3,3<3<6,,,,<,,>",
"====7;;;;;;;;;;w4<<444<5;;;;-;45,,254,4655544,65<42454,22,2,,,,,",
"====7;;;;q;;w;w;4<4<<5556979999q5,57765756666542665555465555525<",
"===4;;=;;;;;;;;w4444,,,,255525994:>564,64<54644,,,4<,45,,,,,,,,,",
"==44;=;;;;;;;qw;<<<<5667245542594,,464467776456644465564<544,,,:",
"====;=;;;;;;;;;;<444445,469696997547777q4544475454442444755444,,",
"=XX%%%&;&;&&&%%=+++%+%++oOOOoO+++X.O%+%%&=&&**==4,,,;;==7454,;=="
};
