/* XPM */
static char *_4a43c62f6844d8fc7f47345a27e4eb3BBK05t0frmbf4Nv9[] = {
/* columns rows colors chars-per-pixel */
"64 64 247 2 ",
"   c None",
".  c #150101",
"X  c #1A0202",
"o  c #1B0B0A",
"O  c #1E191B",
"+  c #16170A",
"@  c #270503",
"#  c #380502",
"$  c #2B1717",
"%  c #361817",
"&  c #1C2B0D",
"*  c #2D2C0A",
"=  c #362828",
"-  c #3A3939",
";  c #36292D",
":  c #460704",
">  c #442426",
",  c #562929",
"<  c #463738",
"1  c #573336",
"2  c #45322E",
"3  c #632D2C",
"4  c #0C4509",
"5  c #175A0B",
"6  c #15520F",
"7  c #2F530E",
"8  c #186916",
"9  c #137812",
"0  c #15700E",
"q  c #297D15",
"w  c #387A1A",
"e  c #297316",
"r  c #2C4A2A",
"t  c #367834",
"y  c #2D7227",
"u  c #1D7121",
"i  c #4D772F",
"p  c #517E28",
"a  c #5B3C4C",
"s  c #6F3B42",
"d  c #4C484B",
"f  c #5A5557",
"g  c #554B4D",
"h  c #664856",
"j  c #774C53",
"k  c #625658",
"l  c #71474C",
"z  c #737647",
"x  c #745E68",
"c  c #75676C",
"v  c #6E706D",
"b  c #486949",
"n  c #903C4B",
"m  c #8A5153",
"M  c #926E50",
"N  c #8C5C63",
"B  c #98666A",
"V  c #916F73",
"C  c #AA767D",
"Z  c #A56872",
"A  c #B0525F",
"S  c #CD6773",
"D  c #138615",
"F  c #189618",
"G  c #0D8312",
"H  c #26980D",
"J  c #298713",
"K  c #3A8D1B",
"L  c #378619",
"P  c #2A9B14",
"I  c #339D17",
"U  c #3A981A",
"Y  c #288A0C",
"T  c #17AA1B",
"R  c #17B81C",
"E  c #27A80E",
"W  c #2BB80F",
"Q  c #28A714",
"!  c #36A416",
"~  c #35AC16",
"^  c #3BA31C",
"/  c #36AD1A",
"(  c #3BAA1C",
")  c #38A518",
"_  c #2DBB11",
"`  c #27B818",
"'  c #35B417",
"]  c #34BB16",
"[  c #35B419",
"{  c #3ABC1B",
"}  c #38B719",
"|  c #368B31",
" . c #3DA726",
".. c #30B12F",
"X. c #1FB425",
"o. c #418C1B",
"O. c #45B41D",
"+. c #478625",
"@. c #469823",
"#. c #53992E",
"$. c #47A626",
"%. c #45B827",
"&. c #54BD35",
"*. c #4FB731",
"=. c #6E8239",
"-. c #17CB1E",
";. c #2BD80F",
":. c #2EC313",
">. c #2ECB12",
",. c #29C91B",
"<. c #34C416",
"1. c #34CB15",
"2. c #37C319",
"3. c #3AC41B",
"4. c #37CB18",
"5. c #3ACA1A",
"6. c #2EDC11",
"7. c #2BD317",
"8. c #33D315",
"9. c #33DB15",
"0. c #36D318",
"q. c #3BD41C",
"w. c #36DC19",
"e. c #3ADD1C",
"r. c #38DB16",
"t. c #2BE50E",
"y. c #2EE412",
"u. c #2EEC11",
"i. c #2FE619",
"p. c #33E315",
"a. c #33ED15",
"s. c #36E419",
"d. c #3AE41B",
"f. c #36EB19",
"g. c #3BED1B",
"h. c #38EC17",
"j. c #3CF01A",
"k. c #37F116",
"l. c #1BC721",
"z. c #1AD621",
"x. c #3CC927",
"c. c #27D727",
"v. c #3ED721",
"b. c #30CC33",
"n. c #3EED20",
"m. c #3DE321",
"M. c #1CE223",
"N. c #40D11F",
"B. c #42EC1D",
"V. c #42CD23",
"C. c #47C729",
"Z. c #43D323",
"A. c #43DC24",
"S. c #4BDA2B",
"D. c #48D729",
"F. c #55CA35",
"G. c #53D733",
"H. c #4FD430",
"J. c #43E324",
"K. c #43ED23",
"L. c #4DE32D",
"P. c #49EA28",
"I. c #46F023",
"U. c #53EB2F",
"Y. c #3EBF44",
"T. c #538E4B",
"R. c #788C54",
"E. c #57AB4C",
"W. c #70AD48",
"Q. c #738F6F",
"!. c #68BA6A",
"~. c #74B372",
"^. c #3BCE40",
"/. c #50D14F",
"(. c #67CB6B",
"). c #77D778",
"_. c #7ACB7E",
"`. c #63C350",
"'. c #929376",
"]. c #8FAE72",
"[. c #92B267",
"{. c #C2907B",
"}. c #85DF72",
"|. c #7C7E82",
" X c #907384",
".X c #B77E85",
"XX c #AE7983",
"oX c #D27687",
"OX c #E37389",
"+X c #7ECB81",
"@X c #8B8787",
"#X c #969495",
"$X c #988C8E",
"%X c #BB838B",
"&X c #B88A92",
"*X c #AC9492",
"=X c #8DB38A",
"-X c #A3AC8E",
";X c #B394A8",
":X c #A8A5A9",
">X c #B9B6B9",
",X c #B2ACAF",
"<X c #C88D97",
"1X c #D699A6",
"2X c #C599A7",
"3X c #CAB3B7",
"4X c #D2B0B1",
"5X c #E4A8B4",
"6X c #EFB0BC",
"7X c #D79AA0",
"8X c #8ECF8C",
"9X c #B2D0B2",
"0X c #9DE4A0",
"qX c #CBC1BA",
"wX c #BEBEC2",
"eX c #C7BEC3",
"rX c #DCBCC6",
"tX c #CBACC2",
"yX c #FBBCCB",
"uX c #F5B6C4",
"iX c #EBB8C5",
"pX c #CAC7C9",
"aX c #D4CACE",
"sX c #CFCFD0",
"dX c #D9C8D3",
"fX c #D8D6D7",
"gX c #C8D8C7",
"hX c #ECC4C8",
"jX c #FEC4D3",
"kX c #FECCDA",
"lX c #FFC8D6",
"zX c #E5D4DC",
"xX c #FAD2DE",
"cX c #F5C5D4",
"vX c #FED4E2",
"bX c #FFDDEA",
"nX c #E5DAE2",
"mX c #E3E2E3",
"MX c #ECEBEC",
"NX c #E9E3E7",
"BX c #F5E8EC",
"VX c #F5EFF3",
"CX c #F4F3F4",
"ZX c #FDFDFD",
"AX c #F7F7F8",
"SX c #ECF9EC",
"DX c #D6E1D8",
/* pixels */
"                                                                                                                                ",
"                                                                                                                                ",
"                                                                                                                                ",
"                                                                                                                                ",
"                                                                                                                                ",
"      I   ~                                                                                                                     ",
"      / P J   2.                                                                                                                ",
"      q.5.2.P I                                                                                                                 ",
"      B.K.w.                                            G.S.L.                                                                  ",
"      Z.K.e.                                      S.A.m.n.n.K.K.P.L.U.                                              2.  q.      ",
"      [ 2.3.} I                               x.x.v.m.n.n.n.c.l.7.c.m.P.L.                                          J q P       ",
"      L                                   ..b.b.z.z.7.n.m.` R l.z.z.z.m.n.P.x.                                  x.  J J J I     ",
"      U                               F.....X.z.z.z.` m.X.F l.c./.).(.x.n.,.T l.z.z.z.                          /   :.<.}       ",
"      ^                             F.%.Q.9X9X(.c.M.R Q D F b.0XSXZXZX8X[ D R z./.).+XE.                          { :.8.2.      ",
"    ^                           &.C.H.E.,XCXZXCX9X^.R 9 9 X.9XnXpXAXZXgXt G X.!.gXZXZXDX                            ! }         ",
"                              l.,.x.%.T.>XBXAX:Xx =X..9 0 =XNXh k pXZXDXt G ~.h @XfXZXAX}.U.                        q           ",
"      V.                  T.!.!.b.b.T T.,XnXVXx O c =X9 y :XdXa O  XAXsXt t ,Xa = $XZXZX8XS.G.                                  ",
"        Z.A.P.K.      C.E.9XAXAX9X/.R t :XsXVX2Xa $X!.H | #XdX;XV tXVX9Xu b ;X;X XdXZXMX}.J.G.G.                                ",
"            %.N.v.n.v.%.].zXZXNXv v | u |.wXzXnXpX!.F 8.Q T.,XsXdXnXgX/.0 r Q.wXrXBXMX9Xb.A.A.G.G.L.P.P.P.I.P.U.   .            ",
"                  2.{ $.'.sXCXzXa - Q.6 | Q.=X+XY.F ` d.s.F | _.+X+Xb.T Q 4 6 E.+X8X(...` B.J.S.H.J.P.U.P.P.L.U.U.{             ",
"                    ( $.Q.>XzXNXtX$XT.5 6 9 F D G F r.f.k.w.H D F F G Q 8.E 4 4 8 D G F q.g.m.A.G.Z.m.A.3.                      ",
"                    $.$.| Q.=X8X!...F E D 5 6 9 Q 8.f.f.g.j.f.8.R Q :.w.r.;.W 5 4 4 P x.d.n.g.m.S.H.Z.                          ",
"                    #.^ D 0 9 D 9 9 E >.1.] ` >.9.p.f.k.f.j.h.B.j.g.g.f.a.y.9.>.:.<.v.v.m.n.n.n.A.G.F.                          ",
"                    $.( P 5 4 5 G Q :.8.7.8.6.p.y.i.a.a.f.k.j.j.j.k.k.a.a.a.t.y.9.r.s.d.g.n.j.j.g.D.F.                          ",
"                    %.2.<.' H E _ >.8.6.6.y.y.p.y.u.a.u.a.k.k.h.k.a.e.O.#.p p @.>.6.9.p.s.f.K.n.g.J.G.                          ",
"                    } 1.1.1.<.:.W H J w L | ! [ <.>.6.6.y.9.8.3.$.=.M %XS 7X3XN i _ 1.8.8.s.d.g.g.g.D.                          ",
"                    { 1.1.1._ H 5 $ s n n A m B M m M R.z z '.*XoXoXxXCX4XBXCXaX,Xi E W 1.8.r.f.n.n.m.                          ",
"                   .2.0.;.>.E e & 2 m Z ,X2X&XmX4XoXiXNXhX2XNXZXBX3XCXZXMXAXAXmXAX>Xt E W >.9.s.g.n.d.D.                        ",
"                  ( <.8.8.>.E 4 - x @X:XwXfXwXCXVXeXAXZXZXsXAXZXZXNXCXZXMXAXZXmXAXsX@Xy E :.8.w.g.n.n.D.                        ",
"                  / 4.9.9.;.Y + d |.:X>X,XmXwXCXZXmXZXZXZXfXZXZXZXCXAXZXmXmXfX'.f ; < + 5 E >.9.d.n.n.e.                        ",
"                  / 0.9.p.8.5 . d |.:XwX:XfX:XMXCXfXZXZXZXsXCXZXZXsXpXsX@Xf < . . . . O & q >.9.s.n.n.d.                        ",
"                  / 0.s.p.>.6 X $ d g v |.wX#XwXsX:XpXpX>X@X@X#X@X< % $ o . . . . o ; - - 5 _ 6.s.n.n.e.                        ",
"                  ) q.s.t.>.& . . X . . o 2 = < 2 $ ; $ $ o X X X . . X X X . . . ; v f d r E 9.s.n.n.d.                        ",
"                  ~ 1.s.f.:.* X X . X X X . . . . . . X . . . . X @ @ @ @ @ X . o k ,X@Xd r Y ;.g.K.n.d.                        ",
"                  ) 4.s.a.:.* @ . . . X X @ $ $ $ $ % > 2 1 > @ @ # # # # @ X = c sXmX,Xf - J 9.j.I.K.e.                        ",
"                  U <.e.h.>.* # X X X X 2 j j j a l N C C C C N , # : : : *X:X>XSXMXMX>Xk = q 9.K.U.g.q.                        ",
"                  U 2.s.h.1.* : @ @ X 1 C %X.XN N Z <X.XZ B XX<X{.s : : , fXZXCXZXDXMXqXs % Y p.I.U.B.5.                        ",
"                    [ w.h.9.* : , > > &X1X1XXXZ .X1X<XB l j B .X<X<XV ,XaXfXZXmXBXNX6X<Xn 7 _ f.I.I.d.V.                        ",
"                    ! 1.h.r.7 3 $Xx V 5X6X5X%X&X5X6X%X1 a B *X3X4XNXMXAXZXmXMXCX4XyXOXA i I ;.a.B.j.e.V.                        ",
"                    U <.r.B.7 , c f &XuXyX6X2X5XuXuXXXV *XeXfXpXsXzXCXsXAXnXrXBX5XS M @._ ;.a.k.j.k.q.%.                        ",
"                    K } w.f.Y % 2 d 2XjXlXiX1XuXlX6X$XfXsX,XeX#X>X:XmX*X3XqX{.[.[.O.>.;.p.a.a.g.g.r.5.                          ",
"                      U 1.f.7.* $ 2 1XkXkXiX5XyXvX4Xc ,XwXV :XQ.=XR._.W.F.V.r.;.;.t.t.u.a.k.g.g.s.4.C.                          ",
"                      K [ 8.i.:.7 2 1XkXvXiX5XyXvX1XT.#.`.%.x.v.9.t.6.y.u.u.a.a.k.a.k.k.k.g.f.s.r.V.&.                          ",
"                      K ! <.8.y.6.$.4XxXvXuXuXlXvX].;.t.u.u.u.u.u.a.a.a.h.j.j.j.k.B.h.j.g.h.d.e.5.C.                            ",
"                        L ~ <.1.0.*.4XkXxXyXuXkXxX[.t.u.u.u.a.a.h.h.j.B.B.B.B.j.B.k.f.f.f.d.r.v.C.&.                            ",
"                        L I [ { C. .7XkXkXyXyXxXxXW.t.u.u.a.a.a.k.j.j.j.j.B.k.g.g.k.f.s.p.w.q.D.&.                              ",
"                          L ! [ ] I &XkXkXjXyXvXhX%.6.p.a.a.a.s.k.g.f.f.j.f.f.f.s.d.s.r.>.0.4.%.*.                              ",
"                          +.L I ,.Q '.yXkXyXjXbXqX/ 8.9.r.p.s.f.s.h.f.d.f.s.d.s.s.r.r.r.4.2.{ %.                                ",
"                            L L I H R.yXlXjXlXBX].W 1.r.9.9.r.r.s.r.s.s.r.s.r.s.w.w.i.s.<.} $.                                  ",
"                              w q J i 5XjXjXkXxX[.W 1.1.0.9.9.r.e.r.r.8.e.0.0.1.0.:.7.s.{ %.F.                                  ",
"                              #.+.w w *XjXjXxX4XO.] <.4.4.q.q.q.0.1.q.q.4.4.4.<.2.~ Q ( $.%.D.D.                                ",
"                                  w e z 5XjXhXW.~ ' ] <.<.<.<.<.<.4.<.<.2.2.] ] [ ( $.#.      } C.                              ",
"                                    +.w z *XR.I ! ~ } ' ] { ] ] { ] } ' } / ( $.@.$.          U                                 ",
"                                    K +.+.L K K U I ) ) ) ~ ~ ~ ) ) ! @.U @.#.#.            { %.                                ",
"                                    K K     +.+.o.o.K K K U o.@.o.@.@.@.                ^ { N.A.V.                              ",
"                                    K o.                                                  V.Z.Z.Z.A.Z.                          ",
"                                    ^ $.                                                        V.A.S.L.                        ",
"                                      D.                                                                                        ",
"                                        D.D.D.                                                                                  ",
"                                          x.A.Z.                                                                                ",
"                                  V.Z.v.v.J.J.A.                                                                                ",
"                              S.L.U.P.J.                                                                                        ",
"                                                                                                                                ",
"                                                                                                                                "
};
