/* XPM */
static char *result[] = {
/* columns rows colors chars-per-pixel */
"64 64 234 2 ",
"   c #0A0F19",
".  c #140E13",
"X  c #0C111A",
"o  c #1E1216",
"O  c #13121A",
"+  c #1C151A",
"@  c #1D181D",
"#  c #28100D",
"$  c #39140C",
"%  c #231416",
"&  c #2C1515",
"*  c #251719",
"=  c #251A1D",
"-  c #2C1C1C",
";  c #331614",
":  c #371813",
">  c #3D1912",
",  c #321C1A",
"<  c #35221E",
"1  c #3B231E",
"2  c #1A1B24",
"3  c #1E2028",
"4  c #272125",
"5  c #352422",
"6  c #3A2A29",
"7  c #393336",
"8  c #4A180A",
"9  c #581904",
"0  c #531C0E",
"q  c #5B1D0D",
"w  c #431B12",
"e  c #4A1C12",
"r  c #531F10",
"t  c #6A1D04",
"y  c #641E0B",
"u  c #6A1F09",
"i  c #741F02",
"p  c #5E220E",
"a  c #47251B",
"s  c #532215",
"d  c #582717",
"f  c #5C2E1D",
"g  c #5C321D",
"h  c #64230D",
"j  c #6C210B",
"k  c #7B2205",
"l  c #73230A",
"z  c #782508",
"x  c #7B2408",
"c  c #6F320E",
"v  c #7A330B",
"b  c #662916",
"n  c #782A12",
"m  c #63331D",
"M  c #693518",
"N  c #6C3A1B",
"B  c #733D1C",
"V  c #7B3819",
"C  c #482D24",
"Z  c #542E21",
"A  c #493429",
"S  c #5C3221",
"D  c #553A28",
"F  c #483935",
"G  c #493E3D",
"H  c #553C34",
"J  c #633421",
"K  c #6C3A21",
"L  c #693924",
"P  c #743C23",
"I  c #753B26",
"U  c #7A3E23",
"Y  c #633E32",
"T  c #77411C",
"R  c #594429",
"E  c #4F4237",
"W  c #594538",
"Q  c #69442A",
"!  c #774427",
"~  c #7B4B2B",
"^  c #674938",
"/  c #764836",
"(  c #6A5439",
")  c #775536",
"_  c #7B633B",
"`  c #493F40",
"'  c #4B4242",
"]  c #4F4A4C",
"[  c #564846",
"{  c #534B4C",
"}  c #5A5049",
"|  c #4E4D50",
" . c #534F51",
".. c #535559",
"X. c #595558",
"o. c #685946",
"O. c #6E5248",
"+. c #795948",
"@. c #655A58",
"#. c #736356",
"$. c #5E5F63",
"%. c #666569",
"&. c #776A66",
"*. c #6D6E73",
"=. c #6E7075",
"-. c #72757A",
";. c #777679",
":. c #75797E",
">. c #832404",
",. c #8B2604",
"<. c #8C2905",
"1. c #852A0A",
"2. c #942702",
"3. c #9A2700",
"4. c #942A04",
"5. c #9C2A02",
"6. c #932C08",
"7. c #9C2F09",
"8. c #893A0C",
"9. c #9D3106",
"0. c #99360C",
"q. c #852D11",
"w. c #873717",
"e. c #963A18",
"r. c #A42B01",
"t. c #A92C01",
"y. c #A43106",
"u. c #AC3205",
"i. c #A5340A",
"p. c #AB360A",
"a. c #A53A0B",
"s. c #AB3B0C",
"d. c #B13306",
"f. c #B13509",
"g. c #B23609",
"h. c #B43B0B",
"j. c #BB3D0C",
"k. c #A53C16",
"l. c #843D22",
"z. c #923E22",
"x. c #95410E",
"c. c #87451B",
"v. c #984419",
"b. c #A7490E",
"n. c #BD420F",
"m. c #B34A0E",
"M. c #BC530E",
"N. c #A4431A",
"B. c #A9471A",
"V. c #B34414",
"C. c #B74714",
"Z. c #BB4A15",
"A. c #B44C1D",
"S. c #BB4D1C",
"D. c #AE5015",
"F. c #B8521A",
"G. c #B86D1D",
"H. c #844224",
"J. c #8D4123",
"K. c #884929",
"L. c #984825",
"P. c #89522C",
"I. c #98562A",
"U. c #894C35",
"Y. c #9A4F33",
"T. c #895737",
"R. c #975635",
"E. c #A14723",
"W. c #A34A22",
"Q. c #AC4D23",
"!. c #B24E24",
"~. c #A75226",
"^. c #AD5125",
"/. c #B45324",
"(. c #BB5423",
"). c #BC5829",
"_. c #A85836",
"`. c #82673F",
"'. c #986139",
"]. c #B46B2F",
"[. c #A76739",
"{. c #B56B38",
"}. c #C0400E",
"|. c #C4550D",
" X c #C34511",
".X c #C44A15",
"XX c #CA4B15",
"oX c #C54C18",
"OX c #C4521D",
"+X c #CA531B",
"@X c #CD5A1E",
"#X c #D3531A",
"$X c #D65A1E",
"%X c #C35925",
"&X c #C75C27",
"*X c #CB5B24",
"=X c #D35A21",
"-X c #D96226",
";X c #DB6B33",
":X c #E36325",
">X c #865C46",
",X c #995D44",
"<X c #A45F41",
"1X c #856C41",
"2X c #89674A",
"3X c #9A6748",
"4X c #937155",
"5X c #A26C43",
"6X c #A67248",
"7X c #AB754F",
"8X c #B77948",
"9X c #887B6F",
"0X c #C27D46",
"qX c #A68256",
"wX c #BA8253",
"eX c #AC8B68",
"rX c #B89565",
"tX c #C6844D",
"yX c #C88B57",
"uX c #D38E51",
"iX c #CD925C",
"pX c #D99659",
"aX c #E19D5F",
"sX c #D58A62",
"dX c #DD9D61",
"fX c #E39F60",
"gX c #D0AD78",
"hX c #E5A363",
"jX c #7C7E83",
"kX c #7E8186",
"lX c #8B8B8D",
"zX c #8A8E93",
"xX c #909398",
"cX c #B0A69B",
/* pixels */
"0 0 r r 0 0 & < ^.^.^.Q.c.W./.).W.^./.^.^.).K % y $ 8 u j u l l y j u u u y w & i >.>.q.>.>.q.,.>.>.>.x k k 8 O y k k >.>.k >.q.",
"& : ; ; ; ; & ; > w > w w > + C H.H.H.H.H.! U P B m P B V P - X a J S b d d S Z Z r e d J b f + + 1 1 , 1 1 < - < 1 1 , < 1 , 3 ",
"2.4.3.r.4.4.5.t.r.r.y.5.r.5.e ^.$XXXXX XZ..X:X Xs.9.n. Xn.#Xb o k.b.j.h.h.s..Xj.u.2.,.f.V.%X;Xa z.&X%X=X%XOX(.-XOXV.v.OXoXoX*XJ ",
"7.4.r.r.3.2.r.t.r.r.3.3.u.t.p /.n.r.t.5.r.u.j.t.r.r.r.u.r.u.q   j 9.r.r.5.t.t.t.r.r.r.k.>X%.,X` &X}.t.t.r.t.j.XXt.r.5.u.p.y.d.n ",
"5.<.<.4.3.r.r.r.u.r.5.4.r.r.q W.n.9.u.4.r.r.u.t.r.t.r.5.t.p.$ . 4.s.y.y.5.r.t.t.t.t.t.z.=.jXjX$.7XoXt.t.3.r.t.d.t.r.r.r.7.t.u.s ",
"t.u.r.y.1.r.t.r.t.r.5.r.y.5.p q.4.y.u.9.4.2.t.t.t.t.r.5.3.>.# % 4.4.y.u.7.5.r.u.t.t.k.&.jX*.jXjX&.,XY.z.i.5.5.y.t.r.t.r.3.r.,.& ",
"<.u.u.7.,.4.r.r.t.t.r.r.5.,.w x 5.d.u.r.,.6.t.r.r.r.5.r.r.r.0 % <.y.d.r.r.2.u.t.r.t.l.jXjX*.jX%.jX=.Y L l.6.4.t.r.t.t.y.r.4.,.r ",
"a.9.u.9.5.r.u.u.r.t.r.5.r.2.# i t.6.4.6.4.r.t.r.d.r.r.5.7.5.q % 3.t.u.t.u.r.t.t.t.N.&.jX*.jXjX%.jXjXjXY L z.r.t.t.u.5.5.t.t.3.b ",
"h.t.y.3.r.t.g.t.r.r.r.y.r.d.8 k 7.<.2.r.5.3.r.t.r.t.3.N.Y.i.q % 3.5.3.r.r.r.r.r.t.U.;.jX*.jX*.jX-.-.jX;.@.,Xi.r.r.t.t.3.2.r.r.b ",
"m.d.d.t.p.j.#Xt.r.5.g.u.p.j.p l r.7.r.r.5.3.r.t.t.t.r._.2Xp.q % 4.7.3.r.y.5.3.r.u.>XjX=.jX*.jX*.-.-.=.jXkX&.U.p.t.r.t.5.r.t.t.b ",
"%X%X%XS././.%XS.N.v.A.S.A.(.a : u j u u j u u l u u n >X2XI & X y k i n b x i >.q.#.jX=.jX*.jX*.-.-.-.-.jX;.{ I k.2.3.7.2.2.3.r ",
"& - - , - - = = - , , , , - o o o o o O o O O   X O 2 O.9X7 X O O O o } } O O O 6 ` %.=.*.jX*.jX-.-.=.jX-. .` [ H 5 % % % % o 2 ",
"2.,.6.<.,.2.q ; >.>.,.2.<.1.,.4.3.2.6.6.2.2.y ; i i l.7XeXH.n Y w.>.w.7X4Xn e J *XU. .$.-.jX*.*.-.-.-.-.%.` ] .. .H j j l u u n ",
"r.t.r.r.t.u.>.q 5.7.3.t.r.2.r.t.r.r.r.r.r.t.,.y r.r.z.rXrX3X/  .O.Y.<XeX7Xj.>.z.#Xi.l.` ..%.jX*.-.-.-.*. .` ......Y y.r.t.r.t.t.",
"r.r.r.2.r.r.>.r r.<.,.6.5.r.r.r.y.t.r.6.r.r.>.y r.r.J.rXgX2X{ lX9X@.+.7X3Xp.i l. Xr.i.z.` X.*.jXjX=.-.$.` { ..X.{ z.5.2.r.r.t.t.",
"u.t.3.r.r.5.x q r.t.y.5.<.3.r.r.t.t.2.r.r.r.>.u r.u.L.qXgXgX#.;.zXjX} 3X>X0.x l.f.t.3.r.k.Y  .%.*.jX=. .` ....X.[ e.r.5.r.u.t.t.",
"r.t.r.r.5.5.u p 4.y.u.r.4.>.u.r.r.t.r.r.7.5.i q 5.t.k.T.iXgXqX{ X.{ [ A >XA.k h t.u.r.5.6.l.D [ $.=.$.` ] .... .l.k.r.r.7.r.r.r.",
"r.t.t.3.5.3.8 m y.9.u.a.5.5.r.u.r.t.t.3.5.3.8 q 5.7.h.U.+.2X( { @.@.X.@.} Y.e.q 5.t.5.1./ ! N D ` $. .` ......` J 2.3.r.t.t.r.u.",
"r.r.r.r.t.g.t P #Xy.u.5.5.r.u.t.t.t.r.r.r.d.l y j.i.k.l.W #.*.%.%.@.$.&.@.+._.h 5.r.q.T.( K B U.,X[ ` { ....| F q.d.r.3.t.t.r.g.",
"r.r.r.u.y.t.>.l.$Xr.u.r.r.u.XXh.r.3.r.u.y.u.<.n p.r.z.#.*.$.[ E H Y ^ H ` ^ _.j t.t.U 8XT.! ^ _.3.z.Y ` ....` 6 3.t.i.r.r.r.r.f.",
"Z.V.S.+X.X=Xe.J -X*X=XOX+XS.=X=XZ.0.V.+XZ.$Xv.b h.V.O.@.E E ~ '.3XyXiXtX) 3X_.e 4.i S T.~ 7X7XY.2.2.z.Y  .{ F = V.XXj.XXh.p.h.#X",
"5 1 1 1 5 5 @ X < < < 5 5 5 5 5 5 < 5 5 5 5 2 @ Z A H H `.8XtX[.v.[.yX8XL.>XA + & o A ! ! P.'.W % % & 4 7 ` 3 O Z I P I I K I I ",
"J J J J g f J J g f f J J S @ o & : ; ; ; ; ; ; ; ; H ) wX{.uXI.x.b.I.L.x.3XA.B.1.l L S [.8XQ F e y j u l n y u j u u j u u q = ",
"$X+X+XXXoXOX:XXXs.0..X.X X$Xb l 7.4.5.r.4.3.r.t.r.r.L.~ [.yXpX].T p T N m <Xh.u.r.0.K ! K.8X~ D q.r.5.r.t.3.2.r.t.t.r.t.r.t.r.d ",
"h.r.r.5.r.d. Xt.r.r.r.t.r.t.j >.4.4.r.r.3.4.r.r.r.k.P.K.P.wXfX0XP.'.wX7X) 5Xt.r.t.e.N [.5X! K A 4.4.<.3.r.5.3.r.t.r.t.3.3.t.r.d ",
"m.r.u.3.5.t.u.t.r.t.t.5.r.u.8 <.r.<.,.<.5.r.r.t.E.,X8X[.[.tXwX0X[.wXyXtX'.'.y.7.t.V m '.uX~ D 6 <.t.6.4.6.4.r.t.r.d.r.5.5.5.3.s ",
"<.y.u.9.3.3.r.r.t.t.r.5.3.>.$ ,.r.g.r.y.>.r.i.L.5XiXpX{.I.M.m.I.P.c.c.c.V P k.6.e.Q N g ! C ' F <.r.d.t.7.>.7.t.t.t.r.5.r.y.5.s ",
"9.d.t.y.<.6.t.r.t.r.7.r.y.5.h 1.4.u.u.4.,.e.R.wXaXhXpX].M.|.|.x.8.b.m.m.m.V K.J.K B m A A  .{ 7 0.4.u.y.y.2.3.u.r.t.t.r.3.3.i & ",
"r.7.4.6.4.r.t.t.u.r.5.r.5.3.h N.a.9.u.9.0.R.iXhXhXhXpX~.M.|.m.x.M.M.x.x.M.D.6X5XN B D  .%.=.] 6 /.h.y.y.5.r.r.t.t.r.r.r.5.y.y., ",
"4.<.3.5.7.3.r.r.r.t.3.2.t.r.n %Xj.r.y.3.e.wXhXhXhXhXpXL.M.|.b.b.b.8.v x.8.x.I.P.B J { :.xX=.[ 6 &Xh.r.r.3.r.g.j.r.r.r.t.y.t.t.r ",
"9.3.r.t.5.4.r.t.t.t.r.r.t.t.l &XZ.d.d.d.L.iXhXhXhXhXuXc.m.|.x.v v x.M.M.x.x.p g B D $.lXzX*.W 4 &X+XXXXX XC.XX:X}.u.y..X}.}.+XS ",
"l l l i l l k >.k k x x x z ; H.).).F.(.~.tXhXhXhXfX8Xc.b.M.c 8.b.M.|.|.|.m.c T B D %.zXzX@.7 X a P P P P P K U P K m P P P L 4 ",
"Z m S S f S 1 X = < , , < , - 5 5 , , 1 R {.hXfXhXhX[.P.x.M.b.M.|.|.|.|.|.b.c T T '.) &.@.^ F - @ - = = = = =   O 4 - - - = = 5 ",
"n.V.Z.+X X$XN.* e.C.Z.V.s.k.S.Z.p.<.<.i.L.[.pXhXhXfX'.T v m.|.|.|.|.|.|.|.8.N T _.aXtX5X6XR.S.*X*X/.+X%X*X*X&Xa W.@XZ.OX!.A.S.*X",
"r.r.r.t.r.t.,., i.r.r.t.r.t.g.t.r.r.r.u.B.U.8XaXhXpX].K.T x.M.M.|.|.|.|.b.c T T tXhXhXhXyXL.t. XXXu.t.t.d.p.-XN 7.d.y.g.r.5.r.j.",
"r.r.t.5.y.d.x % a.h.y.y.5.5.t.5.r.r.t.r.s.4XR.uXhXhXuX[.K.T x.D.M.|.|.M.c.N N T pXhXhXdX3Xk.r.t.u.r.3.7.t.u.$Xg <.u.t.5.t.t.r.d.",
"r.t.r.r.3.3.8 o 6.9.y.p.y.5.r.7.r.r.t.r.5._.5XdXhXhXaX[.! P.c.v v x.x.v c T M T 7XiXyX3XE.t.r.p.r.5.y.i.y.9.s.s 9 r.5.5.t.t.r.s.",
"t.t.3.r.5.y.i & >.4.d.r.5.2.t.r.,.2.,.3.t.W.[.fXhXhXqXQ 6 D R.[.I.I.P.N M T P.o.U.Y.R.L.i.r.r.r.r.>.4.r.d.9.4.s l 5.5.r.r.t.t.r.",
"u.t.3.r.5.5.>.& 2.t.d.u.t.r.r.r.5.5.l ,.r.e.R.tXhXwX( G ' | [ 6XuX{.[.T T N '.^ ,.i.i.r.5.u.t.t.t.<.4.r.u.t.r.0 ,.r.r.5.3.u.t.r.",
"r.t.r.2.r.t.,.& 2.r.3.r.t.r.r.r.5.u.,.i <.p.P.'.7X2X{  .*.%...W Q P.c N B V P.W 6.r.3.3.r.t.r.r.r.r.6.<.<.<.5.0 ,.r.5.3.r.t.r.t.",
"t.t.t.5.t.t.<.& ,.7.2.r.t.3.3.t.t.r.3.l >.d.Y.R.! @.X.:.;.-.%...R T M T T G.G.g 9.u.r.3.r.r.r.t.3.2.r.r.5.6.5.0 2.d.r.3.r.t.r.t.",
">.>.1.>.>.>.q O l 2.2.2.3.,.,.3.7.3.4.>.9 i K.P.) ] =.xXkX-.-.X.^ ~ g T c.G.G.6 k 5.3.4.3.2.r.5.4.<.5.3.2.,.1.; k 3.2.7.5.2.7.r.",
"+ + + + = + + + * ; , , , - o % % % & % o O 6 d R G -.xXxXkX=.} wXpXP.T T T H.L b h p b V w.V > & > : : w w ; % & > > > : > : , ",
"(.).(.(.Q.!.).!.v.v.Q.A.A./.- o j l x z x l n R E F %.kXzXzX%._ dXpXyX! Q ( ^ !.d.4.<.h.j.Z.:XJ 0 ,.l >.2.<.,.2.7.2.2.7.2.2.3.r ",
"m.h.h.u.s. X#Xu.5.5.h.d.g.j.w > 3.7.r.r.t.4.7.! o.E | %.:.:.X.6XhXwXP.R ( #.( k.t.r.r.t.y.r.XXU i 7.x 4.7.2.2.3.r.r.r.r.5.u.t.n ",
"d.r.r.3.r.t.d.t.t.r.r.y.t.t.; w r.<.2.7.5.5.r.K.o.o.E ] %.%.} wXtXwX) ( _ o.! 0.r.r.r.r.5.y. XK l r.,.4.7.<.,.3.r.r.r.5.2.r.r.n ",
"y.9.u.9.r.r.u.t.t.t.r.3.t.,.. w r.r.6.2.<.5.r.k.W W E A F  .W iX8X~ R R E E c.9.5.t.r.r.5.r.d.b l t.d.t.t.r.5.2.2.t.r.7.r.r.r.n ",
"4.u.r.7.,.4.r.r.r.t.r.5.3.>.% w 5.y.g.r.3.1.t.N.Q D R R D A Z '.8XT A D A ( ~.y.<.,.k 4.r.u.r.0 x 4.u.u.7.2.r.t.3.3.r.r.r.5.2.q ",
"r.d.r.9.,.t.r.t.t.5.5.r.y.5.w d 9.6.u.y.5.4.r.s.! +.`.1X_ ( Q m g Q `._ `.+.B.r.9.y.>.k 3.r.5.0 e.y.9.u.a.5.r.u.u.r.t.r.3.5.2.; ",
"5.<.4.<.5.r.r.r.u.t.5.3.r.3.> S #Xy.u.9.5.r.t.g.U.D Q R D R.K.S R R _ _ g ^ L.r.r.r.5.i >.t.r.s ~. Xy.y.3.5.t.t.t.t.t.t.r.r.u.b ",
"7.2.r.r.4.2.r.t.r.r.3.5.u.t.> J =Xt.r.r.5.y.j.j.T.( _ _ ) U.6.6 T.( 1X_ ) _ ) c.u.r.r.k k r.t.0 ^..X5.4.5.y.h.XXt.r.3.u.u.y.d.q.",
"4.4.3.r.4.3.r.t.r.r.t.5.r.5.; Z :XoX#XXXXXZ.-X$XR._ `.`.1X) ! + Z Q _ `.`.`.`.( Y.q.>.l 8 8 l * K.*XA.v.Z.%XF.-X+XV.v.S.OXZ.=XI ",
"d b b d b d s : > > > w w : O o m K K K P J J J ( o.+.o.^ W F + 4 W W ^ ^ ( o.&.cXxX} + O X O X @ < 5 < < < < < < 5 1 1 5 C , 4 ",
"Z.A.A.OXZ.*XJ.& i x x x k k >.x x l i x k u 0 a %X%X/.k.w.w.k.A.W.v.A./.).).Y.O.sXsX{.W.w.c.W.~.v.L.W.W.~.~.P O H.Q.N.Q.W.v.W.^.",
"5.5.r.u.y.u.6.q t.t.r.r.t.t.t.t.3.3.t.r.3.7.>.I $Xu.p.d.3.3.r.t.h.y.r.t.t.r.6.b }.s.g.j.r.r.d.$XoXm.d.j.j..X&X, s.j.s.j.p.r.t..X",
"r.t.t.r.t.g.>.e r.u.3.3.r.r.r.r.3.5.7.3.<.3.>.V XXt.y.r.t.t.t.r.t.r.3.r.r.j.0.0 t.t.t.r.r.t.t.g.u.r.3.r.r.j.&X, 4.t.y.r.r.t.t.t.",
"r.t.t.5.3.r.8 w 5.r.5.r.r.u.r.r.r.4.4.3.9.r.,.M j.r.3.r.r.r.t.7.r.5.y.u.9.y.<.# 4.r.3.t.r.r.t.u.r.r.9.u.9.a.B.* t t.5.5.t.r.t.p.",
"r.t.r.r.5.5.t 8 2.r.r.5.r.r.r.t.9.>.7.t.d.7.1.p r.y.r.5.4.3.<.r.t.4.7.r.u.4.>.: >.3.5.r.t.t.r.r.4.,.7.y.u.4.6.* t 4.5.r.t.t.r.t.",
"t.t.3.r.r.r.>.# i 3.r.r.t.r.t.t.5.3.9.u.y.4.0.p 3.y.r.>.z 4.4.r.t.r.t.t.g.t.,.0 5.y.r.5.r.t.r.t.r.>.7.t.g.r.,.; ,.t.r.r.3.t.t.r.",
"y.t.r.2.5.r.,.: p.i.5.r.t.t.t.u.t.5.5.y.y.j.(.b 3.r.<.k <.u.5.r.r.r.r.r.r.r.,.0 3.3.5.5.r.p.t.r.r.7.4.<.<.r.,.& ,.3.4.5.r.u.y.t.",
"r.r.r.3.t.t.<.q t.5.y.r.r.r.t.j.g.r.5.4.5.h.&Xb t.t.,.i r.r.r.r.3.3.r.r.2.r.>.q r.f.3.3.r.r.r.r.3.4.r.r.4.6.,.& 2.u.r.2.r.r.r.t.",
"5.3.7.7.2.3.u s $XXXXXXX0.s. X:X+XOXXXN.v.@X).e 5.>.t >.5.5.t.r.3.4.r.3.5.5.l e r.t.r.t.r.t.d.r.3.5.r.r.5.5.k % 2.t.r.t.t.r.t.t.",
"% % % o o % O + Z Z S Z a Z S S K I ! I U U Z - a : > s d s > ; ; ; ; ; ; ; o O > 8 w e 8 8 e e w w w 8 e w & X & w w w w w w e ",
"J L f e e s m J m f m m L S @ a %XA.S.F.v.B.(.&XF.(.%X%X&X&XH.X % & ; ; ; ; ; ; ; ; ; ; % . %   = P I I ! I K U I I N I I I I A "
};
