/* XPM */
static char *result[] = {
/* columns rows colors chars-per-pixel */
"64 64 237 2 ",
"   c #0A0F19",
".  c #130E14",
"X  c #0D111B",
"o  c #1E1216",
"O  c #13121A",
"+  c #1C151A",
"@  c #1D191E",
"#  c #28100D",
"$  c #39140C",
"%  c #221416",
"&  c #2C1515",
"*  c #24181A",
"=  c #2D1C1B",
"-  c #331613",
";  c #351915",
":  c #3B1813",
">  c #3D1912",
",  c #321D1A",
"<  c #35221E",
"1  c #3B231E",
"2  c #181A23",
"3  c #211C22",
"4  c #242227",
"5  c #362421",
"6  c #393438",
"7  c #491809",
"8  c #581904",
"9  c #531C0E",
"0  c #5B1D0D",
"q  c #431B12",
"w  c #4A1C11",
"e  c #531F10",
"r  c #6A1D04",
"t  c #641E0B",
"y  c #6A1F09",
"u  c #751F02",
"i  c #5F200F",
"p  c #47231A",
"a  c #532315",
"s  c #5C2414",
"d  c #562A19",
"f  c #5C2E1D",
"g  c #56311A",
"h  c #5D341E",
"j  c #64210C",
"k  c #6C210B",
"l  c #6E2E0B",
"z  c #752205",
"x  c #7B2206",
"c  c #73240A",
"v  c #7B2408",
"b  c #772C08",
"n  c #7E290B",
"m  c #7D360E",
"M  c #652916",
"N  c #792A11",
"B  c #63331D",
"V  c #693619",
"C  c #6D3A1B",
"Z  c #733D1C",
"A  c #7C3819",
"S  c #462A22",
"D  c #552F21",
"F  c #49342B",
"G  c #5C3221",
"H  c #573A2A",
"J  c #473935",
"K  c #533E38",
"L  c #623421",
"P  c #693A23",
"I  c #743B23",
"U  c #773C25",
"Y  c #7A421C",
"T  c #5A4229",
"R  c #4F413B",
"E  c #58443A",
"W  c #5C533D",
"Q  c #67472A",
"!  c #784527",
"~  c #694836",
"^  c #794837",
"/  c #675336",
"(  c #77573B",
")  c #7D633D",
"_  c #4B4243",
"`  c #4F4849",
"'  c #584844",
"]  c #534A4B",
"[  c #524E51",
"{  c #595557",
"}  c #54555A",
"|  c #634C43",
" . c #665546",
".. c #765546",
"X. c #665A57",
"o. c #7B5C51",
"O. c #6C6349",
"+. c #71684D",
"@. c #736359",
"#. c #5D5D62",
"$. c #625E60",
"%. c #66666A",
"&. c #736967",
"*. c #6A6B71",
"=. c #707073",
"-. c #73757A",
";. c #777679",
":. c #832404",
">. c #8B2603",
",. c #8C2905",
"<. c #862A0A",
"1. c #842A0C",
"2. c #942702",
"3. c #9A2700",
"4. c #942A04",
"5. c #9C2B02",
"6. c #932D09",
"7. c #9A2F0A",
"8. c #89390D",
"9. c #9D3206",
"0. c #99360C",
"q. c #812E13",
"w. c #893717",
"e. c #9B3611",
"r. c #9B3B15",
"t. c #953B18",
"y. c #A42B01",
"u. c #A92C02",
"i. c #B02F02",
"p. c #A43106",
"a. c #AC3205",
"s. c #A4340B",
"d. c #AC3409",
"f. c #A43B0E",
"g. c #AC3B0C",
"h. c #B23406",
"j. c #B33608",
"k. c #B43B0A",
"l. c #BB3D0C",
"z. c #A43B13",
"x. c #A53A14",
"c. c #B03D10",
"v. c #883F21",
"b. c #98420E",
"n. c #874219",
"m. c #994418",
"M. c #8E501A",
"N. c #95541C",
"B. c #A7490D",
"V. c #BD420F",
"C. c #B34B0E",
"Z. c #B7500E",
"A. c #BC520E",
"S. c #A4431B",
"D. c #AA461A",
"F. c #B44514",
"G. c #B84615",
"H. c #BB4A15",
"J. c #B34C1D",
"K. c #BA4D1B",
"L. c #A5571B",
"P. c #B9511B",
"I. c #BA6C1C",
"U. c #844224",
"Y. c #864728",
"T. c #964725",
"R. c #9D4A23",
"E. c #88532E",
"W. c #975629",
"Q. c #874B33",
"!. c #994E32",
"~. c #8C5532",
"^. c #8A5938",
"/. c #965935",
"(. c #A34B22",
"). c #AB4D23",
"_. c #A54B2A",
"`. c #AC5225",
"'. c #A65629",
"]. c #B45324",
"[. c #BC5523",
"{. c #B1522B",
"}. c #BD5928",
"|. c #A75836",
" X c #8C613E",
".X c #9A6239",
"XX c #A76738",
"oX c #B26C38",
"OX c #B6723C",
"+X c #C2420F",
"@X c #C4560D",
"#X c #C34512",
"$X c #C44A15",
"%X c #CB4C15",
"&X c #C64D19",
"*X c #C4521D",
"=X c #CB531B",
"-X c #CD5A1E",
";X c #D2531A",
":X c #D65A1D",
">X c #C35925",
",X c #C75D27",
"<X c #CB5B24",
"1X c #D45B23",
"2X c #D96327",
"3X c #C96F38",
"4X c #E36325",
"5X c #905B44",
"6X c #856C42",
"7X c #986846",
"8X c #91724D",
"9X c #A86D44",
"0X c #A7744A",
"qX c #B77847",
"wX c #AB7D52",
"eX c #9A7C66",
"rX c #AB7661",
"tX c #C07E48",
"yX c #B18252",
"uX c #BA8555",
"iX c #A98863",
"pX c #BC9C6F",
"aX c #C9864C",
"sX c #C88B55",
"dX c #CE925A",
"fX c #D59459",
"gX c #DE9A5C",
"hX c #E09D5F",
"jX c #D89B62",
"kX c #E29E61",
"lX c #D0A771",
"zX c #E5A363",
"xX c #7A7D81",
"cX c #7F8186",
"vX c #85878B",
"bX c #909297",
"nX c #B5A394",
/* pixels */
"9 9 e 9 9 9 & < `.).).`.n._.].{.(.`.].`.`.}.I % t $ 7 y y y c y y k y y y r > & v :.:.1.:.:.<.:.u 1.:.u v x w X t x x 1.v x :.1.",
"& ; - - - - & - > q q q q > + D U.U.U.U.U.! U Z C B I A Z I , O p L f f f f D f s w w d B L f o * 1 1 1 p < , < < 1 , 1 1 1 , 3 ",
"3.4.5.y.4.4.y.u.y.y.p.5.y.5.w '.:X%X%X#XH.&X4X#Xg.9.V.#X#X;XM + x.B.l.k.k.g.#X+Xu.2.6.k.l.#X2XS T.<X<X<X=X[.P.2X&XD.b.*X*X*X<XL ",
"7.4.y.y.4.2.y.u.y.y.3.3.u.u.j ].V.y.y.3.5.h.k.u.y.y.u.s.y.u.0   k 9.y.y.3.u.u.y.y.y.y.u.a.y.1XG }.l.u.u.y.p.l.%Xu.y.y.a.a.p.h.N ",
"3.,.,.6.5.y.y.y.p.u.y.4.y.y.s (.l.9.a.9.5.u.i.u.y.u.y.5.u.d.$ . 4.j.p.p.5.y.u.u.u.y.u.y.y.u.%XG ].#Xy.a.4.y.u.a.u.u.y.y.7.y.d.e ",
"y.d.y.9.:.y.u.y.a.5.5.y.y.5.0 w.6.p.a.9.3.2.u.y.y.u.u.3.3.:.# % ,.6.s.a.9.5.y.a.y.u.y.3.5.y.d.p t.p.9.d.p.5.y.a.y.y.u.y.3.y.>.& ",
"6.a.p.9.,.4.y.y.u.u.y.5.3.>.7 v 5.h.u.y.,.7.u.y.u.y.5.y.y.y.9 % ,.p.h.y.5.3.a.u.y.u.y.3.u.d.3.q 1.4.d.u.7.>.6.y.y.u.y.y.y.5.2.e ",
"p.9.a.p.5.y.a.a.y.u.y.3.y.>.# x u.4.6.6.,.y.y.u.a.u.p.r.5.5.0 % 3.u.h.u.u.y.u.u.a.h.5.2.5.5.3.> :.y.d.y.5.,.y.y.u.a.y.7.y.y.3.M ",
"k.u.y.3.y.u.h.u.u.u.y.p.y.h.7 v 5.,.3.5.5.3.y.y.y.y._.5Xx.u.i o 3.5.3.y.u.y.y.y.u.u.y.2.>.u.5.: x y.>.>.6.5.y.u.y.u.u.3.4.y.y.M ",
"C.d.h.a.d.l.;Xu.y.3.h.d.d.l.0 c y.7.y.u.5.3.u.u.u.u.|.8Xx.i.0 o 6.5.3.y.y.7.3.y.u.y.y.y.>.u.y.: x 7.4.y.u.2.2.y.u.y.u.5.y.u.u.k ",
">X>X>XK.].].,X[.S.b.].K.K.}.p : t k y y y t y c y k 5X6XA y & X t x v.Y.0 u u :.1.u :.u y u t + t >.>.2.3.>.2.2.5.3.3.9.2.3.2.a ",
"= = = , = = * * = , , = , & + + o o + + + + O   X 3 ..eX6 X 2 X O @ @.@.2 O X 2 = < = = * & = = , p p p p p & o % % % * * % o 2 ",
"2.>.2.,.>.2.0 - :.:.,.2.>.:.,.6.2.2.6.6.2.2.t - x v.eXrXv.U R U 1.v.iX8Xa u e L 1XK.c.7.1.,.c.H.J.f.F.F.G.F.A O 9 y y y k y y N ",
"y.u.u.3.u.a.:.9 5.7.3.u.y.2.5.u.u.y.y.3.u.i.>.t y.t.iXlX^.| #.X.Q.5XpX8Xe.h.u T.%Xu.d.u.5.y.y.u.d.y.y.y.u.p.w.% 2.i.y.y.u.u.u.u.",
"y.u.y.2.5.u.x 0 y.,.,.4.3.y.y.u.y.u.y.2.7.u.:.j u.t.wXlXpX .vXbX&.| pX8X7.u.u v.%Xy.s.y.y.u.y.y.y.y.4.y.u.l.<.% 2.d.y.2.y.y.y.u.",
"a.u.3.y.y.y.x e u.u.5.y.<.3.u.y.d.u.3.y.y.3.:.j u.(.8XlXlXiX@.;.;.X... Xe.7.u w.j.y.3.y.u.u.y.5.y.5.p.d.7.p.v % 2.3.5.3.y.a.a.u.",
"y.y.y.y.5.7.r s 4.p.h.5.5.:.p.y.u.u.y.y.5.5.k t 4.g.~.yXpXyXJ ` ' R F ~ _.u.v j u.u.y.3.>.3.:.u.y.4.5.u.d.2.u % >.y.y.y.3.y.u.y.",
"u.u.y.y.5.3.7 M s.9.a.p.9.5.y.a.y.u.u.3.5.3.7 9 4.7._.~ ( { X.&.&.$.;.X.Q.a.t.t 3.u.3.:.u 7.3.y.u.y.a.a.h.y.1.X 8 2.3.y.a.u.u.p.",
"y.y.y.5.u.h.k Z ;Xp.a.5.5.y.a.h.u.u.y.y.y.h.z j l.z.^ { %.=.$.[ ] ] { { ' ).).k 5.y.:.u 7.a.3.y.y.7.e.y.y.y.:.. v h.y.7.u.u.u.d.",
"y.y.u.u.p.a.:.v.:Xy.u.y.y.a.$Xj.y.3.u.u.p.a.<.N k.T.&.%.] R W ( ( 5XQ.K H J.].t u.u.:.u y.u.y.y.v.o.@.Y.2.s.u % 2.u.s.y.y.y.y.i.",
"H.G.H.=XH.1Xt.L 2X<X1X*X=XK.1X1XG.r.F.=X$X:Xm.M G.Q.` K ~ .XwXsXjXjXjXwX/.1X_.w 4.r r :.3.3.x.5X=.xXxX&.t.7.t o F.%Xl.%Xk.g.l.%X",
"5 1 5 < 5 5 @ X , 5 5 < 5 < 5 5 < 5 5 , 5 5 2 2 F ' E 9XaXaX'.N.|.aXaXR.! P S @ , o & ; , 1 | ;.xX-.-.xX$.K 3 X D I I I I P I ! ",
"L L L L G h L L h g G B G G 3 o & ; - - - & - : & E ( qXqXaXW.b.b./..Xb.m.R.D.D.,.b v z.D.5X*.xX-.-.-.-.xX| F f k y y k t y t 3 ",
":X=X;X$X&X&X4X%Xg.0.$X$X#X:XM c 5.5.y.y.4.3.y.u.p.!.! ~.qXgXoXV s E.( V U.g.j.u.y.4.p.h.x...-.=.-.-.-.-.xX@.L v.h.u.u.u.y.u.u.e ",
"k.y.y.5.y.d.+Xu.y.y.y.u.y.u.k :.6.4.y.y.3.3.y.d.|.5XW.W.uXhXaXW.qXjXlX7XE.a.y.y.y.u.y.y.f.~ %.xXxX*.xX*.xXxX| U s.y.y.3.3.u.u.e ",
"V.9.a.5.5.u.a.u.u.u.u.3.u.d.7 ,.5.,.,.,.3.y.s.!.7XsXOX|.OXoXOXoXXXXXXXE.~.d.y.5.u.y.y.3.y.v.{ -.*.xX=.xX=.;.=...x.d.y.y.5.3.2.s ",
",.p.a.9.3.3.y.y.y.a.y.5.3.:.$ ,.p.d.p.y.>.e.!.wXgXhXOXL.Z.A.b.Y n.n.b.b.U R.a.,.3.5.3.y.y.S.' *.xXxXxX*.=.{ _ K r.y.y.7.y.u.7.e ",
"9.d.a.y.,.4.a.y.y.u.5.y.9.3.t 1.4.a.a.5.w./.sXzXzXhXXXZ.@X@XB.b.Z.Z.B.@Xb.^.S.y.,.:.c 5.a.x.^ { xX*.xX*.[ J ` [ U d.u.u.7.3.u * ",
"y.5.4.6.,.y.u.u.h.y.3.5.y.3.k S.p.9.s.f./.dXzXzXzXhX'.Z.@XZ.b.Z.Z.8.q.B.Z.XX9Xe.p.u.z :.2.x.^ K #.xX%._ _ [ } } ' e.u.y.5.u.s.= ",
"4.,.3.3.5.3.y.y.y.u.3.3.y.y.N >Xl.p.u.e.wXzXzXzXhXhXW.B.@Xb.b.b.b 8.B.8.8.Y uX|.p.y.w.! Y.! C H } #._ _ } } } } ] U y.u.u.y.u.e ",
"9.3.y.u.5.4.y.u.y.u.y.y.u.u.c ,XA.h.j.m.aXzXzXzXzXhXR.B.@X8.l 8.B.A.@XA.b.l .XuXx.u.Y.7X! B U P _ _ _ } } } } } { K r.#X+X+X;XG ",
"c c z v c c x :.x v n v v z ; U.}.[.>X|.sXzXzXzXhXhXW.b.@X8.b.A.@X@X@X@X@XC.W.dXP S ~ ^.! ! G | ] 6 } } } } } { { ' P I I U P 4 ",
"G h G G G L < X * < , , , , = 5 1 < , o.aXhXzXzXgXaXoX8.A.A.A.@X@X@X@X@X@XA.W.fX .6 H ! E.XX..6 ' ' { { } } } } } ` 6 * = = 3 5 ",
"G.F.G.=X#X;XS.* t.G.H.F.k.S.K.H.a.<.1.rX.XhXzXzXaXoXaXY B.@X@X@X@X@X@X@X@XB.XXfX( h Y 7XE.uX.X}.3X( [ } } } } [ | |.*X*XK.J.K.<X",
"y.y.y.a.y.u.>., s.p.y.u.5.p.h.u.y.5.s.7XW.aXzXgX.XOXgXXXm B.A.@X@X@X@XA.Z.n.0X~.V ^.E.qXqXE.C D.%XT.' } } } [ K t.d.s.h.y.y.y.k.",
"y.y.u.3.u.h.x % s.k.p.p.3.y.u.5.y.u.a.W.OXfXzXfXW.yXzXaXM.m b.B.Z.Z.Z.B.8.Y ! Y C .X9X.XXX! h r.h.y.^ [ [ ` 5XK 6.h.y.y.u.y.u.h.",
"u.u.u.y.5.3.7 o 6.9.p.a.7.y.y.7.y.y.s.T.fXzXzXhXXXE.fXfXaXXXY m m m m Y Y V Y Y s E.fX^.Y.U K S.y.y.T.| | Q.).e 8 y.5.5.u.y.u.d.",
"y.y.3.y.5.p.u & >.4.d.y.5.2.u.y.>.3.<.W.gXzXzXhXW.C .XsXhXhXfXtXOXOXqX~.V Y Y g F K ! B L ' K x.y.:.7.r.D.s.2.e u 7.5.y.y.u.y.y.",
"a.u.3.y.5.5.:.& 3.u.j.u.u.y.u.y.4.7.c W.dXzXhX0XH F Q .XfXjXjXdXyXqX.XV Y C Q ^.] ` F S ` { U d.u.2.2.y.u.d.y.9 >.5.y.y.3.u.u.u.",
"y.y.y.3.y.u.:.& 2.y.5.y.u.y.y.y.y.u.8.Y.qXzX0XE 6 _ R p ! W.W.W.Y M C Y l Y .X6X[ } { *.=.[ w.y.y.5.6.,.>.2.y.w >.y.5.3.y.y.y.u.",
"u.u.y.y.y.u.>.& >.5.3.y.u.3.4.y.u.y.s.E./.uX .K } %.} [ Q N.N.M.Y C Y V N.I.W.^.] *.vXbX-.P x.y.3.2.u.y.3.4.5.7 3.a.y.3.y.y.u.u.",
":.:.1.:.:.:.0 + c 2.2.2.2.>.2.3.5.3.7.Q.W.~ { { -.xX*.#.[ g C l Y C g n.L.M.M..XW ;.bXvXX.w.7.y.4.,.4.3.4.6.<.- v 3.3.7.3.2.5.7.",
"+ @ + % + * 2 + % , , , , = % o % % & J ~...{ vXvXxX-.*.` 7XP V Y g T Q Q W ! XX~.| X.o.Q.A A > & : ; : q > - % - : : : : : : , ",
"[.}.[.].).).}.J.m.m.).J.J.].= o k k v q.! E { vXbXvX-.*.( kXuX! T ) +.+.+. .( ~.~.! Q.J.l.V.4XP 9 >.c :.3.,.>.2.7.2.3.7.2.2.2.s ",
"C.j.j.d.g.#X;Xu.5.5.k.d.h.k.w > 3.7.3.u._.K ` xXvXbXvX{ 0XfXfX^.W O.+.+.+.O.R.z.r.s.y.u.a.y.%XU y 5.1.,.9.6.2.3.y.y.y.y.5.d.u.N ",
"h.u.p.3.y.u.h.u.u.y.y.u.p.a.$ q y.,.2.3.7.U _ %.-.cXxX .uXqXE.g T O.O.O.W / s.9.y.y.y.y.7.y.#XP z u.2.4.3.,.>.3.3.u.u.3.2.y.y.N ",
"p.9.a.9.y.y.d.u.u.u.y.3.y.,.. q y.y.7.6.<.e.^ ` { =.%.' sXgX^._ J R R R T ! p.9.7.u.y.5.3.y.h.M z u.a.u.a.y.5.2.2.u.y.3.y.y.3.N ",
"2.a.y.5.:.7.y.u.y.a.y.5.3.:.% q 5.p.h.y.3.,._.P F ] { ..qX.X! 6 T T T T T ! p.p.>.>.x 3.y.a.y.9 n 4.a.a.3.6.u.u.3.5.u.y.y.7.2.0 ",
"y.h.y.9.>.u.y.u.u.5.5.y.p.5.q a 9.7.a.p.9.6.I C Z g J H XX! a 2 T ) 6X6X+._.u.y.5.p.:.:.3.y.3.e w.p.7.a.p.9.y.a.a.y.u.y.3.5.2.- ",
"5.,.6.,.5.y.y.y.a.u.5.3.y.3.> G %Xa.s.5.7.A Z U V Q T g Q !.n + / / ) Q Q ..w.u.y.y.4.u :.u.y.e `.#Xp.p.5.5.u.a.u.y.u.y.5.u.h.M ",
"4.6.y.y.4.4.y.y.y.y.3.5.a.u.q L 1Xu.y.y.y.v.P U T )  X6X) w.6.% ( ) 8X X6X8X) t.a.u.y.x x y.u.e '.$Xy.6.y.p.j.%Xu.5.5.u.d.y.h.N ",
"4.3.3.y.2.3.y.u.y.y.u.5.y.5.- D 4X&X;X%X=XqXeX9X/ / / / ~ ! S.+ F T ( / ) ) / ! 1.x x z 7 7 z % Y.<XJ.m.J.*XP.2X=XF.B.K.*X&X1XU ",
"s M s M f s w : : q q : q - O + L P P I U eXnX5XT E E K F H D @ 4 F J J J J J 4 O O X O O X O X + 1 5 1 < < < < < < 1 1 < 5 5 4 ",
"P.D.K.*XH.<XT.& u v u v x x <.x v z u u c A U H }.D.S.0.c 1.e.D.L.b.S.D.D.D.A < R.(.R.R.n.n.(.`.R.N.R._.(.'.U O U.`.S.(.(.m.(.].",
"y.y.y.d.p.h.6.0 u.u.y.y.u.u.u.u.3.3.u.y.7.7.u U :Xa.d.h.5.5.u.i.j.p.y.u.u.p.7.M +Xk.k.l.5.y.j.:X#Xk.h.l.V.$X,X, g.l.j.V.a.y.u.#X",
"u.y.y.y.p.h.v 9 y.d.3.3.y.y.y.u.3.5.7.3.>.3.:.A %Xp.p.y.u.u.y.y.a.y.3.y.u.k.e.9 u.y.p.y.u.u.u.h.a.y.3.y.u.k.,X, 6.u.p.y.y.y.u.h.",
"u.y.u.5.3.y.7 q 3.y.y.5.y.h.y.u.y.,.6.5.9.y.>.V l.y.3.5.u.y.u.9.y.5.s.p.p.p.,.# 7.u.3.y.u.y.u.d.u.5.9.d.5.d.F.+ r u.5.5.u.y.u.d.",
"y.u.y.y.5.5.r 7 2.y.y.5.y.y.y.u.9.>.5.u.h.5.,.s y.p.y.3.4.3.,.5.u.2.5.y.d.4.n $ u 3.5.y.u.u.y.y.4.>.9.p.a.6.8.& r 4.3.y.u.u.y.p.",
"u.u.3.y.y.y.:.# u 3.5.y.u.u.y.u.5.3.9.a.p.6.0.i 5.a.y.>.z 6.2.y.u.y.u.u.j.u.,.9 5.s.y.5.y.u.y.u.y.:.y.u.h.p.,.& >.u.y.y.3.u.u.u.",
"s.u.y.2.5.y.>.: d.a.7.y.u.y.u.a.u.5.5.9.p.V.[.s 3.y.>.x ,.a.y.y.y.y.y.y.y.y.>.9 3.y.3.3.y.a.u.y.y.5.,.,.,.y.>.& >.3.3.7.y.a.y.u.",
"u.u.y.3.y.h.>.9 u.u.a.y.y.y.y.+Xj.y.5.3.5.j.,XM y.u.>.u 5.y.u.y.3.5.y.y.3.5.:.0 u.d.3.3.y.y.y.y.4.3.y.y.2.4.,.& 2.h.y.3.y.y.y.u.",
"3.2.7.3.2.3.y a 1X#X#X$X0.g.#X4X*X&X%XD.S.-X}.w 3.:.r :.5.5.u.y.3.4.y.3.5.3.c w y.u.y.u.u.u.a.y.5.3.y.y.5.5.v % >.y.y.y.u.y.u.u.",
"% % % o o % O + D D G G D g G G P U U ! ! Z D = p ; > a a a q - - - - - - - % O : 7 7 w 7 q w w q q q w w q &   - q q q q q q w ",
"P L L w w e B L L f f B L L + 1 }.P.K.J.m.D.[.,XP.[.>X>X,X,XY.  % & - - - - - - - - - - % . %   * I I U U ! P U U I P I U U U F "
};
