/* XPM */
static char *result[] = {
/* columns rows colors chars-per-pixel */
"64 64 238 2 ",
"   c #090E19",
".  c #130E13",
"X  c #0D111A",
"o  c #1D1216",
"O  c #13121A",
"+  c #1C151A",
"@  c #1E191D",
"#  c #28100D",
"$  c #39140C",
"%  c #231416",
"&  c #2C1514",
"*  c #251718",
"=  c #251A1C",
"-  c #2C1C1B",
";  c #331613",
":  c #3A1712",
">  c #341915",
",  c #3C1913",
"<  c #321D1A",
"1  c #35221E",
"2  c #3B231E",
"3  c #171922",
"4  c #251E22",
"5  c #262227",
"6  c #362624",
"7  c #393335",
"8  c #4A180A",
"9  c #561804",
"0  c #541C0E",
"q  c #5B1D0D",
"w  c #411710",
"e  c #441B12",
"r  c #4A1C11",
"t  c #531F11",
"y  c #6A1D04",
"u  c #641E0B",
"i  c #6A1F09",
"p  c #761F01",
"a  c #5F200F",
"s  c #44241B",
"d  c #482419",
"f  c #542316",
"g  c #5C2A15",
"h  c #572818",
"j  c #5B2E1D",
"k  c #5C331D",
"l  c #65210D",
"z  c #6C210B",
"x  c #752205",
"c  c #7B2206",
"v  c #73230A",
"b  c #7B2408",
"n  c #7F290A",
"m  c #7C340C",
"M  c #662915",
"N  c #7A2B12",
"B  c #64331D",
"V  c #69371A",
"C  c #793817",
"Z  c #743C1C",
"A  c #4A2C25",
"S  c #552F21",
"D  c #4C372A",
"F  c #5C3121",
"G  c #563828",
"H  c #483B38",
"J  c #553E35",
"K  c #633421",
"L  c #693923",
"P  c #753A23",
"I  c #743B23",
"U  c #7A3D23",
"Y  c #78401A",
"T  c #7A411D",
"R  c #5A4329",
"E  c #574538",
"W  c #67452B",
"Q  c #784729",
"!  c #71512F",
"~  c #664836",
"^  c #774A35",
"/  c #6A5536",
"(  c #77563A",
")  c #78603B",
"_  c #423F42",
"`  c #4D4546",
"'  c #524543",
"]  c #584A45",
"[  c #534B4B",
"{  c #5B514E",
"}  c #524F52",
"|  c #555254",
" . c #5A5657",
".. c #53555A",
"X. c #664D43",
"o. c #6F574A",
"O. c #765848",
"+. c #645956",
"@. c #6C644A",
"#. c #756151",
"$. c #625F61",
"%. c #666568",
"&. c #746B6A",
"*. c #6D7075",
"=. c #757376",
"-. c #72757A",
";. c #832404",
":. c #8B2603",
">. c #8C2905",
",. c #83280A",
"<. c #8C2C0B",
"1. c #942602",
"2. c #9B2700",
"3. c #942A03",
"4. c #9C2A02",
"5. c #942D09",
"6. c #9C2F09",
"7. c #88380C",
"8. c #9D3106",
"9. c #99370C",
"0. c #8C3919",
"q. c #963915",
"w. c #9A3A15",
"e. c #A42B01",
"r. c #A92C02",
"t. c #B02F02",
"y. c #A43106",
"u. c #AC3205",
"i. c #A4350B",
"p. c #AB3509",
"a. c #A53A0C",
"s. c #AC3B0C",
"d. c #B23406",
"f. c #B23608",
"g. c #B53B0A",
"h. c #BB3D0C",
"j. c #A73B14",
"k. c #B03D10",
"l. c #8C3F22",
"z. c #C03F0D",
"x. c #96420E",
"c. c #88451A",
"v. c #994518",
"b. c #97531B",
"n. c #AB4B0E",
"m. c #BD420F",
"M. c #B3480E",
"N. c #BC530E",
"B. c #A4431B",
"V. c #A94718",
"C. c #B44514",
"Z. c #B84615",
"A. c #BB4A15",
"S. c #B34C1C",
"D. c #BB4C1B",
"F. c #A7561B",
"G. c #B95319",
"H. c #B4691B",
"J. c #844224",
"K. c #874827",
"L. c #994925",
"P. c #8C532B",
"I. c #965729",
"U. c #864A32",
"Y. c #934C33",
"T. c #8A5737",
"R. c #965935",
"E. c #A34A22",
"W. c #A74A25",
"Q. c #B44D22",
"!. c #AC5125",
"~. c #A75828",
"^. c #B45324",
"/. c #BB5423",
"(. c #BA5828",
"). c #A65536",
"_. c #85643D",
"`. c #9A623A",
"'. c #BB662B",
"]. c #A6683A",
"[. c #B16D33",
"{. c #B77337",
"}. c #C2420F",
"|. c #C4560E",
" X c #C34512",
".X c #C44A15",
"XX c #CA4B15",
"oX c #C54D18",
"OX c #C5531D",
"+X c #CB531B",
"@X c #C65B18",
"#X c #D2531A",
"$X c #D6591D",
"%X c #C76C1C",
"&X c #C35926",
"*X c #C75C27",
"=X c #CB5B24",
"-X c #D35B22",
";X c #E15E21",
":X c #C66728",
">X c #D86328",
",X c #D46D3B",
"<X c #E36324",
"1X c #885B48",
"2X c #975D44",
"3X c #886844",
"4X c #976847",
"5X c #8A7245",
"6X c #967355",
"7X c #A56A44",
"8X c #A97347",
"9X c #B77847",
"0X c #AB6A52",
"qX c #B57E51",
"wX c #9A7C64",
"eX c #C37E46",
"rX c #D28630",
"tX c #9C825F",
"yX c #BB8A57",
"uX c #B78658",
"iX c #B28F66",
"pX c #CB864C",
"aX c #C68955",
"sX c #D19057",
"dX c #D8975C",
"fX c #E19D5E",
"gX c #DC9D63",
"hX c #E29F61",
"jX c #D9A56E",
"kX c #CDAB77",
"lX c #E5A364",
"zX c #E5A86E",
"xX c #E5AB73",
"cX c #7A7C81",
"vX c #7F8286",
"bX c #86878B",
"nX c #949497",
"mX c #A8A19E",
/* pixels */
"0 0 t 0 0 0 & 1 !.!.W.!.c.E.^.(.E.!.^.!.!.(.I o u $ $ z z i v z i z i i i i : & c c ;.,.;.c ,.;.p b ;.p n p r X u b c ,.;.c ,.,.",
"& > ; ; ; & & > , e e e e , + A J.K.J.J.0.Q U I Z B P C P I - O d k j B h j j j h f r g B B F o * 2 < A s < < 1 6 < < 2 1 2 < 4 ",
"1.1.4.e.3.2.e.r.e.e.y.2.4.4.r !.$XXXXX XA.oX<X}.s.9. X Xm.#XM o j.M.k.g.f.k..Xh.r.3.3.g.z. X>XA L.=X=X=X&XOXG.>X+XC.w.OXoXoX=XK ",
"9.1.e.e.3.1.e.e.e.e.2.2.d.r.l ^.m.e.r.3.4.u.m.r.e.e.r.y.e.r.q . z 8.e.e.4.r.r.e.e.e.e.r.p.e.#XF (.m.r.r.e.u.h.XXr.e.4.u.u.u.f.M ",
"4.>.>.>.4.r.e.e.u.r.e.3.e.e.q W.h.8.u.4.4.r.r.r.e.r.e.1.y.u.$ . 5.s.y.8.4.e.r.r.r.e.r.e.e.r.XXS ^.z.e.u.5.e.r.r.r.e.e.e.y.y.d.f ",
"e.d.r.8.:.8.r.e.r.e.3.e.y.2.q 0.5.y.u.8.2.1.r.r.r.r.r.2.2.;.# % 3.3.y.p.8.3.r.u.e.r.e.2.2.e.p.S w.y.8.p.y.4.e.u.u.e.r.e.2.4.:.& ",
"5.u.r.4.:.3.r.r.e.r.e.6.2.:.$ b 4.d.r.e.>.5.r.e.r.e.4.e.e.6.0 % :.y.d.r.4.2.u.r.e.r.6.2.e.p.2.e ,.5.u.e.4.:.3.e.e.e.r.e.e.4.1.r ",
"i.8.p.8.4.e.y.u.r.r.e.2.e.1.# c r.5.3.5.>.r.r.e.u.e.e.j.i.2.q % 2.r.d.r.r.e.r.r.u.u.e.1.4.e.1.: n e.u.r.8.>.6.r.r.r.e.6.e.e.2.M ",
"g.r.r.3.e.r.d.r.e.r.e.e.y.d.8 b 4.,.2.e.2.2.e.r.e.r.q.0Xw.r.q % 3.e.2.e.r.e.e.r.r.e.r.:.:.r.2.: ;.e.:.>.5.4.e.e.e.y.r.2.3.e.e.M ",
"M.d.d.r.p.m.#Xr.e.3.f.p.p.h.l i y.4.e.r.5.2.e.u.r.r.W.iXE.t.q o 1.4.2.4.y.2.2.e.r.e.r.e.:.r.r.: b 5.1.e.r.1.1.r.r.r.r.2.e.r.r.M ",
"&X&X&XD.^.^.*XD.B.x.^.D.D./.s : i i i i i i i v i i 2XwX^ z & O u b 0.Y.M v p ,.,.p p ,.i p i o q >.5.1.1.>.1.1.e.1.2.6.1.2.2.f ",
"- - < - - - = = - < > < < - o + o o + + + o O   O 3 +.tX[ O 3 O X 3  .tX5 O O O - 1 - & % - - - < e d s e d & o % % % * % % o 3 ",
">.:.1.>.:.1.q ; ;.>.>.1.>.,.>.1.1.:.5.5.:.1.u : p 0.1XiX2XU.E G N 0.wXwXB p 8 K -XD.k.6.,.>.s.A.S.j.C.C.Z.C.C O t i i z i i v N ",
"r.r.r.2.r.d.;.0 4.5.2.e.e.1.4.r.r.r.r.2.r.t.:.u e.B.6XkXwX#.+.%.X.4XiXiXw.t.;.K.XXi.p.p.3.e.e.r.f.e.e.e.r.y.0.% 1.r.r.e.r.r.r.r.",
"e.r.e.1.4.e.b q e.>.>.3.2.e.e.r.e.e.e.1.e.e.;.u e.W.6XkXkXO.&.nXbX+.6XiXq.r.c l.XXe.e.e.r.r.e.e.r.4.3.r.e.h.<.% 1.u.e.2.e.r.e.r.",
"u.r.2.e.e.e.b q e.e.e.6.>.2.r.e.p.r.2.e.e.6.;.u r.k.2XiXkXkXO.*.=.%.] 3Xq.2.p 0.d.r.2.e.r.r.e.6.e.e.9.u.6.y.b % :.2.2.e.2.u.r.e.",
"e.r.6.e.4.e.y a 3.y.u.e.3.;.y.r.e.r.e.e.6.e.y u 3.p.).3XiXiX~ ' ` E E D Y.u.c l e.u.e.3.>.2.;.y.r.1.3.r.u.3.x % :.y.e.e.5.r.e.r.",
"e.r.r.e.2.3.8 B i.8.u.y.8.4.r.u.e.r.r.4.2.3.8 0 5.2.Q.^ / o.+.%.=.%.*.&.X.j.q.l 4.r.e.c c 5.2.r.e.e.u.r.d.r.c . 9 2.2.e.u.r.r.y.",
"e.e.e.4.e.d.y P #Xy.p.4.4.r.u.r.e.r.r.e.e.d.c q h.j.U.+.+.=.+.| ' ` [ [ [ Y.!.u e.e.;.p 4.y.4.e.e.e.r.e.3.r.c . b p.e.4.r.e.e.d.",
"e.e.r.r.y.u.;.l.$Xy.r.r.e.u..Xf.e.4.e.r.y.u.>.N p.W.#.=.| H E / T.3XT.^ G ).^.z r.r.;.x e.r.r.r.1.e.e.e.2.e.b % 1.r.y.e.e.e.e.d.",
"A.C.D.+XA.-Xw.F >X=X-X+X+XS.>X+XZ.w.C.+X.X-Xv.M h.2XE J ~ T.9XyXsXhXhXsXT.,X~.r 2.y y ;.2.2.i.2.1.1.3.2.2.1.q % Z.XXh.XXg.s.h.+X",
"6 2 2 2 6 2 @ X - 1 1 1 1 1 2 6 1 1 6 < 6 1 + 3 A ' ] T.aXeX[.v.b.].aX).R.W 6 = & o & > > > & % % % & % * % O X F P L I P L P U ",
"B K K K k j K K F j k K F F = + & > ; ; ; ; ; ; & A o.7X8XpX].7.7.c.7XI.R.L.V.V.<.v n w.B./.J.O e u z l i z u v z i i z i i q = ",
"$X+X+XXXoXOX<XoXs.9..XXX X$XM v 4.4.e.e.3.3.e.u.e.).Q K.].fXpXc.g Q 4X! U.S.f.u.e.3.r.g.u.z.*X= ;.e.2.r.r.3.3.r.r.r.r.e.e.r.r.h ",
"s.e.r.3.e.u.}.r.e.e.r.r.e.r.z ;.8.3.4.r.5.2.e.r.W.2XR.I.[.dXsX[.].sXkXiX4XB.r.e.e.r.e.e.e.f./.- :.3.>.3.e.4.2.e.e.e.r.2.3.r.e.h ",
"m.y.u.4.4.r.r.r.r.r.e.4.e.d.r :.4.>.>.>.2.e.r.).6XaXpX).{.{.].9X].].].].R.j.4.e.r.r.e.2.4.d.j.- >.e.4.3.5.1.e.r.r.p.e.4.4.e.2.f ",
">.y.u.8.3.2.r.r.e.r.e.4.2.;.$ >.r.d.r.6.>.i.L.8XdXlXpXF.N.N.n.Y P.L.x.~.K.q.u.5.2.3.3.e.r.r.>.& >.e.d.r.6.;.6.r.r.r.4.e.e.y.2.f ",
"8.u.u.e.:.5.r.e.r.r.6.e.6.2.u <.>.u.y.4.7.U.qXlXlXhXpXF.|.|.n.x.:XH.n.G.'.I.B.4.>.:.x e.r.y.b - 9.5.u.u.8.3.2.y.r.e.r.e.2.2.p & ",
"e.6.2.5.>.e.r.r.u.e.e.4.e.2.M B.i.8.i.i.Y.8XlXlXlXlX9Xn.|.|.x.G.:Xb.m 9.G.~.7X9.y.p.p ;.2.2.;.- S.f.i.p.4.e.r.u.r.e.r.e.2.p.6.; ",
"3.>.3.4.4.4.e.e.e.r.2.3.r.e.v &Xh.u.r.w.4XgXlXlXlXlX9Xx.|.G.b.x.c.c.n.x.m m R.].6.r.c p 2.d.:.- *Xg.e.e.3.e.d.h.r.e.e.e.y.y.r.f ",
"4.4.e.r.4.3.e.r.r.r.e.2.r.r.v *XA.g.d.W.8XlXlXlXlXlX9X7.@X~.Y m v.:X:X|.n.7.Q qXj.e.3.p y e.b % *X@X.XXX XA.+X;Xh.p.8.oXz. X#XF ",
"v v x x v v c ,.c c n b c x > J.G.(.&X).].lXlXlXlXhXeXc.:X~.v.N.|.%X:X@X|.N.v.pX( , ; ; . & %   G Y.Y.Q I P L U P V B P P P L 4 ",
"j B F F F F 2 X = 1 1 < < - 1 < 2 < < E ].fXlXlXlXpXsXP.H.:X:X@XN.|.:X:X|.|.n.yX1X5 - - - * 4 7 `  .%._ 5 - 4   O - - - 4 - 4 6 ",
"Z.C.A.+X X#XB.= w.C.A.C.k.j.D.A.p.>.:.0X4XpXlXlXdX[.gX].c.G.:X%X|.|.|.|.|.|.v.sXqX&XD.&XV.L.2X$.*.-.cX=.2X*X*XA E.=XD.OXD.S.D.=X",
"e.e.r.e.y.r.>.> i.e.r.e.e.y.f.r.e.e.y.0XP.{.fXfX9X].xXaXC x.N.:X:X|.|.|.|.x.R.yXR.k.u.d.e.w.+.-.cX-.=.cX&.R.-XV 4.d.y.p.r.2.e.h.",
"e.e.r.4.e.d.x % a.f.y.e.3.e.r.4.e.e.p.Y.{.sXlXhX].qXzXzXqXC 7.F.'.G.M.n.7.c.8XyX].j.y.e.r.B.+.*.-.-.-.-.cXo.L.j >.u.e.e.r.r.r.r.",
"e.r.e.e.2.1.8 o 5.8.i.p.y.4.r.6.e.e.j.R.pXlXlXlXyX8XsXlXxXyXP.Y c.Y m Y R.pX8XdX9Xw.2.4.r.B.{ *.-.-.-.%.%.+.B 6 9 e.4.4.r.e.r.s.",
"r.r.4.e.e.6.c & ;.4.u.e.2.1.r.6.:.2.L.R.8XqX3X4X8XQ 9XdXzXxXfXpX{.{.yXsXsX8XP.dXuXU.0.i.i.0.{ *.-.%. .` H H A A p 3.4.e.e.r.e.e.",
"u.r.2.e.e.2.;.& 1.r.d.u.r.e.r.e.3.6.U.^ ~ +.[ [ ] k W 8XsXgXjXpXeXdXlXgXuXK.P.dX7X4X2XP P j ' %.} _ H ` } ..' A 1.e.r.e.3.r.r.r.",
"4.e.e.2.e.r.;.& 1.e.2.e.e.e.e.e.e.p.R.' [ | | | | D b.F.I.].`.b.c.I.I.b.c.Y K.`.Q T.V V P L H H H [ | ......[ A >.e.4.3.e.r.e.r.",
"r.r.r.2.r.r.:.& >.4.2.e.r.2.2.r.r.r.Y.H } bXbX=.=.+.H.rXrXrXrX%X%XH.%XH.b.C g g Y Y ( Y K L H } ............} A 1.t.r.2.e.r.e.r.",
";.;.,.,.;.;.q + v 1.1.1.1.>.>.2.y.2.Y.[ vXmXnXbX=.%.T.{.[.{.{.H.H.c.Y Y V V ! P.`._.].4Xl.1X} ..............| 6 b 2.2.5.5.2.2.6.",
"+ = + % = + + O * & - < < & % o % & ' +.vXnXnXbX-. .E / W k k V V k Y Y Z V `.I.{.aX`.T.P l.[ ..............| 7 < : : , : : : - ",
"(././.^.!.!.&XQ.v.v.S.Q.Q.!.1 o i i U.&.cXbXbXcXvX%.J R k k V Y Y Y Y k R R ].yXR.8XW G j.Z.o...............} P 6.2.1.6.:.2.2.h ",
"s.g.d.d.p. X#Xu.4.4.g.f.d.h.e : 6.6.j.1X%.cXcXcX*.$.G V Y Q T V k k E @.@./ R _.E +.*.J p.p.l.........} } ` L 5.e.e.e.e.e.u.r.N ",
"g.r.r.3.e.r.d.r.r.e.e.e.e.p.: e e.<.w.1X$.*.%.[ / ) L V V h k G R R @.) @.E E [ %.cX#.0.e.r.W.[ | } ' X.l.l.<.1.2.e.r.e.1.e.e.N ",
"y.8.u.8.e.e.u.r.r.r.e.2.e.>.. e B.U.W ~ +.| ] 4XaXdX_.s A D P H 7 E E E H D `  .+.O.B.e.4.e.p.^ ] l.L.j.f.e.2.1.1.r.e.5.e.e.2.N ",
"3.u.y.6.;.1.r.e.e.u.e.4.2.;.& ' O.U.T.Q X.O.qXfXpX`.! W W V n 6 E R R R R ! P.! K.7.b 1.e.p.e.f ,.5.t.t.5.1.e.r.2.e.e.e.e.4.1.a ",
"y.f.r.4.:.y.r.r.r.4.6.e.e.4.e { ^ Q T.( X.qXaX2XT.S / _.) C 9 + R ) 5X_._.q.e.e.4.y.c ;.4.4.2.0 l.y.6.p.i.4.e.r.u.e.r.r.2.4.:.; ",
"3.>.3.>.4.e.e.e.u.r.4.2.e.4.w E ^ U L.v.).4X2X2X( ~ ! R W W.x + ! / _.) G U.q.r.r.r.3.p ;.r.e.t W. Xe.p.3.4.r.d.r.e.r.r.6.r.d.l ",
"4.3.e.r.1.1.e.r.e.e.2.2.p.r.: K >Xi.r.e.6.B.Q.Z.! ) _.5X_.K.5.% 1X) tX_.5X5X3Xq.r.r.e.x c e.t.0 !..Xe.>.r.y.g.XXd.e.4.u.p.y.f.,.",
"1.3.2.4.1.2.e.u.e.e.e.e.e.4.> S <X+X#X.XoXZ.;X-XP./ ) ) ( ^ 0.o J / / / / ( / L ,.c c v 8 9 i & K.=X^.q.S.OX/.>XoXC.x.D.oXoX=XU ",
"g B M g M h t : , e e : w : O + K L L P P B K K ~ E E J J J A + 5 H D H H H H 5 O O O O O X O   @ 1 2 6 1 1 1 - 1 2 2 2 6 6 2 5 ",
"S.C.S.OXA.=Xl.& v b p b b b ,.p c b p p b i 0 s (.V.B.9.v n w.V.E.w.v.B.V.V.C < E.L.E.L.c.c.E.!.L.L.E.W.E.!.I O J.!.B.E.E.v.E.!.",
"e.4.r.u.y.d.5.0 r.r.e.e.r.r.t.r.3.3.r.r.3.e.;.P $Xu.u.d.4.3.r.t.f.y.e.r.r.y.9.l  Xf.g.h.4.4.f.$X.Xs.g.g.m..X:X< a.h.s.h.u.e.u.}.",
"e.r.e.e.y.d.b 0 e.r.2.2.e.e.e.r.4.4.4.1.>.2.:.P XXr.y.e.r.e.r.e.r.e.2.e.r.g.9.r u.r.y.e.r.r.r.d.d.e.2.e.r.g.&X> 3.r.y.e.r.e.r.d.",
"e.r.e.2.2.e.8 8 4.e.e.2.e.d.e.r.r.>.5.3.8.r.:.V h.e.3.e.r.e.e.6.e.e.9.u.8.i.>.# 2.r.2.e.r.e.r.u.e.e.8.u.8.p.S.% i r.4.4.r.e.r.p.",
"r.r.y.e.6.2.i 8 1.y.e.6.e.e.e.r.4.:.6.r.d.4.>.g r.r.e.4.1.2.>.e.r.1.4.r.u.3.;.$ p 2.4.e.r.r.e.r.3.:.6.y.u.>.<.% y 1.4.e.r.r.r.e.",
"r.r.2.e.r.4.;.# p 2.e.e.r.e.r.y.4.3.8.u.p.3.9.a 3.r.e.:.x 5.1.e.r.e.e.r.f.r.>.0 2.p.e.4.6.r.e.r.r.;.6.r.f.r.>.; :.y.e.e.4.r.r.e.",
"y.r.e.1.4.r.;.: i.r.4.e.r.r.r.u.r.4.4.y.y.g./.a 2.e.>.x >.u.2.e.e.e.r.e.e.e.:.0 2.e.3.2.r.u.r.e.e.4.3.>.>.4.>.& :.2.4.4.e.u.e.r.",
"e.e.e.2.r.t.:.0 r.e.u.e.e.e.e.z.f.e.2.2.4.g.*Xl r.r.:.y 2.r.e.e.2.2.r.e.2.e.;.q r.r.2.2.r.e.e.e.3.4.e.e.3.5.:.& 1.u.e.1.e.e.e.e.",
"4.2.e.5.1.2.i f #X.X.XXX9.s..X;X@XD.XXB.B.=X(.r 4.;.y ;.e.2.p.e.3.2.e.3.2.3.v r e.r.e.p.r.r.r.e.3.3.r.e.4.6.c % 1.r.e.e.r.e.r.r.",
"+ % o % % % X O S F F S S S F F P U Q U Q I j - d : , f f f e ; ; ; ; ; ; ; o O : r 8 r w 8 r r e e w 8 r w &   & e w e e e e r ",
"L K B r r f B K B F j B K F + s (.D.S.S.v.V./.:XS./.&X*X*X:XJ.  % & ; ; ; ; ; ; ; ; ; ; % . %   4 I I U U U L Q I P L I U U P D "
};
