/* XPM */
static char *result[] = {
/* columns rows colors chars-per-pixel */
"64 64 239 2 ",
"   c #080F1A",
".  c #140E13",
"X  c #0D111B",
"o  c #1E1216",
"O  c #12121A",
"+  c #1C151A",
"@  c #1C171B",
"#  c #28100D",
"$  c #39140C",
"%  c #231416",
"&  c #2C1515",
"*  c #221619",
"=  c #251B1D",
"-  c #2C1C1B",
";  c #331613",
":  c #3B1712",
">  c #351915",
",  c #3D1912",
"<  c #321C1A",
"1  c #35221E",
"2  c #3B231D",
"3  c #191922",
"4  c #261D21",
"5  c #292428",
"6  c #372623",
"7  c #332F32",
"8  c #393436",
"9  c #491809",
"0  c #5B1B05",
"q  c #541C0D",
"w  c #5B1D0D",
"e  c #441B12",
"r  c #4A1C11",
"t  c #531F10",
"y  c #6A1D04",
"u  c #641E0B",
"i  c #6A1F09",
"p  c #751F01",
"a  c #5C220F",
"s  c #43231B",
"d  c #4A251A",
"f  c #532316",
"g  c #592718",
"h  c #5C2E1D",
"j  c #58321C",
"k  c #5C331E",
"l  c #66250D",
"z  c #6C210B",
"x  c #752206",
"c  c #7C2306",
"v  c #73230A",
"b  c #7A2408",
"n  c #7D290B",
"m  c #7A330B",
"M  c #662A15",
"N  c #792B12",
"B  c #63331D",
"V  c #6B3619",
"C  c #6C3B1B",
"Z  c #723C1C",
"A  c #7B3918",
"S  c #4C2B21",
"D  c #542F22",
"F  c #4B382B",
"G  c #5C3221",
"H  c #573928",
"J  c #4B3C38",
"K  c #533C34",
"L  c #633421",
"P  c #663A24",
"I  c #6C3B23",
"U  c #743B23",
"Y  c #753A25",
"T  c #7A3D24",
"R  c #77401D",
"E  c #5B452C",
"W  c #4D4134",
"Q  c #524631",
"!  c #54443C",
"~  c #594638",
"^  c #67452A",
"/  c #794628",
"(  c #674734",
")  c #774A36",
"_  c #6A5536",
"`  c #755739",
"'  c #745D39",
"]  c #7A623B",
"[  c #3A3A41",
"{  c #4B4445",
"}  c #584A44",
"|  c #544C4C",
" . c #524E51",
".. c #5A5455",
"X. c #5A575A",
"o. c #634E48",
"O. c #655A43",
"+. c #66574A",
"@. c #775747",
"#. c #655956",
"$. c #775F5A",
"%. c #6B644A",
"&. c #75654F",
"*. c #5E5F63",
"=. c #615E61",
"-. c #686568",
";. c #746968",
":. c #7B716E",
">. c #6A6D73",
",. c #6F7176",
"<. c #777477",
"1. c #72757A",
"2. c #76797E",
"3. c #7B797C",
"4. c #832404",
"5. c #8B2603",
"6. c #8C2905",
"7. c #812609",
"8. c #832A0B",
"9. c #8C2D0B",
"0. c #942602",
"q. c #9B2700",
"w. c #942A04",
"e. c #9C2A02",
"r. c #962D08",
"t. c #8A3A0D",
"y. c #9D3106",
"u. c #9A370C",
"i. c #842E10",
"p. c #883918",
"a. c #983A16",
"s. c #A42B01",
"d. c #A92C01",
"f. c #A43106",
"g. c #AC3205",
"h. c #A3340B",
"j. c #AC3509",
"k. c #A53A0B",
"l. c #AC3B0C",
"z. c #B13306",
"x. c #B03407",
"c. c #B23608",
"v. c #B43B0B",
"b. c #BB3D0C",
"n. c #A43B15",
"m. c #893D22",
"M. c #C03F0D",
"N. c #97420E",
"B. c #89441D",
"V. c #984417",
"C. c #A94A0E",
"Z. c #B4470E",
"A. c #BD410F",
"S. c #B7500E",
"D. c #BC520E",
"F. c #A94619",
"G. c #B44514",
"H. c #B64814",
"J. c #BB4A15",
"K. c #B44D1C",
"L. c #BB4D1B",
"P. c #B9511B",
"I. c #854224",
"U. c #884B27",
"Y. c #984826",
"T. c #8A532D",
"R. c #98572B",
"E. c #8C4C34",
"W. c #895835",
"Q. c #965938",
"!. c #A34B22",
"~. c #AA4B25",
"^. c #A85528",
"/. c #B35324",
"(. c #BB5423",
"). c #B25129",
"_. c #BB5828",
"`. c #A95839",
"'. c #88653F",
"]. c #996239",
"[. c #B0652F",
"{. c #A66739",
"}. c #B56C39",
"|. c #B7723D",
" X c #C1410F",
".X c #C4550D",
"XX c #C34512",
"oX c #C44A15",
"OX c #CA4B15",
"+X c #C84E19",
"@X c #C5531E",
"#X c #CA531B",
"$X c #D3531A",
"%X c #D65A1D",
"&X c #C35926",
"*X c #C65C27",
"=X c #CB5B24",
"-X c #D35A21",
";X c #E15E21",
":X c #DB6326",
">X c #C5743D",
",X c #E36325",
"<X c #865C44",
"1X c #975D43",
"2X c #896845",
"3X c #996B48",
"4X c #8E6B50",
"5X c #98765C",
"6X c #A56945",
"7X c #A77246",
"8X c #B87947",
"9X c #B07655",
"0X c #8C7D72",
"qX c #A87F72",
"wX c #C27D49",
"eX c #BD814E",
"rX c #A48054",
"tX c #BB8455",
"yX c #9E8466",
"uX c #AD8B66",
"iX c #C8844B",
"pX c #D18A4C",
"aX c #CA8B54",
"sX c #D28E52",
"dX c #D59459",
"fX c #DC995C",
"gX c #E19E5E",
"hX c #C29C68",
"jX c #DC9D62",
"kX c #E09F61",
"lX c #D1AA75",
"zX c #E4A363",
"xX c #E8A666",
"cX c #777B80",
"vX c #7A7C81",
"bX c #817F82",
"nX c #7F8287",
"mX c #828489",
"MX c #909297",
/* pixels */
"q q t q q q & 1 ^./.~.^.B.!./.).!.^././.^._.I % u $ 9 y z i v z z z i i i i : & b 4.c 8.4.7.7.4.p 7.7.p b x q O u b 4.7.7.x 8.8.",
"& > ; ; & ; ; ; , , e e e e @ S I.I.I.I.I.A T U Z B Z U U Y - O d k B h g g D G g t r g B V G o = 2 2 s s < < - 1 2 < 2 2 2 < 4 ",
"0.w.e.s.w.0.s.d.s.s.f.q.q.s.r ^.-XOXOXXXJ.oX,XXXl.y.A.XXA.$XM + n.C.v.v.z.l.XX Xd.w.w.v.b.XX,XS Y.=X&X-X#X&X(.:X@XF.F.L.@X+X=XL ",
"r.w.s.s.w.0.s.d.s.s.q.q.z.d.w _.A.s.s.q.s.j.A.d.s.s.s.j.s.d.w . z y.d.s.e.d.g.s.s.s.s.d.f.s.-XD _.b.g.d.s.f.b.OXd.s.q.g.g.f.g.N ",
"s.6.6.w.e.s.s.s.g.s.e.w.s.s.w !.b.y.j.e.s.d.d.d.s.s.s.e.s.j.$ . r.c.f.h.e.s.d.d.d.s.s.q.s.d.+XD ).XXs.f.e.e.d.d.d.d.s.s.e.s.j.t ",
"s.j.s.f.8.s.d.s.d.s.e.s.s.e.l i.w.f.j.y.w.0.d.s.s.d.d.q.q.4.# % 6.w.h.j.y.e.s.g.s.d.d.s.q.s.c.f a.y.y.j.f.e.s.j.d.s.d.s.q.s.5.- ",
"w.g.f.y.5.w.s.s.s.d.s.s.w.5., b s.z.d.s.5.r.s.d.d.s.e.s.f.e.q % 0.y.n.~.y.q.g.d.d.s.y.e.d.j.q.e 8.w.g.d.e.5.w.s.s.s.f.s.s.e.0.r ",
"h.y.g.y.e.s.g.g.d.d.s.q.s.0.# c s.r.w.r.6.s.d.d.z.s.s.e.s.q.w % q.g.Q.1Xc.s.d.d.d.g.s.0.e.e.0.: 7.d.g.s.y.6.f.s.s.z.s.e.s.s.q.M ",
"v.d.s.e.s.d.z.d.s.d.s.f.s.g.9 b r.5.e.s.q.q.s.s.s.s.s.0.d.d.w % q.a.4X`.d.s.s.d.s.s.d.5.5.d.q.: 7.q.7.0.6.e.s.s.s.s.s.s.0.s.s.M ",
"Z.j.c.d.j.b.$Xd.s.e.c.c.g.b.a v s.q.s.d.e.q.s.x.d.d.s.s.d.d.w % i.1X5X`.d.0.0.d.d.d.d.s.5.d.s.e c y.q.s.d.q.0.s.d.d.s.q.s.d.d.M ",
"&X&X&XL././.*X(.F.V.K.L.K._.s , u z i i z u z v i i z z z z & X / uXuXY w p p 4.7.p 4.p i i i o w 6.9.5.q.6.0.0.s.e.q.y.0.0.q.t ",
"- - - < - - = = = < < - < - o o + o + + + + X   O O O O O O X 3 &.lX0X[ 5 7 O O < 8 8 - & - - - 1 r r S r s - % + % * * % % o 3 ",
"0.0.w.6.5.0.w ; 4.5.5.5.5.4.5.r.r.5.r.0.0.0.u : p 7.7.4.4.p 7.i.7XlXyX#.| o.K B wX9X9Xn.4.5.n.J.K.n.G.G.K.G.N O q i i z z i v N ",
"s.s.s.q.d.z.4.q e.r.q.d.s.w.s.d.d.d.s.q.d.d.5.u s.q.q.s.s.0.s.h.7XlXhX+.2.-.#.3X9XuX6Xd.q.s.d.g.j.s.s.s.s.d.p.% 0.d.s.s.d.d.d.g.",
"s.d.s.0.s.s.c w s.6.5.w.q.s.s.s.s.d.s.0.s.s.4.u s.q.s.s.s.s.s.y.W.hXlX5X0XMX;.4XaX9X).s.d.s.s.s.s.s.0.s.d.b.i.& 0.x.s.0.s.s.s.s.",
"j.d.q.s.s.e.c w s.d.f.y.6.q.d.s.g.d.q.s.s.r.4.i d.d.d.d.d.s.s.a.) '.rX' X.,.1.+.uX5Xn.y.d.d.s.e.s.e.f.j.f.h.p % 5.q.q.s.s.x.d.s.",
"s.d.e.s.e.e.i l w.f.z.s.w.4.g.s.s.d.s.s.e.e.i u w.j.d.e.e.e.n.) ..+.+.| | } | } 4X<Xk.e.5.0.5.g.s.0.e.g.g.w.v % 5.f.f.s.e.s.d.s.",
"s.d.d.s.e.q.9 B k.w.g.f.y.e.s.j.s.d.d.e.e.e.9 q e.y.z.f.e.h.) ;.=.-.-.*.-.;.X.! ~ 6Xs.4.c r.e.s.d.s.g.d.z.d.c . 0 0.q.s.f.d.s.g.",
"s.s.s.e.s.z.i Z $Xg.g.e.e.s.g.d.d.d.s.s.s.z.x u b.f.g.r.e.h.Y J ~ K W } ! | X.<.#.3Xi.x e.f.q.s.s.s.s.s.s.s.c . c z.s.e.s.s.s.z.",
"s.s.d.d.f.d.7.m.%Xf.d.s.s.g.OXc.s.q.d.d.f.g.6.N g.s.s.s.e.g.E.3XtXeX9XW.Q.` ! } ..$.a.x s.s.d.s.0.s.d.q.0.e.b % 0.d.f.s.s.s.s.z.",
"H.H.L.#XoX-Xa.G :X&X-X@X=XP.-X-XL.u.K.+XJ.%Xa.B Z.Z.b.b.l.C.Q.hXsXpX8XV.{.dXtX' J } N 8.q.q.d.q.0.0.e.0.0.w.u * G.OXb.oXb.l.v.$X",
"2 6 2 2 6 6 @ X 1 1 1 1 < < 6 6 6 1 1 1 6 6 3 + d j G H ) ) / {.8XsX}.N.C.8XdX{.( ..< > < < & * % % & % % % O X G Y U Y Y I I T ",
"L L L L G h L L G h G L L G 3 o & : > ; ; ; ; > 1 8 ~ @.2X{.U.R.dXfX}.Z N.R.R.V.1XI.b n.n._.m.X r u z i i l i i l i i z i i u 4 ",
"%X#X#XOXoX@X,XOXl.u.XXoXXX%XN i e.w.q.s.w.q.h.Y.].aXkXkXkX>XR.|.dXfX{.C a T.B.p.Q.y.s.c.j. X*X& 4.e.e.s.d.e.e.s.d.s.d.s.s.d.d.f ",
"v.s.s.e.s.z.A.d.s.s.d.d.s.g.i 7.e.w.s.s.r.i.Y 7XjXxXzXzXgX|.^.[.|.8X{.].eX7Xk ^ `.d.s.h.s.c.&X- 6.e.6.e.e.e.e.s.d.s.s.q.e.d.s.g ",
"v.f.g.e.e.s.g.d.d.s.s.e.d.g.9 5.e.6.5.9.p.U.{.jXxXzXzXzXfX[.S.D.D.!.{.{.aXlX3X<X).d.s.q.s.x.n.- 5.s.w.w.r.w.s.d.d.z.s.s.e.e.q.f ",
"w.y.j.y.e.e.d.d.s.d.s.e.q.4.$ 5.d.c.s.Y.7XdXfXzXzXzXzXxXsXR.D..X.XN.A B.B.R.T.5X~.q.q.s.s.d.5.% 6.e.c.d.e.4.s.s.s.s.s.e.s.f.q.f ",
"w.c.d.f.5.w.d.s.d.s.s.s.y.e.u 8.w.g.l.Q.jXzXzXzXzXzXjXfX|.N..X.XC.N.D.D.C.C.B.<XY.4.v s.s.h.7.- u.w.f.g.f.w.e.s.d.d.d.s.q.q.p & ",
"s.y.w.r.6.s.d.s.j.s.s.e.s.q.l F.h.u.Y.8XgXzXzXzXzXzXfX>X[.N..XD.t.S.S.C.V.S.S.2X`.x.p 5.e.e.4.- (.v.y.f.e.e.d.g.d.d.s.s.e.j.y.> ",
"e.6.q.e.e.e.s.d.s.d.q.0.d.s.N *Xb.j.I.8XzXgXzXxXzXzXsX|.R.N.D.N.m m V ` @.B.S.R.1Xd.4.p 0.z.5.- *Xv.d.s.q.s.c.b.d.s.s.s.f.s.d.f ",
"y.e.s.d.e.0.s.d.d.d.d.s.d.d.v *XJ.v.^.|.gXzXfXsXdXpX].[.R.t.D.t.t.C.N.T.0X<Xt.R.3X~.0.c y s.v * *X#XOXOXXXJ.#X;Xb.l.f.XX XXX$XD ",
"z v x x v v x 8.b x n p b v ; I.(._.R.{.gXzXaX/ P H R |.{.t.S.D.D..X.XS.N.B.t.l 3X5XD ; . # o   j U U U U U I Y U V B Y Y Y I 4 ",
"D B G G G L < X = 6 < < 1 < - 6 2 1 s Q.sXtX@.| J 7 P 8X|.B.C..X.X.X.X.XD.Z.S.t.{.tXo.6 - 4 - 4 = = = = 4 4 *   3 4 4 4 - = 4 6 ",
"A.G.J.+XXX$XF.= a.G.J.G.l.n.L.J.h.6.n Y.{.@...{  . .! ].iXB.t.D..X.X.X.X.X.X.XC.7XxXrX6XF.F.L.-X=XK.=X=X=X*X*XS ~.=XoX-XL.K.L.-X",
"s.s.s.g.f.d.5.< h.s.d.s.s.f.z.d.s.s.e.m.( | *.vX1.>.X._ pX}.R N.S..X.X.X.X.XD.N.9XxXdX6Xf.s.s.M.OXg.s.d.x.a.1Xo.<XE.E.m.a.y.s.v.",
"s.s.d.q.s.x.b % k.v.f.s.w.s.d.e.d.s.s.a.K { vXMX2.1.*.~ eXpX[.A t.C.S..X.XD.C.T.jXdX{.<X~.s.s.d.g.s.e.e.u.@.3.vXvXvXbX:.$.n.d.x.",
"s.d.s.s.q.0.9 % w.y.f.h.f.e.s.y.s.s.d.y.K X.bXMXnX,.-. .W.kXsX|.U.R m N.t.t.m ].pX8X6X4X`.d.d.g.s.s.y.h.a.=.1.1.cX,.cXcXcXm.d.j.",
"s.d.s.s.e.f.p & 4.e.c.s.e.0.d.s.5.w.5.y.T X.cXMXMX1.>. .E eXfXsXiX|.R.R.R.{.{.R.iXzXxXaX1Xj.s.s.e.4.e.e.p.-.cX1.,.cX,.,.cXY.d.d.",
"g.d.q.s.s.e.4.& 0.d.c.d.d.s.s.s.w.e.x 5.a.o.-.vXmX,.} '.rX].T.|.gXgXdXsXpXiXU.{.{.3X4X<X@.`.d.d.d.6.w.f.Y -.cX1.cX,.cXcXvX1Xg.d.",
"s.s.s.0.e.d.5.& 0.s.e.s.d.s.s.s.s.g.6.p p.)  .,.<...2XjXzXjXtXR.iXzXxXkXeXT.U.C o.>.0XbXo.) Y.g.s.s.w.w.P >.,.1.cX,.<.<.vX1Xh.s.",
"d.d.d.s.s.d.5.; 0.e.q.s.d.q.q.s.d.s.e.p 7.V F *...` jXzXkXkXW.^ R T.].W./ R R.H | X.-.#.' 8XW.n.q.0.s.d.Y -.cX,.,.cX,.cXcX3Xd.d.",
"4.4.8.7.4.4.w O i 0.0.0.0.6.0.0.e.e.w.c a B k { ~ eXdXfXaXzXR.V R C C R V V V B j S S j / U.P / N p.m.m.} -.,.cX<.,.,.cX<.qXn.s.",
"+ + + + * * + + * - ; - < - % * * & % & % 7 H F ^ iX{.8XR.iX].k C C C R R R R A C '.T.W./ T./ C T / Y V K cXcX,.cX>.cXcX<.$.K & ",
"_._.(.(.~.~._.K.V.V./.K.K.).- o i z b v x N ) _ E / k ^ H / ^ ~ E E E E E H k G j {.W.|.].].) C I I Y Y J >.>.cX,.cX,.cX;.Y m.f ",
"Z.v.c.g.l.XX$Xg.s.e.v.c.c.M.e , e.r.q.d.d.w.p._ %.%.O.O.O._ O.+.~ _ %.%.%.%.@.K Q {.Q.8X{.{.3X( I I.P P } >.cX>.,.cX>.cX$.L ~.i.",
"g.d.s.e.s.g.z.d.s.d.s.f.s.d.; e s.6.0.e.s.e.y.P %._ %.%.~ F @.} Q %.%.%.O._ Y.p.H D j C B ) `.Y b s.6.a.o.-.cXcXcX>.cXcX;.@.n.N ",
"f.f.g.y.e.s.g.d.s.d.s.q.d.5.. e d.s.r.w.6.q.j.T Q Q E W W ( m.1 W Q Q Q W ~ F.y.a.p.T U I.F.g.g p s.z.h.o.cX,.cX>.cXcXcX0XqXq.N ",
"w.g.f.e.5.e.s.s.d.s.s.e.e.4.% e e.f.z.s.e.8.j.m.^ ' ' ' _ ) i.* B E E E Q ) v.s.5.5.7.y.g.g.s.q N 0.g.n.} cXcX>.cX,.cXcX<.`.0.w ",
"f.j.s.y.5.s.d.d.d.e.e.d.s.e., f f.w.j.f.e.w.s.p.^ ] ] ] _ I.q . V ' ] ] @.E.g.s.e.f.4.c e.s.q.t a.y.y.a.} 1.cX2.1.1.1.vX:.~.5.; ",
"e.5.w.6.e.s.s.s.g.d.e.w.s.e., G #Xf.g.y.e.s.d.l.I E E E H 6Xn o m E ] _ E <Xm.d.s.s.e.p 4.d.s.t ~.XXg.a.#.,.2.cX1.1.1.vX0Xn.g.l ",
"y.0.s.s.q.w.s.d.s.s.q.e.g.d.e L -Xd.d.s.e.g.b.v.R ' ] 2X&.W.p.% m _ rX] '.2X' E.j.d.s.c p s.d.t ^.XXs.p.#.>.,.1.1.1.1.cX4Xn.x.N ",
"w.w.q.s.0.0.s.g.s.s.s.s.s.e.; D ,X+X$XXX+XH.:X$XB._ ' ] ` ( E.+ e ^ _ ' ' ' _ ) p.c 4.x 9 9 p & I.=X(.I.( | | | ......X.4X&X-XT ",
"g M M g M g t : : e e , e : O + L Y V I Y L L L ^ } } ~ ! ~ K + = J ! } ! ~ } { 3 X O O O X X   * 6 2 6 5 7 7 8 8 { J J [ S 1 5 ",
"K.K.K.@XJ.=Xm.& i b p 7.x c 8.c x v p b b i 9 S &XK.F.u.n 7.u.K.F.V.F.F.K.~.A 6 !.!.!.Y.B.B.!.^.Y.Y.!.!.^.~./ + I.~.!.~.Y.Y.!.~.",
"s.q.d.g.f.g.r.q d.g.s.s.d.s.d.d.e.w.d.s.q.e.4.A %Xj.c.c.e.e.d.d.v.s.s.d.d.s.u.M  Xv.v.b.s.s.z.%XoXv.c.b.b.oX*X< l.b.x.b.j.s.d.XX",
"s.s.d.s.f.z.7.q d.d.q.q.s.s.s.d.q.s.e.w.5.e.5.Y OXs.f.s.d.s.s.s.d.s.e.s.d.c.u.q d.s.f.s.s.d.d.c.z.s.w.s.s.b.*X< 0.g.h.s.d.s.s.j.",
"s.d.s.e.q.s.9 9 q.s.e.s.s.g.s.d.s.w.r.e.y.s.5.V b.s.e.e.d.s.s.y.s.e.y.j.y.f.6.# 0.s.q.s.s.s.d.j.d.e.y.g.y.h.K.* i g.e.e.d.d.s.c.",
"d.d.s.s.e.e.i 9 q.f.s.y.s.s.s.d.e.4.e.f.z.e.5.g s.s.s.e.w.e.6.e.d.w.e.s.j.w.7.$ 4.0.s.s.d.d.s.s.w.6.e.f.j.w.9.% y 0.q.s.h.d.s.s.",
"d.d.q.s.s.s.4.# p q.q.s.d.s.d.f.e.e.y.g.h.w.u.w e.f.s.5.x w.w.s.d.s.d.d.v.d.5.q q.j.s.e.e.d.s.d.s.4.e.g.c.s.6.; 5.s.s.s.0.d.d.d.",
"s.j.s.w.e.s.4.: j.d.e.s.d.d.d.g.d.e.e.f.f.b.(.M q.s.5.c 6.g.s.s.s.s.d.s.s.s.5.q q.s.r.q.d.j.d.s.s.e.w.6.6.s.5.& 5.s.q.q.s.g.d.s.",
"s.d.s.q.d.d.5.w d.s.g.d.s.s.d.b.c.s.s.0.e.Z.*Xl d.d.5.p e.s.s.s.q.q.d.s.0.s.4.w d.g.q.q.s.s.s.s.w.w.s.s.w.w.5.& 0.d.s.q.s.s.s.d.",
"e.0.e.r.0.q.i f $XoXoXoXu.l.oX;X#XJ.oXF.F.#X_.d q.4.y 4.s.e.d.s.0.w.s.q.q.e.v r s.d.s.d.s.d.z.s.e.e.s.s.e.e.b % 6.d.s.s.d.s.d.d.",
"o % * * * % O O D G G D S D G G I U U U U U G - d > , f f f e > ; > ; ; ; ; o O : 9 e r 9 9 e r e e 9 e r e -   > e e e e e e r ",
"L L B r r f B L L h B B L L + s &X(.P./.V.F.(.*XK.(.&X&X*X*XI.  % & ; ; ; ; ; ; ; ; ; > % . &   = U Y Y T Y I T Y Y I Y Y Y Y F "
};
