/* XPM */
static char *result[] = {
/* columns rows colors chars-per-pixel */
"64 64 241 2 ",
"   c #080F1A",
".  c #140E13",
"X  c #0D111A",
"o  c #1D1216",
"O  c #13121A",
"+  c #1C151A",
"@  c #1D171C",
"#  c #28100D",
"$  c #39140C",
"%  c #231416",
"&  c #2C1514",
"*  c #231618",
"=  c #251B1D",
"-  c #2C1C1B",
";  c #331613",
":  c #371914",
">  c #3D1912",
",  c #331C1A",
"<  c #35221E",
"1  c #3A231E",
"2  c #161822",
"3  c #291E21",
"4  c #282226",
"5  c #372522",
"6  c #491809",
"7  c #581904",
"8  c #531C0E",
"9  c #5B1D0D",
"0  c #431B12",
"q  c #4A1C12",
"w  c #551F10",
"e  c #6A1E07",
"r  c #631E0B",
"t  c #751F02",
"y  c #5F200E",
"u  c #44241B",
"i  c #4B2319",
"p  c #532215",
"a  c #5A2918",
"s  c #59331F",
"d  c #66240C",
"f  c #6C210B",
"g  c #752206",
"h  c #7B2206",
"j  c #73230A",
"k  c #7B2409",
"l  c #7D290C",
"z  c #7B330B",
"x  c #662915",
"c  c #782B13",
"v  c #63331D",
"b  c #683619",
"n  c #6C3B1B",
"m  c #7A3519",
"M  c #733D1C",
"N  c #492D25",
"B  c #552F21",
"V  c #4D3628",
"C  c #5D3120",
"Z  c #563928",
"A  c #483B39",
"S  c #563E36",
"D  c #623421",
"F  c #693924",
"G  c #743B23",
"H  c #763B24",
"J  c #793D23",
"K  c #6D431F",
"L  c #78421D",
"P  c #594329",
"I  c #4E4531",
"U  c #584537",
"Y  c #55433B",
"T  c #5C5039",
"R  c #6B4427",
"E  c #724424",
"W  c #7B4729",
"Q  c #664637",
"!  c #7C4C33",
"~  c #764D39",
"^  c #685437",
"/  c #755737",
"(  c #7C643D",
")  c #7F683E",
"_  c #4D4546",
"`  c #514644",
"'  c #5B4B46",
"]  c #544B4C",
"[  c #5F504E",
"{  c #524F51",
"}  c #5B5353",
"|  c #595659",
" . c #674D44",
".. c #754E42",
"X. c #685747",
"o. c #785847",
"O. c #635B5A",
"+. c #6A6147",
"@. c #6B6249",
"#. c #74684B",
"$. c #746258",
"%. c #5F5D61",
"&. c #605F63",
"*. c #686669",
"=. c #726D6F",
"-. c #6D6D72",
";. c #787476",
":. c #72757A",
">. c #76797E",
",. c #842404",
"<. c #8C2603",
"1. c #8C2905",
"2. c #85290A",
"3. c #942702",
"4. c #9A2700",
"5. c #942A04",
"6. c #9C2A02",
"7. c #932D09",
"8. c #9C2F09",
"9. c #8A380C",
"0. c #9D3106",
"q. c #9B350C",
"w. c #862C10",
"e. c #873918",
"r. c #983916",
"t. c #A42B01",
"y. c #A92C02",
"u. c #A43106",
"i. c #AC3205",
"p. c #A5340A",
"a. c #AB3509",
"s. c #A53A0B",
"d. c #AC3B0C",
"f. c #B13306",
"g. c #B23608",
"h. c #B2360A",
"j. c #B43B0A",
"k. c #BB3D0C",
"l. c #A53A13",
"z. c #853C22",
"x. c #89461C",
"c. c #944914",
"v. c #984318",
"b. c #B3460E",
"n. c #BC410E",
"m. c #BC520E",
"M. c #A64C14",
"N. c #A9461A",
"B. c #B44515",
"V. c #BC4513",
"C. c #B14817",
"Z. c #BB4A15",
"A. c #B34C1D",
"S. c #BB4D1B",
"D. c #BA531D",
"F. c #B3671C",
"G. c #844224",
"H. c #874929",
"J. c #994725",
"K. c #8C5127",
"L. c #94542C",
"P. c #9B592E",
"I. c #864C33",
"U. c #984E31",
"Y. c #885738",
"T. c #965A35",
"R. c #A34B22",
"E. c #AA4C25",
"W. c #AD5125",
"Q. c #A7572A",
"!. c #B45324",
"~. c #BB5423",
"^. c #BB5A25",
"/. c #B4552B",
"(. c #A45837",
"). c #81683F",
"_. c #9A633B",
"`. c #B86629",
"'. c #A66636",
"]. c #B56A37",
"[. c #B5733C",
"{. c #C1410E",
"}. c #C4560D",
"|. c #C34511",
" X c #C44A15",
".X c #CA4B15",
"XX c #C54D1A",
"oX c #C65914",
"OX c #C4521E",
"+X c #CA531C",
"@X c #D25219",
"#X c #D65A1E",
"$X c #C35926",
"%X c #CB5B24",
"&X c #C85B26",
"*X c #D35921",
"=X c #E15E21",
"-X c #C46E2C",
";X c #DA6226",
":X c #E36325",
">X c #885B45",
",X c #985D43",
"<X c #896546",
"1X c #9A6845",
"2X c #907256",
"3X c #A56C45",
"4X c #AA7347",
"5X c #B67847",
"6X c #A87752",
"7X c #B37A52",
"8X c #846D61",
"9X c #967A69",
"0X c #A07866",
"qX c #C47F46",
"wX c #D48A38",
"eX c #BA8455",
"rX c #BA8956",
"tX c #9B8B7F",
"yX c #AF9069",
"uX c #C6844D",
"iX c #CA854C",
"pX c #C88B57",
"aX c #D28F56",
"sX c #CC915C",
"dX c #D6965C",
"fX c #DD9B5E",
"gX c #E09C5E",
"hX c #C49867",
"jX c #D99C64",
"kX c #DEA169",
"lX c #CEAA76",
"zX c #E5A364",
"xX c #E5A76C",
"cX c #E8AC74",
"vX c #E8B079",
"bX c #7C7E82",
"nX c #7F8186",
"mX c #84868A",
"MX c #908D8C",
"NX c #8E9297",
"BX c #939599",
/* pixels */
"8 8 w w 8 8 & < W.W.E.E.x.R.!./.R.W.!.!.Q.^.G o r $ 6 e e e c t d ..nXbX:.:.:.:.-.bX-.bX%.{ -.*.{ ..w.t k t w X r ,.,.2.k ,.2.w.",
"& : ; ; ; & ; ; > 0 0 0 0 > * N G.G.G.G.G.J J G n v H M M H - X i O.bX:.:.:.:.:.bX-.bX-.&.{ -.-.| [ N 1 u , < 3 1 , , 1 1 , , @ ",
"3.5.4.6.5.5.6.y.t.t.u.3.t.6.q W.#X.X.X|.Z. X:X|.d.q.|.|.V.@Xx @ l.>XbXbXbX:.-.:.-.bX-.bX&.} -.-.*.,X$X+X$XOX$X*XXXN.l.D.XXXX%XD ",
"8.5.t.y.4.3.t.y.t.t.3.t.y.y.y /.n.t.t.4.t.i.n.y.t.t.y.t.t.y.9 . f ! *.-.-.:.-.bX:.:.bX;.%.{ -.-.$.U.y.i.t.i.j..Xi.t.6.i.a.i.g.x ",
"6.1.1.7.6.t.t.t.u.y.t.5.t.t.y R.k.0.a.8.6.y.i.y.t.y.t.6.t.g.$ . 7.l.S ' { | &.*.*.-.-.:.| ] -.-.=.E.y.p.3.t.y.i.y.t.y.t.u.u.i.p ",
"y.i.t.u.2.t.y.t.y.6.6.t.t.6.y 9.5.u.i.0.6.4.t.t.y.y.t.4.3.,.# % 7.6.l.z.H S  .S A _ { | ] _ *.-.$.r.u.p.u.6.t.y.i.t.y.t.4.t.<.& ",
"1.i.y.6.<.5.t.y.y.y.t.t.4.<.> k 6.g.y.t.<.7.y.t.t.t.6.t.t.t.8 % <.u.f.y.t.8.l.z.v F ..H F Q [ O.>Xr.i.y.8.<.7.t.t.t.t.t.t.6.3.q ",
"s.0.a.0.6.y.a.u.y.y.y.3.t.5.# t y.5.5.7.7.t.y.y.i.y.t.0.p.4.8 * 4.y.a.y.y.y.l.! H z.l.7.8.r.r.N z.y.i.t.8.<.t.y.t.f.t.6.t.t.4.x ",
"j.y.u.4.t.y.f.y.t.y.t.u.u.i.6 h 6.2.4.t.6.4.t.t.t.y.4.U.U.y.9 % 5.4.4.t.t.r.T.R n I.a.<.<.y.4.> 2.6.1.<.7.6.t.t.t.t.t.4.4.t.t.x ",
"b.f.f.y.a.k.@Xi.t.6.g.f.i.k.y j t.8.t.y.6.4.t.i.y.y.u.,X,Xh.9 % 7.t.4.t.J.'.1XF H.>Xl.6.<.i.t.> h 6.5.t.y.4.3.t.y.y.y.6.4.f.y.x ",
"$X$X$XS.!.!.&X~.N.r.A.A.A.$Xu > r e e e d e e j e e m <X8Xc & X r h k U.9XsX4XY.aX1XS e.e t e o 9 <.<.3.3.<.<.4.t.4.6.8.3.4.4.p ",
"- - , - - - * * = , < , , - o O + % + o O o O X X X 4 9X9X4 O O O X 3 8XtX_.Y.G L.! ` A 3 & - 3 < 0 i i u u - % o * % % % % o 2 ",
"3.<.5.<.<.3.9 ; ,.,.<.3.<.,.<.5.7.3.7.7.3.3.r ; t t I.yX0Xz.S  .z.,.I.yX9XI.W T.sX>XO.[ W 1.h.S.A.l.B.B.A.B.m O w e e f e e j c ",
"t.y.y.4.y.f.,.8 6.8.4.y.y.5.6.y.y.y.t.4.t.f.<.r u.u.T.lXyX>X[ O. .U.7XyX3X(.! 3X5XY.*.*...l.t.i.g.t.t.t.y.t.w.& 3.y.y.t.y.y.y.y.",
"t.y.t.3.6.y.,.8 t.1.1.7.6.t.t.y.t.t.t.5.6.y.,.r t.8.T.lXlX#.*.BXmXO.2XhX,XE.I.I.T.U :.mX[ R.t.4.y.t.5.y.t.k.w.% 3.h.4.5.t.t.t.y.",
"i.y.3.t.t.6.h 9 y.u.t.6.1.3.y.t.i.y.4.t.t.6.,.r t.a.U.rXlXlXo.:.bX=.' 2X3Xr.3X7XaX^ >.BX=.~ l.t.t.6.0.a.8.u.,.% <.4.t.4.t.i.i.t.",
"y.y.t.t.6.8.e y 5.u.f.t.5.,.u.t.y.t.t.t.6.6.e r 5.i.l.<XhXhX/ _ _ _ `  .0XE._._.L. .bXNXmX[ z.i.t.3.4.u.i.5.t % <.u.u.t.6.t.y.t.",
"t.y.t.t.6.6.6 v s.5.i.u.0.6.t.i.y.y.y.6.6.4.6 9 6.8.l.H./ X.X.O.;.&.9X;.X.,XY.E S | :.mXBX-.z.y.y.t.i.y.f.t.k O 7 3.4.t.y.y.y.u.",
"y.y.t.6.t.g.e M @Xi.i.6.6.y.i.f.t.y.y.t.t.f.g d k.p.r. .| ;.*.| } { *.O.O.8X~ ! S %.:.bXBXmX..l.t.t.y.t.t.t.,.X ,.f.4.4.y.y.y.i.",
"t.4.y.y.p.y.,.z.#Xu.y.t.t.a.|.g.t.4.t.y.p.y.2.c f.a.~ ;.| ` S U ~ ~ <Xo. .8X~ ! Y { -.bXmX*...N.3.t.y.4.3.u.t % 7.y.u.y.t.t.t.f.",
"Z.C.S.+X X*Xr.C ;X%X*XOX+XD.*X*XZ.r.B.+X X#Xv.x k.R.S ` U ! 1X_.7XjXxXhX>X7XI.Y.8XA ' O. ._.1XR.3.3.5.5.4.7.y % B..Xk. Xj.d.k.@X",
"1 1 1 1 5 1 @ X - < 5 < 5 < 5 5 5 , 5 < 5 5 @ 2 N V A ! 7XqXsX'.Q.4XpX'._.o.Y.E ~ 1XY.W [.gXrX' % % & & % % O X B H H H G F F H ",
"D C D D C s D D C s v C s C = o & > : ; ; ; : : ; ; Z 3X5XuXsXP.x.'._.x.K.Y.L b 5XzXzXpXdXzXsXO.p r d e e f r e f d e f e e r 3 ",
"#X+X+X.X.XOX:X.Xd.q.|..X|.#Xx e 4.5.4.t.5.3.t.u.t.l.E W '.jXjX'.E ! Y.v W 2XL M eXzXzXzXzXzXdXo.w.t.6.t.y.4.6.y.y.y.y.u.t.y.y.p ",
"j.y.t.6.t.i.|.y.t.t.y.t.t.i.f 2.0.5.t.t.4.5.y.t.p.U.P.K.P.jXkX5X3XhXlXrX<X8XM M iXzXzXzXzXzX7XS 1.5.1.4.6.4.4.t.y.t.y.4.3.y.t.a ",
"n.0.u.6.6.y.i.y.t.y.t.6.y.a.6 <.6.1.<.1.4.t.t.u.U.7XuX'.[.iX7XpX4X5XrX'.Y.R M J iXzXzXfXzXsX>X4 3.y.7.5.7.5.y.y.t.f.t.6.6.t.3.p ",
"1.u.i.u.4.4.y.t.t.i.t.t.4.,.$ <.y.a.y.0.<.u.p.U.eXzXdX[.D.F.`.P.m x.P.L z a M L [.aX5XuXgX1XH.& 1.6.f.y.0.,.t.y.y.y.t.6.t.u.4.p ",
"0.f.i.6.<.7.y.t.y.t.6.t.6.6.r w.1.i.y.8.<.7.U.sXzXzXdX'.}.oX-XQ.Q.-X!.M.M.b L G.].P._.jXeXL.2.- q.7.i.u.u.5.4.u.t.y.y.t.4.4.t & ",
"y.8.5.7.1.y.y.y.i.t.t.6.t.3.d N.p.0.a.0.6.J.sXzXzXzXpXQ.}.}.m.M.F.m.z c.M.z K b H.[.jXpXT.l.,.- D.j.0.p.6.6.y.i.y.y.t.t.6.i.8.; ",
"6.,.5.4.6.4.t.t.t.y.3.3.y.y.c $Xk.i.y.6.0.3XzXzXxXzXuXQ.oX}.m.c.M.z 9.9.z b L L 5XjXeXY.r.i.<.- &Xj.y.t.4.t.f.k.t.t.t.t.a.t.y.p ",
"0.6.t.y.6.5.t.y.y.y.t.t.y.y.j $XV.f.f.i.N.4XzXxXcXzXdX_.`.}.m.c.l 9.m.m.d b M K.5X3XL.c t 4.h = &X+X.X|.|.V.+X=Xk.a.s.|.{.{.@XC ",
"f j g h j j h 2.h h l h h g : G.^.^.D.~.Q.'.xXvXxXzXfXL.P.D.m.z 9.m.m.c.n b b n  .A , ; . & o   N H H J G G F H H n D G G G F 3 ",
"a s C C C C 1 X = 5 , , < , - < u , , , N Y.dXxXvXxXgXiX5XT.x.s v n b s Y.Y.W E A 4 - = = = - - 3 = = - 3 - @   @ 4 3 - 3 - 3 5 ",
"V.B.Z.@XV.@XN.= r.B.Z.B.d.l.S.Z.p.2.<.p.Z.(.4XiXxXcXzXzXjX/ 5 _ { { _ <XzXzXpX~ /.%XXX$XN.N.Z.%X%XA.OX$X%XOX&Xu R.+XZ.OXS.C.S.&X",
"t.t.t.y.t.y.<., p.t.t.t.t.u.g.y.y.6.t.i.y.R.! K.'.jXcXzXdXU A &.&.*.| <XfXuX_.~ l.g.a.f.t.6.t.{..Xp.y.i.f.a.*Xn 0.i.u.g.y.6.t.j.",
"t.t.y.8.t.f.h % s.j.i.t.5.t.y.6.t.y.t.t.u.d.Y.W ].gXvXxXeXY | :.:.:.&.<XfXpX4XQ 7.i.t.t.t.t.y.y.i.y.4.6.i.f.*Xv 1.i.u.t.t.y.y.i.",
"t.y.y.4.4.3.6 % 5.0.u.p.t.6.t.8.t.y.t.t.3.y.U.Y.].aXkXxX6XY %.>.>.>.-.o.fXdXeXP d 6.4.6.y.y.y.i.t.6.6.p.a.5.d.p 7 t.6.4.y.y.t.a.",
"y.y.t.t.6.u.t & ,.8.i.y.4.3.y.u.<.3.<.4.t.i.l.1X_.[.[.fX6X[ -.NXNXNX:.X.eX[.Y.Q k 6.6.t.t.y.t.t.t.,.8.6.f.0.7.p g 6.6.t.y.t.t.y.",
"i.y.3.t.t.6.,.& 3.y.f.y.y.t.y.t.5.6.j <.y.u.r.Y._.P.'.L.).O.*.NXNXmX>.{ 1XdX5XQ <.t.t.t.6.y.y.t.y.1.7.t.a.u.t.8 <.6.t.u.4.y.y.y.",
"t.y.t.3.6.y.<.& 3.t.6.t.y.t.t.t.t.i.1.g ,.t.p.K._.K.'.'.K.' { :.:.:.-.| Q L.! Q 3.t.8.5.t.y.t.y.t.t.5.5.<.5.t.6 <.t.6.4.t.u.y.t.",
"y.y.y.4.y.y.<.& <.6.3.t.y.4.3.t.y.y.6.g ,.f.y.'.wXwXc.K.P.T A { | { ] Y B s L Z 6.f.t.4.y.y.t.t.3.5.t.y.4.7.6.6 3.f.t.4.t.y.y.y.",
",.,.2.2.,.,.9 + g 3.5.3.4.<.7.6.6.5.5.h 7 t 1.K.qXF.F.c.x.K V Z P E W L b M K 5 2.3.5.6.6.3.4.t.3.1.6.3.5.3.2.; h 3.5.6.8.3.4.8.",
"+ + + + * + O O = - , - , - % o % & % & o O 3 A / E R R K K K K n K K b n b S F x d r x m m m > ; > : > 0 > : % ; : : : > > > , ",
"~.^.~.~.W.!.$X!.v.v.A.A.A.W., o f f k j g h c F @.@.@.@.^ +.+.+.+.+.+.^ C Z I.XXf.5.<.g.V.|.:XD 8 <.j h 6.1.3.3.6.6.4.8.3.3.3.p ",
"j.j.f.a.a.|.@Xi.t.6.g.i.g.k.0 > 6.6.4.y.t.5.t.G.@.#.#.#.@.X.X.^ I T @.#.+.X.Y.g.t.t.t.y.u.t..XJ t 8.l 1.8.5.3.3.t.t.y.4.4.y.y.w.",
"i.i.t.4.t.y.f.y.t.y.y.u.y.i.$ 0 t.2.3.6.6.6.t.z.^ +.@.@.T V U A V X.+.+.+.T U.6.t.y.y.t.6.u.|.F t t.3.5.8.<.<.3.t.u.y.t.7.t.t.c ",
"s.u.a.0.t.t.i.y.t.y.t.3.y.2.. 0 y.t.6.7.1.8.y.r.I I U I I U I.5 V I I T I  .E.6.6.y.y.6.6.t.i.x g y.i.y.y.t.4.3.<.y.t.4.t.u.3.c ",
"5.i.t.8.,.6.t.t.t.y.y.t.3.,.% 0 4.p.i.t.6.,.p.l.Q P P P P ~ z.* R V I V P ^ !.t.<.<.h 5.y.i.t.8 l 5.i.i.6.5.t.y.4.t.t.t.t.4.3.y ",
"t.i.u.6.<.t.y.y.y.t.6.t.u.6.> p 0.5.i.u.6.5.t.r.R ) ) )./ E 8 . z / ).).<X>Xl.t.6.p.h ,.4.t.4.8 e.p.0.i.u.6.y.i.i.t.y.y.5.6.3.; ",
"6.1.1.7.6.t.t.t.i.t.6.6.t.4.0 C +Xu.a.0.6.t.y.a.D P P Z V ,Xl o z K / ^ V Q U.u.t.t.6.t ,.u.t.p E.|.u.p.5.6.y.i.y.t.t.y.t.t.i.x ",
"7.5.t.y.5.5.t.t.t.t.4.4.i.y.0 C *Xy.y.t.6.u.k.k.W / ).)./ ,X7.& b E 2X( / ).( H.i.y.t.h h t.y.8 /.Z.t.5.t.u.j..Xy.t.6.i.i.u.f.w.",
"4.4.3.t.3.4.t.y.t.t.t.t.t.6.; B :X+X@X|..XZ.;X#XH.^ ( ) #./ H.O u R ^ ^ / ( ^ o.(.r.w.g 6 6 j & G.&XD.r.A.OXD.;X+XC.r.XXXXXX%XH ",
"a x a x a x q : > 0 0 0 0 : O o D F F G G D D D Q X.X.X. . .V 2 @ A Y Y Y T ` O.MXMX_ O O X O X @ < < < < 1 < < < < 1 1 1 5 1 4 ",
"A.A.D.OXZ.%XJ.& j t t k k h 2.k h j h t g t 6 N ^.D.A.r.l l q.C.M.v.N.C.E.C.m 5 ]./.E.R.e.x.J.W.J.J.R.R.R.Q.H O G.W.N.R.J.v.R.!.",
"t.6.y.i.t.i.7.9 y.y.t.t.y.y.y.y.4.4.y.t.6.8.,.m #Xu.i.f.6.4.y.f.g.u.t.y.y.u.7.x {.j.j.k.6.u.f.#X}.j.g.k.k. X&X< d.k.a.k.i.u.i.|.",
"y.t.y.6.u.f.2.6 t.i.3.4.y.t.t.t.4.6.6.5.<.6.<.H +Xy.u.t.y.t.t.t.y.t.5.y.y.j.q.8 y.t.u.t.y.y.y.f.i.t.5.y.y.j.&X- 5.y.u.y.t.t.y.i.",
"y.y.y.4.t.t.6 0 4.t.8.t.t.i.t.y.t.5.7.5.0.y.<.b k.t.4.6.y.t.t.8.t.t.0.p.u.u.1.# 5.y.3.t.y.t.y.i.t.t.0.a.0.a.C.* e i.6.6.y.y.t.g.",
"t.y.t.t.4.4.e 6 3.u.t.8.t.t.t.y.0.,.6.y.f.6.2.y t.i.t.6.5.4.1.u.y.3.8.y.i.5.h $ ,.4.t.t.y.t.t.y.5.1.6.u.i.7.w.* r 3.4.t.u.y.y.t.",
"y.y.3.t.t.4.,.% t 4.4.t.y.t.t.y.6.4.0.a.p.5.q.y 4.u.t.<.g 5.5.t.y.4.i.y.g.y.1.8 6.u.t.6.t.y.t.y.t.2.6.y.f.u.<.; <.t.y.t.4.y.y.t.",
"u.y.t.5.t.t.<.$ a.y.t.t.y.y.y.i.y.6.6.u.u.j.~.x 3.t.<.h 1.a.6.t.t.t.y.t.t.t.<.9 3.t.4.t.t.a.y.t.y.4.5.1.1.t.<.& <.4.4.6.t.i.u.t.",
"y.y.t.4.y.f.<.9 y.t.y.t.t.t.t.{.g.t.6.3.4.j.&Xx y.y.,.t 6.y.t.t.3.6.y.t.3.6.,.9 y.y.4.3.y.t.t.t.5.4.y.6.5.7.<.& 3.f.t.3.t.t.t.y.",
"5.4.8.5.3.3.e p *X X|. Xq.d.|.=X+XS..XN.N.%X^.q 4.<.r ,.6.t.y.t.3.3.t.4.4.6.g q t.y.t.y.y.y.y.t.4.5.y.t.6.t.k % <.y.t.t.y.t.y.y.",
"% % % % % % O O B C C C s B C C G H H J G H B - i : > p p p > : ; ; ; ; ; & * O 0 0 0 q 0 6 q q 0 0 0 6 q 0 & X ; 0 0 0 0 0 0 q ",
"F D D q q p v v D s s v D D @ 1 ^.S.~.!.v.M.~.&XD.D.$X&X&X&XG.  % ; ; : ; ; ; ; ; ; ; ; % . *   = G H H E H F H H G F G H H H V "
};
