/* XPM */
static char *f053ad3f73234b5deae996d5cb5467a8YWDMR4OWFu3YV792[] = {
/* columns rows colors chars-per-pixel */
"60 60 247 2 ",
"   c None",
".  c #010302",
"X  c #0B0201",
"o  c #030B01",
"O  c #0B0B02",
"+  c #01040C",
"@  c #030B0C",
"#  c #0B070C",
"$  c #150300",
"%  c #1C0200",
"&  c #140B01",
"*  c #1B0C01",
"=  c #160C0B",
"-  c #09130A",
";  c #141302",
":  c #1C1202",
">  c #1B140B",
",  c #16160B",
"<  c #020B13",
"1  c #040A15",
"2  c #190E16",
"3  c #0C131C",
"4  c #081617",
"5  c #1C1412",
"6  c #13141A",
"7  c #191718",
"8  c #220300",
"9  c #230D00",
"0  c #280A03",
"q  c #310A00",
"w  c #231402",
"e  c #281806",
"r  c #361902",
"t  c #241B13",
"y  c #261818",
"u  c #321917",
"i  c #172101",
"p  c #192318",
"a  c #2A230A",
"s  c #392404",
"d  c #29241A",
"f  c #382817",
"g  c #383315",
"h  c #091926",
"j  c #181B25",
"k  c #231C23",
"l  c #0C2429",
"z  c #18252A",
"x  c #172836",
"c  c #102C34",
"v  c #292826",
"b  c #372B29",
"n  c #393428",
"m  c #282C33",
"M  c #382C35",
"N  c #283638",
"B  c #393737",
"V  c #2A3121",
"C  c #441B00",
"Z  c #482805",
"A  c #4A3307",
"S  c #573403",
"D  c #463818",
"F  c #543917",
"G  c #462A16",
"H  c #633D09",
"J  c #473B27",
"K  c #473938",
"L  c #51362C",
"P  c #5A4219",
"I  c #644917",
"U  c #744D0D",
"Y  c #564427",
"T  c #564738",
"R  c #4C4A37",
"E  c #664927",
"W  c #685839",
"Q  c #74562F",
"!  c #77653B",
"~  c #1C3645",
"^  c #293844",
"/  c #343D47",
"(  c #4B3D42",
")  c #294558",
"_  c #38454F",
"`  c #345065",
"'  c #3F606F",
"]  c #4A4546",
"[  c #564A46",
"{  c #5A524A",
"}  c #4B5455",
"|  c #585656",
" . c #514B52",
".. c #675746",
"X. c #665756",
"o. c #68544A",
"O. c #786649",
"+. c #776754",
"@. c #716851",
"#. c #495A69",
"$. c #585C65",
"%. c #705D62",
"&. c #4B6174",
"*. c #53686B",
"=. c #6B6968",
"-. c #776A63",
";. c #757173",
":. c #815524",
">. c #896826",
",. c #876737",
"<. c #977639",
"1. c #96702F",
"2. c #A37839",
"3. c #805A13",
"4. c #876D47",
"5. c #887349",
"6. c #99774B",
"7. c #897859",
"8. c #947755",
"9. c #846F56",
"0. c #A87B4D",
"q. c #967D64",
"w. c #887B6E",
"e. c #B38438",
"r. c #C18E3F",
"t. c #9D855A",
"y. c #AA8649",
"u. c #B58A4D",
"i. c #BA8D4C",
"p. c #B88846",
"a. c #B9904A",
"s. c #AC8B53",
"d. c #A98858",
"f. c #B58C54",
"g. c #BB8D54",
"h. c #B48D5A",
"j. c #B78B59",
"k. c #AE935B",
"l. c #BA945B",
"z. c #B6935A",
"x. c #9B8867",
"c. c #968879",
"v. c #948974",
"b. c #AC8C62",
"n. c #A58B69",
"m. c #B38E63",
"M. c #A8956A",
"N. c #BB9463",
"B. c #B79768",
"V. c #A58D79",
"C. c #A99678",
"Z. c #B69B76",
"A. c #B9A276",
"S. c #ADA278",
"D. c #C18C4A",
"F. c #C5954A",
"G. c #C49758",
"H. c #C79451",
"J. c #D8A65A",
"K. c #D2AB59",
"L. c #E8B55B",
"P. c #FDBD5D",
"I. c #F7BA59",
"U. c #E3AB55",
"Y. c #C59A67",
"T. c #C99F6A",
"R. c #C8A66B",
"E. c #D7A866",
"W. c #C6A575",
"Q. c #D9B777",
"!. c #D5B06E",
"~. c #EDBA65",
"^. c #E9B86A",
"/. c #F4BC64",
"(. c #FDBD64",
"). c #F5BD6B",
"_. c #FDBD6B",
"`. c #F6B564",
"'. c #E7BB75",
"]. c #F8BD74",
"[. c #E3AD69",
"{. c #FDC25E",
"}. c #FBC25A",
"|. c #EBC058",
" X c #EBC569",
".X c #F4C364",
"XX c #FBC264",
"oX c #F4C36B",
"OX c #FBC26B",
"+X c #FBCB6C",
"@X c #FACA67",
"#X c #EAC477",
"$X c #F4C573",
"%X c #FDC473",
"&X c #F3CB73",
"*X c #FCCA74",
"=X c #FDC57B",
"-X c #FDCB7B",
";X c #F4C87B",
":X c #FCD579",
">X c #F5D16F",
",X c #ECD17F",
"<X c #547085",
"1X c #697A8A",
"2X c #817F80",
"3X c #748999",
"4X c #678597",
"5X c #728DA5",
"6X c #918E8D",
"7X c #A99886",
"8X c #AB988F",
"9X c #BAA687",
"0X c #B1A796",
"qX c #9AAAB7",
"wX c #88A5B6",
"eX c #BAB7B9",
"rX c #B2A9A6",
"tX c #8D9DAD",
"yX c #CBB28C",
"uX c #E9BC89",
"iX c #C2B8B5",
"pX c #CCB7A9",
"aX c #EAC687",
"sX c #F9CB87",
"dX c #FEDD8B",
"fX c #FBD587",
"gX c #E8C897",
"hX c #FAD895",
"jX c #F5CD92",
"kX c #FFE487",
"lX c #FFE494",
"zX c #FFEB9C",
"xX c #FAE896",
"cX c #F9ED98",
"vX c #D5C6AF",
"bX c #F8D8A6",
"nX c #E4CDA7",
"mX c #FDE7A5",
"MX c #FFF6A5",
"NX c #FFECBA",
"BX c #DDD29A",
"VX c #96B3C5",
"CX c #BABBC0",
"ZX c #D0CBC9",
"AX c #E6D7CD",
"SX c #F7EFED",
"DX c #E3DFE0",
/* pixels */
"                                                                                                                        ",
"                                                                                                                        ",
"                                                                                                                        ",
"                                  j 1 - o i g i i i ; o @ @ < < . = d 7 : : ; O - l                                     ",
"                              . r F ,.f.!.!.!.#XuXaXyXW.h.4.4.B.BXyXvXBXyXW.m.5.W g $ < ^                               ",
"                        3 # J 5.E.:XfX$X&X;X;XsX'.[.E.[.sXfX].[.Q ,.,.B.gXhXuXhXsXuXm.L # 3 )                           ",
"                    l . s k.uXsX%XOX).^.sXjXY.,.Z 8 C :.1.J.-XE.,.I 9 0 >.E.;X].]._.sXjXB.J * 4                         ",
"                  - ; 4.uXsX(.P.XX+X~.$XsX<.q q Q 0.uX0.q U :X+XfX#X'.>.8 U -X~.`._.(.`.jXbXt.e - )                     ",
"                @ e 9XR.e._.I.}.I..X.X&XF.Z 1.#XuXhXsXU S K.oX@X_._.].sXp.1.[.oX+X}.{.}.,XkXxXBXD O c                   ",
"              . d pX8.U ;X*X+X}.*XoX+X@X|. X:XL. X'.;X#XL.-X.XOX(.(.`.sXuX[.sX;X.X@X:X>X XkXMXxXmXY O z                 ",
"            - b pX7.r bXmXxXcX X=X^.*XXX X>X+X+X+X/.~.*X%X%X_._.P.P.I..X-X;X'.;X X:XkX:X X:XcX>X'.jX! ; l               ",
"          < d rXV.% yXNXMXBXcXhXhXhXJ.e.:X:X@XL./.+X%X).`.%XOX/.P.{.XX}.).$X#XlXdXzXcXkX,X>X:X;X[.2.bXJ , ~             ",
"        l , V.9X% 0.NXbXaXmXMXxXzXhXU e.xXcXdX&X;X&XfX;X$X&X X>X X|.>X>X+XfXdXzXQ.aXzXlX-XoX/.%XsXU ,.gXJ 1 ~           ",
"      l o -.nXC S '.hX#XaXMXzXmXmX<.a ,XMXdXdXcXfXsXkX X:XkX:XkX:X,XkX:X X:XdXlX>.e.hXhXsX%XI.`.].G.q W.yX& p           ",
"      l V BX! 8 p.sX`.~.-X$X&XlXQ.s I xXdXlXzXdX XdXlXfXkXlXcXkXMXxXMXlX X/.*XdX2.U Q.-X$X+X+X%XsXuXZ C bX7.& z         ",
"    h o 0XyX* H %X`.+XOXOXI. XfX<.X k.hXQ.&XdXfX^.dXfX$X:X XkXkX#XfXfXdX:X)./. XK.0 k.sX-XI.XX/.'.hX1.8 8.nXJ . #.      ",
"  ) o W nXI 0 p.-X).).OX{.{.*X!.a s Q.oX.X+X/.-X.X.XXXXX_.OX.XoXoX$XoX).oXOXOX%X!.q I hX).(.XX.X/.oXT.0 G pXv.O p       ",
"  h : S.yXr Z #X$X%X).).P.{.&Xs.: F ;XoX(.XX).+X.X{.{.{.(.OXXX.XXX).(.XX(.oX_.%XQ.r A aXOX{.XX.X}.@XsXC q 6XyXd - #.    ",
") o Y nXO.$ >.fX~.%X%X(.I.{.$XE $ ,.fXoX/.(.OXoXXX{.{.P._._.XXoXXXOXXX.X.XXX_.OX'.Z e W.%XXXoX.XoX^.jXQ % [ vX..- N     ",
"z - t.gXf % d.&X).%X%X(.}.@XQ.s % d.sX).(.(.%XOXXX.X(.(._._.(.@XXXXX{.XXOXoX(.%XaXS $ f.=XXXXXoX:Xe.0.m.8 u yX9.i 4     ",
"j , S.A.e $ 6.sX).OX]._.}.@XR.w 0 W.;X).XX(.%X].XXXX(.(._._._.OXXXXX{.{.XXOX(.].uXP % <.-X(./.oX;X1.A yXr 8 q.n.V o     ",
"7 f yX,.e $ E dXoX(._.].}.@Xd.& Z yX].XXXX(._.%XOXXX(._._._.OXOXXX.X{.XXOXOXXXoXaXI $ Q -X(.).].fX<.9 A.G 8 W 9XY o     ",
"O R A.P : * P aX=X`._.].I.oX4.& Z uX).XXP.XX(.%XXXXX(.(._._._.XXXX}.XX{..XOXOX).jXI % I =X(._.;XaX,.$ x.L 8 F 9XW o `   ",
"* W M.a w ; s yX;X_._._.L.,XW & Z aX$X@XP.XX(.%XoXXX(._._._.(.XXXXXXXXXXOX.X`.].jXI % S =X(.%X'.jXQ $ 9.o.% F S...o )   ",
"$ T C.: a e * A.sX]._._.J.E.W ; P Q.+XI.P.XX~.-XoXI.P.OX_._.XX.XL.*X(.I.+X@X`.].jXE $ S ]._.].aXnXP O O.W % Z Z.@.@ )   ",
"w J v.: R s ; O.W.^.(.(.E.z.W X A aXoX}.{.(.%XU.oXoXXXOX%X(./.XXOX+XU.F.~.=X).].gXE $ Z [.%X].aXyXg : O...0 Z 7X... )   ",
": d v.& O.Y * D b.E.]._.G.m.W * s aX&XI.XX(.].D.~.+X%XXX(.OXOX.X:X~.F.e.K.$X).E.gXE $ A E.-X^.uXyXe w +...w r 7XT + `   ",
"7 , =., @.W ; r 0.Y.sX_.Y.B.! w r B.sXI.XX%XJ.p.F.#X%XJ.J.`.*X X*XU.r.e.D.J.J.u.yXY * I T.=XG.Q.x.9 : 7.O.* G 8XB <     ",
"_ @ ] , 9.x.w : ! N.E.].G.M.4.0 r 6.#XoX=X`.G.f.y.K.J.F.D.U.~.%X'.H.p.F.i.H.D.0.yXf * W Y.[.i.W.O.* i v.@.$ T c.7 h     ",
"  4 4 p w.9Xg * D B.G.uXR.d.b.q 9 4.G.'.sXG.G.d.u.a.D.i.2.D.J.-XK.i.p.H.u.i.D.j.n.e * 4.G.J.u.Y.L * g S...& ..-.+ ~     ",
"  ` - - +.9X+.a w 8.m.E.R.d.W.G % O.g.E.^.D.N.h.z.s.u.H.D.p.G.'.l.i.u.g.f.u.D.Y.8.w e x.l.D.a.h.G 0 T S.W : { n h       ",
"    c . [ V.9XD % E Y.d.z.y.T.E % E z.p.G.D.d.m.d.h.g.g.g.g.a.a.f.g.g.g.l.z.l.m.7.w f v.N.u.l.6.q 0 t.S.R 5  .+ ^       ",
"      l # o.V.C.r r b.h.l.l.0.0.q s z.z.a.a.G.h.N.j.Y.u.u.G.i.g.l.l.f.m.m.b.b.Z.Q 0 W b.B.f.m.Q % E n.C.n d 3 l         ",
"        x . K C.7.w I A.0.f.Y.Y.F 0 t.z.y.G.y.d.d.m.s.s.l.g.f.l.u.g.l.N.b.b.B.Z.I % 8.B.d.m.yXS r t.Z.6XV @             ",
"          _ 6 t w.+.G 7.Z.Z.0.m.v.0 ! y.B.y.l.N.Q N.h.s.l.s.f.g.i.p.g.g.u.f.z.d.Z H N.z.N.B.6.8 O.9X6Xn o               ",
"              4 @ ] { v.c.G e L w.W G Z.z.k.z.t.q 4.B.k.y.s.N.z.H.p.i.D.i.Y.Y.2.C s.Y.y.d.B.:.O.c.[ , 4                 ",
"                  < 3 m b d R p t [ r n.k.B.yX8.q E B.A.s.k.k.s.G.p.u.u.u.j.0.:.<.z.k.B.Z.9X..T v +                     ",
"                      x < l } *.] y w W t.Z F 8.9 w ! M.M.M.b.k.s.s.N.B.N.Y.Y.d.A.x.M.@.[ p - 4 l                       ",
"                        4Xc - ^ $.X.g e w A r 0 e 9 J 7.M.M.C.C.M.M.n.x.7.9.O...Y a p o l c '                           ",
"                          wX4Xl 6 ] R * D yX0XG 9 : & a D s s e : : ; & 0 w * $ , p } *.4X                              ",
"                            VX$.j , X Y S.C.T e J b > ; w e T X.X.-.;.=.( 2 2 y 7 N wXVX                                ",
"                            #.3 = , R x.5.g e u |  .K d = > [ rXvX6X;.( 2 = 2 ( N 3 x 5X                                ",
"                          <X1 k ] 7 Y O.P & e [ (  .K 5 v n X O 6 . # X b K 2 M w./ + ~                                 ",
"                          x 1 2 B d O X O g R K K  .k . K =.M 5 > t u u X.9.0 y ( v + 1 `                               ",
"                          1 =.=.k 2 u L G e y K M M # k { R 5 = d f y e [ 9.M 0 2 M =.} 1 &.                            ",
"                        1 z 6XSX6X2 2 w.9.u 0 u M k X M { d , a d 9 = 0 0 K X.2 K ZXDX] + x                             ",
"                        j 6 . /  .k y f * = k y k 2 b R n ; ; t > n X.X.y y K 2 2 { @ 6 z h ^                           ",
"                         .2Xo.= # 2 2 y G [ X.X.b # v v ; : a n { | K 5 2 2 y u 5 2 n -.3XN 3                           ",
"                      B AXpX7Xq 0 K X.+.o.+. .b 7 k j # t R T R y v 6 6 N  .M y X [ 0X0XZX0X- z                         ",
"                      / AXAXyX0 f [ L b u = X 7 j 1 7 7 # 5 t > 5 3 y _  .}  .{ J * W AXSX0Xz l                         ",
"                        =.eXrXy = X = t J K ( v k B k j n p O ; b = = m _ B R [ [ f w w.6Xm +                           ",
"                            z - z 2XiXZXSXSXSXSXDXDXeXrXCXrX| 7 O : v B n B ] ] | [ y 6 # j &.                          ",
"                            ) c < ] |  .6X7XrXrXZXCXCXCXCXZXZX6X@.T d , d B B b B  .B h #.                              ",
"                                ` x + 2 y X X $ X # 2 6 h 6 1 j * 9 & O > , d N m ^ h 1 5X                              ",
"                                  3X1 z 8XiXrXrX8X;.M 1 $.#.1 z v.8XpXvXiX=.z 4 z h ) <X                                ",
"                                  wX~ 1 m %.w.9.X.M 2 m qXqXx h J @.-.+.%.v 4 m VXVXVX                                  ",
"                                    #.< 6 b d y y 7 3 _ tX5X/ h 2 u u v k 2 j #.tX                                      ",
"                                        3 B { | [ + k &.<X5X<X1 2 K X.X.B 3 x <X4X                                      ",
"                                      &.m 6 7 X 6 j &.6X1X  5X&.k 2 + + 3 m #.5X                                        ",
"                                        *.| $.}  .1X3X        4X1X$.| $.%.1X1X                                          "
};
