/* XPM */
static char *_d483e58915142fdfd8ed8ae821a007cZEOu9K6jsUrLZ92W[] = {
/* columns rows colors chars-per-pixel */
"60 60 229 2 ",
"   c None",
".  c #161515",
"X  c #1A1614",
"o  c #1B1915",
"O  c #13161B",
"+  c #1B1619",
"@  c #15191B",
"#  c #1C1A19",
"$  c #161A15",
"%  c #121918",
"&  c #211616",
"*  c #231C16",
"=  c #231C1A",
"-  c #2A1B1B",
";  c #251919",
":  c #371E1E",
">  c #25211D",
",  c #2B231C",
"<  c #292318",
"1  c #33261C",
"2  c #342A1E",
"3  c #3A2D1D",
"4  c #332917",
"5  c #3D311D",
"6  c #0F1821",
"7  c #131B22",
"8  c #181E23",
"9  c #281E20",
"0  c #361F20",
"q  c #192124",
"w  c #0F2330",
"e  c #242323",
"r  c #2C2521",
"t  c #292929",
"y  c #342B23",
"u  c #382A26",
"i  c #3D332C",
"p  c #3B3224",
"a  c #282B31",
"s  c #39393A",
"d  c #44341E",
"f  c #513A1E",
"g  c #44292A",
"h  c #433524",
"j  c #463926",
"k  c #4C3B24",
"l  c #43332B",
"z  c #4A342C",
"x  c #4C3C2B",
"c  c #463729",
"v  c #523D24",
"b  c #443A32",
"n  c #493933",
"m  c #5A373A",
"M  c #512C31",
"N  c #713435",
"B  c #54432C",
"V  c #5A452A",
"C  c #52463B",
"Z  c #594836",
"A  c #464034",
"S  c #634C2E",
"D  c #634D33",
"F  c #6C5333",
"G  c #685437",
"H  c #735B3C",
"J  c #745A36",
"K  c #70562F",
"L  c #7C6239",
"P  c #7E602A",
"I  c #27384B",
"U  c #183A5B",
"Y  c #733F4D",
"T  c #3C464E",
"R  c #3B5365",
"E  c #1F456B",
"W  c #4B4C4C",
"Q  c #594D44",
"!  c #5E5346",
"~  c #5B5B5C",
"^  c #565454",
"/  c #4D5154",
"(  c #635549",
")  c #665747",
"_  c #72514B",
"`  c #7C6344",
"'  c #786656",
"]  c #63605D",
"[  c #6B6A6B",
"{  c #666565",
"}  c #757676",
"|  c #6E6C6D",
" . c #576A7C",
".. c #81643B",
"X. c #896B3C",
"o. c #95733F",
"O. c #A47E31",
"+. c #874858",
"@. c #954D5E",
"#. c #886C46",
"$. c #987747",
"%. c #84695A",
"&. c #8B714F",
"*. c #A27D49",
"=. c #A27E52",
"-. c #964D61",
";. c #A95368",
":. c #B7576E",
">. c #B95870",
",. c #8B7563",
"<. c #947B67",
"1. c #817E7D",
"2. c #BF9331",
"3. c #988659",
"4. c #AC864D",
"5. c #A9854B",
"6. c #B28A4D",
"7. c #B88F4F",
"8. c #AD8952",
"9. c #AA8552",
"0. c #B48D53",
"q. c #BC8E51",
"w. c #BB9354",
"e. c #B59057",
"r. c #9A8373",
"t. c #9C816B",
"y. c #A48773",
"u. c #AD937C",
"i. c #B2957B",
"p. c #BD9963",
"a. c #BFA36D",
"s. c #C19455",
"d. c #CA9D5A",
"f. c #C59A57",
"g. c #CEA25B",
"h. c #D4A45C",
"j. c #DDAA5D",
"k. c #D6A85D",
"l. c #E9B45E",
"z. c #E8B25D",
"x. c #DCAB61",
"c. c #D5A860",
"v. c #D4B26C",
"b. c #E1AD61",
"n. c #E5B364",
"m. c #EAB563",
"M. c #EDB966",
"N. c #F2BB65",
"B. c #FDBF65",
"V. c #F6BD69",
"C. c #E1BC71",
"Z. c #FDC165",
"A. c #FDC36A",
"S. c #FAC96F",
"D. c #F3C36A",
"F. c #FACB72",
"G. c #F4C873",
"H. c #FAD37C",
"J. c #ECC06F",
"K. c #265A86",
"L. c #326690",
"P. c #3C7AA7",
"I. c #777E81",
"U. c #807F81",
"Y. c #3D81B2",
"T. c #798284",
"R. c #7B8793",
"E. c #558EB6",
"W. c #6496B3",
"Q. c #5896C1",
"!. c #74AACD",
"~. c #7BAED0",
"^. c #888888",
"/. c #949395",
"(. c #9A9C9C",
"). c #8E8E92",
"_. c #B49780",
"`. c #9EA09F",
"'. c #9E9FA3",
"]. c #A7A9AB",
"[. c #AEB3B5",
"{. c #A5B3BB",
"}. c #ABB3B9",
"|. c #B0B2B5",
" X c #B7B9BB",
".X c #ABAEB0",
"XX c #9EB0B8",
"oX c #D29C90",
"OX c #C5A688",
"+X c #D1AC8B",
"@X c #D8B594",
"#X c #D0AE8F",
"$X c #E8A69A",
"%X c #E3B895",
"&X c #FADB85",
"*X c #FBDE8C",
"=X c #F9D683",
"-X c #E9C39C",
";X c #F1D18E",
":X c #FCE18D",
">X c #F6E28E",
",X c #FDEA9A",
"<X c #FCE796",
"1X c #EBC3A2",
"2X c #F5CDA5",
"3X c #F9CEA5",
"4X c #FDD1A6",
"5X c #FED2A9",
"6X c #9BB6C6",
"7X c #8BB7D5",
"8X c #8FB5CE",
"9X c #B8BDC2",
"0X c #A4B6C5",
"qX c #98C1D9",
"wX c #BBC4C7",
"eX c #A5C5DA",
"rX c #BACDDB",
"tX c #C6C7C9",
"yX c #CECFD2",
"uX c #CED2D4",
"iX c #C4D2DB",
"pX c #CAD2DA",
"aX c #D1D2D4",
"sX c #D7D9DB",
"dX c #D0CFD2",
"fX c #D0DBE2",
"gX c #E1DEE1",
"hX c #D9E2EB",
"jX c #E5E7E8",
/* pixels */
"                                                    @ 8 @ @ q       q 8 @ q                                             ",
"                                              7 @ # 2 c x p 2 = X o > 2 p 2 = @ 7                                       ",
"                                            $ 1 J 8.k.b.h.0.=.&.H ` $.6.d.h.7...d X                                     ",
"                                        q # V f.B.Z.Z.A.b.s.s.w.7.w.w.h.N.B.A.Z.c.J = @                                 ",
"                                      q o L m.Z.B.Z.Z.B.N.m.N.j.s.j.l.N.B.Z.Z.B.Z.J.o.* @                               ",
"                                      o ..N.B.Z.B.Z.B.B.B.B.B.B.z.B.Z.Z.B.B.Z.Z.Z.Z.Z.$.<                               ",
"                                    @ F M.A.B.B.B.Z.Z.Z.Z.Z.B.B.Z.Z.Z.Z.Z.Z.Z.B.Z.Z.B.Z.#.o                             ",
"                                  @ c k.Z.Z.Z.Z.B.Z.Z.Z.B.B.Z.Z.Z.Z.B.B.Z.B.Z.B.Z.Z.B.B.M.F .                           ",
"                                  > 8.Z.Z.Z.Z.D.F.A.Z.Z.B.B.Z.B.Z.Z.B.Z.Z.B.B.Z.B.Z.B.Z.Z.c.5 @                         ",
"                                @ G N.Z.Z.A.A.&X:XA.B.Z.S.Z.B.Z.Z.Z.Z.B.Z.Z.Z.Z.Z.Z.Z.A.Z.A.$.X                         ",
"                                < e.Z.Z.D.H.&X,X:XS.F.H.H.Z.B.Z.S.Z.Z.Z.Z.H.F.B.Z.Z.S.S.Z.Z.m.B O                       ",
"                              $ V j.Z.j.v.<X,X>X*X&X&X>XG.Z.B.B.H.S.Z.Z.Z.=X>XF.D.H.H.H.Z.B.Z.4.*                       ",
"                              = #.s.m.6.=X,XC.a.<X<X,X*XD.h.m.B.H.H.S.Z.Z.H.,X>X=X<X:X:XA.Z.l.x.h @                     ",
"                            $ c &.6.s.w.<X;XL a.,X*X,X=XV.X.h.Z.H.<XH.A.V.=X=X>X<X<X,X<XD.B.z.s.L $                     ",
"                            $ H H w.X.C.&Xf.k C.H.S.:XH.b.v h.Z.H.<XH.q.z.H.M.g.<X*X&X<Xp.N.l.$.9.>                     ",
"                            , &.D 8.X.F.S...B D.m.f.H.S.d.d k.Z.S.&XG.K h.F.j.S ;X&XD.*X3.s.N.$.&.k @                   ",
"                          @ c #.F X.6.A.l.k L Z.0.L A.A.0.3 j.Z.Z.A.n.v g.A.h.4 7.H.B.F.3.X.k.4.D G @                   ",
"                          $ G Z F D k.Z.g., *.Z.J B V.A.6.3 j.Z.Z.Z.k.d h.Z.s.* K D.V.A.w.S d.8.v ` =                   ",
"                          > #.c G S N.A.6.* w.n.5 2 j.Z.6.3 x.Z.Z.Z.f.k b.Z.5.o h d.6.A.g.f f.$.x H y                   ",
"                          2 &.p x ..A.Z.o.4 k.w.< * f.Z.0.d b.Z.Z.Z.6.F V.Z.L . 2 #.K B.b.d w.#.A D c @                 ",
"                        6 h #., u $.A.Z...5 n.$.+ X 5.Z.g.k b.A.A.A.0.0.A.D.V . = 1 k N.m.k 6.o.c B B %                 ",
"                        @ V ` o < q.Z.A.J v M.J . . J k.e.k $.8.6.6.$.8.w.6.1 X @ . p z.N.V 5.$.5 p V %                 ",
"                        O Z ` X , d.Z.A.F B e.d # # < , < o # o o o o & < < @ > o o 1 d.V.S 5.*.> p Z X                 ",
"                        @ D G . 2 k.k.$.5 o * X # X $ > p l b n b b x s p X . X X , = h H l 4.8.o r D #                 ",
"                        . Z G $ 1 Z 1 X = l C ] ' i $ b t.u._.u.i.i.i.r.C o y Q b ,.] n o * k D o 1 Z #                 ",
"                        + V H X o 4 S y Z u.t.,.<.<.! # i u.#X+X+X#Xu.s < ) r.' ( y.i.r.y #.L 2 $ 1 V #                 ",
"                          l H X F k.n.c ' <.y a a a C Q * t.5X3X3X5Xu.r ! ^ i a a 1 ,.OXp *.A.d.p r A @                 ",
"                          , G # H D.b.p ' C [ W.P.L.R p ! @X5X4X4X4X-X,.i T L.P.E.I.b OXb L V.x.h y p $                 ",
"                          X V - B b.k.1 C n 0XQ.K.L.!.T.Z 2X4X4X4X4X4X` { 7XQ.E Y.qXW ,.l D k.4.> y ,                   ",
"                          8 y , u f.d.4 , ] eXeXL.U Q.{.b %X4X4X4X4X-XZ (.qX0XU K.7X} Z l Z e.#.o r #                   ",
"                          @ # # # $.4.* # | eXE./ E E.9Xb @X5X4X4X4X1Xn ].!.K.I L.7X^.C p B 7.Z o o 8                   ",
"                    6 8 @ V 5 . X D $.< e ^ rXQ.6XE.7X].b -X4X4X4X4X2XZ /.7XE.8XE.rX[ ) y V 3.y X #                     ",
"              6 8 I ^ { s S K & @ 1 #., b i [.qX!.!.iX[ ) 3X3X4X3X3X4X%.^ iX~.!.7XwXb ,.r V ` + + @                     ",
"        6 8 s [ r.tXtX^.~ f O.4 @ X C , b ) i } T.R.[ i OX4X4X4X4X4X4X@Xl { ).R.T.s ! _.; Z p + @                       ",
"  7 e s W { ].tX9XsX X(.).d 2.f . X > > o ( ,.m z c C u.3X4X5X5X4X4X4X4Xi.Q z g n %.OXG X y o @                         ",
"e / [ } } ).yXtXhXjX X(.1.2 ..d 6 @ X # X = ' oX$X%X2X5X4X4X4X%X%X3X4X4X5X2X1X$X$XoX) & @ @ +                           ",
"[ T.^./.].tXsXyX X^.W a q 7 # 7     @ X $ X X n <.1X3X5X5X5X5X-X-X3X5X5X5X5X2X@X<.i + $ X #                             ",
").]..X.X/.).{ W a @                   @ X X + . + i ( <.i.OX#X@X%X@X+XOXi.,.! u & O + o X 8                             ",
"s / ^ I r @                             $ $ 7 7 + + & . X - r y 3 y 1 > o . . & ; + @ o $                               ",
"I./ I               {.}.0X              7 q     6 u Y M + . # r < * % . g _ g X + [ { . @                               ",
"jXsXrXiXiXiXiX9X[.}.[.[.}.                w     O m ;.@.M X + l B m 2 X ; m m X ^ tX^ X # 7                             ",
"jXsXdXaXdXaXdXtX|.|.[.[.{.                      + Y :.:.;.Y 0 + u Z m z r X ; o [ ~ X ( %.#                             ",
"hXgXaXaXaXaXaXyX|.[.[.[.}.                      + _ ;.>.>.>.-.M X - g l M l r & = & Q OX@Xu                             ",
"hXhXaXaXuXdXdXdX X[.}.XX0X                      9 -.:.>.>.:.:.+.g u & < u l z u . ( OX3XOXe                             ",
"  hXsXuXaXuX9XtX9X[.}.                        @ & m Y -.@.-.-.Y Y @.m + X < h z . ' 1X%X) +                             ",
"    sXaXaXuX9X|.[.[.[.                        O r 9 + + ; ; - - & ; ; . X X & & . = A x @                               ",
"    pXaXaXaXtX}.[.[.[.                        9 /.|.'.U.| ] ~ ~ ~ ~ { | 1.(.).W # 7 6 O                                 ",
"      uXuXaXyX9X{.}.|.}.                      9 /.sXjXjXtXaXjXjXjXjXgXgXdXjX9X'.e                                       ",
"      iXaXaXaXtX  6X[.{.                      @ e s W { [ U.)././.).} } { ^ b t @                                       ",
"        pXaXuXyXwX    {.                        O . X = = X . $ . X X X ; X O                                           ",
"          aXaXaXtX                                X ; 1 r # +     @ - N N 0 O                                           ",
"          iXuXaXuX                                X N N g X 7       $ : g #                                             ",
"            iXaXuXpX                              + M N g $           O 7                                               ",
"              pXsXuX                              7 ; ; .                                                               ",
"                pXaXpX                                                                                                  ",
"                  pXaXpX                                                                                                ",
"                    pXpX                                                                                                ",
"                      iXpX                                                                                              ",
"                          eX                                                                                            ",
"                                                                                                                        "
};
