/* XPM */
static char *_d75412e32c94ed3a83bdd663bb1edf9TKOn4jHWP2iZsRP0[] = {
/* columns rows colors chars-per-pixel */
"64 64 238 2 ",
"   c None",
".  c #15140E",
"X  c #1B150D",
"o  c #1D180F",
"O  c #0F1B1D",
"+  c #0F1516",
"@  c #161514",
"#  c #1A1514",
"$  c #151815",
"%  c #1C1914",
"&  c #14161A",
"*  c #1A1519",
"=  c #14191C",
"-  c #1C1A1A",
";  c #221A0D",
":  c #23150D",
">  c #211613",
",  c #231B14",
"<  c #2A1D15",
"1  c #251719",
"2  c #231C1B",
"3  c #2A1D1B",
"4  c #341B1C",
"5  c #2B2216",
"6  c #23211E",
"7  c #2C231B",
"8  c #292518",
"9  c #32251B",
"0  c #34291B",
"q  c #3C2D1D",
"w  c #352516",
"e  c #3B311C",
"r  c #32210E",
"t  c #0E1C22",
"y  c #131B22",
"u  c #151B26",
"i  c #241E23",
"p  c #381E28",
"a  c #142127",
"s  c #252423",
"d  c #2D2B2B",
"f  c #2B2726",
"g  c #342424",
"h  c #342A24",
"j  c #3A2D23",
"k  c #322D2B",
"l  c #3A2728",
"z  c #3C3124",
"x  c #38312A",
"c  c #3C3633",
"v  c #3E3935",
"b  c #383635",
"n  c #322E33",
"m  c #43331C",
"M  c #47391E",
"N  c #533C1C",
"B  c #412F1D",
"V  c #432828",
"C  c #5B2D2D",
"Z  c #443523",
"A  c #4C3B24",
"S  c #43342A",
"D  c #4D3C2A",
"F  c #473727",
"G  c #513C25",
"H  c #533C2B",
"J  c #472A32",
"K  c #592E31",
"L  c #443B35",
"P  c #4B3D32",
"I  c #483A38",
"U  c #573936",
"Y  c #622C2D",
"T  c #662E31",
"R  c #683032",
"E  c #58401B",
"W  c #4E422D",
"Q  c #544226",
"!  c #55432B",
"~  c #5B442B",
"^  c #5E4A2C",
"/  c #5C4423",
"(  c #4B423C",
")  c #544532",
"_  c #5A4736",
"`  c #634C2C",
"'  c #63422A",
"]  c #624D32",
"[  c #664838",
"{  c #665235",
"}  c #6A5335",
"|  c #69563A",
" . c #725A33",
".. c #735C3C",
"X. c #795B37",
"o. c #745829",
"O. c #7E643B",
"+. c #3F3F41",
"@. c #633A41",
"#. c #583A42",
"$. c #494647",
"%. c #534B45",
"&. c #574C47",
"*. c #54524E",
"=. c #585858",
"-. c #724D42",
";. c #6A5746",
":. c #755E45",
">. c #7C4552",
",. c #6A504B",
"<. c #5F605E",
"1. c #7B6342",
"2. c #776344",
"3. c #78695A",
"4. c #6C604D",
"5. c #6C6B6B",
"6. c #646364",
"7. c #777676",
"8. c #82653B",
"9. c #886A3C",
"0. c #976F3D",
"q. c #997A36",
"w. c #A27B35",
"e. c #805933",
"r. c #874958",
"t. c #8A6D44",
"y. c #856A46",
"u. c #916F45",
"i. c #8C724B",
"p. c #937244",
"a. c #92744A",
"s. c #95794C",
"d. c #9B7C4A",
"f. c #997847",
"g. c #887553",
"h. c #947A53",
"j. c #9C7C53",
"k. c #967D58",
"l. c #A27C4A",
"z. c #A17E54",
"x. c #9B5468",
"c. c #BC8E36",
"v. c #D4A233",
"b. c #9D8153",
"n. c #9B8049",
"m. c #AB844C",
"M. c #A6834B",
"N. c #B88E4E",
"B. c #BD914E",
"V. c #A28255",
"C. c #AA8554",
"Z. c #AC8A54",
"A. c #AC8B5A",
"S. c #A5865A",
"D. c #B68E55",
"F. c #B98E54",
"G. c #B58E5A",
"H. c #B98E59",
"J. c #B69155",
"K. c #BA9155",
"L. c #B6915A",
"P. c #BB925A",
"I. c #BD995B",
"U. c #AE9052",
"Y. c #9B8571",
"T. c #AE9470",
"R. c #BDA56A",
"E. c #C39555",
"W. c #CD9C56",
"Q. c #C59B5B",
"!. c #CA9D5A",
"~. c #C59858",
"^. c #CB9A52",
"/. c #CCA25E",
"(. c #D4A45C",
"). c #DDAA5D",
"_. c #D4A157",
"`. c #E6B25D",
"'. c #E2AC5B",
"]. c #C39D61",
"[. c #C99E62",
"{. c #CAA566",
"}. c #D3A462",
"|. c #DCAB63",
" X c #D6AA63",
".X c #DEB166",
"XX c #CDB572",
"oX c #E2AE64",
"OX c #E3B363",
"+X c #EBB562",
"@X c #EDB965",
"#X c #E5B46A",
"$X c #EAB56A",
"%X c #E9BB6A",
"&X c #F4BC65",
"*X c #FEBF65",
"=X c #F3BC6B",
"-X c #FCBF69",
";X c #F4B765",
":X c #EBBB71",
">X c #F4BC73",
",X c #FCC25E",
"<X c #F5C165",
"1X c #FDC165",
"2X c #F6C36B",
"3X c #FBC26A",
"4X c #F8C96D",
"5X c #F9CC74",
"6X c #F7CA76",
"7X c #F6D27B",
"8X c #FBD47C",
"9X c #F9D378",
"0X c #EDC572",
"qX c #858586",
"wX c #959595",
"eX c #908F8F",
"rX c #B09C89",
"tX c #A5A5A6",
"yX c #B7B6B7",
"uX c #BDA98A",
"iX c #C8AB94",
"pX c #D9B696",
"aX c #CAAA8C",
"sX c #E0BC9B",
"dX c #EBD686",
"fX c #FBDB85",
"gX c #FBDE8B",
"hX c #F8D785",
"jX c #F6D489",
"kX c #FCE28D",
"lX c #FCE593",
"zX c #FDE995",
"xX c #FDEA9A",
"cX c #FBE799",
"vX c #F6CDA9",
"bX c #D7D7D8",
"nX c #C5C6C5",
"mX c #E6E8E8",
/* pixels */
"                                                                                                                                ",
"                                                                                                                                ",
"                                                                                                                                ",
"                                    a y & $ $ % 6 , 6 - @ $ & O = $ & * - % - $ $ $ & y                                         ",
"                              a = # 5 M  .t.M.J.K.K.P.D.M.9. .H Q  .u.l.m.D.C.d.t. .G 0 $ + y                                   ",
"                          y $ 6 ! f./.#X&X3X1X<X1X1X3X<X<X3X-X;X&X%X}.E.!.$X3X1X3X-X@X(.z.^ 5 @ u                               ",
"                      u = , ` K.@X,X1X1X1X1X,X<X`.D.X.^ ` 8.}.&X<X(. .q 5 m u.#X*X*X*X3X1X=XI.} 2 O O                           ",
"                    t % M U.@X1X1X1X1X1X*X1X<XM.Z , 0 ^ a.i.H 0.<X1X&X(.d.A : ` #X1X,X3X3X1X1X2XL.) - =                         ",
"                  = , X.{.).&X-X3X*X*X3X*X&X0.5 ! f.}.&X>X` o d.2X1X1X1X,X#Xi.w D.1X1X1X1X1X1X<X7XdX3.8 @                       ",
"                = 5 f.{.p.{.2X*X-X1X1X*X1X+X0.J.@X3X1X1X*Xl.p.=X1X1X1X1X*X*X1X~.(.1X1X1X1X2X5X9XkXzXzXT.h #                     ",
"              = 7 V.I.' T.cXhX7X3X1X1X1X1X*X<X1X1X*X*X<X*X*X*X1X1X1X1X1X1X*X1X1X1X1X1X1X7X8X4X8XzXcXkXgXR.Z #                   ",
"            = 8 C.I.m h.lXzXxXcX7X5X5X<X@X&X9X4X*X,X1X1X,X1X1X1X1X1X1X1X1X1X1X*X1X2X5X4XgXxXgX5X7XkX9X2XOX{.F o                 ",
"          = , s.[.m } dXxXzXxXzXjXlXfXOXp.%XlXhX1X1X1X*X*X*X1X1X*X1X3X1X3X1X4X3X<XfXlXlXxXxXgX7X4X5X9X<X0.!.Q.q &               ",
"        y o O..XQ 0 XXkXhXhXzXzXlXcX7X8.8.gXxXlX7XhX3X9X9X4X6X2X3X9X5X&X9X7X2X7XfXzX7X{.gXlXgX3X<X<X2X2XF.N {.D.5 =             ",
"      u % ! .X8.> s.9X4X2X5XkXxXxXgXU.9 R.xXcXxXcXgX6XkXlX6XkXkXhXzXkX7XgXlX6X3X8XxXdXe.].hXlX6X1X1X1X,X$XM ` $X9.% =           ",
"      = 5 I.I.5 A OX1X1X1X2X5X8XgX:XA W 0XfX9XkXxXhX4XkXkX4XkXzXxXxXxXlXxXxXfX3X4X8X6XX.} &X5X5X1X1X1X1X3X9.> d.#X! % y         ",
"    = % 8.%X^ : m.3X*X1X1X1X3X*X2Xl.> O.9X2X1X9XkX6X4XgXfX6X8X6XgXgX7XhXgXkX8X3X1X1X2X9.w /.1X1X1X1X,X1X1XQ.< m OXD.< =         ",
"    = z |.U.; A $X1X*X*X1X1X*X*X+XG > D.3X1X,X1X5X2X1X4X3X<X1X1X3X3X-X-X4X4X<X*X1X1X4Xj.: f.3X3X<X1X1X1X1X$XA o f.#X! % a       ",
"  = # t.:X` # f.3X1X*X1X*X-X*X3XJ., q |.1X1X1X1X*X*X1X*X1X1X1X1X*X1X*X*X*X*X*X1X,X1X3XD.: ` =X1X1X*X3X1X*X<XO.. G #Xp., y       ",
"  = 0 (.Q.5 q ).1X1X1X1X1X1X1X2XX.. ~ =X1X1X1X1X*X3X1X1X1X1X1X1X1X*X3X1X1X*X-X1X1X1X3XK., m OX3X1X1X1X3X*X-XD.> , F.J.e #       ",
"= # ] :X9.. ~ ;X1X3X*X*X1X1X1X#XZ @ 8.4X1X1X1X1X1X*X1X1X*X1X1X*X*X-X1X1X1X1X*X*X1X1X1X~.< 2 ^.3X,X1X1X1X`.m.{.q @ y.].} % t     ",
"= 1 f.#XG @ A $X3X1X*X1X1X1X3X!.< > l.3X1X1X1X*X1X*X1X*X1X1X*X*X1X1X1X*X*X1X1X1X1X1X1X/.0 # m.1X1X3X1X1X(.N Q.H @ W P.y., =     ",
"# 0 U.E.5 = 0 |.1X1X*X1X,X1X3Xm.> 2 J.1X*X1X1X*X*X1X3X1X1X*X*X3X1X1X1X*X*X1X1X1X,X1X1X|.0 # u.3X*X3X1X1X/.r f.... 9 z.j.5 =     ",
"* S K.p.; = < ~.1X1X1X1X1X1X3Xp.# 3 !.3X*X1X1X1X1X*X*X*X1X1X1X1X-X*X*X*X1X1X*X1X1X1X1X.Xq # X.3X*X*X1X1XI.; | a.o > i.G.Z &     ",
"# W J.] # $ % m.3X-X*X1X1X*X:XO.. 0  X1X*X1X1X1X1X1X*X1X1X1X*X*X*X*X*X*X1X*X*X1X*X*X1X.Xq . } &X1X1X1X3XZ.o H s.> % 1.L.D @     ",
"@ ! A.F # % # 8.3X-X1X*X1X`.(. .. j '.1X*X*X1X*X*X1X*X1X*X1X1X1X*X*X*X1X,X*X-X1X,X1X*XOXe @ ~ $X1X1X*X3Xf.# S s., % | G._ $     ",
"@ W S.z 6 7 @ ! $X+X3X*X1X(.~.} @ q |.1X1X*X1X3X*X*X1X1X3X*X*X*X1X1X1X1X1X'.&X3X1X1X3X`.e @ Q oX1X1X*X3X8.@ j g.3 % { G.) $     ",
"@ e h.0 z ( @ 0 D._.-X,X&X!.G.] @ q ).,X1X3X1X1X+X+X3X1X1X*X*X*X1X*X*X1XOXK.(.*X1X1X&XoXq $ Q |.*X3X*X=X` @ j h.g # { G.D #     ",
"$ 8 2.h ! :.# > 1.E.@X,X&XE.G.{ @ 7 !.1X1X3X1X&X_.E.&X1X1X-X;X*X1X*X-X&X_.G.F.+X1X)._.|.q X ~ }.-X+X`.oXA @ Z k.0 . { A.z &     ",
"y . { h ^ k.5 @ ! G.(.1X&XE.J...# < M.<X1X1X*X+XK.F.~.&X-XoX~.@X1X*X-X+XB.G.D.Q.|.K.E.[.w . { !.-X(.(.~.9 @ ) S.j # ..j.5 =     ",
"  $ j 0 } G.D & 9 b.E.+X&X^.D.y.> , 9.).-X1X*X_.D.H.N._.}.K.F.W.-X1X&XW.D.H.D.K.K.D.P.C.< % :.~.oXE.Q.f.1 # ..S.q % 1.1.% =     ",
"  = % 6 } G.y., % :.J.W.:X~.F.j.5 % O.J.OX3X+XE.D.H.D.D.D.D.D.N.).3X`.F.G.D.D.D.J.J.K.t.> , i.P.E.D.I. .% , i.S.0 3 g.A &       ",
"    = # ^ G.A.F # A A.F.}.!.F.A.Z # _ F.E.+X(.N.G.H.D.D.D.D.D.D.E.+X~.F.F.D.F.G.D.D.J.2.- w b.F.D.D.G.D @ z Z.j.0 j :.% =       ",
"    y # q z.P.t.1 2 a.F.F.P.F.H.{ # A A.N.I.K.F.F.F.D.D.F.D.F.D.D.E.F.D.D.D.D.F.D.F.J.{ # A G.F.G.J.b.h % | J.f.< L 0 =         ",
"      y * D z.H.] # ^ D.F.H.F.J.i.8 5 V.J.N.F.G.G.D.J.D.D.D.G.D.D.F.H.D.F.G.D.G.D.N.G.H o ..L.D.F.J.y.- 7 j.K.y.8 f % =         ",
"        u # F s.C.Z < a.F.H.D.J.D.A ; y.P.D.D.G.J.D.D.D.H.D.F.D.G.H.F.G.D.F.D.F.D.J.C.q 7 b.J.K.H.J.] # } J.P.:.# $ y           ",
"          y - 0 2.h.Z ` G.J.L.F.H.y.; { H.H.G.D.L.h.a.D.H.H.D.D.D.H.F.G.D.G.F.D.D.D.s.< { L.K.F.F.S.q Z C.D.i.0 $ =             ",
"              = > W 2._ j.C.} Q 1.S.) m A.H.J.J.J...! D.H.F.D.D.D.D.D.D.D.F.F.G.F.H...q b.J.D.J.H.t.Z k.V.` 8 * u               ",
"                = # 2 A :.D , f 2 D ;.m i.L.J.F.G.] < f.K.J.H.F.D.H.G.F.D.F.D.D.J.G.' y.P.D.J.J.L.t.1.} w * *                   ",
"                    = @ % o k =.*.d 8 0 [ G.d.u.S.! # Q A.F.G.G.D.D.F.D.D.G.H.F.J.V.a.H.K.G.C.j.1.D 7 & y                       ",
"                          = - n *.=.( s 7 ) 7 < Z j $ ; O.L.J.K.H.J.J.P.J.P.P.L.G.C.z.g.1._ F 5 % % =                           ",
"                              u i v =.*.s @ N q.E o $ $ 7 :.i.u.t.y.y.y.1.| ] ~ A z 9 < - * = y                                 ",
"                                  = f n ; E v.v.o., - & $ * , % > # # # % - i * @ # $ -                                         ",
"                                a = $ % N w.c.o., g ( k 2 = - s *.eXwXwXwXqX=.i & 2 i * u                                       ",
"                              u * * @ m w.w.N % s %.&.&.c # # # k 5.qX5.$.d * 1 # 2 @.J * y                                     ",
"                              & 2 #.g < / G % s b I %.%.k # 4 P 2 @ . @ @ @ 1 @.g # U x.p % t                                   ",
"                            = * > l l & # @ 2 b L c v c - # U -.7 # # # @ % @.r.K $ 2 J 1 # +                                   ",
"                          = - 6.6.d @ # J K 3 2 h c c i @ 9 -.H % @ f s & * J >.r.2 @ - $.7.d @                                 ",
"                          @ 6 eXbXtX= % r.x.U > * s d * - F [ 9 # = , % * i # p >.l @ =.bXyXv @ y                               ",
"                        = # % - $.*.@ - J p 2 o 2 1 - @ 9 ( J @ & @ > g U _ 7 # l J @ n =.f & % @ t                             ",
"                      y > %.3.I * @ # % > 7 V U [ U - # g g > # , j U -.U Z , & u i @ @ * j ,.3.j @                             ",
"                      @ _ pXaXY.7 # l U [ @.-.-.[ S * * * # - x U ) S 9 > % 6 c c 3 + @ ,.rXuXpXT., =                           ",
"                    O @ 4.vXvXrX1 - [ [ _ D j , # # # - - * > l h , # $ & s ( &.&.%.k 1 j Y.vXvXiXs =                           ",
"                      & l T.vXaX3 * 1 % # - - - * * & % * @ . @ @ @ 2 - # d v I %.&.&.I , x iXpX:.# =                           ",
"                        @ , ) ,.2 & I <.7.tXyXyXtXtXwXeX7.7.qX*.s @ - @ # k v b L ( %.&.L % c z * t                             ",
"                          t + $ & * 7.tXwXnXbXmXmXmXmXmXnXyXmXbXyX5.v b s 2 d b v c I $.%.f @ O                                 ",
"                                  * = 2 s n v $.$.=.<.<.5.6.5.5.5.<.$.+.s @ @ 2 d x c L L k =                                   ",
"                                      = & L ( S z h f 2 @ @ @ + . . f x S ( _ L 2 - u 6 6 - =                                   ",
"                                      t @ ;.iXpXpXaXrX;.& t     & 1 3.uXpXsXsXrXS # y                                           ",
"                                        @ # g S P P g # * u     t * , j P D S 6 # =                                             ",
"                                        & % V Y Y Y V % =         = 1 C Y Y K g & =                                             ",
"                                        u & 4 C R Y 4 # t         = # l Y R C 1 =                                               ",
"                                          u = & * # & y             y = & @ @ &                                                 ",
"                                                                                                                                "
};
