/* XPM */
static char *_1ebb18963fb4009c43d5f9fd563c3cetH77xduEr0PLci6K[] = {
/* columns rows colors chars-per-pixel */
"64 64 240 2 ",
"   c None",
".  c #1B140E",
"X  c #1A150E",
"o  c #0E181B",
"O  c #161514",
"+  c #1A1515",
"@  c #151915",
"#  c #1C1915",
"$  c #15161B",
"%  c #1A161A",
"&  c #14191B",
"*  c #1C1B1A",
"=  c #221615",
"-  c #231B14",
";  c #221519",
":  c #221C1B",
">  c #2B1C1B",
",  c #351D1D",
"<  c #261A0E",
"1  c #1E201C",
"2  c #2C2215",
"3  c #25211C",
"4  c #2B231B",
"5  c #29251B",
"6  c #312515",
"7  c #352A1E",
"8  c #3B2C1B",
"9  c #372818",
"0  c #3D321F",
"q  c #0F1B22",
"w  c #0F1F2D",
"e  c #131C23",
"r  c #171C26",
"t  c #371E24",
"y  c #201F22",
"u  c #162229",
"i  c #16242F",
"p  c #252324",
"a  c #2A2524",
"s  c #2D2822",
"d  c #2B292A",
"f  c #342322",
"g  c #342C22",
"h  c #392D23",
"j  c #382628",
"k  c #3C3125",
"l  c #3D342B",
"z  c #35332D",
"x  c #393635",
"c  c #2D3239",
"v  c #43331C",
"b  c #483217",
"n  c #48321A",
"m  c #43262B",
"M  c #443423",
"N  c #4C3B29",
"B  c #473826",
"V  c #523F27",
"C  c #473B35",
"Z  c #58323B",
"A  c #522C2E",
"S  c #693538",
"D  c #753436",
"F  c #662F2D",
"G  c #4C402A",
"H  c #5B452A",
"J  c #574529",
"K  c #4B4238",
"L  c #584836",
"P  c #5F5238",
"I  c #634C2C",
"U  c #634629",
"Y  c #624D35",
"T  c #655134",
"R  c #6B5433",
"E  c #67553A",
"W  c #725533",
"Q  c #745A34",
"!  c #785D3A",
"~  c #72522D",
"^  c #7D6138",
"/  c #26394D",
"(  c #0D3053",
")  c #663743",
"_  c #773D4B",
"`  c #5B3740",
"'  c #2F4F6A",
"]  c #1F4562",
"[  c #4A4846",
"{  c #585858",
"}  c #534E49",
"|  c #685647",
" . c #745D44",
".. c #635E5A",
"X. c #754B4E",
"o. c #5C625E",
"O. c #796344",
"+. c #786655",
"@. c #62615D",
"#. c #635E60",
"$. c #686C6D",
"%. c #787879",
"&. c #667378",
"*. c #5C6A78",
"=. c #923C3D",
"-. c #98413F",
";. c #82653C",
":. c #8B6A3E",
">. c #96753D",
",. c #923D46",
"<. c #824755",
"1. c #944C5E",
"2. c #8A585B",
"3. c #8C6C41",
"4. c #846844",
"5. c #9B7945",
"6. c #91754A",
"7. c #9C7B4B",
"8. c #967747",
"9. c #866959",
"0. c #987A52",
"q. c #8D714B",
"w. c #A27C4C",
"e. c #A27C46",
"r. c #9D4D60",
"t. c #975364",
"y. c #A8566A",
"u. c #BA5871",
"i. c #B4566D",
"p. c #887562",
"a. c #937E68",
"s. c #977F70",
"d. c #9B8455",
"f. c #AB854C",
"g. c #A7854E",
"h. c #B58C4E",
"j. c #AC8952",
"k. c #A78454",
"l. c #B58D54",
"z. c #B98E55",
"x. c #B38D5B",
"c. c #BA8E59",
"v. c #BD9354",
"b. c #BB9259",
"n. c #B49355",
"m. c #AC9259",
"M. c #99836C",
"N. c #9C8573",
"B. c #A48B76",
"V. c #B3987C",
"C. c #AB8F74",
"Z. c #C59B5B",
"A. c #CB9E5B",
"S. c #C59855",
"D. c #D09E52",
"F. c #CBA15D",
"G. c #C8A057",
"H. c #D4A45B",
"J. c #D9A85C",
"K. c #E7B15D",
"L. c #E8B15D",
"P. c #C39D63",
"I. c #CBA263",
"U. c #DBAC63",
"Y. c #D6A865",
"T. c #D1B370",
"R. c #E3AE63",
"E. c #E4B264",
"W. c #EBB464",
"Q. c #ECBA67",
"!. c #EDBA6A",
"~. c #E7B569",
"^. c #F3BB65",
"/. c #FEBF65",
"(. c #F3BD6A",
"). c #FBBF6A",
"_. c #F3B563",
"`. c #F0BB70",
"'. c #FDC25F",
"]. c #FDC165",
"[. c #FCC36A",
"{. c #F7C46A",
"}. c #FACB73",
"|. c #FBCF7A",
" X c #F9C873",
".X c #FBD47B",
"XX c #FCD276",
"oX c #2F6087",
"OX c #557692",
"+X c #717D89",
"@X c #437EA2",
"#X c #548EB6",
"$X c #638DA8",
"%X c #5699C5",
"&X c #4B8EC1",
"*X c #75A8CA",
"=X c #878685",
"-X c #989799",
";X c #918F90",
":X c #BA9D83",
">X c #ADA190",
",X c #AEAEB0",
"<X c #87A7B9",
"1X c #C6A788",
"2X c #CDAE90",
"3X c #D8B796",
"4X c #CEB091",
"5X c #EFB59A",
"6X c #F7B2A0",
"7X c #FBD682",
"8X c #FBDB84",
"9X c #FCDD8B",
"0X c #E8C49D",
"qX c #F5DE92",
"wX c #E8CD8E",
"eX c #FCE18D",
"rX c #FDE493",
"tX c #FEEA97",
"yX c #FEEA99",
"uX c #FDEA9B",
"iX c #F7E396",
"pX c #E9C6A3",
"aX c #F3CCA4",
"sX c #FACCA7",
"dX c #FDD1A6",
"fX c #FED4AA",
"gX c #F7D3AE",
"hX c #FED5B2",
"jX c #FCEBA0",
"kX c #96BAD4",
"lX c #A6C6DB",
"zX c #BFD7E3",
"xX c #C8C6C6",
"cX c #D9D7D9",
"vX c #E0E1DE",
"bX c #CDD9E6",
"nX c #E0DFE0",
"mX c #E7E4E4",
"MX c #F3F4EF",
"NX c #CDE1EC",
/* pixels */
"                                                                                                                                ",
"                                                                                                                                ",
"                                                                                                                                ",
"                                                                                                                                ",
"                                                                                                                                ",
"                                                                                                                                ",
"                                                              u e                                                               ",
"                                              e q & * p 4 8 k M B M k g 5 1 * & r r i                                           ",
"                                        e & * 7 H ^ w.S.J.J.L.W.Q.W.R.J.D.h.5.;.H B v 8 4 # @ e                                 ",
"                                  q e @ 3 N 3.Z.R.].].].].].]./././././.].].[.[.^.W.E.U.Z.h.:.I h # &                           ",
"                          r * : 7 M G T 6.c.H.L.^././.].'././.]././././.].{.{././.].].].].[.[.Q.U.g.L 5 # e                     ",
"                      u # h ^ j.S.S.Z.A.S.K.^./.]././.'./.].]././././././././.[.].].].].'.[.{.}.8XrXqXT.E : &                   ",
"                  u & 8 3.J.{.)._._.).).^./.].]./././.].].].].]./.].)./.[./././.].].[.[.[.}.9XrXtXyXyXtXqXm.k & e               ",
"                u # U F.{.[.].]./.[.].]./././.]./././.].^.).].].].].[.[. X}.[.{.}.9X9X9X X7XuXuXyXyXtXyXuXyXT.L # e             ",
"              u - Q K.[.].].].].].{..X].].}.{.{.7X8X.X8X8X.X]./.]. X9XrXyXyXeX XXXtXuXyX9X9XyXuXiXwXiXyXjXuXuXT.H * r           ",
"            u X R E.].].].'.].].{.}.9X8XeXrX X|.tXjXuXuXuX8X{./.]..XtXuXyXuXtX|.{.eXuXuXuXyXuXuXiXg.d.iXeX9X.X{.Y.B %           ",
"          i * M Y.{.]./.].].]./.].8XyXtXrX9X{.8XuXuXuXjXtXeX{./.].7XtXtXrXuXyX7X{..XuXuXuXtXtXrX8Xn.b P.{.].].'.{.j.6 &         ",
"          * 2 g.].].)./.].]././.]..X8XXX{.|.[.8XtXuXqXwXjX.X{.).{.9XtX9X|.rXtX9X{. X9X9X8X.X}.{.[.U.0 R ).[.].'.].(.Q # e       ",
"        i @ H Q.'./.].].].].'.].{.L.J./.{.W.K. X.XwX0.T.eXXX{.].{..X7X}.]. X|. X].].].]././.].].].{.I 9 H.[.].].].{.Z.6 &       ",
"        & - f.[./.].].].].)././.c.~ J.[.^.>.H.[.{.:.~ !.{.'.].]./.{.].].L.G.{./.].)././.)./.].].{.].3.< g.{./.].].].^.R @       ",
"        & v E.[.].].].].].].].h.b e.{.].z.I Q.].S.9 e.[.]././.].].].].[.v.>.].'.]./././.]./.).G.K.{.l.= ;./.].]././.[.f.# e     ",
"      i + I (.].].'.].].].{.F.8 V ~.].^.I ! [.{.! 6 D.].].]././.]././.[.:.~ )././././././.[.b.b n.[.Y.9 W (.].]././.[.F.6 #     ",
"      r % ^ ).).^.^.]./.].Q.I - f.[.].Z.6 e. XR.v M E.'.].]././.]././.^.H J `.].].].].'.].(.Y X Q ].Q.J U (.].]./.[.[.E.B @     ",
"      e # ^ ^.(.D.K.]./.[.f.- J Q.].[.3.< Z.[.v.< H Q././.^.'.[.'.].].U.b 8 Y.].[.[.[.].[.Y.9 $ 7 F.[.4.W [.[.[.[.[.[.(.U @     ",
"      e # ^ H.F.z.J.]./.`.I # 5.].].^.H 6 J.[.f.. R ).].S.h.]./.]./.[.Z.> < k.J.G.v.f.e.5.! - $ + H 8.R L 7.5.7.f.f.j.n.J @     ",
"      e O O.b.n.z.H.]./.I.6 7 b.^.[.U.k 8 E.[.3.. ! {.{.;.:.].].]./.].l.< @ 7 7 4 3 - 4 a 3 3 ; + O O + # 4 : p # ; = - @ &     ",
"      e O T b.z.x.S./.Q.6.. L v.).].F.2 n Q.[.:.O ;.[.(.J W ].].]./.].7.O 3 K | +.p.a.M.B.B.N.p.| K s % : } M.M.x % e           ",
"        & B x.l.c.S.R.Z.H O ^ S.^.[.v.- J Q.[.3.. ! [.E.v H (.[.].{.{.3.X z B.:XV.:X:XM.+.| | +.9.p.a.0.| 9.1X:XC %             ",
"        & 2 7.b.z.z.c.x.N = O.v.^.[.f.. J Q.[.5.. W {.H.7 v E.].].).].:.X N 4X3X0X3X+.a [ { { ' / / z | :XaXfX3Xg $             ",
"        r # R l.z.h.x.x.V > 8 k.Q.].5.. J !.[.f.# Y !.Z.8 6 A.]./.].].! X C aXfXaX+.= =XNXkX&X%X#X@XOXc N 3XfX:X- &             ",
"          @ 7 d.c.7.0.x.V f # O.K.(.5.- n ~.[.l.2 V U.c.G X g.[.'./.{.;.X K pXfX1X2 o.mXbX&X#XlXOX] $X*.# :XfXa.% q             ",
"          e X L x.7.R x.3.Y = N F.Q.w.3 v E.{.S.N 7 l.b.E X Q )././.{.3.X G pXfXC.# =XMXlX&X#XOX( ( $X&.+ :XfX+.O e             ",
"            e - | k.V 4.x.7.7 2 7.~.j.7 > P.(.S.O.> 6.b.q.- M E.[./.].7.. k 3XhX1X- ..mXNX%X%X%X' oX<X[ g 4XhX+.% r             ",
"              & -  .Y h 6.l.T # T Y.b.N < 7.W.S.k.B  .l.f.k - f.[./.[.h.< 7 4XfXpX+.1 =XvXbX*X*X*XlX=X* +.aXfXB.# &             ",
"                $ - l * k 0.k.C 8 f.v. .. ~ I.S.l.Y Y l.n.L O I _.[.[.A.6 3 V.dXfXpX+.g K @.$.$.$.{ s | 0XdXfX:X- r             ",
"                  & % # # 8 4.k.W 6.n.7.6 M m.n.w.8 L j.l.R + 2 v.[.].E.v X p.dXdXdXaX1XC.p.9.9.9.9.C.pXfXdXfXs.+ r             ",
"                      & @ + 2 T d.c.c.l.L > 8.b.4.: 4 ! x.4.= @ R (.].(.Q . P aXdXsXdXdXfXfXsX6X6X6XsXsXdXfX1XM $               ",
"                        u & # + h  .g.l.0.7 I m.W + % - T 4.2 $ 4 w.).].g.. h 4XfXdXfXdXdXdXsXsXsXsXsXaX2Xp.g O                 ",
"                            * u r * g R 0. .8 0.W # # & # h 3 + # 6 >.!.Y.9 # N.gXaXaXsXaXaX0X3X2XV.p.L 4 @ o                   ",
"                                    q @ 2 M 7 L | # # # $ @ + % % @ # I x.P + M | | | P L K C j p + O o                         ",
"                                          @ # # p # # + d { z $ @ + % O - s + # z [ [ x r O $                                   ",
"                                                e r % + [ { a @ ; Z X.) ; O % O [ ,XcXcX;Xd $                                   ",
"                                                    e % : : + + Z 1.i.i.Z % : t > y } =X,X%.; $                                 ",
"                                                    @ > <.Z @ j X.r.u.u.1.t ; _ 1.) t ; : y $ o                                 ",
"                                                  $ O A t.m $ t Z ) ) _ ` p O Z y.y.y.r.<.m % q                                 ",
"                                                e $ + X.<.; % p p p d d d p O m y.y.u.u.u.,.; e                                 ",
"                                              w $ O t t.) % d =X;X-XxXxXxX+X+ , r.u.u.u.u.y.j e                                 ",
"                                              & . % m y._ ; # z C } #.o.{ x + m y.y.,.y.u.y.` $ r                               ",
"                                            e @ % % > ` Z ; * C x B l M x a O A y.) m t.r.<.A O r                               ",
"                                            e + $ p [ z % O } :X:XV.V.V.:X+.+ = t ; r > : * p r $                               ",
"                                            e # $ { nXcX} O | pXaX0X0XaXaXp.+ a { $.%.=X-X,XxXo.O e                             ",
"                                          e d a $ C =X-X%.# - | V.3X3X3XM.g % %.mXmXmXnXcXxX,X..O e                             ",
"                                          & C K a % + # * & % % + f z 7 # @ r { #.} } [ x d p % $                               ",
"                                          e x } C x s & r r + % : p 3 * * : = @ O O O $ O e                                     ",
"                                          w p x d p r     e & - f m f t , , + + , F A ; &                                       ",
"                                              & $           % = D =.=.=.,.D = = D ,.D ; &                                       ",
"                                                            r & , F D D D A . + , 9 > $ q                                       ",
"                                                                & % + % + % $ % $ $                                             ",
"                                                                                                                                ",
"                                                                                                                                ",
"                                                                                                                                ",
"                                                                                                                                ",
"                                                                                                                                ",
"                                                                                                                                "
};
