/* XPM */
static char *_4b59c07dc00499c902082efdbfab95dY0E4hoygyMEzdcma[] = {
/* columns rows colors chars-per-pixel */
"64 64 242 2 ",
"   c None",
".  c #1C150E",
"X  c #1D180E",
"o  c #0E191B",
"O  c #0C131C",
"+  c #161414",
"@  c #1A1514",
"#  c #151915",
"$  c #1C1914",
"%  c #15161A",
"&  c #1A1619",
"*  c #14191C",
"=  c #1B1A1A",
"-  c #251A0D",
";  c #211614",
":  c #231B14",
">  c #2A1D14",
",  c #231D1B",
"<  c #2A1C1C",
"1  c #251619",
"2  c #371C1A",
"3  c #2C2215",
"4  c #25211C",
"5  c #2C231B",
"6  c #252014",
"7  c #312415",
"8  c #3C2B1A",
"9  c #352819",
"0  c #3A2B18",
"q  c #0E1B24",
"w  c #131B22",
"e  c #141E28",
"r  c #371E21",
"t  c #2C1C23",
"y  c #0F222B",
"u  c #122129",
"i  c #102631",
"p  c #2C2522",
"a  c #2B2A2A",
"s  c #282624",
"d  c #332622",
"f  c #352B23",
"g  c #3B2D22",
"h  c #37292A",
"j  c #3D3123",
"k  c #3B322B",
"l  c #36322F",
"z  c #343232",
"x  c #3B3532",
"c  c #383A39",
"v  c #292F39",
"b  c #42321D",
"n  c #4A361D",
"m  c #432F19",
"M  c #452527",
"N  c #443523",
"B  c #4B3B24",
"V  c #473829",
"C  c #523F24",
"Z  c #563E29",
"A  c #473934",
"S  c #57353B",
"D  c #4F2D33",
"F  c #653239",
"G  c #763536",
"H  c #6A3032",
"J  c #55432B",
"K  c #5A4528",
"L  c #4A4239",
"P  c #574637",
"I  c #4F412B",
"U  c #634B2B",
"Y  c #634727",
"T  c #644C31",
"R  c #6A5333",
"E  c #695436",
"W  c #755B35",
"Q  c #735C3C",
"!  c #7B5E3B",
"~  c #755935",
"^  c #72542A",
"/  c #7D633A",
"(  c #59401E",
")  c #152F4C",
"_  c #173E61",
"`  c #6B3E49",
"'  c #5A3B47",
"]  c #3D4548",
"[  c #294C6B",
"{  c #484647",
"}  c #5F5143",
"|  c #575757",
" . c #564C41",
".. c #655343",
"X. c #6B5A47",
"o. c #725D49",
"O. c #7E4B56",
"+. c #7D6342",
"@. c #786555",
"#. c #727070",
"$. c #456074",
"%. c #823A3C",
"&. c #856639",
"*. c #937431",
"=. c #805A33",
"-. c #973F41",
";. c #854857",
":. c #994955",
">. c #856B45",
",. c #896B44",
"<. c #8D7249",
"1. c #9C7B4C",
"2. c #977647",
"3. c #8D7256",
"4. c #9A7C52",
"5. c #8A6D4E",
"6. c #A27C4A",
"7. c #A37D44",
"8. c #A27E50",
"9. c #995364",
"0. c #AA556A",
"q. c #B2596E",
"w. c #BC5870",
"e. c #897464",
"r. c #947A67",
"t. c #826F64",
"y. c #A5796E",
"u. c #C35673",
"i. c #9D8654",
"p. c #A9844A",
"a. c #B3884B",
"s. c #AA8553",
"d. c #AD8B55",
"f. c #AD8B5A",
"g. c #A38556",
"h. c #B58D54",
"j. c #BA8E54",
"k. c #B58E59",
"l. c #BA8E59",
"z. c #B69254",
"x. c #BD9254",
"c. c #B4915A",
"v. c #BC9359",
"b. c #BF9856",
"n. c #AC925D",
"m. c #98826D",
"M. c #9F8371",
"N. c #A68C74",
"B. c #AC927A",
"V. c #B89B7C",
"C. c #AC8D6F",
"Z. c #B9AD76",
"A. c #C49A5B",
"S. c #CA9B5B",
"D. c #C49757",
"F. c #CB9952",
"G. c #CFA45C",
"H. c #D4A35D",
"J. c #DBA85D",
"K. c #E9B35D",
"L. c #CB9E61",
"P. c #CDA260",
"I. c #DCAB63",
"U. c #D6A864",
"Y. c #DEB167",
"T. c #CCB87C",
"R. c #E2AE63",
"E. c #E4B265",
"W. c #EAB464",
"Q. c #EBB56A",
"!. c #EDBA6B",
"~. c #E9B766",
"^. c #F4BC65",
"/. c #FEBF65",
"(. c #F3BD6B",
"). c #FBBF69",
"_. c #F0B765",
"`. c #F8BF71",
"'. c #FDC15E",
"]. c #FDC165",
"[. c #F6C36B",
"{. c #FCC26A",
"}. c #F8C76C",
"|. c #FACB73",
" X c #FACF79",
".X c #F8C873",
"XX c #FAD37C",
"oX c #F4D37E",
"OX c #376B94",
"+X c #397AA3",
"@X c #58738A",
"#X c #3B80A9",
"$X c #7E8280",
"%X c #4189B6",
"&X c #749AB5",
"*X c #7CA4BB",
"=X c #3891CB",
"-X c #5194C5",
";X c #76A6C5",
":X c #6BA7CB",
">X c #8A8888",
",X c #969594",
"<X c #8D9093",
"1X c #B79A82",
"2X c #A39D9E",
"3X c #A6A6A8",
"4X c #B8B8B8",
"5X c #ACB0BB",
"6X c #81A3B7",
"7X c #CCAC8C",
"8X c #C4A486",
"9X c #D2AD8D",
"0X c #D6B595",
"qX c #CDAF91",
"wX c #E3BD98",
"eX c #F6B6A4",
"rX c #EBB9A0",
"tX c #FCD683",
"yX c #FBDA84",
"uX c #FCDE8B",
"iX c #F6DD8C",
"pX c #EECE95",
"aX c #FDE18D",
"sX c #FCE593",
"dX c #FDE995",
"fX c #FDEA9B",
"gX c #FBE79A",
"hX c #EAC5A2",
"jX c #F2CBA5",
"kX c #F9CDA8",
"lX c #FCD2A5",
"zX c #FED3AA",
"xX c #F6D4A8",
"cX c #91B7D1",
"vX c #A1BED2",
"bX c #C4BFC2",
"nX c #B5CDDA",
"mX c #C5C7C8",
"MX c #D5D5D3",
"NX c #D1CDCF",
"BX c #EBEFF1",
"VX c #E3DCD6",
/* pixels */
"                                                                                                                                ",
"                                                                                                                                ",
"                                                                                                                                ",
"                                                                                                                                ",
"                                                                                                                                ",
"                                                  i u w w w & & & % w w e                                                       ",
"                                    u u u w * * 4 5 j C U R W ! ! ~ U J b 5 = = w q                                             ",
"                            * * # 4 9 B K R ~ 2.h.H.E._.^.).].].].^.^.!.E.G.a.&.J 5 * *                                         ",
"                      e % : 8 E 2.x.J._.^.].].].{.].].]./.].{./.].].].].].].{.~.J.a.~ f * * * w u                               ",
"                  y * , J i.U.(.].].].].].].].].]./.].].]././.].]././.].].].].^.W.H.v.s./ P I b 3 & w u                         ",
"                w = J n.pXdXaXoX}.}.].].'.].'.].].]././.]./.]././.].]./.]./.]./.].].K.D.A.S.D.A.A.2.I : * e                     ",
"            i * > >.pXsXfXfXfXdXsXyX[.].{.{.].].]./.{.]./.].].].]./.].].]././././.{.).^.^.].^.H.a.S.Y.s.B & w                   ",
"          i # 9 i.sXdXfXfXfXfXfXfXsX.X.XuXuXtX{.{.|.}.{.{.{.].'.].]./././.].].)./.].].].).].].].H.&.^ s.U./ 6 *                 ",
"        i * 9 n.dXfXfXdXfXdXiXfXfXsXoXsXfXfXsX.X XaXsXsXaXyX{.].].]. XXX X X XXX{.{.}.]./.|.}.].]._.1.m K h.2.4 *               ",
"        w : 4..XXXaXsXdXaX|.XXfXfXgXdXfXfXfXtX).yXfXfXdXfXsX|././.[.aXfXdXfXfXdXtX.XuXuX XyXoX}.].].{.A.C 7 >.&.6 w             ",
"      y @ W [.'.].}.|. X}.}.XXdXfXfXfXfXfXsX X[.uXfXfXfXfXdX X)./.].uXfXdXdXfXfXtX{.uXdXsXdXuX[.].'.].{.R.T : P I # *           ",
"      * g U.]./././.].'.[.F.E.XXtXiXsXsXgXuX{..XdXdXgXiXsXdXtX).].{.uXfXgXfXfXfXyX[.XXoXyXgXuX.X].].].]./.~.~ $ p , $           ",
"    * - ,.{.'.]././.].'.E.Z A.'./.{.{.}.|.|.].|.yXuX X}.yXdXyX}.'.{.tXdXT.Z.sXsXyX].[.'.)..X[.)./.].].].{.].Q.~ @ * @ w         ",
"    o 8 U.].].{.].'.].{.2.7 A.].).]././.).).].].].(.~.].{.|.{.].].}.}.|.Y.K c.|.{.E.D.^./.R.7.R.]./.]./.{.).].E.K @ & *         ",
"  e # R (.].]./.].].].Q.V b R.].].'.).].].].]././.^.p._.].].].].].].{.{.[.&.N U.'.Q.=.H.{.`.*.Y U.].].]./.).].].P.b @ = e       ",
"  * . p.{.].].]././.].x.: W [.p.S.].]./.].).]./.].K.^ H.].].]./.].].].'.{.z.> &.].{.&.! ^.].Y.B K J.].].].{.].].).6.; & *       ",
"  * 3 S.{.].].]./.].{.&.X p.E.n Y Q.].]./.]./.].].R.n p.]./.).].]./.]./.).I.9 n E.{.p.8 U.{.).4.- / (.].].].].].]._.U @ =       ",
"  * m I.{.]./.].].].[.W 9 U.h.: < h.{.].].].].].{.G.7 &.{.].].].]./.]./.'.~.n > S.{.A.3 2.].).E.n > z.{.]./.).K.).{.s.: #       ",
"  # I !.].{.{.].{.{.{.p.K Y.U @ @ &.}.{.].{.].].].p.X K !.].].].]./.^.^.{.^.K ; p.{.U.0 U _.].{.2.. U !.]./.^.F.I.].S.j +       ",
"y # B d.a.p.p.1.*.2.2./ Z X.: @ @ B ,.2.7.a.D.H.Y.! + n E.].{.].].{.a.F.{.^.T @ 1.}.W.B 8 U.].].L.0 7 A.{.]._.D.x.I.z.B @       ",
"  # $ $ $ = = : 4 4 , & # # + @ = , : < ; ; > 5 j 4 # 9 G.'.].'.].].&.&.}.^.U . 6.{._.K > b.{./.I.U X <.{.].K.x.l.j.f.V #       ",
"        w & 9 #.r.@.p # = d L o.e.m.m.r.e.t.@.} L d @ 3 A.{.].'.].[.R Y (.Q.I ; p.{.^.T $ p.{.].H.+.X K K.{.R.j.k.l.g.8 %       ",
"          o d N.8Xr.M } t.m.m.r.e.e.e.M.1X1X1XV.V.e., : z.{.].].].~.I n Q.E.n > A.].].~ . 2.}./.H.2.< 8 a.W.H.h.h.j.3.3 *       ",
"          * 3 1XhXhX0XN...k f v v c l 5 P 8X0X0X9XN.5 : a.{.'.].].I.b m I.U.9 8 U.{.[.~ . ,.].'.S.s.N 3 1.D.v.l.x.z.Q $ w       ",
"          o X N.zXzXr.> { OX+X%X%X;XnX<Xs I 0XzXlX7X3 ; p.{./.].{.S.7 g S.c.6 K I.].[.~ + W ^./.S.l.E : 3.l.l.h.h.f.V %         ",
"          u . @.zXhXA v &XOXOXvX:X%XvXBX,X* @.kXlX7X< : p.{.).].{.p.$ B v.&.3 ,.H.].[.^ . Q W.^.D.k.5.7 2.l.1.h.z.5., =         ",
"            + P jXwXk { &X_ ) @X&X=X:XBXVXc k hXlX7X< > d.}.)./.{./ . T n.K J d.D.[.^.K + / W.~.x.h.g.K 6.8.! k.s.B @ e         ",
"            + P jXwXA c &X[ ) $.;X-X:XBXVXc k wXzX1X, > D.].{.{.E.B = >.1.K 4.h.D._.Q.B : ,.E.I.j.l.h.2.n.~ W c.E = *           ",
"            + ..jXxX@.; <X;XOX+X-X-XnXBX2X& o.xXzXN.= 7 L.].].{.b.3 p 4.1.2.z.h.D._.P.d 3 1.R.F.l.h.j.h.<.8 3.&.3 *             ",
"          * + 3.zXzXqXg c 5XvXcXcXnXMX,Xa V 0XlXlXr.+ 8 J.].).).&.. Z k.z.c.h.h.v.~.p.: N f.H.x.h.j.j.g.b j X.7 #               ",
"          * . r.zXzXzXB.x h ] { { { A h ..qXlXlXjX@.+ K _.].).I.8 @ E k.j.s.W d.v.L.Q . T k.x.h.j.z.4.V X p 4 #                 ",
"            # ..kXzXlXkX0XL.y.q.y.B.V.9XhXzXlXlXhXA @ W [./.{.1.$ ; +.c.k.E 3 2.D.k.V : 5.l.j.l.h.<.j & = & *                   ",
"            O < M.jXlXlXkXeXeXeXeXzXzXlXlXlXlXlX9X9 X p.]./.W.C + - 5.c.Q : # +.l.4.7 B f.l.l.s.Q 5 & & # u                     ",
"              % , X.8XhXzXzXlXkXzXlXlXlXlXlXlXzXN.@ 3 G.].(.&.$ # 7 3.K : # # E c.X.> 5.l.k.>.B : = = =                         ",
"                * # < P 5.B.9XwXhXjXlXlXlXzXzXjX..+ K !.W.>.: @ @ 5 k X @ = # R g.n T i.+.V $ & w w                             ",
"                      O + = 5 k L P ..o.@.@.@.@.t $ 5.v.Y 1 # @ & @ = , @ $ $ X.E 9 L g $ # u                                   ",
"                                O o + + + % a = + 1 V 7 # # # & @ & x <X| # $ f > . = % u                                       ",
"                                    * # c 3X4Xc % & % & # + t F D 1 = x c & & @ 0 =.*.0                                         ",
"                                    # z 3XmX#.= % 1 M h + < ;.q.9.` , + @ @ @ % 9 ( K 5                                         ",
"                                  w % , z t ; t D -.9.h + F q.w.0.;.D @ < ' < @ 5 x s q                                         ",
"                                    & < 5 $ < O.q.u.;.t & ` 0.0.9.;.` 1 @ S t + # 6 *                                           ",
"                                    @ < P 1 # S 0.u.` @ + 1 r h 2 1 @ = @ & & @ $ & #                                           ",
"                                  q + @ V 9 # @ ' 0.F + s #.| | | { { c # # @ A 4 # *                                           ",
"                                  q # + & , , & @ M h + { bXNXMX4X,X,X| & @ M A @ % *                                           ",
"                                  % , A 1 @ @ d p = + # % a z c z a s = + 5 x ; @ %                                             ",
"                                  & $ M t @ # ; f A < + a  .P L L  .} A @ = & + & %                                             ",
"                                q & c l p = = % + : ; + X.7X8X8X8X8X7XB.5 # c #.{ % *                                           ",
"                                % 5 3XNXmX5X,X<X| z & + P hXzXlXlXlXkXm.: s 4XBX>X+ *                                           ",
"                                & , $X5XmXmXmXmXbXmX<Xa @ } V.7X7XB.o.7 + c >X#.A + q                                           ",
"                                w # * = p l c A { { | a + + = 4 5 @ % + + & % % %                                               ",
"                                        % + @ @ + + + , h z k A A A A , @ @ %                                                   ",
"                                        e # 1 r r 2 @ 1 h h k m g h 5 @ & w                                                     ",
"                                          # < %.-.%.2 + M H G %.G G D @ %                                                       ",
"                                          * ; M H H < + M %.:.%.%.G 2 &                                                         ",
"                                            * % # # & 1 > 2 2 r M < ; w                                                         ",
"                                                        q o # % w w                                                             ",
"                                                                                                                                ",
"                                                                                                                                ",
"                                                                                                                                "
};
