/* XPM */
static char *_bc8f8ef6b274267c5af87115cc07b00JtRY9qvN4Ajsf5Xw[] = {
/* columns rows colors chars-per-pixel */
"64 64 190 2 ",
"   c #0F0E09",
".  c #120E0C",
"X  c #14120A",
"o  c #19140C",
"O  c #17190E",
"+  c #1C190E",
"@  c #171412",
"#  c #1A1713",
"$  c #1D1A13",
"%  c #1D1C18",
"&  c #231E13",
"*  c #221D19",
"=  c #242115",
"-  c #292217",
";  c #25241B",
":  c #2A251C",
">  c #2D291E",
",  c #33301F",
"<  c #272621",
"1  c #2B2721",
"2  c #2D2B23",
"3  c #322D24",
"4  c #322D29",
"5  c #353025",
"6  c #393226",
"7  c #35332A",
"8  c #3A352C",
"9  c #37382A",
"0  c #3D3A2E",
"q  c #343331",
"w  c #3C3531",
"e  c #3D3B33",
"r  c #40372E",
"t  c #413A2E",
"y  c #423D33",
"u  c #493F36",
"i  c #433F3A",
"p  c #483F38",
"a  c #444136",
"s  c #494336",
"d  c #46423A",
"f  c #4B453B",
"g  c #47493C",
"h  c #4D493D",
"j  c #51473E",
"k  c #534B3E",
"l  c #55533E",
"z  c #59503F",
"x  c #474642",
"c  c #4B4741",
"v  c #4E4B42",
"b  c #534D43",
"n  c #594F43",
"m  c #524E49",
"M  c #584F4A",
"N  c #555145",
"B  c #5B5345",
"V  c #5E5846",
"C  c #555349",
"Z  c #5B554A",
"A  c #575A49",
"S  c #5D594D",
"D  c #5C5652",
"F  c #5E5B52",
"G  c #615546",
"H  c #625B47",
"J  c #61574C",
"K  c #635B4D",
"L  c #6A5D4D",
"P  c #605750",
"I  c #645D52",
"U  c #695E52",
"Y  c #605B58",
"T  c #65614E",
"R  c #6A604E",
"E  c #666154",
"W  c #6A6355",
"Q  c #6E6956",
"!  c #66625A",
"~  c #6C655A",
"^  c #6E695C",
"/  c #716554",
"(  c #736956",
")  c #786B56",
"_  c #70675B",
"`  c #736B5C",
"'  c #796D5C",
"]  c #77705E",
"[  c #7C715E",
"{  c #646663",
"}  c #6C6761",
"|  c #6D6A62",
" . c #736660",
".. c #746D62",
"X. c #796F61",
"o. c #716C68",
"O. c #757164",
"+. c #7B7364",
"@. c #7E7966",
"#. c #767469",
"$. c #7C756A",
"%. c #7E796C",
"&. c #7E7B72",
"*. c #83775F",
"=. c #827564",
"-. c #887767",
";. c #837966",
":. c #897B66",
">. c #81756A",
",. c #897769",
"<. c #837B6C",
"1. c #8A7C6C",
"2. c #907F6F",
"3. c #837D72",
"4. c #897E72",
"5. c #87826F",
"6. c #8B826E",
"7. c #90846E",
"8. c #868175",
"9. c #898377",
"0. c #898275",
"q. c #898576",
"w. c #8A8374",
"e. c #8F8A74",
"r. c #868279",
"t. c #8B8579",
"y. c #8A8778",
"u. c #8D8779",
"i. c #8E877A",
"p. c #8B857A",
"a. c #8E887A",
"s. c #8E897E",
"d. c #8D887C",
"f. c #918271",
"g. c #928A75",
"h. c #988C76",
"j. c #91877D",
"k. c #938779",
"l. c #918B7D",
"z. c #948B7C",
"x. c #938D7F",
"c. c #958E7F",
"v. c #938C7D",
"b. c #998D7B",
"n. c #97907E",
"m. c #9C927E",
"M. c #A0947E",
"N. c #8D8A83",
"B. c #938D81",
"V. c #958E81",
"C. c #948D82",
"Z. c #9A8D84",
"A. c #938E8A",
"S. c #969082",
"D. c #969080",
"F. c #979185",
"G. c #959184",
"H. c #999383",
"J. c #989284",
"K. c #999387",
"L. c #9B9587",
"P. c #9A9484",
"I. c #9D9686",
"U. c #9B9484",
"Y. c #979388",
"T. c #9D9588",
"R. c #9D9789",
"E. c #9D978B",
"W. c #9A978E",
"Q. c #9C958A",
"!. c #9F998B",
"~. c #9C988D",
"^. c #9E988B",
"/. c #A29680",
"(. c #A1998C",
"). c #A29C8C",
"_. c #A49F8C",
"`. c #A29D8C",
"'. c #A29C90",
"]. c #A29C90",
"[. c #A4A192",
"{. c #A5A293",
"}. c #A9A295",
"|. c #A6A39A",
" X c #ADA79C",
".X c #AEAA9D",
"XX c #AFABA0",
"oX c #B4AEA2",
"OX c #B4AEA2",
"+X c #BCB9AA",
/* pixels */
"8.a.V.V.N.f + F ` V V ` <.q.t.0.<.0.z.0.<.C ;   9 q.^.q.3...~ 8.a.L.n.A 2 X 2 ! H K U O.5...P U @.<.$.Q Z * f r.`.`.).J.c.q.%.X.",
"(.V.0.8.Y.%.I F.H.R.I.H.P.x.<.$.;.<.w.V.oXXXw e +Xq.O.4.z.C.J.y.3.;.n.[.W.# Y W.a.E.Q.s.D.^.J.d.$.%.8.t.OX` _.oXw.w.0.i.x.V.D.J.",
"W ..~ J _ ` N ` K ` Q E ` ` / ` ~ ' ` Q X.4.g |.q.~ I ` U U W U ! E S T %.w O.E W _ _ ~ W U U Y U _ W ^ $.%.....~ E E E E E W ~ ",
"U ` ` U W ` J ~ ] @.O.' =.+.) ' ' ` ' ` X.~ h 4.K X.` E _ ^ I J F I N B S i E +.E ~ X...^ ^ } W ` W ..^  .U Z  .U I I ! ~ ~ ~ W ",
"~ W W W _ X.U X.' ` ' ' ' -.:.=.X.` O.` ` K d I ' ' ' ` X.>...~ T E N g F i S | W W ~ _ _ .. .} Y W  .^ ..b P } ^ } } ^ ^ ~ ~ E ",
"U _ ~ U U X.J U Q O.+.' _ =.1.=.' ` ` ` O.E y #.] ` O.$.+.X._ ..E S A g A e 9 ^ ` W W | .._ ^ _ ^ X.` .._ P n U ~ ..^ W ~ ..| Q ",
"^ $.X.~ U X.I _ W O.>.X.X.+.X...] ] $.O.` S ; | $.@.Q ~ >.3. .U S A I m m x < C I ..~ D P ^ E S ^ P ~ ~ $.P n o.......^ ^ ~ ! I ",
"M Z D _ ....Z  .' O.W U _ _ ~ ..` ' ' E ..! ; 7 T ] O.X.....~ P F I v v g % ; q ..O.~ U I I I ~ I ....^ 3.D I ~ U U W ..^ U Z N ",
"K ~ 8 2 P J 6 j b f S b C S A F K K E F ! d @ % 2 N F o.^ H Z Z ! F S N 7 X o 2 c I ! { F ! ! S C Z m C x = Z 3.! ! +.W f y b h ",
"c.z.f +.C.Q.U.>.%.%.: s h f h f a f d 5 e h 5 2 e y : - S c.q.r.n.G.N.q.p.Y.r.~ $.3.E 7 7 1 > S E A v w 5 7 f P E I t f 8.i.w.L.",
"@.` Z 4.<.4.w.' ` %.f 3.@.%.<.] ' ` W V K O.` Q X.a.+.5  X0./ $.Q Q K V ` t.r.` W Q.oXh & X.Z.i.Q.C.J.4.8.Q.p.4.@.e.Z ~ D.@.;.+.",
"] K ^ +...+.W J C K f K f B V V H k k k B V V H V W V K ' E ..X.@.+.O.Q _ ` W K V U ^ ~ Z E.+.` ~ ` U ~ _ ..X./ ^ O.O.` X.' ' ] ",
"^ ^ U | o._ ..P I ~ 0 n K G G z B N B z k G H G z Q V k X.U X./ W ' ' X.X.O.` W ' ~ ` u I X./ _ _ ' U ' ' U X.X._  .U Z .... ...",
"E ^ Y $.~ W X.U ~ I : s n N N k N z B n z n B z V z k a ^ ^ ..` ` ` ` ` ( ` ` ` ~ W W n h X._ W _ _ X.=.;.' ` ..} $.D P $.W ..I ",
"` E W ..~ _ W K ~ n 8 n s n k k k f k J J n z n z B k S O.W E ( X.` ` ' ' ~ ~ Q ` _ ..n Z _ U ..` W ..` ` +.~ ....} ~ m I .._ ~ ",
"` ~ ~ U ` E W ` | ~ 0 f n j j j f k z V G n k k l K a N $.W ` ' ` ^ ~ ` ` ` ' Q _ W ..u F X.^ ~ ^ ~ _ =.` O.W ^ ^ ..~ f I %._ W ",
"E ` ~ U ....~ ..~ O.5 0 N C b b S n B T Z Z G K S E a 7 } ! P F I W ~ W O.@.^ ] I S E 5 t ` ^ Q +.` ~ ` X...^ X.O.o.o.a S 3.$.~ ",
"Z j S N K S J I Z y O , u 0 2 6 8 f , 0 5 5 f t a 9 + X ; 7 8 + * 5 s B g 0 g a y s Z T N S j S W y k W h 5 y 0 9 , 5 5 n P W J ",
"Q S N - e S E I S P z.E.0.V.j.' U c O.a D $.~ ' %.<.<.D.D.|.Y.` Z.V.5 = S K { 8.O.$.| #.$.y.q.O.$.%.Y.G.O.N ^ 3.A ! ^ | ^ n ~ ~ ",
"F ~ W N D.^.P.!.B.r.<.U _ X.] w.p.3..X^ #.8.$.>.;.w.$.>.Q ' X.$.W 0.h h | A a e a a a y a y h g y b d e Z c C C C C v F Y D U m ",
"u J J k <.U K K U J Z n X./ G J B Q =.K n ../ W ( ' L R =.=./ L ) +.f e v a g a g a h N Z N v d g g d a g 3 y w i e d c f 8 d d ",
"s b n y W J ' W K B I U U / X.J / H [ k u <./ ) ` =.1.+.=.-.=.L K ' s y F m g N g S F A A F v g g a d N h 5 f y e e f a e d d f ",
"b f s h ..J U U ~ W I I _ U I U L K <.s 6 ..X.=.>.$.-.) / =.-./ L I 6 a ! I S N S Z v C F I d i g g h A g 6 f f e s d 8 w f d d ",
"c b f e ^ U J W U I U U U ~ U ..W U >.c : 3.O.:.$.,.=.' ) ) / L G U 3 h o.S S S I I N N ! b b F A A b A f 6 j b h d e e g g d v ",
"f j s s W S U U I S E ~ W U ~ / ~ ` +.N 6 3.X.1.=.:.:.' / R L L G H y j $.E E V F v g a C N g ! I A l F c w h s a s y g s d s f ",
"m D N 7 #.W W U K E U K U K W ~ ~ ( 4.y 6 ..X.~ W _ W Z k f z J Z S 1 w #.! E E C N S E | ! c F | F A I M y b c v c v v N N f N ",
"7 2 ; + e C S N Z b Z K P U ..~ W P s f %.o.y U O.#.~ U ! | Z y 7 1 o * D F C v v N h 7 9 d e 9 m A A g 1 % 4 2 4 2 4 e q w f e ",
"Z Z S 3 n f Z ..W ~ h s S Z 8 S } %...3.%.3.S ..3.d.r.$.r.B.r.o.1 # | G.C.p.d.N.8.B.F.3.%.d.&.^ g < # 4 M o.o.%.F C ! Z ! ! 8 1 ",
"j.4.<.` H.b.k.b.8.a.<.3.D.Q.n ..C...U I D U W Y F I I I S P W o.e | D.E I U I ~ W U ~ ^ O.<.0.i.~.a g  XJ.Z.z.4.E.z.j.k.V.Z.X.y ",
"J G J G G ' ) R V k N U P 3.F I f m n N O.} F F Q Q Q ` ` Q W ^ e F Q K W G W I J J S P K S U T ] S v q.K / U U U L G k L X.b n ",
"Z Z n j / ' ' / B J H K U ~ k E F P I W ^ W C D W ^ Q E E ~ Q ^ e F X._ _ H U F P I J Z Z K E R ] g 1 %.( ' J I U E L / L ~ f c ",
"P b j ~ E ` ( T K H K W U h b ` ! F ~ ^ ~ ^ ~ ! | ~ E ~ | ^ ! ! c g +./ K L I ! U U J K U U W Q ` b < O.W ( _ ..Q E Z W ' $.8 e ",
"G j G L / [ ( R V K W ^ J f E E Z ! W E ~ U ` E ~ ..I I  . . .{ m f $.W / L L U K E L E L ~ ~ W ] c > o.U ` _ / W R K / ( +.Z t ",
"U M B L L ~ E K S K ` P W h ! C D Z I Z Z } E ~ I K Y U U U Y I D 6 W ^ W U U ~ U ~ ~ K K K I K Q Z + o._ / X._ ` ~ ~ K L ` P i ",
"..U ~ ` _ ~ E E E E ~ U W f ! C M D Z Y D F ! Y ~ ^ J M } Y M Y m e { | E ! ~ } O.@.$.^ ' ~ ` ..O.E $ | $.W ..Y O.' ` +...z...e ",
"y 6 y s s s d v h C U P p w ~ C D D D Y F F D I Y ~ Y Y M M c m i * 9 g 8 8 8 e 0 h g a N S b b h 1   4 b j S D Z h N E E I 9 - ",
"..S S K S U E E f $ 0 B f a S h w f j f i 4 c Z J n : w D P Z y 7 8.Q.3.z.z.@.z.%.= 2 ~ f b ..>.` I #.&.&.%.3.3.^ ! E > 5 8 S $.",
"$.$.t.8.O...%.G.N.8 4.J.P.n.B.8.^ B.j.n.4.U Z.Z.E. X! ..p.3.>.#.W W ` ' ~ ~ ` ` &.y h 8.~ $.$.o.%.#.%.$.W W } o.| | ^ 0 | q.8.%.",
"E B S I S T V l S : 8.$.' @.+.~ _ ( =.[ +.+.~ ' [ w.F E C C E S ` T K U K S W E ^ 8 i } Z U S Z K E E ~ Q Q U I E Z v 8 A ~ K ' ",
"E S I E E Q T H I 5 W =.[ +.] / _ ' +.+._ _ ~ ` *.e.l h I ^ W ~ E W I I ^ E E ~ o.h n I D U U ~ ( ( ] Q $.' K ! I U ~ 0 S ` ` R ",
"V S K S E W E W S 9 ` T W ` H E U ^ ^ ^ ..P E I O.] a E F ! ! ~ E ~ I I ^ F ! ! ^ b a ! D S ~ Q E Q ^ ..} I n J | U F i Z } ~ U ",
"K K T E Q E Z H N s R H V J J K K E W ~ ~ E K W W U h W Z ~ U K E Q A E ` ~ E K ^ S e E U E S R ^ Q Q K ~ I U W I P K a C W ! U ",
"E F Q E S U ~ U Z g W H G U U I Q Q +.' ] O.^ W ` O.n W K W U U K W S N U Q ~ K ! I i E Z ^ ~ E R Q W S n U ~ W W K S 0 F E E E ",
"I S ~ E E E U I C 5 Q F ~ ~ U U E K Q K E ` O.` W 0.C ..%.~ } O.O.` O.U W U V R ^ W 0 E P U C ~ Q Q E ~ Z W W P E S S a E E W W ",
"E E I E ` Q C W a = E E ! F ! E ~ ~ ~ ..E ! ~ W Q %.i m o.^ F c Z c V d C o.E E ! m 0 ~ m Y ` U E Z K I S n I { ~ I v 4 C I ! F ",
"N N C v 8 Z C n c 9 h T N e a 9 w A v e b y y u s C c 0 : 1 5 8 u c A g 2 q 0 0 2 1 + e y M N k h h N N g a y 2 4 d c 2 e b I S ",
"q.%.$.F e 3.!.B. X].J._.F.3.$.#.m v %...0 f s.t.q.H.}.E.0.i.x.c.V.b.e.d.x X F n.&.F E 8.<.O.O.;.^ O.O.<.@.&.N $ Q t.Y.r.^ F o.$.",
"N I Z S Z p.~ ^ U K W H ..^ W 8.G.A 0 O.@.{.c.x.f.:.=.1.k.w.f.f.,.=.) @.} % #.T T T Q V G V k z l k l l S A V g x.O.A N h h l k ",
"C Z d a c 3.~ ~ ~ U ~ Q ' ( ` ' +.4.N q.E.1.=.[ ) X.=.;.' :.<.+.=.@.[ +.3.6 S Q Q k k H V G H V H V N B N T H e E g Z E I S S C ",
"A A Z a h r.U ~ U U K / ` ] ) :.;.<.l W q.1.=.' ' +.=.=.[ =.=.[ [ [ [ >.4.y y ` U k f k K Q K E W V B K T W b h E C I F S S Z N ",
"K A ! a u 4./ W Y U W ' ) ' +.+.+.0.S y q.1.' >.=.=.X.' =.=.[ *.*.[ ' +.4.c * H n b z k K W W ( S Z n S V S 0 a ~ U W W K C N S ",
"S S I b B 3._ W ` U U U ' ' X.' X.X.Q y >.=.=.X.) =.' ' 6.5.;.=.=.[ =.X.N.n > C N k N k k T E Z S P J Z S E N c Z V C I E S S W ",
"S I C h C 3.K ~ W ~ U J X.X.' O.X.+.O.6 X.>.<.$.>.;.[ [ 5.w.1.<.[ ] ;.;.$.y 4 Z Z k B N h Z P I J J P M J H S 8 A ! Y A E E I S ",
"A N ! A N t.` ~ Q ` o.%.o.<.+.+.` $.I $ U ~ W ` ' O.+.;.@.5.<.$.<.<.8.3.S 1 : h n N N N F m f Y U P U ~ ' W ~ 8 a m A A Z Z S F ",
"e 2 a q = C E I E E Z S S ! U E P y w 2 w r m f 6 a k C y N Z j h h b s 2 # $ ; > ; $ $ 4 2 * 4 4 4 4 4 6 1 5 # 2 2 ; < q 2 7 4 ",
"O q v D F F I ~ #.y.b : P F n <.8.f A &.o.I 3.&.x.t.#.! 7 N ..o.! ! O.F &.G.W.q.8.8.| a # . @ #   # #   $ 8 C { { m < ; e F A d ",
"N {.c.c._.m.z.H.n.6.j.h I F v C c h f c d c y i f C C I O.^./.m.z.m.m./.M.h.6.7.g.m.`.P.5 a &.O.A s d S <.z.5.>.5.5.w.5.q.w.5.n.",
"E s.K J H G B U R z >.J t h v c c d d f c m x f f n b n K <.:.=.=.=.;.:.1.1.;.:.=.[ @.q.V q.3.^ &.&.q.<.O.~ K U T ^ _ ^ ` ~ ( $.",
"v ..~ J Z J J J K K O.V u M h b h a c c b c d c h j b h n %.<.1.6.1.;.1.4.4.5.w.:.*.w.<.X.+.K n S P ~ ~ ` ' ` ` E ~ W ~ _  .' %.",
"e c  .J U J I B K L $.N r j c f a s C n b a y x p i h d s 1.f.k.1.:.>.>.,.:.<.:.:.=.w.+.` U W ` U I U K E _ W U Q Q U U ` X.X.>.",
"^ h ~ K W J H K V S ..I p c f p p c S m m p i i f c c f u >.w.1.2.,.,.,.7.2.2.2.-.:.>.X.U $.U I U U U I Y _ W U ~ Q K P W _ / _ ",
"O.C _ W W U J U K U W ..c b i p i i c i x p i e c p p i 8 ^ 1.1.-.-.,.2.2.f.f.f.;.>.<.U Z r.` K I S F F I ~ U P R W W W W E E R ",
"! Z $.o...X.E U ~ R O.%.w 7 i y i w i i d c i c f u i c 8 S 3.<.<.1.4.4.4.4.4.4.4.3.%.f y Y ! { ! ! ~ ! ! ! ! ~ E E W ~ W ^ Q W ",
"e < f y S N b j u V N e < % % % * # * 4 2 4 1 4 3 3 4 i ; 4 b j h b M b n j s p f b w 4 < e y f w 7 7 7 e a e d w 8 w y i c c d "
};
