/* XPM */
static char *result[] = {
/* columns rows colors chars-per-pixel */
"58 60 202 2 ",
"   c #07290C",
".  c #0A2C0D",
"X  c #06270B",
"o  c #0E310E",
"O  c #10330F",
"+  c #172819",
"@  c #0B3714",
"#  c #123610",
"$  c #153911",
"%  c #1A3D14",
"&  c #253B1F",
"*  c #1E0A29",
"=  c #1B0927",
"-  c #1A1530",
";  c #230C2D",
":  c #2D1235",
">  c #33143A",
",  c #3A173F",
"<  c #270E30",
"1  c #1B243A",
"2  c #152A2A",
"3  c #262A27",
"4  c #262936",
"5  c #37363A",
"6  c #2D3036",
"7  c #0E421B",
"8  c #1D4215",
"9  c #174419",
"0  c #254B18",
"q  c #234818",
"w  c #2C531B",
"e  c #335B1E",
"r  c #31551E",
"t  c #0B4D24",
"y  c #0C5529",
"u  c #0C592C",
"i  c #0B5E30",
"p  c #355E20",
"a  c #355624",
"s  c #2D4A20",
"d  c #0C6535",
"f  c #3A6422",
"g  c #3E6923",
"h  c #376021",
"j  c #426C25",
"k  c #45692A",
"l  c #457125",
"z  c #4A7629",
"x  c #4E7A2B",
"c  c #497527",
"v  c #517E2C",
"b  c #537931",
"n  c #3C1941",
"m  c #1D2841",
"M  c #2E2E4C",
"N  c #232D47",
"B  c #342C4D",
"V  c #2C334C",
"C  c #2D3447",
"Z  c #363946",
"A  c #3C2C51",
"S  c #323655",
"D  c #363C59",
"F  c #2E3551",
"G  c #4A1F4C",
"H  c #441C47",
"J  c #4D204E",
"K  c #462C45",
"L  c #492C57",
"P  c #4B2B57",
"I  c #522352",
"U  c #5B2759",
"Y  c #5E295C",
"T  c #542E5D",
"R  c #48324C",
"E  c #612A5E",
"W  c #5B3162",
"Q  c #592F60",
"!  c #642C62",
"~  c #692E64",
"^  c #6E2F6A",
"/  c #6C3269",
"(  c #643464",
")  c #73326D",
"_  c #7B3574",
"`  c #7C3A74",
"'  c #763672",
"]  c #702F6B",
"[  c #39425B",
"{  c #0D7B44",
"}  c #3C4463",
"|  c #3F4863",
" . c #49494C",
".. c #444A59",
"X. c #555558",
"o. c #4D525D",
"O. c #444C6B",
"+. c #424D67",
"@. c #47526B",
"#. c #4B5474",
"$. c #525A7B",
"%. c #5D5E60",
"&. c #676768",
"*. c #717377",
"=. c #55607A",
"-. c #843B7A",
";. c #893B7F",
":. c #813878",
">. c #89407D",
",. c #55832D",
"<. c #5B8C2D",
"1. c #58872D",
"2. c #5C8A31",
"3. c #5E902C",
"4. c #62942F",
"5. c #628F34",
"6. c #639333",
"7. c #6A9B35",
"8. c #6A9737",
"9. c #6EA135",
"0. c #7AAE3A",
"q. c #73A638",
"w. c #7DB33A",
"e. c #0A874B",
"r. c #079554",
"t. c #059A57",
"y. c #088F51",
"u. c #03A45D",
"i. c #00AD63",
"p. c #00B065",
"a. c #779A46",
"s. c #7DA545",
"d. c #82B83D",
"f. c #87B347",
"g. c #99BD59",
"h. c #8CB44E",
"j. c #95C34D",
"k. c #9BC654",
"l. c #8EC641",
"z. c #A3CB5A",
"x. c #A9D35C",
"c. c #B7DC67",
"v. c #5B6384",
"b. c #5E6984",
"n. c #616989",
"m. c #676C92",
"M. c #6C7595",
"N. c #727A9C",
"B. c #73779E",
"V. c #67718D",
"C. c #696E93",
"Z. c #8D3D82",
"A. c #913E86",
"S. c #963F8A",
"D. c #954686",
"F. c #954189",
"G. c #9B438D",
"H. c #9A498A",
"J. c #9E4491",
"K. c #8F4282",
"L. c #A34694",
"P. c #AB4A9B",
"I. c #A64896",
"U. c #A95196",
"Y. c #B2569D",
"T. c #A14D8F",
"R. c #B756A2",
"E. c #C35DAB",
"W. c #C85EB0",
"Q. c #C660AC",
"!. c #CC63B1",
"~. c #D569B9",
"^. c #D96ABB",
"/. c #D166B6",
"(. c #7C85A4",
"). c #76819D",
"_. c #878788",
"`. c #979798",
"'. c #818AAA",
"]. c #8B92B5",
"[. c #8E95BA",
"{. c #8792B0",
"}. c #929ABC",
"|. c #9096BB",
" X c #8E93AE",
".X c #A3A3A3",
"XX c #B6B5B6",
"oX c #96A1BD",
"OX c #999FC4",
"+X c #969BC2",
"@X c #9AA2C5",
"#X c #A1A9CC",
"$X c #ABB4D6",
"%X c #B2BCDD",
"&X c #A7B0D1",
"*X c #B6BFE2",
"=X c #BBC6E5",
"-X c #D0D0D0",
";X c #C5C5C5",
":X c #C5D1EE",
">X c #C4CFEC",
",X c None",
/* pixels */
",X,X,X,X,X,X,X,X,X,X,X,X,X,X,X,X,X,X,X,X,X,X,X,X,X,X,X,X,X,X,X,X,X,X,X,X,X,X,X,X,X,X,X,X,X,X,X,X,X,X,X,X,X,X,X,X,X,X",
",X,X,X,X,X,X,X,X,X,X,X,X,X,X,X,X,X,X,X,X,X,X,X,X,X,X,X,X,X,X,X,X,X,X,X,X,X,X,X,X,X,X,X,X,X,X,X,X,X,X,X,X,X,X,X,X,X,X",
",X,X,X,X,X,X,X,X,X,X,X,X,X,X,X,X,X,X,X,X,X,X,X,X,X,X,X,X,X,X,X,X,X,X,X,X,X,X,X,X,X,X,X,X,X,X,X,X,X,X,X,X,X,X,X,X,X,X",
",X,X,X,X,X,X,X,X,X,X,X,X,X,X,X,X,X,X,X,X,Xm D n.b.@.F m ,X,X,X,XN D +.@.S ,X,X,X,X,X,X,X,X,X,X,X,X,X,X,X,X,X,X,X,X,X",
",X,X,X,X,X,X,X,X,X,X,X,X,X,X,X,X,X,X,X,Xm } (.*X:X=X&XM.N ,X1 @.@X$X>X%X].} m ,X,X,X,X,X,X,X,X,X,X,X,X,X,X,X,X,X,X,X",
",X,X,X,X,X,X,X,X,X,X,X,X,X,X,X,X,X,X,X,Xm #.B.OX=X:X>Xb.4 5 Z | $X:X>X$X(.b.V ,X,X,X,X,X,X,X,X,X,X,X,X,X,X,X,X,X,X,X",
",X,X,X,X,X,X,X,X,X,X,X,X,X,X,X,X,X,X,X,X,XN v.N.$X:X(.+._..X_.o.n.>X*X].m.} m ,X,X,X,X,X,X,X,X,X,X,X,X,X,X,X,X,X,X,X",
",X,X,X,X,X,X,X,X,X,X,X,X,X,X,X,X,X,X,X,X,X- S m.@X%X@..X-X;X`.*.} $X&XB.O.1 ,X,X,X,X,X,X,X,X,X,X,X,X,X,X,X,X,X,X,X,X",
",X,X,X,X,X,X,X,X,X,X,X,X,X,X,X,X,X,X,X,X= n M v.}.oXC %.&.&.*.*...{.@Xv.M : ,X,X,X,X,X,X,X,X,X,X,X,X,X,X,X,X,X,X,X,X",
",X,X,X,X,X,X,X,X,X,X,X,X,X,X,X,X,X,X,X= n ] P | }.M...X.X.&.X.X.Z N.[.| L Y < ,X,X,X,X,X,X,X,X,X,X,X,X,X,X,X,X,X,X,X",
",X,X,X,X,X,X,X,X,X,X,X,X,X,X,X,X,X,X,X: ^ S.Q | }.n.5  ...*.h.T.o.V.[.} Q Z.I * ,X,X,X,X,X,X,X,X,X,X,X,X,X,X,X,X,X,X",
",X,X,X,X,X,X,X,X,X,X,X,X,X,X,X,X,X,X* J J.J.L | @X=.4 5 Z s C C 6 M.[.} W I.` , ,X,X,X,X,X,X,X,X,X,X,X,X,X,X,X,X,X,X",
",X,X,X,X,X,X,X,X,X,X,X,X,X,X,X,X,X= > ' P.L.L #.@Xn.3  ..XXX`.&.Z ).}.[ W P.L.I ; ,X,X,X,X,X,X,X,X,X,X,X,X,X,X,X,X,X",
",X,X,X,X,X,X,X,X,X,X,X,X,X,X,X,X,X> G S.P.J.L @.@XM.R X.X..X-XXX+.].[.D W P.P.) : * ,X,X,X,X,X,X,X,X,X,X,X,X,X,X,X,X",
",X,X,X,X,X,X,X,X,X,X,X,X,X,X,X,X; I U J.P.L.L @.&X(.o..X`.X._.`...@X].D ~ I.P.Z.G < ,X,X,X,X,X,X,X,X,X,X,X,X,X,X,X,X",
",X,X,X,X,X,X,X,X,X,X,X,X,X,X,X,X> ] ! J.P.J.L @.&X@XD _..XX.5 X.@.*X(.D / P.P.;.Y G = ,X,X,X,X,X,X,X,X,X,X,X,X,X,X,X",
",X,X,X,X,X,X,X,X,X,X,X,X,X,X,X= n ;.] A.P.I.T } @X%X[  . .5 6 4 V.=XB.M ' P.P._ ) U ; ,X,X,X,X,X,X,X,X,X,X,X,X,X,X,X",
",X,X,X,X,X,X,X,X,X,X,X,X,X,X,X< H G.;._ P.P.( D ].=X$.*.XX.X%.C }.%Xv.M Z.P.I./ S.! < ,X,X,X,X,X,X,X,X,X,X,X,X,X,X,X",
",X,X,X,X,X,X,X,X,X,X,X,X,X,X,Xn I G.L.^ J.P.' M m.%X(.6 _.XX*.@.%X+X| L J.P.Z.) P.! > ,X,X,X,X,X,X,X,X,X,X,X,X,X,X,X",
",X,X,X,X,X,X,X,X,X,X,X,X,X,X= I U Z.W.D.:.P.F.L O.+X&XD 5 &...(.%Xm.M ) P.J.) P.I.U G * ,X,X,X,X,X,X,X,X,X,X,X,X,X,X",
",X,X,X,X,X,X,X,X,X,X,X,X,X,X; U ! _ ~.Q.` J.P.' M B.%Xb.[ 5 [ $X].D P G.P.:.H.~.J.U U ; ,X,X,X,X,X,X,X,X,X,X,X,X,X,X",
",X,X,X,X,X,X,X,X,X,X,X,X,X,X< E _ ] R.^.U.-.P.G.L | @X[.C 1 M.$Xv.B Z.P.F.>.!.~.;.! ! < ,X,X,X,X,X,X,X,X,X,X,X,X,X,X",
",X,X,X,X,X,X,X,X,X,X,X,X,X,X; Y :.:.D./.!.>.D.P.' M M.&X#.[ #X{.S ( L.I.` R.^.R.) ` ! < ,X,X,X,X,X,X,X,X,X,X,X,X,X,X",
",X,X,X,X,X,X,X,X,X,X,X,X,X,X* J _ L.:.Y.^.R.` I.J.T } @X].@.}.$.A K.P.>.H.~.!.>.Z.` U ; ,X,X,X,X,X,X,X,X,X,X,X,X,X,X",
",X,X,X,X,X,X,X,X,X,X,X,X,X,X* n ( G.Y.>.Q.^.D.Z.P.` M B.$Xv.O.F / I.J.` Q.~.H.K.I.) G * ,X,X,X,X,X,X,X,X,X,X,X,X,X,X",
",X,X,X,X,X,X,X,X,X,X,X,X,X,X; n I Z.Q.J.H.^.R.' J.J.L } OX+XV A A.P._ U.^.Y.-.E.G.Y , * ,X,X,X,X,X,X,X,X,X,X,X,X,X,X",
",X,X,X,X,X,X,X,X,X,X,X,X,X,X,XH G ! R.Q.>.R.^.G.` P.' F B.&X| W P.Z.-./.!.-.R.E._ J n * ,X,X,X,X,X,X,X,X,X,X,X,X,X,X",
",X,X,X,X,X,X,X,X,X,X,X,X,X,X,X> Y G Z.Q.U.D.^.R.] I.S.A v.+Xv.Q P.) U.^.T.H./.T.I I n ,X,X,X,X,X,X,X,X,X,X,X,X,X,X,X",
",X,X,X,X,X,X,X,X,X,X,X,X,X,X,X< ! I E P.R._ R.P.] A.P.W S B.v.D A.] R.W.;.R.R.] J E : ,X,X,X,X,X,X,X,X,X,X,X,X,X,X,X",
",X,X,X,X,X,X,X,X,X,X,X,X,X,X,X= G ~ G Z.P._ Z.P.Z.' P.:.M n.m.D ^ ;.P.Z.:.P.A.J ~ J * ,X,X,X,X,X,X,X,X,X,X,X,X,X,X,X",
",X,X,X,X,X,X,X,X,X,X,X,X,X,X,X,X: ! I Y S.S.] P.S.] P.S.B v.m.A U J.P.) S.P.~ I ~ > ,X,X,X,X,X,X,X,X,X,X,X,X,X,X,X,X",
",X,X,X,X,X,X,X,X,X,X,X,X,X,X. o + 3 3 3 L / E L.I.] J.S.I } m.M ! P.G.~ ` R 3 3 3 +   ,X,X,X,X,X,X,X,X,X,X,X,X,X,X,X",
",X,X,X,X,X,X,X,X,X,X,X# q f x <.6.7.4.<.c e q Z ~ U ) ) ! S v.N E ' K & r g ,.<.3.<.,.l w 8 o ,X,X,X,X,X,X,X,X,X,X,X",
",X,X,X,X,X,X,X,X,X,X. 0 h g l z 1.2.6.7.q.0.s.8.a 3 K ) ^ B } 1 3 a 6.0.0.q.9.7.6.<.,.z l p 8 . ,X,X,X,X,X,X,X,X,X,X",
",X,X,X,X,X,X,X,X,X,X,X. . . o o % w j ,.x c 3.f.z.a.0 K ^ K 2 q a.z.f.5.z b v j w 8 o o o o . ,X,X,X,X,X,X,X,X,X,X,X",
",X,X,X,X,X,X,X,X,X,X,X,X,X,X,X,X,X,XO w z f e z 5.g.g.r K 6 a g.g.6.c e f x w # X ,X,X,X,X,X,X,X,X,X,X,X,X,X,X,X,X,X",
",X,X,X,X,X,X,X,X,X,X,X,X,X,X,X,X,X,X,X. 0 x l p l 2.k.h.% & g.j.1.j p c x q . ,X,X,X,X,X,X,X,X,X,X,X,X,X,X,X,X,X,X,X",
",X,X,X,X,X,X,X,X,X,X,X,X,X,X,X,X,X,X,X,X. a ,.x e c 8.z.k v z.5.l e b ,.w   ,X,X,X,X,X,X,X,X,X,X,X,X,X,X,X,X,X,X,X,X",
",X,X,X,X,X,X,X,X,X,X,X,X,X,X,X,X,X,X,X,X,X# j 1.z e v f.v x d.x p x ,.f . ,X,X,X,X,X,X,X,X,X,X,X,X,X,X,X,X,X,X,X,X,X",
",X,X,X,X,X,X,X,X,X,X,X,X,X,X,X,X,X,X,X,X,X,X8 x v j l q.c c 7.j g 1.x % ,X,X,X,X,X,X,X,X,X,X,X,X,X,X,X,X,X,X,X,X,X,X",
",X,X,X,X,X,X,X,X,X,X,X,X,X,X,X,X,X,X,X,X,X,X. 8 f h e g 8 w l a g j 8   ,X,X,X,X,X,X,X,X,X,X,X,X,X,X,X,X,X,X,X,X,X,X",
",X,X,X,X,X,X,X,X,X,X,X,X,X,X,X,X,X,X,X,X,X,X,X,Xo @ @ 7 y y @ @ O . ,X,X,X,X,X,X,X,X,X,X,X,X,X,X,X,X,X,X,X,X,X,X,X,X",
",X,X,X,X,X,X,X,X,X,X,X,X,X,X,X,X,X,X,X,X,X,X,X,X,X. u { { { { t   ,X,X,X,X,X,X,X,X,X,X,X,X,X,X,X,X,X,X,X,X,X,X,X,X,X",
",X,X,X,X,X,X,X,X,X,X,X,X,X,X,X,X,X,X,X,X,X,X,X,X,X  y t.u.u.r.t ,X,X,X,X,X,X,X,X,X,X,X,X,X,X,X,X,X,X,X,X,X,X,X,X,X,X",
",X,X,X,X,X,X,X,X,X,X,X,X,X,X,X,X,X,X,X,X,X,X,X,X,X. y t.p.p.r.t ,X,X,X,X,X,X,X,X,X,X,X,X,X,X,X,X,X,X,X,X,X,X,X,X,X,X",
",X,X,X,X,X,X,X,X,X,X,X,X,X,X,X,X,X,X,X,X,X,X,X,X,X  y r.p.p.y.t ,X,X,X,X,X,X,X,X,X,X,X,X,X,X,X,X,X,X,X,X,X,X,X,X,X,X",
",X,X,X,X,X,X,X,X,X,X,X,X,X,X,X,X,X,X,X,X,X,X,X,X,X. y r.p.i.y.t ,X,X,X,X,X,X,X,X,X,X,X,X,X,X,X,X,X,X,X,X,X,X,X,X,X,X",
",X,X,X,X,X,X,X,X,X,X,X,X,X,X,X,X,X,X,X,X,X,X,X,X,X. u r.p.i.y.y   ,X,X,X,X,X,X,X,X,X,X,X,X,X,X,X,X,X,X,X,X,X,X,X,X,X",
",X,X,X,X,X,X,X,X,X,X,X,X,X,X,X,X,X,X,X,X,X,X,X,X,X. d t.p.p.t.u   ,X,X,X,X,X,X,X,X,X,X,X,X,X,X,X,X,X,X,X,X,X,X,X,X,X",
",X,X,X,X,X,X,X,X,X,X,X,X,X,X,X,X,Xo # O O . ,X,X,X. d i.p.p.t.d . ,X,X,X. o O o . ,X,X,X,X,X,X,X,X,X,X,X,X,X,X,X,X,X",
",X,X,X,X,X,X,X,X,X,X,X,X,X,X,X. q g 1.4.3.1.l w O @ d r.i.i.y.i . # w l 1.<.<.,.p 8 . ,X,X,X,X,X,X,X,X,X,X,X,X,X,X,X",
",X,X,X,X,X,X,X,X,X,X,X,X,X,X,Xo $ q w g x 3.7.q.7.g 7 d e.{ i 9 c 9.q.7.3.,.g r 0 $ . ,X,X,X,X,X,X,X,X,X,X,X,X,X,X,X",
",X,X,X,X,X,X,X,X,X,X,X,X,X,X,X,X,XX o 8 8 q w l 9.z.8.$ d u q s.k.7.g w q 8 $ o X ,X,X,X,X,X,X,X,X,X,X,X,X,X,X,X,X,X",
",X,X,X,X,X,X,X,X,X,X,X,X,X,X,X  $ w l x z w 8 w g 0.c.a.@ 7 f.c.8.f w 8 w z x g 0 # ,X,X,X,X,X,X,X,X,X,X,X,X,X,X,X,X",
",X,X,X,X,X,X,X,X,X,X,X,X,X,Xo g 1.2.,.h h h 8 q e z j.z.w g x.f.g h 8 q f f g 1.1.v r . ,X,X,X,X,X,X,X,X,X,X,X,X,X,X",
",X,X,X,X,X,X,X,X,X,X,X,X,Xo ,.k.x.z.g.7.x c h $ g p 7.l.l x l.<.h f % f l x 7.g.z.x.l.g . ,X,X,X,X,X,X,X,X,X,X,X,X,X",
",X,X,X,X,X,X,X,X,X,X,X,X,X# g j g b s.j.w.<.,.w w p g 6.w e 6.h h 9 h 1.6.d.j.s.b k x g o ,X,X,X,X,X,X,X,X,X,X,X,X,X",
",X,X,X,X,X,X,X,X,X,X,X,X,X,X,X,X,X,XO w <.0.7.v q # O % . # % o % w 1.9.0.1.w . ,X,X,X,X,X,X,X,X,X,X,X,X,X,X,X,X,X,X",
",X,X,X,X,X,X,X,X,X,X,X,X,X,X,X,X,X,X,X,X. w z 1.g $   ,X,X,X,X  % c 1.l q . ,X,X,X,X,X,X,X,X,X,X,X,X,X,X,X,X,X,X,X,X",
",X,X,X,X,X,X,X,X,X,X,X,X,X,X,X,X,X,X,X,X,X,X  # o ,X,X,X,X,X,X,X  O O   ,X,X,X,X,X,X,X,X,X,X,X,X,X,X,X,X,X,X,X,X,X,X"
};
