/* XPM */
static char *result[] = {
/* columns rows colors chars-per-pixel */
"58 60 208 2 ",
"   c #0E1E15",
".  c #072A0C",
"X  c #0A2C0C",
"o  c #0E310E",
"O  c #11340F",
"+  c #0B3814",
"@  c #133510",
"#  c #163A11",
"$  c #193D13",
"%  c #0F2912",
"&  c #1B0A26",
"*  c #1E0A29",
"=  c #1E132D",
"-  c #230C2C",
";  c #27172A",
":  c #2E1135",
">  c #33143A",
",  c #37173D",
"<  c #33152E",
"1  c #1B253D",
"2  c #172623",
"3  c #2B2B2E",
"4  c #262829",
"5  c #39242E",
"6  c #2D2C32",
"7  c #262939",
"8  c #332C33",
"9  c #362734",
"0  c #333336",
"q  c #34343B",
"w  c #3C3A3D",
"e  c #31372D",
"r  c #203F18",
"t  c #45222F",
"y  c #451D2E",
"u  c #0C441D",
"i  c #1D4215",
"p  c #154318",
"a  c #214617",
"s  c #244B18",
"d  c #26491A",
"f  c #2C541B",
"g  c #335B1E",
"h  c #31571E",
"j  c #38621F",
"k  c #0B4C23",
"l  c #0C562A",
"z  c #0C5E30",
"x  c #365E20",
"c  c #345523",
"v  c #2D4B21",
"b  c #0C6434",
"n  c #3B6423",
"m  c #3F6923",
"M  c #376021",
"N  c #426D25",
"B  c #4B6F2D",
"V  c #477228",
"C  c #4A7529",
"Z  c #4E7A2B",
"A  c #497626",
"S  c #517E2C",
"D  c #537831",
"F  c #3E1A42",
"G  c #262B46",
"H  c #322D4D",
"J  c #3A2B4F",
"K  c #2C334E",
"L  c #293246",
"P  c #3E3E42",
"I  c #343648",
"U  c #2F3552",
"Y  c #363D5B",
"T  c #333855",
"R  c #3E2B51",
"E  c #1F2942",
"W  c #451D48",
"Q  c #4B264B",
"!  c #482A54",
"~  c #532353",
"^  c #552F5D",
"/  c #5A2958",
"(  c #51374D",
")  c #622A5F",
"_  c #5B3061",
"`  c #662C62",
"'  c #6C2E68",
"]  c #6D326B",
"[  c #663366",
"{  c #73336D",
"}  c #753A6D",
"|  c #773571",
" . c #7B3674",
".. c #7A3974",
"X. c #7F3678",
"o. c #3B435D",
"O. c #3A4359",
"+. c #0D7A43",
"@. c #3D4664",
"#. c #4B4A4D",
"$. c #444446",
"%. c #454A58",
"&. c #575759",
"*. c #4A505D",
"=. c #454E6C",
"-. c #414B63",
";. c #585B62",
":. c #4B5373",
">. c #535B7B",
",. c #525D77",
"<. c #4A526A",
"1. c #69696C",
"2. c #757677",
"3. c #6F7174",
"4. c #803A77",
"5. c #843B7B",
"6. c #83387B",
"7. c #88407C",
"8. c #55832E",
"9. c #5B8A2D",
"0. c #58862F",
"q. c #5D8B31",
"w. c #5F8537",
"e. c #5F902D",
"r. c #649432",
"t. c #6B9B35",
"y. c #6C9938",
"u. c #608638",
"i. c #79AD39",
"p. c #74A737",
"a. c #7CB23A",
"s. c #6FA236",
"d. c #0A894C",
"f. c #069755",
"g. c #088F50",
"h. c #04A25C",
"j. c #00AF64",
"k. c #00B065",
"l. c #759A44",
"z. c #7FA449",
"x. c #83B93C",
"c. c #8BB84B",
"v. c #8DB44F",
"b. c #96C44D",
"n. c #9CC655",
"m. c #8EC641",
"M. c #A3CB5B",
"N. c #A9D35C",
"B. c #B7DC67",
"V. c #575E81",
"C. c #5C6485",
"Z. c #636C8C",
"A. c #686E93",
"S. c #6C7395",
"D. c #71779C",
"F. c #727B9A",
"G. c #65708B",
"H. c #787EA3",
"J. c #8C3D82",
"K. c #873F83",
"L. c #923E87",
"P. c #934685",
"I. c #954189",
"U. c #9A438D",
"Y. c #984888",
"T. c #9E4590",
"R. c #8E4281",
"E. c #A44695",
"W. c #A64B96",
"Q. c #AC4A9C",
"!. c #A74A97",
"~. c #AA5296",
"^. c #B2559D",
"/. c #B956A4",
"(. c #C45DAC",
"). c #C95FB0",
"_. c #C660AD",
"`. c #CE65B3",
"'. c #D266B6",
"]. c #D669B9",
"[. c #D86ABA",
"{. c #76819D",
"}. c #7D85A7",
"|. c #838384",
" X c #898A8C",
".X c #989899",
"XX c #8F8F90",
"oX c #828BAC",
"OX c #888DB3",
"+X c #8C93B6",
"@X c #939ABE",
"#X c #9F9FA0",
"$X c #A6A6A6",
"%X c #B6B6B6",
"&X c #9BA0AE",
"*X c #979DC3",
"=X c #9DA5C8",
"-X c #A2AACD",
";X c #A6B1CD",
":X c #A7AED3",
">X c #ABB4D6",
",X c #B2BADE",
"<X c #B6BFE1",
"1X c #BAC4E4",
"2X c #C8C8C8",
"3X c #C5D1EE",
"4X c #C8D4F0",
"5X c None",
/* pixels */
"5X5X5X5X5X5X5X5X5X5X5X5X5X5X5X5X5X5X5X5X5X5X5X5X5X5X5X5X5X5X5X5X5X5X5X5X5X5X5X5X5X5X5X5X5X5X5X5X5X5X5X5X5X5X5X5X5X5X",
"5X5X5X5X5X5X5X5X5X5X5X5X5X5X5X5X5X5X5X5X5X5X5X5X5X5X5X5X5X5X5X5X5X5X5X5X5X5X5X5X5X5X5X5X5X5X5X5X5X5X5X5X5X5X5X5X5X5X",
"5X5X5X5X5X5X5X5X5X5X5X5X5X5X5X5XE L K K L 5X5X5X5X5X5X5X5X5X5X5X5X5X5X5X5X5X1 1 1 5X5X5X5X5X5X5X5X5X5X5X5X5X5X5X5X5X",
"5X5X5X5X5X5X5X5X5X5X5X5X5X5X1 :.+X-X;X;XZ.= * 5X5X5X5X5X5X5X5X0 0 0 q 0 8 G G.}.{.G.=.G 5X5X5X5X5X5X5X5X5X5X5X5X5X5X",
"5X5X5X5X5X5X5X5X5X5X5X5X5X1 @.+X1X3X4X1X@.0 q 7 3 5X5X5X5X5X3 #. X$X#X.Xz.O.{.4X4X3X>XC.1 5X5X5X5X5X5X5X5X5X5X5X5X5X",
"5X5X5X5X5X5X5X5X5X5X5X5X5XG >.D.+X,X3X@XO.2..X&X{.1.#.0 5X5X5X0 &..X2X2X-X1.,.1X1X,X*XD.Y 5X5X5X5X5X5X5X5X5X5X5X5X5X",
"5X5X5X5X5X5X5X5X5X5X5X5X5X5XK :.S.@X1X}.*.~.;X2X2X%X X$.3 5X5X5X5X0 #.3.Y.l.%.,X1X+XD.V.U 1 5X5X5X5X5X5X5X5X5X5X5X5X",
"5X5X5X5X5X5X5X5X5X5X5X5X5X5X5X1 =.D.>XF.;.l.l.C.&.$.q 5X5X5X5X5X5X5X5X7 *.Z.O.;X=XS.=.G 5X5X5X5X5X5X5X5X5X5X5X5X5X5X",
"5X5X5X5X5X5X5X5X5X5X5X5X5X5X5X, H >.@XF.I $.8 ; 5X5X5X5X5X5X5X5X5X5X5X- 5 0 T =XH.=.G - 5X5X5X5X5X5X5X5X5X5X5X5X5X5X",
"5X5X5X5X5X5X5X5X5X5X5X5X5X5X- ) ^ Y oX}.6 t t ; 5X5X5X5X5X5X5X5X0 ( 3 < t 5 o.=XZ.H / > 5X5X5X5X5X5X5X5X5X5X5X5X5X5X",
"5X5X5X5X5X5X5X5X5X5X5X5X5X5XF 5.| U F.*XI y t 6 t #.O.e 5X5X5X5X$.#Xv.&.5 9 >.=X=.! 5.W * 5X5X5X5X5X5X5X5X5X5X5X5X5X",
"5X5X5X5X5X5X5X5X5X5X5X5X5X* / T.J.H C.-X=.q ;.XX%X%X&.4 5X5X5X5X5 3.1X%X2.I oX+XY _ E.] - 5X5X5X5X5X5X5X5X5X5X5X5X5X",
"5X5X5X5X5X5X5X5X5X5X5X5X5X- ' Q.U.R :.=X{.%.#X2X%X;.6 5X5X5X5X5X5X8  X2X X@.:XS.H | Q.5.> 5X5X5X5X5X5X5X5X5X5X5X5X5X",
"5X5X5X5X5X5X5X5X5X5X5X5X* : 6.Q.!._ Y +X>Xo. X#X&.; 5X5X5X5X5X5X5X; ( {.*.{.:XV.J L.Q.I., & 5X5X5X5X5X5X5X5X5X5X5X5X",
"5X5X5X5X5X5X5X5X5X5X5X5X- F 6.Q.Q.| U D.1XG.%.$.5 < = 5X5X6 w $.3 5 e O.@.,X*X@.! T.Q.U.W - 5X5X5X5X5X5X5X5X5X5X5X5X",
"5X5X5X5X5X5X5X5X5X5X5X5X: / ] Q.Q.L.J >.;X;XO.3 5 w $.&.w 3 w .X#X&.8 7 }.1XD.U | Q.Q.L.~ : 5X5X5X5X5X5X5X5X5X5X5X5X",
"5X5X5X5X5X5X5X5X5X5X5X5X> { ` U.Q.E._ Y oX1XoXL &..X2X.XO.5X; &.2X.X%.,.1X=X:.J J.Q.Q. .` F 5X5X5X5X5X5X5X5X5X5X5X5X",
"5X5X5X5X5X5X5X5X5X5X5X5X> 6.6. .Q.Q.6.H >.*X<X>.;.#X#Xt 2 5X; 0 2.3.%.-X>XS.K [ E.Q.L.'  .W 5X5X5X5X5X5X5X5X5X5X5X5X",
"5X5X5X5X5X5X5X5X5X5X5X* >  .E.' J.Q.E.[ K Z.:X=X%.;.P 3 3 ; y t P Y OX,XH.Y ! I.Q.E.{ J.5., * 5X5X5X5X5X5X5X5X5X5X5X",
"5X5X5X5X5X5X5X5X5X5X5X* F ` Q.!.| L.Q.I.^ U S.>XoXL 9 6 0 3 8 5 7 S.,X}.@.R 6.Q.E. .X.Q.| > * 5X5X5X5X5X5X5X5X5X5X5X",
"5X5X5X5X5X5X5X5X5X5X5X* ~ / L.'./.| U.Q.I.! Y H.>XA.7 $.3.|.#.7 >.:XOX@.R 5.Q.W.X.P._.!./ W * 5X5X5X5X5X5X5X5X5X5X5X",
"5X5X5X5X5X5X5X5X5X5X5X* ~ ` { (.[.^...U.Q.P.! Y OX:X>.*.XX1.7 @.-X*X=.J X.Q.W.4.Y.'.`.X./ ~ * 5X5X5X5X5X5X5X5X5X5X5X",
"5X5X5X5X5X5X5X5X5X5X5X* W { ] R.'.[.^...U.Q.5.J =.*X-X=.q 3 Y @X-X>.H | W.!...Y.'.].W.` ] W & 5X5X5X5X5X5X5X5X5X5X5X",
"5X5X5X5X5X5X5X5X5X5X5X5XW { J. .Y.`.].^. .E.!. .H V.-X+XK G oX>XA.K [ E.!.4.Y.'.].^.| 6.] W 5X5X5X5X5X5X5X5X5X5X5X5X",
"5X5X5X5X5X5X5X5X5X5X5X5X: / 6.!.7.P.`.].~.| E.E._ U D.:XA.@.:X}.T ^ T.Q.X.P.`.].~.4.U.6.) : 5X5X5X5X5X5X5X5X5X5X5X5X",
"5X5X5X5X5X5X5X5X5X5X5X5X- F ` U.).Y.7.'.'.I.| Q.I.! @.+XOXY S.=.R J.Q.6.5.`.'.W.5./.U.{ W - 5X5X5X5X5X5X5X5X5X5X5X5X",
"5X5X5X5X5X5X5X5X5X5X5X5X* , W { ^.'.Y.Y.].`. .J.Q. .K V.H.:.T K { !.L. ._.].~.7._./. .~ > * 5X5X5X5X5X5X5X5X5X5X5X5X",
"5X5X5X5X5X5X5X5X5X5X5X5X5X: / W  .(._.5.~.'.E.' T.E.^ Y S.V.E ^ U.Q.' T.[./.4._.).R.~ Q : 5X5X5X5X5X5X5X5X5X5X5X5X5X",
"5X5X5X5X5X5X5X5X5X5X5X5X5X* ~ ) W J./.E.{ Q.Q. .6.Q.K.H V.A.U X.Q.6. .Q./.4.~.(.U.~ ~ ~ - 5X5X5X5X5X5X5X5X5X5X5X5X5X",
"5X5X5X5X5X5X5X5X5X5X5X5X5X5X: ` / ~ L.Q.6. .Q.L.' E.E.^ Y A.Y K.E.' L.Q. . .Q.E./ ~ ` > 5X5X5X5X5X5X5X5X5X5X5X5X5X5X",
"5X5X5X5X5X5X5X5X5X5X5X5X5X5X& 9 Q 5 Q } } / I.Q.{ L.U.] H V.Y K.L. .Q.L./ ....Q 9 ~ W & 5X5X5X5X5X5X5X5X5X5X5X5X5X5X",
"5X5X5X5X5X5X5X5X5X5X5X5X5Xo $ d g j m j h d 0 ( / / | | ! @.T ] ` ) ( e d c g j g f r O X 5X5X5X5X5X5X5X5X5X5X5X5X5X",
"5X5X5X5X5X5X5X5X5X5X5X@ d V 9.t.s.p.p.i.i.i.p.w.v 4 ! { _ G H Q $ c l.r.p.i.i.p.p.p.t.9.N i o 5X5X5X5X5X5X5X5X5X5X5X",
"5X5X5X5X5X5X5X5X5X5XX a g g f h M N S 8.8.8.t.c.M.l.d w ` H 2 v z.n.v.r.8.8.8.8.V n g c j g i o 5X5X5X5X5X5X5X5X5X5X",
"5X5X5X5X5X5X5X5X5X5X5XX X 5X5X5XX o i m C j M C r.n.n.c 9 2 N M.v.r.B x x Z m i O X X X X X o 5X5X5X5X5X5X5X5X5X5X5X",
"5X5X5X5X5X5X5X5X5X5X5X5X5X5X5X5X5X5X  % h Z N x B w.M.v.$ d M.c.q.m c V S h %   5X5X5X5X5X5X5X5X5X5X5X5X5X5X5X5X5X5X",
"5X5X5X5X5X5X5X5X5X5X5X5X5X5X5X5X5X5X5X5X% x 8.Z h V r.N.C D M.9.V x Z 8.h % 5X5X5X5X5X5X5X5X5X5X5X5X5X5X5X5X5X5X5X5X",
"5X5X5X5X5X5X5X5X5X5X5X5X5X5X5X5X5X5X5X5X5X@ N 8.Z g S a.9.N p.C g Z 8.m o 5X5X5X5X5X5X5X5X5X5X5X5X5X5X5X5X5X5X5X5X5X",
"5X5X5X5X5X5X5X5X5X5X5X5X5X5X5X5X5X5X5X5X5X5Xa Z 8.n N t.S N r.m m 8.C $ 5X5X5X5X5X5X5X5X5X5X5X5X5X5X5X5X5X5X5X5X5X5X",
"5X5X5X5X5X5X5X5X5X5X5X5X5X5X5X5X5X5X5X5X5X5XX a N n f N i a N f m n p X 5X5X5X5X5X5X5X5X5X5X5X5X5X5X5X5X5X5X5X5X5X5X",
"5X5X5X5X5X5X5X5X5X5X5X5X5X5X5X5X5X5X5X5X5X5X5X5Xo X + k l l u + o o 5X5X5X5X5X5X5X5X5X5X5X5X5X5X5X5X5X5X5X5X5X5X5X5X",
"5X5X5X5X5X5X5X5X5X5X5X5X5X5X5X5X5X5X5X5X5X5X5X5X5X. l +.+.+.+.k . 5X5X5X5X5X5X5X5X5X5X5X5X5X5X5X5X5X5X5X5X5X5X5X5X5X",
"5X5X5X5X5X5X5X5X5X5X5X5X5X5X5X5X5X5X5X5X5X5X5X5X5X5Xk f.f.h.g.k 5X5X5X5X5X5X5X5X5X5X5X5X5X5X5X5X5X5X5X5X5X5X5X5X5X5X",
"5X5X5X5X5X5X5X5X5X5X5X5X5X5X5X5X5X5X5X5X5X5X5X5X5X5Xl f.k.k.g.u 5X5X5X5X5X5X5X5X5X5X5X5X5X5X5X5X5X5X5X5X5X5X5X5X5X5X",
"5X5X5X5X5X5X5X5X5X5X5X5X5X5X5X5X5X5X5X5X5X5X5X5X5X5Xk f.j.j.g.k 5X5X5X5X5X5X5X5X5X5X5X5X5X5X5X5X5X5X5X5X5X5X5X5X5X5X",
"5X5X5X5X5X5X5X5X5X5X5X5X5X5X5X5X5X5X5X5X5X5X5X5X5X5Xl g.j.j.d.k 5X5X5X5X5X5X5X5X5X5X5X5X5X5X5X5X5X5X5X5X5X5X5X5X5X5X",
"5X5X5X5X5X5X5X5X5X5X5X5X5X5X5X5X5X5X5X5X5X5X5X5X5XX l g.j.j.d.k 5X5X5X5X5X5X5X5X5X5X5X5X5X5X5X5X5X5X5X5X5X5X5X5X5X5X",
"5X5X5X5X5X5X5X5X5X5X5X5X5X5X5X5X5X5X5X5X5X5X5X5X5XX z f.j.j.f.l X 5X5X5X5X5X5X5X5X5X5X5X5X5X5X5X5X5X5X5X5X5X5X5X5X5X",
"5X5X5X5X5X5X5X5X5X5X5X5X5X5X5X5X5X5X5X5X5X5X5X5X5XX b f.k.k.f.l X 5X5X5X5X5X5X5X5X5X5X5X5X5X5X5X5X5X5X5X5X5X5X5X5X5X",
"5X5X5X5X5X5X5X5X5X5X5X5X5X5X5X5XX O # # O X 5X5X5XX b j.k.k.f.z X 5X5X5Xo O $ # o X 5X5X5X5X5X5X5X5X5X5X5X5X5X5X5X5X",
"5X5X5X5X5X5X5X5X5X5X5X5X5X5X5XX s N 9.r.r.9.A f @ X b d.j.f.d.z X # h A 9.r.r.8.m i X 5X5X5X5X5X5X5X5X5X5X5X5X5X5X5X",
"5X5X5X5X5X5X5X5X5X5X5X5X5X5X5XX @ i s n Z 9.t.p.t.m u b +.+.z p C s.p.r.9.A j s $ O 5X5X5X5X5X5X5X5X5X5X5X5X5X5X5X5X",
"5X5X5X5X5X5X5X5X5X5X5X5X5X5X5X5X5X. o $ i s f V s.M.l.p b l i c.n.r.m f s i p o X 5X5X5X5X5X5X5X5X5X5X5X5X5X5X5X5X5X",
"5X5X5X5X5X5X5X5X5X5X5X5X5X5X5X. $ h V Z A s i f m i.B.y.+ + v.B.y.n f $ h C Z N f @ X 5X5X5X5X5X5X5X5X5X5X5X5X5X5X5X",
"5X5X5X5X5X5X5X5X5X5X5X5X5X5X@ A q.q.S n x j i s g A b.M.f N N.c.N x i a n g m 8.q.q.j X 5X5X5X5X5X5X5X5X5X5X5X5X5X5X",
"5X5X5X5X5X5X5X5X5X5X5X5X5X# e.M.N.M.b.t.Z V j # m j r.m.A Z m.9.x M # m C S p.n.N.N.b.Z o 5X5X5X5X5X5X5X5X5X5X5X5X5X",
"5X5X5X5X5X5X5X5X5X5X5X5X5X# j n n D z.b.a.9.8.f f g m r.f g r.M n i M 8.r.x.b.y.C x N g @ 5X5X5X5X5X5X5X5X5X5X5X5X5X",
"5X5X5X5X5X5X5X5X5X5X5X5X5X5X5X5X5X5XO f e.i.t.Z s @ o $ o O # o # f 8.s.i.8.s o 5X5X5X5X5X5X5X5X5X5X5X5X5X5X5X5X5X5X",
"5X5X5X5X5X5X5X5X5X5X5X5X5X5X5X5X5X5X5X5Xo f Z 9.m # . 5X5X5X5XX i V 9.A s X 5X5X5X5X5X5X5X5X5X5X5X5X5X5X5X5X5X5X5X5X",
"5X5X5X5X5X5X5X5X5X5X5X5X5X5X5X5X5X5X5X5X5X5X. @ o 5X5X5X5X5X5X5X. o o . 5X5X5X5X5X5X5X5X5X5X5X5X5X5X5X5X5X5X5X5X5X5X"
};
