/* XPM */
static char *result[] = {
/* columns rows colors chars-per-pixel */
"58 60 207 2 ",
"   c #151C1B",
".  c #0A2C0D",
"X  c #08280B",
"o  c #0E310E",
"O  c #10340F",
"+  c #153912",
"@  c #193D13",
"#  c #1A3816",
"$  c #0F3014",
"%  c #20371D",
"&  c #1C0A26",
"*  c #1E0A29",
"=  c #1B132A",
"-  c #220C2B",
";  c #290E2A",
":  c #26182B",
">  c #36182C",
",  c #280F31",
"<  c #2A1636",
"1  c #36173B",
"2  c #1B2624",
"3  c #1C243D",
"4  c #29282C",
"5  c #39232E",
"6  c #2E2E31",
"7  c #29293B",
"8  c #362934",
"9  c #333335",
"0  c #39373B",
"q  c #2D3230",
"w  c #461D2E",
"e  c #47222F",
"r  c #1D4215",
"t  c #144519",
"y  c #0C441C",
"u  c #244A17",
"i  c #244B19",
"p  c #26471A",
"a  c #2D531C",
"s  c #335C1E",
"d  c #30541F",
"f  c #0B5529",
"g  c #0B4B22",
"h  c #324C24",
"j  c #355E20",
"k  c #355722",
"l  c #344729",
"z  c #3B6422",
"x  c #3C6623",
"c  c #1E682D",
"v  c #426C25",
"b  c #43662A",
"n  c #4A7629",
"m  c #4E7A2B",
"M  c #487427",
"N  c #517E2C",
"B  c #547A31",
"V  c #3D1A42",
"C  c #1E2941",
"Z  c #272D48",
"A  c #312B4C",
"S  c #3B2B4F",
"D  c #2C324D",
"F  c #293143",
"G  c #393B44",
"H  c #3D2B50",
"J  c #2F3552",
"K  c #2F3854",
"L  c #313A54",
"P  c #353D5B",
"I  c #303653",
"U  c #461D48",
"Y  c #4C204E",
"T  c #462B45",
"R  c #483A45",
"E  c #492C56",
"W  c #482C56",
"Q  c #532353",
"!  c #5C2A5C",
"~  c #562B58",
"^  c #5B3257",
"/  c #522F4F",
"(  c #612C5E",
")  c #5D3062",
"_  c #692D65",
"`  c #6E326A",
"'  c #693565",
"]  c #74336E",
"[  c #7A3673",
"{  c #7C3976",
"}  c #763471",
"|  c #702F6B",
" . c #3A435E",
".. c #3A4258",
"X. c #3E4149",
"o. c #047F45",
"O. c #3C4563",
"+. c #3F4866",
"@. c #434245",
"#. c #4B4B4E",
"$. c #484649",
"%. c #4A4C55",
"&. c #4C525F",
"*. c #535355",
"=. c #434C6A",
"-. c #46516B",
";. c #585B64",
":. c #535B7C",
">. c #515A78",
",. c #4E5674",
"<. c #6F516A",
"1. c #58637E",
"2. c #5A606D",
"3. c #656668",
"4. c #6A6C72",
"5. c #747475",
"6. c #7B7B7C",
"7. c #853C7C",
"8. c #853A7C",
"9. c #8A417E",
"0. c #844677",
"q. c #55832D",
"w. c #58862E",
"e. c #5A8A2D",
"r. c #5D8C31",
"t. c #5D902B",
"y. c #618E34",
"u. c #639332",
"i. c #6A9C35",
"p. c #6B9839",
"a. c #70973E",
"s. c #6EA234",
"d. c #75A838",
"f. c #7EB23D",
"g. c #059755",
"h. c #058E4F",
"j. c #00B165",
"k. c #00AE64",
"l. c #799F46",
"z. c #7BA742",
"x. c #81B63D",
"c. c #96BB57",
"v. c #8AB44A",
"b. c #94C24D",
"n. c #9CC556",
"m. c #8EC641",
"M. c #A3CB5A",
"N. c #A9D35B",
"B. c #B2D864",
"V. c #585F81",
"C. c #5D6585",
"Z. c #636A8C",
"A. c #616989",
"S. c #676D92",
"D. c #6B7295",
"F. c #6E7498",
"G. c #73799D",
"H. c #7F7F81",
"J. c #777CA2",
"K. c #8C3D82",
"L. c #913F86",
"P. c #924285",
"I. c #96418A",
"U. c #9A438C",
"Y. c #9A4A8A",
"T. c #9E4491",
"R. c #964E86",
"E. c #A24694",
"W. c #AC4A9C",
"Q. c #A54A95",
"!. c #B3589E",
"~. c #AE539A",
"^. c #B75AA0",
"/. c #B34FA1",
"(. c #C15EA9",
"). c #C863AD",
"_. c #CE64B3",
"`. c #D96ABB",
"'. c #D468B7",
"]. c #75809C",
"[. c #7E84A9",
"{. c #7C85A7",
"}. c #858587",
"|. c #979697",
" X c #8691AE",
".X c #878CB3",
"XX c #9299BC",
"oX c #8A93B4",
"OX c #A7A7A8",
"+X c #B8B8B8",
"@X c #98A3BF",
"#X c #979DC3",
"$X c #9BA4C5",
"%X c #A3ABCD",
"&X c #A1A7CC",
"*X c #A5ADD1",
"=X c #A9B2D4",
"-X c #ADB5D9",
";X c #B2BADD",
":X c #A6B2CE",
">X c #B5BDE0",
",X c #BBC5E4",
"<X c #C7C7C7",
"1X c #C2CEEB",
"2X c #C6D1EE",
"3X c #C9D5F1",
"4X c None",
/* pixels */
"4X4X4X4X4X4X4X4X4X4X4X4X4X4X4X4X4X4X4X4X4X4X4X4X4X4X4X4X4X4X4X4X4X4X4X4X4X4X4X4X4X4X4X4X4X4X4X4X4X4X4X4X4X4X4X4X4X4X",
"4X4X4X4X4X4X4X4X4X4X4X4X4X4X4X4X4X4X4X4X4X4X4X4X4X4X4X4X4X4X4X4X4X4X4X4X4X4X4X4X4X4X4X4X4X4X4X4X4X4X4X4X4X4X4X4X4X4X",
"4X4X4X4X4X4X4X4X4X4X4X4X4X4X4X4X4X4X4X4X4X4X4X4X4X4X4X4X4X4X4X4X4X4X4X4X4X4X4X4X4X4X4X4X4X4X4X4X4X4X4X4X4X4X4X4X4X4X",
"4X4X4X4X4X4X4X4X4X4X4X4X4X4X4X4X4X4X4X4X4X4X4X4X4X4X4X4X4X4X4X4X4X4X4X4X4X4X4X4X4X4X4X4X4X4X4X4X4X4X4X4X4X4X4X4X4X4X",
"4X4X4X4X4X4X4X4X4X4X4X4X4X4X4X4X4X4X4X4X4X4X4X4X4X4X4X4X4X4X4X4X4X4X4X4X4X4X4X4X4X4X4X4X4X4X4X4X4X4X4X4X4X4X4X4X4X4X",
"4X4X4X4X4X4X4X4X4X4X4X4X4X4X4X4X4X4X4X4X4X4X4X4X4X4X4X4X4X4X4X4X4X4X4X4X4X4X4X4X4X4X4X4X4X4X4X4X4X4X4X4X4X4X4X4X4X4X",
"4X4X4X4X4X4X4X4X4X4X4X4X4X4X4X4X4X4X4X4X4X4X4X4X4X4X4X4X4X4X4X4X4X4X4X4X4X4X4X4X4X4X4X4X4X4X4X4X4X4X4X4X4X4X4X4X4X4X",
"4X4X4X4X4X4X4X4X4X4X4X4X4X4X4X4X4X4X4X4X4X4X4X4X4X4X4X4X4X4X4X4X4X4X4X4X4X4X4X4X4X4X4X4X4X4X4X4X4X4X4X4X4X4X4X4X4X4X",
"4X4X4X4X4X4X4X4X4X4X4X4X4X4X4X4X4X4X4X4X4X4X4X4X4X4X4X4X4X4X4X4X4X4X4X4X4X4X4X4X4X4X4X4X4X4X4X4X4X4X4X4X4X4X4X4X4X4X",
"4X4X4X4X4X4X4X4X4X4X4X4X4X4X4X4X4X4X4X4X4X4X4X4X4X4X4X4X4X4X4X4X4X4X4X4X4X4X4X4X4X4X4X4X4X4X4X4X4X4X4X4X4X4X4X4X4X4X",
"4X4X4X4X4X4X4X4X4X4X4X4X4X4X4X4X4X4X4X4X4X4X4X4X4X4X4X4X4X4X4X4X4X4X4X4X4X4X4X4X4X4X4X4X4X4X4X4X4X4X4X4X4X4X4X4X4X4X",
"4X4X4X4X4X4X4X4X4X4X4X4X4X4X4X4X4X4X4X4X4X4X4X4X4X4X4X4X4X4X4X4X4X4X4X4X4X4X4X4X4X4X4X4X4X4X4X4X4X4X4X4X4X4X4X4X4X4X",
"4X4X4X4X4X4X4X4X4X4X4X4X4X4X4X4X0 9 4X4X4X4X4X4X4X4X4X4X4X4X4X4X4X4X4X4X4X4X4X4X0 G 4 4X4X4X4X4X4X4X4X4X4X4X4X4X4X4X",
"4X4X4X4X4X4X4X4X4X4X4X4X4X4 X.5.}.0 4X4X4X4X4X4X4X4X4X4X4X4X4X4X4X4X4X4X4X4X4X4X@.|.6.#.Z 4X4X4X4X4X4X4X4X4X4X4X4X4X",
"4X4X4X4X4X4X4X4X4X4XC Z G 5.+X+X;.4X4X4X4X4X4X4X4X4X4X4X4X4X4X4X4X4X4X4X4X4X4X4X4X3.<X+Xl.P D F 4X4X4X4X4X4X4X4X4X4X",
"4X4X4X4X4X4X4X4XD >. X1.4.<X<X5.9 4X4X4X4X4X4X4X4X4X4X4X4X4X4X4X4X4X4X4X4X4X4X4X4X4 5.<X<X2.D.@XA.L 3 4X4X4X4X4X4X4X",
"4X4X4X4X4X4XC :.@X1X3XA.3.OX5.0 4X4X4X4X4X4X4X4X4X4X4X4X4X4X4X4X4X4X4X4X4X4X4X4X4X4X9 5.|.;.D.3X2X=XC.C 4X4X4X4X4X4X",
"4X4X4X4X4X4X-.-X2X2X2X1.2.5.0 4X4X4X4X4X4X4X4X4X4X4X4X4X4X4X4X4X4X4X4X4X4X4X4X4X4X4X4X0 5.&.G.3X1X,X-X=.4X4X4X4X4X4X",
"4X4X4X4X4XC C.#X%X>X2XG.%.%.: 4X4X4X4X4X4X4X4X4X4X4X4X4X4X4X4X4X4X4X4X4X4X4X4X4X4X4X* 5 #.%. X1X-X#X.XV.C 4X4X4X4X4X",
"4X4X4X4X4XZ V.S.G. X-X@XF 9 > * 4X9 R 6 4X4X4X4X4X4X4X4X4X4X4X4X4X4X4X4X4X4X6 #.0 : ; w 8 L %X%X[.D.C.,.Z 4X4X4X4X4X",
"4X4X4X4X4XC Z K =.A.[.*X=.5 e > @.|.4.4X4X4X4X4X4X4X4X4X4X4X4X4X4X4X4X4X4X4X4 5.|.#.5 e 5 1.&XF.:.O.Z C 4X4X4X4X4X4X",
"4X4X4X4X4X4X4X= < J >.XX[.F 5 $.OX+X#.4X4X4X4X4X4X4X4X4X4X4X4X4X4X4X4X4X4X4X4X*.<XOX$.8 I XX.X=.A < 4X4X4X4X4X4X4X4X",
"4X4X4X4X4X4X4X& U ) D Z.$XC.F }.<X|.0 4X4X4X4X4X4X4X4X4X4X4X4X4X4X4X4X4X4X4X4X9 OX<X}.F ].$X:.A ` U & 4X4X4X4X4X4X4X",
"4X4X4X4X4X4X4X* ! L.E P [.%X-.4.+X4.: * 4Xq 9 4X4X4X4X4X4X4X4X4X4X4X4X0 9 4X- 4 4.OX&.C.:XF.I ) I.Q * 4X4X4X4X4X4X4X",
"4X4X4X4X4X4X4X- ! T.K.A ,.#X%X+.&.@.5 : @.5.@.4X4X4X4X4X4X4X4X4X4X4X4X#.}.@.> e G %.C.;X.X+.H L.T.~ * 4X4X4X4X4X4X4X",
"4X4X4X4X4X4X4X* _ E.E.) A S.-X*X-.6 5 $.OXOX9 4X4X4X4X4X4X4X4X4X4X4X4X0 +XOX@.8 F Z.>X#XV.A } W.T.Q * 4X4X4X4X4X4X4X",
"4X4X4X4X4X4X4X* Q E.W.L.E P J.>X-X2.7 4.+X}.: 4X4X4X4X4X4X4X4X4X4X4X- 4 }.+X;.F G.,X*XZ.D ) E.W.T.U & 4X4X4X4X4X4X4X",
"4X4X4X4X4X4X4X* U L.W.W.K.S O.J.;X,XD...4.*.5 ; : 6 6 4X4X4X4Xq 9 ; > 5 *.;. .oX,X*XD.I E L.W.W.K.1 * 4X4X4X4X4X4X4X",
"4X4X4X4X4X4X4X- U | E.W.W.{ A O.G.$X,XoX .7 e 5 *.3.9 4X4X4X4X0 5.*.5 5 F ,.$X>XXXA.J E K.W.W.E._ U * 4X4X4X4X4X4X4X",
"4X4X4X4X4X4X4X- Q ! 8.W.W.E.{ S K :..X;X$X-.7 #.OX;.: 4X4X4X4X: 3.OX@.F C.-X=XG.=.D ~ K.W./.E.} _ Y * 4X4X4X4X4X4X4X",
"4X4X4X4X4X4X4X* Y 8.| [ E.W.W.K.) A O.D.&X%XA.P 3.9 ; 4X4X4X& ; 0 &.O.[.-X#XV.J S ` U.W.W.L.| [ [ V 4X4X4X4X4X4X4X4X",
"4X4X4X4X4X4X4X4X1 { L.[ | K.Q.W.T.{ W D >.XX-X{.I 8 w - 4X4X; e 7 +.#X*X{.O.A ) K.W.W.T.{ _ K.T._ , 4X4X4X4X4X4X4X4X",
"4X4X4X4X4X4X4X4X, Y U./.!.K.[ I.Q.W.L.' A =.J.-X#X=.1 > * * > 7 V.*X&XS.K S } T.W.Q.P.} Y.^./.K.U , 4X4X4X4X4X4X4X4X",
"4X4X4X4X4X4X4X4X, Y ! T.'._.~.7.8.Y.W.E.[ S P G.&X#X .< * - 7 >.*X#XC.J W P.W.W.P.{ P.(.`._.L.~ U - 4X4X4X4X4X4X4X4X",
"4X4X4X4X4X4X4X4X* Y _ _ Q.'.`._.Q.[ 7.Q.Q.K.W J D.&X[.D , < P .X#XV.A ) I.W.T.{ 7.^.'.`._.P._ _ U & 4X4X4X4X4X4X4X4X",
"4X4X4X4X4X4X4X4X4XV _ } ` P.(.'.`.).9.[ L./.K.W L D.oX:.3 Z Z..XV.D ) L.W.P.} Y._.`._.~.{ } } _ 1 4X4X4X4X4X4X4X4X4X",
"4X4X4X4X4X4X4X4X4X- ( } I.P.0.Y.).`.'.Q.| L.W.K.W P S.D.P O.F.C.J ) U.W.8.] ^.`.`.!.9.9.U.L.] Q - 4X4X4X4X4X4X4X4X4X",
"4X4X4X4X4X4X4X4X4X- 1 ( ` 9.9.' ^ R.!.).T.| L.W.7.S +.F.:.P Z.P W L.W.K.| ~._.^.0.^ 0.Y.9.' ! < 4X4X4X4X4X4X4X4X4X4X",
"4X4X4X4X4X4X4X4X4X4X= 2 % p s s d d h l R T / T.W.{ A >.Z.K P S K.W.I.W / e l h p d d d % % 4 & 4X4X4X4X4X4X4X4X4X4X",
"4X4X4X4X4X4X4X4X4X4X. r z M e.i.s.d.d.s.t.v u q ' U.) J Z.P Z | I.' q p v t.d.d.d.s.i.e.n s + X 4X4X4X4X4X4X4X4X4X4X",
"4X4X4X4X4X4X4X4X4X4X4X$   % % u s n w.t.i.d.v.l.b 9 / S =. .W / 9 b z.z.d.i.u.w.n s i @ # $ . 4X4X4X4X4X4X4X4X4X4X4X",
"4X4X4X4X4X4X4X4X4X4X4X4X- 8 ^ T 4 # a m q.x q.z.M.l.h 7 D D 4 h v.n.z.q.v B n a # 4 T ~ 1 & 4X4X4X4X4X4X4X4X4X4X4X4X",
"4X4X4X4X4X4X4X4X4X4X4X4X4X- U | ! 1 4 p M v j M r.c.c.h 2 2 s M.v.r.v j v M @ 4 1 ( ` w - 4X4X4X4X4X4X4X4X4X4X4X4X4X",
"4X4X4X4X4X4X4X4X4X4X4X4X4X4X- U | Q Q 8 r m n j v e.n.c.# t n.c.w.v j m m @ T U ( ( 1 - 4X4X4X4X4X4X4X4X4X4X4X4X4X4X",
"4X4X4X4X4X4X4X4X4X4X4X4X4X4X4X* V _ U ! 9 a q.B j M p.M.v B N.y.v j N B i 8 ! Y ! 1 * 4X4X4X4X4X4X4X4X4X4X4X4X4X4X4X",
"4X4X4X4X4X4X4X4X4X4X4X4X4X4X4X4X& < U Y ! % x q.n s q.x.q.n d.N j N q.x % _ U U , 4X4X4X4X4X4X4X4X4X4X4X4X4X4X4X4X4X",
"4X4X4X4X4X4X4X4X4X4X4X4X4X4X4X4X4X4X- , ~ T r m q.z M s.n M i.v x q.n @ T U - * 4X4X4X4X4X4X4X4X4X4X4X4X4X4X4X4X4X4X",
"4X4X4X4X4X4X4X4X4X4X4X4X4X4X4X4X4X4X4X4X- ,   r x j j v r i v a x z @   , - 4X4X4X4X4X4X4X4X4X4X4X4X4X4X4X4X4X4X4X4X",
"4X4X4X4X4X4X4X4X4X4X4X4X4X4X4X4X4X4X4X4X4X4X4X4X. o + y f f y $ $ o 4X4X4X4X4X4X4X4X4X4X4X4X4X4X4X4X4X4X4X4X4X4X4X4X",
"4X4X4X4X4X4X4X4X4X4X4X4X4X4X4X. + r a i r O . 4X4XX f g.g.g.h.g . 4X4XX O r i u @ O 4X4X4X4X4X4X4X4X4X4X4X4X4X4X4X4X",
"4X4X4X4X4X4X4X4X4X4X4X4X4X4X4X. r x q.i.s.u.q.s + X f g.j.j.g.g X @ s N u.s.u.q.z @ . 4X4X4X4X4X4X4X4X4X4X4X4X4X4X4X",
"4X4X4X4X4X4X4X4X4X4X4X4X4X4X4X4X4X. + i x w.t.s.s.v @ h.j.j.o.+ n s.d.u.q.x i + o 4X4X4X4X4X4X4X4X4X4X4X4X4X4X4X4X4X",
"4X4X4X4X4X4X4X4X4X4X4X4X4X4X4X4X4X. + i r r a x s.M.a.t h.h.t v.n.u.x i r r r o . 4X4X4X4X4X4X4X4X4X4X4X4X4X4X4X4X4X",
"4X4X4X4X4X4X4X4X4X4X4X4X4X4X4XO i x m N m s r a x d.B.a.+ t v.B.p.z a @ j q.m M k @ . 4X4X4X4X4X4X4X4X4X4X4X4X4X4X4X",
"4X4X4X4X4X4X4X4X4X4X4X4X4X. s d.z.i.r.z s j r i s M b.M.a x N.v.x z r i z j x e.y.s.q.r 4X4X4X4X4X4X4X4X4X4X4X4X4X4X",
"4X4X4X4X4X4X4X4X4X4X4X4X4Xr u.v.c.N.M.d.q.n z + x s i.m.M m m.e.s z # x n q.d.n.N.M.b.e.+ 4X4X4X4X4X4X4X4X4X4X4X4X4X",
"4X4X4X4X4X4X4X4X4X4X4X4X4X. + + @ k y.v.f.t.q.a a s v u.a j u.z z r z q.u.x.b.p.z i p r o 4X4X4X4X4X4X4X4X4X4X4X4X4X",
"4X4X4X4X4X4X4X4X4X4X4X4X4X4X4X4X4X4X. i e.f.i.m u O O + o O + o + a q.s.f.q.u . 4X4X4X4X4X4X4X4X4X4X4X4X4X4X4X4X4X4X",
"4X4X4X4X4X4X4X4X4X4X4X4X4X4X4X4X4X4X4X4X. i n e.x + X 4X4X4X4X. r M w.M u . 4X4X4X4X4X4X4X4X4X4X4X4X4X4X4X4X4X4X4X4X",
"4X4X4X4X4X4X4X4X4X4X4X4X4X4X4X4X4X4X4X4X4X4XX + o 4X4X4X4X4X4X4XX o O X 4X4X4X4X4X4X4X4X4X4X4X4X4X4X4X4X4X4X4X4X4X4X"
};
