/* XPM */
static char *result[] = {
/* columns rows colors chars-per-pixel */
"58 60 202 2 ",
"   c #092B0C",
".  c #072A0C",
"X  c #0E310E",
"o  c #10340F",
"O  c #132816",
"+  c #133511",
"@  c #153A12",
"#  c #1A3E13",
"$  c #1D321D",
"%  c #0D3315",
"&  c #1B0B26",
"*  c #1E0A29",
"=  c #1B1323",
"-  c #1E1C38",
";  c #230C2B",
":  c #2C0F2A",
">  c #27182B",
",  c #38192C",
"<  c #270E30",
"1  c #291433",
"2  c #34143A",
"3  c #1B243B",
"4  c #2A2B2D",
"5  c #29272D",
"6  c #3B252F",
"7  c #283624",
"8  c #2D2D31",
"9  c #292939",
"0  c #312333",
"q  c #352B33",
"w  c #3A2A35",
"e  c #3B393E",
"r  c #343337",
"t  c #2F3734",
"y  c #491E2F",
"u  c #48222F",
"i  c #0B431D",
"p  c #1D4215",
"a  c #154318",
"s  c #204616",
"d  c #254C18",
"f  c #2A4F1B",
"g  c #234717",
"h  c #2B521B",
"j  c #335B1E",
"k  c #31541F",
"l  c #39631F",
"z  c #0C4B23",
"x  c #0C572B",
"c  c #355D20",
"v  c #385F20",
"b  c #2E4722",
"n  c #0D6535",
"m  c #3A6422",
"M  c #3E6823",
"N  c #376021",
"B  c #446D27",
"V  c #467225",
"C  c #4A7529",
"Z  c #4D7A2A",
"A  c #4B7727",
"S  c #517E2D",
"D  c #507E27",
"F  c #4F7331",
"G  c #3D1841",
"H  c #1D2841",
"J  c #282C47",
"K  c #362B4E",
"L  c #2C314D",
"P  c #293147",
"I  c #3A3A40",
"U  c #2E3451",
"Y  c #2F3955",
"T  c #313B56",
"R  c #353E5B",
"E  c #313654",
"W  c #3E2B50",
"Q  c #451D48",
"!  c #4D214E",
"~  c #442B48",
"^  c #4A2C56",
"/  c #472B54",
"(  c #542454",
")  c #582B5A",
"_  c #473746",
"`  c #612C5D",
"'  c #61315D",
"]  c #5D3062",
"[  c #652B62",
"{  c #6A2E65",
"}  c #6E2E69",
"|  c #693368",
" . c #73326D",
".. c #783D6F",
"X. c #7B3673",
"o. c #7C3975",
"O. c #702F6B",
"+. c #3A425C",
"@. c #0E7943",
"#. c #3C4463",
"$. c #3F4961",
"%. c #434245",
"&. c #49494C",
"*. c #464C57",
"=. c #565659",
"-. c #4D525F",
";. c #444C6B",
":. c #434B66",
">. c #485269",
",. c #4C5672",
"<. c #525B7A",
"1. c #515662",
"2. c #58637E",
"3. c #66676A",
"4. c #77777A",
"5. c #843A7B",
"6. c #883C7E",
"7. c #813978",
"8. c #8A417E",
"9. c #55832D",
"0. c #5A892E",
"q. c #5D8932",
"w. c #5F902D",
"e. c #649433",
"r. c #6B9D34",
"t. c #6A9838",
"y. c #638E35",
"u. c #7AAD3B",
"i. c #75A838",
"p. c #73A736",
"a. c #0A884C",
"s. c #088F50",
"d. c #079554",
"f. c #069856",
"g. c #00AF64",
"h. c #00B065",
"j. c #04A05B",
"k. c #7CA843",
"l. c #7FB040",
"z. c #779D44",
"x. c #83BA3C",
"c. c #82AC47",
"v. c #88B846",
"b. c #97BD55",
"n. c #96C54D",
"m. c #A3CB5A",
"M. c #A7D05A",
"N. c #ADD262",
"B. c #B2D864",
"V. c #575E81",
"C. c #5D6487",
"Z. c #636A8D",
"A. c #616889",
"S. c #696D93",
"D. c #6D7497",
"F. c #72789C",
"G. c #767A84",
"H. c #767CA1",
"J. c #8C3D81",
"K. c #913E86",
"L. c #924285",
"P. c #964189",
"I. c #9B438E",
"U. c #9D498C",
"Y. c #9E4491",
"T. c #8E4282",
"R. c #A34694",
"E. c #A54A95",
"W. c #AC4A9B",
"Q. c #A74898",
"!. c #AB5297",
"~. c #B0519D",
"^. c #BA57A4",
"/. c #C25DAA",
"(. c #C85EB0",
"). c #C861AE",
"_. c #CD63B3",
"`. c #D86ABB",
"'. c #D368B7",
"]. c #7D83A8",
"[. c #8B8B8C",
"{. c #838385",
"}. c #959596",
"|. c #828AAC",
" X c #878DB3",
".X c #8D95B7",
"XX c #8C94B5",
"oX c #A7A7A8",
"OX c #B4B4B5",
"+X c #969CC2",
"@X c #9CA3C8",
"#X c #A1A7CC",
"$X c #A5ADD2",
"%X c #ACB5D7",
"&X c #B2BCDC",
"*X c #A6B1CE",
"=X c #B6BEE1",
"-X c #B5C1DD",
";X c #B8C3E2",
":X c #C7C7C7",
">X c #C6D2EF",
",X c None",
/* pixels */
",X,X,X,X,X,X,X,X,X,X,X,X,X,X,X,X,X,X,X,X,X,X,X,X,X,X,X,X,X,X,X,X,X,X,X,X,X,X,X,X,X,X,X,X,X,X,X,X,X,X,X,X,X,X,X,X,X,X",
",X,X,X,X,X,X,X,X,X,X,X,X,X,X,X,X,X,X,X,X,X,X,X,X,X,X,X,X,X,X,X,X,X,X,X,X,X,X,X,X,X,X,X,X,X,X,X,X,X,X,X,X,X,X,X,X,X,X",
",X,X,X,X,X,X,X,X,X,X,X,X,X,X,X,X,X,X,X8 8 ,X,X,X,X,X,X,X,X,X,X,X,X,X,X,X,X8 %.=.e 8 ,X,X,X,X,X,X,X,X,X,X,X,X,X,X,X,X",
",X,X,X,X,X,X,X,X,X,XH +.,.+.5 r &.3.{.3.r ,X,X,X,X,X,X,X,X,X,X,X,X,X,X,X,X,X%.}.oX[.=.r P +.P ,X,X,X,X,X,X,X,X,X,X,X",
",X,X,X,X,X,X,X,XP ,.].-X;X,.-.oX:X:XoX&.,X,X,X,X,X,X,X,X,X,X,X,X,X,X,X,X,X,X,X&.oX:X:X3.*.*X+XA.R ,X,X,X,X,X,X,X,X,X",
",X,X,X,X,X,X,X3 C.;X>X>X-X$.T.$XOX{.I ,X,X,X,X,X,X,X,X,X,X,X,X,X,X,X,X,X,X,X,X,X&.}.oX].*.-X>X>X*X,.3 ,X,X,X,X,X,X,X",
",X,X,X,X,X,X,XY ].$X;X;X-X$.4.c.=.8 ,X,X,X,X,X,X,X,X,X,X,X,X,X,X,X,X,X,X,X,X,X,X5 e 4.4.+.-X>X;X&X].P ,X,X,X,X,X,X,X",
",X,X,X,X,X,X3 #.S.H.XX%X;X$.3.&.w > ,X,X,X,X,X,X,X,X,X,X,X,X,X,X,X,X,X,X,X,X,X,X& > _ 3.>.-X-X.X].F.#.,X,X,X,X,X,X,X",
",X,X,X,X,X,X,XJ Y ;.Z.].%XC.I q y , ; 8 r ,X,X,X,X,X,X,X,X,X,X,X,X,X,X,X,Xr W < : y w r C.&X XS.V.:.L ,X,X,X,X,X,X,X",
",X,X,X,X,X,X,X,X,X- U V. XXXJ u y 6 I 4.=.4 ,X,X,X,X,X,X,X,X,X,X,X,X,X,X,Xe b.3.q u u 9 ].+XC.R H 3 ,X,X,X,X,X,X,X,X",
",X,X,X,X,X,X,X,X,X2 ^ U Z.@X,.0 w =.OXOX&.,X,X,X,X,X,X,X,X,X,X,X,X,X,X,X,X4 ].:Xc.W 0 :.@XS.Y / 2 ,X,X,X,X,X,X,X,X,X",
",X,X,X,X,X,X,X,X,XQ 5.^ $. X.XP =.OX:X4.5 ,X,X,X,X,X,X,X,X,X,X,X,X,X,X,X,X,X%.OX:X<.P  X.X$./ X.G ,X,X,X,X,X,X,X,X,X",
",X,X,X,X,X,X,X,X* ! I.o.L C.$XF.*.oXoX_ , ; ,X,X,X,X,X,X,X,X,X,X,X,X8 ,X,X; 8 [.OX:.Z.$XZ.U X.K.Q & ,X,X,X,X,X,X,X,X",
",X,X,X,X,X,X,X,X* ( R.Y.) R ].&X2.-.=.6 u 0 e &.8 ,X,X,X,X,X,X,X,X,X%.=.8 , u =.-.<.%X|.R ^ I.Y.( & ,X,X,X,X,X,X,X,X",
",X,X,X,X,X,X,X,X* ( R.W.o.K V.@X-X,.9 6 r 3.OX3.4 ,X,X,X,X,X,X,X,X,Xe oX[.e 6 9 >.%X#X<.K o.W.Q.! * ,X,X,X,X,X,X,X,X",
",X,X,X,X,X,X,X,X; Q Y.W.Q.] U S.&X-X,.9 =.OXOXe ; ,X,X,X,X,X,X,X,X,X5 {.:X4.9 ;.%X&XF.W ] R.W.K.Q * ,X,X,X,X,X,X,X,X",
",X,X,X,X,X,X,X,X; Q J.W.W.P./ R ].&X%X2.*.{.3.6 , ; ,X,X,X,X8 8 & : 6 =.[.*.,.%X;X|.R / J.W.W.J.G ; ,X,X,X,X,X,X,X,X",
",X,X,X,X,X,X,X,X< ( [ R.W.W.5.W +.].*X-XZ.R e u u 8 _ r ,X,X8 &.e 6 u r +.C.&X%X].$.K o.W.W.Q.[ ! ; ,X,X,X,X,X,X,X,X",
",X,X,X,X,X,X,X,X< [  . .E.W.Q.7.W R C.@X&XF.P 9 %.[.c.J ,X,X,X=.oX=.0 J D.&X@XS.R K o.Q.W.Q. .{ ) ; ,X,X,X,X,X,X,X,X",
",X,X,X,X,X,X,X,X; Q K.7.O.K.W.Q.J.^ L ;. X%X XR -.[.^ < ,X,X; 0 4.3.E ].%XXX,.L ^ o.W.W.R.O.X.J.Q * ,X,X,X,X,X,X,X,X",
",X,X,X,X,X,X,X,X* 2 X.W.L. .5.E.W.Y. .K +.H.$X+X>.P 6 , * & , u P :.XX$X].#.K | K.W.W.J. .7.Q.X.2 & ,X,X,X,X,X,X,X,X",
",X,X,X,X,X,X,X,X* 2 ( K./.).L.o.P.W.Q.5./ U Z.@X#X<.9 y : : y 0 ;.@X$XD.Y W o.Q.W.R.X.8.^.^.I.( 2 ,X,X,X,X,X,X,X,X,X",
",X,X,X,X,X,X,X,X,XG [ [ !.`.'.~.o.5.Q.W.T.) U C.+X%X<.0 , < 9 ;.#X#XZ.U ^ J.Q.Q.K.o.!._.`.W.` ( 2 ,X,X,X,X,X,X,X,X,X",
",X,X,X,X,X,X,X,X,X< [ { } !.'.`._.P.X.P.W.I.] L V.+X+XR 0 1 R +X@XC.L ] K.W.U.o.J./.`.`.~. .[ ` ; ,X,X,X,X,X,X,X,X,X",
",X,X,X,X,X,X,X,X,X* (  .6.X.L./.`.'.~.o.J.W.I.[ U C..XZ.J J Z.+XZ.U ) Y.W.K.X.E.'.'.).U. .7. .Q * ,X,X,X,X,X,X,X,X,X",
",X,X,X,X,X,X,X,X,X,X2 { 7.R.U.7.U._.`.^.X.o.W.I.) U A.F.;.R D.S.Y ^ K.W.J.X.^.`.'.!.7.K.Y.7.{ 2 ,X,X,X,X,X,X,X,X,X,X",
",X,X,X,X,X,X,X,X,X,X* Q [ 6.^./.L.8./.`.^. .5.W.K.) R S.C.Y A.R / K.W.J.{ ^.`.).8.8.^.^.6.{ Q * ,X,X,X,X,X,X,X,X,X,X",
",X,X,X,X,X,X,X,X,X,X,X< Q ) 6.^._.!.7.^./.R.{ K.W.J.K ;.S.R R W 5.W.K.{ I.(./.5.U._./.J.) Q < ,X,X,X,X,X,X,X,X,X,X,X",
",X,X,X,X,X,X,X,X,X,X,X; Q ! ! X.~./.U. .I.~.K.} R.Q.O.L C.#.J O.E.E.} K.W.E.7.U.).^.7.( ! G * ,X,X,X,X,X,X,X,X,X,X,X",
",X,X,X,X,X,X,X,X,X,X,X,X< ( ` Q ' 8...) ^ 5.P. .5.Y.X./ #.;.W 5.E.8. .Y.8.) ` 6.L. .Q ( ( < ,X,X,X,X,X,X,X,X,X,X,X,X",
",X,X,X,X,X,X,X,X,X,X,X,X,X> q $ s j l l l h 7 8 0 [  .| K U / O.| u w 7 b k k k f $ 4 ~ 1 ,X,X,X,X,X,X,X,X,X,X,X,X,X",
",X,X,X,X,X,X,X,X,X,X,X,X  d V w.p.i.i.i.u.u.l.k.F b r [ ^ H ~ K 7 F k.u.i.u.u.i.p.r.9.l #   ,X,X,X,X,X,X,X,X,X,X,X,X",
",X,X,X,X,X,X,X,X,X,X,X# m Z Z V V C S 9.9.Z q.k.m.b.F 7 ^ 3 $ F b.m.k.y.9.9.9.9.9.9.9.0.S c + ,X,X,X,X,X,X,X,X,X,X,X",
",X,X,X,X,X,X,X,X,X,X  @ # + X X O + g m Z N c V 9.c.B.S O O y.B.c.q.B c m Z B f # + + @ p d p   ,X,X,X,X,X,X,X,X,X,X",
",X,X,X,X,X,X,X,X,X,X,X,X,X,X,X,X,X= = O h Z C c M 9.c.N.c m N.k.9.m c C Z h + = = ,X,X,X,X,X. ,X,X,X,X,X,X,X,X,X,X,X",
",X,X,X,X,X,X,X,X,X,X,X,X,X,X,X,X,X,X; & O f 9.S N M 9.b.q.Z v.9.m m S S h O * ; ,X,X,X,X,X,X,X,X,X,X,X,X,X,X,X,X,X,X",
",X,X,X,X,X,X,X,X,X,X,X,X,X,X,X,X,X,X,X,X= O M 9.S c C p.w.M r.V c 9.9.N O & ,X,X,X,X,X,X,X,X,X,X,X,X,X,X,X,X,X,X,X,X",
",X,X,X,X,X,X,X,X,X,X,X,X,X,X,X,X,X,X,X,X,X,X@ B 9.B m e.V N w.m C 9.M + ,X,X,X,X,X,X,X,X,X,X,X,X,X,X,X,X,X,X,X,X,X,X",
",X,X,X,X,X,X,X,X,X,X,X,X,X,X,X,X,X,X,X,X,X,X,X@ j c p f @ a h a c k X ,X,X,X,X,X,X,X,X,X,X,X,X,X,X,X,X,X,X,X,X,X,X,X",
",X,X,X,X,X,X,X,X,X,X,X,X,X,X,X,X,X,X,X,X,X,X,X,X. . i x n n x % . . ,X,X,X,X,X,X,X,X,X,X,X,X,X,X,X,X,X,X,X,X,X,X,X,X",
",X,X,X,X,X,X,X,X,X,X,X,X,X,X,X,X,X,X,X,X,X,X,X,X,X. x @.@.@.@.z ,X,X,X,X,X,X,X,X,X,X,X,X,X,X,X,X,X,X,X,X,X,X,X,X,X,X",
",X,X,X,X,X,X,X,X,X,X,X,X,X,X,X,X,X,X,X,X,X,X,X,X,X,Xz s.f.f.a.i ,X,X,X,X,X,X,X,X,X,X,X,X,X,X,X,X,X,X,X,X,X,X,X,X,X,X",
",X,X,X,X,X,X,X,X,X,X,X,X,X,X,X,X,X,X,X,X,X,X,X,X,X,Xz d.g.g.s.i ,X,X,X,X,X,X,X,X,X,X,X,X,X,X,X,X,X,X,X,X,X,X,X,X,X,X",
",X,X,X,X,X,X,X,X,X,X,X,X,X,X,X,X,X,X,X,X,X,X,X,X,X,Xz f.h.g.s.i ,X,X,X,X,X,X,X,X,X,X,X,X,X,X,X,X,X,X,X,X,X,X,X,X,X,X",
",X,X,X,X,X,X,X,X,X,X,X,X,X,X,X,X,X,X,X,X,X,X,X,X,X,Xz s.g.g.a.i ,X,X,X,X,X,X,X,X,X,X,X,X,X,X,X,X,X,X,X,X,X,X,X,X,X,X",
",X,X,X,X,X,X,X,X,X,X,X,X,X,X,X,X,X,X,X,X,X,X,X,X,X,Xz s.g.g.a.i ,X,X,X,X,X,X,X,X,X,X,X,X,X,X,X,X,X,X,X,X,X,X,X,X,X,X",
",X,X,X,X,X,X,X,X,X,X,X,X,X,X,X,X,X,X,X,X,X,X,X,X,X,Xx s.g.g.a.z ,X,X,X,X,X,X,X,X,X,X,X,X,X,X,X,X,X,X,X,X,X,X,X,X,X,X",
",X,X,X,X,X,X,X,X,X,X,X,X,X,X,X,X,X,X,X,X,X,X,X,X,X  x f.g.g.d.z ,X,X,X,X,X,X,X,X,X,X,X,X,X,X,X,X,X,X,X,X,X,X,X,X,X,X",
",X,X,X,X,X,X,X,X,X,X,X,X,X,X,X,X,X,X,X,X,X,X,X,X,X  n f.h.h.f.x   ,X,X,X,X,X,X,X,X,X,X,X,X,X,X,X,X,X,X,X,X,X,X,X,X,X",
",X,X,X,X,X,X,X,X,X,X,X,X,X,X,X,X+ p f f p +   ,X,X% n f.h.h.f.x   ,X,X  @ s h d p % ,X,X,X,X,X,X,X,X,X,X,X,X,X,X,X,X",
",X,X,X,X,X,X,X,X,X,X,X,X,X,X,X  p m 9.e.r.e.D j @   n a.f.f.@.x   # l 9.r.r.e.Z c @   ,X,X,X,X,X,X,X,X,X,X,X,X,X,X,X",
",X,X,X,X,X,X,X,X,X,X,X,X,X,X,X,X,X  @ d M 9.w.p.t.M # n @.@.n a C p.r.w.9.l p +   ,X,X,X,X,X,X,X,X,X,X,X,X,X,X,X,X,X",
",X,X,X,X,X,X,X,X,X,X,X,X,X,X,X,X,XX # d p p h B t.m.t.a n n p l.n.e.m f p s p + . ,X,X,X,X,X,X,X,X,X,X,X,X,X,X,X,X,X",
",X,X,X,X,X,X,X,X,X,X,X,X,X,X,X@ h M Z Z Z j p h M i.B.t.@ a c.B.t.N h # l Z S V c # X ,X,X,X,X,X,X,X,X,X,X,X,X,X,X,X",
",X,X,X,X,X,X,X,X,X,X,X,X,XX m u.c.r.q.M c N p g l V n.M.h B M.v.M c p g N c M 0.t.i.w.g ,X,X,X,X,X,X,X,X,X,X,X,X,X,X",
",X,X,X,X,X,X,X,X,X,X,X,X,X# 0.c.b.N.M.l.9.A m @ l j r.n.V A n.0.c N # M Z 9.u.m.N.m.v.w.@ ,X,X,X,X,X,X,X,X,X,X,X,X,X",
",X,X,X,X,X,X,X,X,X,X,X,X,X,XX + @ f q.v.u.e.9.h f l M e.j l e.N m p N 9.e.x.n.y.c s # @   ,X,X,X,X,X,X,X,X,X,X,X,X,X",
",X,X,X,X,X,X,X,X,X,X,X,X,X,X,X,X,X,X. p 9.u.r.D g @ + p X + p X # f 9.p.u.D p . ,X,X,X,X,X,X,X,X,X,X,X,X,X,X,X,X,X,X",
",X,X,X,X,X,X,X,X,X,X,X,X,X,X,X,X,X,X,X,X  d A 9.M + . ,X,X,X,X. p V 9.V s   ,X,X,X,X,X,X,X,X,X,X,X,X,X,X,X,X,X,X,X,X",
",X,X,X,X,X,X,X,X,X,X,X,X,X,X,X,X,X,X,X,X,X,X. X X ,X,X,X,X,X,X,X. X X . ,X,X,X,X,X,X,X,X,X,X,X,X,X,X,X,X,X,X,X,X,X,X"
};
