/* XPM */
static char *result[] = {
/* columns rows colors chars-per-pixel */
"58 60 214 2 ",
"   c #121C19",
".  c #07280B",
"X  c #0A2C0C",
"o  c #07270A",
"O  c #0E310E",
"+  c #10340F",
"@  c #142916",
"#  c #163911",
"$  c #1A3E14",
"%  c #1A3717",
"&  c #0D3316",
"*  c #1C0A27",
"=  c #1E0A29",
"-  c #1B1834",
";  c #1B112E",
":  c #230C2C",
">  c #290F2A",
",  c #23132A",
"<  c #281A2C",
"1  c #36182C",
"2  c #2A0F32",
"3  c #2D1134",
"4  c #221530",
"5  c #37173C",
"6  c #1C243D",
"7  c #172239",
"8  c #2B2B2D",
"9  c #28252B",
"0  c #3A252E",
"q  c #2E2E31",
"w  c #282639",
"e  c #372935",
"r  c #34353A",
"t  c #373439",
"y  c #2D3928",
"u  c #253C1E",
"i  c #461F2F",
"p  c #42222E",
"a  c #4B222F",
"s  c #482030",
"d  c #1D4214",
"f  c #144519",
"g  c #0C421B",
"h  c #254C19",
"j  c #284F1A",
"k  c #224617",
"l  c #2D551B",
"z  c #28541D",
"x  c #325B1E",
"c  c #38621F",
"v  c #0B4F26",
"b  c #324A26",
"n  c #365F20",
"m  c #375626",
"M  c #35442B",
"N  c #05733D",
"B  c #376021",
"V  c #3A6422",
"C  c #3E6923",
"Z  c #416C24",
"A  c #45692A",
"S  c #457125",
"D  c #4A7629",
"F  c #4E7A2B",
"G  c #497527",
"H  c #517D2C",
"J  c #547A32",
"K  c #3D1942",
"L  c #1F2842",
"P  c #2E2E4C",
"I  c #282944",
"U  c #332B4C",
"Y  c #3A2A4E",
"T  c #342044",
"R  c #2B334B",
"E  c #28314A",
"W  c #353A48",
"Q  c #3F2B51",
"!  c #2E3652",
"~  c #353D5A",
"^  c #323A54",
"/  c #441C47",
"(  c #4E214F",
")  c #482B47",
"_  c #502E4D",
"`  c #482B54",
"'  c #532453",
"]  c #5B295A",
"[  c #553252",
"{  c #62325D",
"}  c #5D2F60",
"|  c #652C61",
" . c #6A2E65",
".. c #6E2E69",
"X. c #6D336A",
"o. c #653266",
"O. c #73336D",
"+. c #763A6E",
"@. c #7B3574",
"#. c #7D3975",
"$. c #793573",
"%. c #3A435E",
"&. c #3B4459",
"*. c #3D4664",
"=. c #037C43",
"-. c #434245",
";. c #4A494C",
":. c #494C54",
">. c #555557",
",. c #524752",
"<. c #444D6C",
"1. c #424C66",
"2. c #485269",
"3. c #5B5D63",
"4. c #4B5373",
"5. c #4C5475",
"6. c #535B7C",
"7. c #515A77",
"8. c #675063",
"9. c #586176",
"0. c #68686A",
"q. c #6C6D72",
"w. c #7A7A7B",
"e. c #833B7B",
"r. c #843A7B",
"t. c #89437D",
"y. c #54822D",
"u. c #5A8B2C",
"i. c #58862E",
"p. c #5D8B30",
"a. c #628D36",
"s. c #649433",
"d. c #6A9C34",
"f. c #6A9936",
"g. c #709A3D",
"h. c #6EA235",
"j. c #75A938",
"k. c #7FB23D",
"l. c #059554",
"z. c #048A4D",
"x. c #00B165",
"c. c #00AF64",
"v. c #739844",
"b. c #7CA544",
"n. c #82B93C",
"m. c #85AE49",
"M. c #89B748",
"N. c #94BE51",
"B. c #94C34C",
"V. c #9BC851",
"C. c #8EC641",
"Z. c #A4CB5B",
"A. c #ACD45E",
"S. c #AED362",
"D. c #B5DB66",
"F. c #5B6483",
"G. c #646A8D",
"H. c #616989",
"J. c #696E94",
"K. c #71769C",
"L. c #73799E",
"P. c #70768F",
"I. c #767BA1",
"U. c #585E81",
"Y. c #8B3C81",
"T. c #913F86",
"R. c #8D4381",
"E. c #924485",
"W. c #964189",
"Q. c #9A438D",
"!. c #9B4A8C",
"~. c #9F4591",
"^. c #A34695",
"/. c #AB4A9B",
"(. c #A44B94",
"). c #AB5397",
"_. c #B35A9D",
"`. c #B756A2",
"'. c #C761AD",
"]. c #CD64B2",
"[. c #D669BA",
"{. c #D96ABB",
"}. c #C35FAB",
"|. c #7C84A5",
" X c #7D8085",
".X c #878889",
"XX c #9B9C9D",
"oX c #959596",
"OX c #8F8F90",
"+X c #8289AD",
"@X c #878CB2",
"#X c #8C93B7",
"$X c #9299BE",
"%X c #8692AE",
"&X c #A6A6A7",
"*X c #B4B4B4",
"=X c #97A2BF",
"-X c #969CC2",
";X c #9CA4C6",
":X c #A2ABCC",
">X c #A7AED3",
",X c #AAB3D4",
"<X c #ADB5DA",
"1X c #B2BBDC",
"2X c #A6B0CF",
"3X c #B6BEE1",
"4X c #BBC5E4",
"5X c #B6C1DE",
"6X c #C9C9C9",
"7X c #D0D0D0",
"8X c #C1CCEA",
"9X c #C5D1EE",
"0X c #C9D5F1",
"qX c None",
/* pixels */
"qXqXqXqXqXqXqXqXqXqXqXqXqXqXqXqXqXqXqXqXqXqXqXqXqXqXqXqXqXqXqXqXqXqXqXqXqXqXqXqXqXqXqXqXqXqXqXqXqXqXqXqXqXqXqXqXqXqX",
"qXqXqXqXqXqXqXqXqXqXqXqXqXqXqXqXqXqXqXqXqXqXqXqXqXqXqXqXqXqXqXqXqXqXqXqXqXqXqXqXqXqXqXqXqXqXqXqXqXqXqXqXqXqXqXqXqXqX",
"qXqXqXqXqXqXqXqXqXqXqXqXqXqXqXqXqXqXqXqXqXqXqXqXqXqXqXqXqXqXqXqXqXqXqXqXqXqXqXqXqXqXqXqXqXqXqXqXqXqXqXqXqXqXqXqXqXqX",
"qXqXqXqXqXqXqXqXqXqXqXqXqXqXqXqXqXqXqXqXqXqXqXqXqXqXqXqXqXqXqXqXqXqXqXqXqXqXqXqXqXqXqXqXqXqXqXqXqXqXqXqXqXqXqXqXqXqX",
"qXqXqXqXqXqXqXqXqXqXqXqXqXqXqXqXqXqXqXqXqXqXqXqXqXqXqXqXqXqXqXqXqXqXqXqXqXqXqXqXqXqXqXqXqXqXqXqXqXqXqXqXqXqXqXqXqXqX",
"qXqXqXqXqXqXqXqXqXqXqXqXqXqXqXqXqXqXqXqXqXqXqXqXqXqXqXqXqXqXqXqXqXqXqXqXqXqXqXqXqXqXqXqXqXqXqXqXqXqXqXqXqXqXqXqXqXqX",
"qXqXqXqXqXqXqXqXqXqXqXqXqXqXqXqXqXqXqXqXqXqXqXqXqXqXqXqXqXqXqXqXqXqXqXqXqXqXqXqXqXqXqXqXqXqXqXqXqXqXqXqXqXqXqXqXqXqX",
"qXqXqXqXqXqXqXqXqXqXqXqXqXqXqXqXqXqXqXqXqXqXqXqXqXqXqXqXqXqXqXqXqXqXqXqXqXqXqXqXqXqXqXqXqXqXqXqXqXqXqXqXqXqXqXqXqXqX",
"qXqXqXqXqXqXqXqXqXqXqXqXqXqXqXqXqXqXqXqXqXqXqXqXqXqXqXqXqXqXqXqXqXqXqXqXqXqXqXqXqXqXqXqXqXqXqXqXqXqXqXqXqXqXqXqXqXqX",
"qXqXqXqXqXqXqXqXqXqXqXqXqXqXqXqXqXqXqXqXqXqXqXqXqXqXqXqXqXqXqXqXqXqXqXqXqXqXqXqXqXqXqXqXqXqXqXqXqXqXqXqXqXqXqXqXqXqX",
"qXqXqXqXqXqXqXqXqXqXqXqXqXqXqXqXqXqXqXqXqXqXqXqXqXqXqXqXqXqXqXqXqXqXqXqXqXqXqXqXqXqXqXqXqXqXqXqXqXqXqXqXqXqXqXqXqXqX",
"qXqXqXqXqXqXqXqXqXqXqXqXqXqXqXqXqXqXqXqXqXqXqXqXqXqXqXqXqXqXqXqXqXqXqXqXqXqXqXqXqXqXqXqXqXqXqXqXqXqXqXqXqXqXqXqXqXqX",
"qXqXqXqXqXqXqXqXqXqXqXq qXqXqXqXqXqXqXqXqXqXqXqXqXqXqXqXqXqXqXqXqXqXqXqXqXqXqXqXqXqXqXqXqXqXq 8 qXqXqXqXqXqXqXqXqXqX",
"qXqXqXqXqXqXqXqXqXq ,.t qXqXqXqXqXqXqXqXqXqXqXqXqXqXqXqXqXqXqXqXqXqXqXqXqXqXqXqXqXqXqXqXqXqX-.0.r qXqXqXqXqXqXqXqXqX",
"qXqXqXqXqXqXqXqXW .XOXt qXqXqXqXqXqXqXqXqXqXqXqXqXqXqXqXqXqXqXqXqXqXqXqXqXqXqXqXqXqXqXqXqXqXr OXoX-.qXqXqXqXqXqXqXqX",
"qXqXqXqXqXqX8 ;.XX6X3.qXqXqXqXqXqXqXqXqXqXqXqXqXqXqXqXqXqXqXqXqXqXqXqXqXqXqXqXqXqXqXqXqXqXqXqX0.6X*X>.w qXqXqXqXqXqX",
"qXqXqXqXL *.^ &X7XoXt qXqXqXqXqXqXqXqXqXqXqXqXqXqXqXqXqXqXqXqXqXqXqXqXqXqXqXqXqXqXqXqXqXqXqXqXr OX7X&X&.7.E qXqXqXqX",
"qXqXqX&.|.;X:.XX&X>.qXqXqXqXqXqXqXqXqXqXqXqXqXqXqXqXqXqXqXqXqXqXqXqXqXqXqXqXqXqXqXqXqXqXqXqXqXqX;.oX X2.5X$X<.L qXqX",
"qXqX2.:X0X4X1.q.q.q qXqXqXqXqXqXqXqXqXqXqXqXqXqXqXqXqXqXqXqXqXqXqXqXqXqXqXqXqXqXqXqXqXqXqXqXqX: q q.3.6.9X0X1X9.L qX",
"qX%.,X0X4X9XF.3.>.< * qXqXt q qXqXqXqXqXqXqXqXqXqXqXqXqXqXqXqXqXqXqXqXqXqXqXqXqXqXqXqXr -.8 : 1 0 >.:.|.0X4X4X>X*.qX",
"7 7.:X>X1X4X;X^ t a 1 , >.w.r qXqXqXqXqXqXqXqXqXqXqXqXqXqXqXqXqXqXqXqXqXqXqXqXqXqXqXqXr oX0.9 a a r %.<X3X:X-X-X<.qX",
"6 7.K.I.I.-X1XF.w a 0 -.*XOX8 qXqXqXqXqXqXqXqXqXqXqXqXqXqXqXqXqXqXqXqXqXqXqXqXqXqXqXqXq XX*X;.p a w |.2X+XK.K.J.<.6 ",
"L ~ *.<.7.G.+X;X1.0 t .X7Xw.9 qXqXqXq qXqXqXqXqXqXqXqXqXqXqXqXqXqXqXqXqXqXqXqXq qXqXqX< .X7X.Xr w J.;XL.7.*.~ ! E 6 ",
"qXqXqX- T ! 5.+X;X1.W oX6X0., * qX-.-.qXqXqXqXqXqXqXqXqXqXqXqXqXqXqXqXqXqXqXqX,.;.< > 0 q.6Xw.R J.;XK.*.U T - qXqXqX",
"qXqXqX= ' | P 5.@X:XU.&. X:.0 1 -.XX>.qXqXqXqXqXqXqXqXqXqXqXqXqXqXqXqXqXqXqXqX0.&X;.0 0 :.3.&.+X2X|.*.Y $.' * qXqXqX",
"qXqXqX= ( E.X.P U.#X<X|.%.r 0 t OX6X;.* qXqXqXqXqXqXqXqXqXqXqXqXqXqXq qXqX= , >.6X.Xt 0 E 9.:X<X|.%.Y r.T./ * qXqXqX",
"qXqXqXqX/ W.~.o.P 5.#X3X2XH.R &..X&X-.1 > 8 t q qXqXqXqXqXqXqXqXqXqXy ) 9 1 1 ;.oXq.R 2.#X4X>XK.%.U e./.Y.K qXqXqXqX",
"qXqXqXqX5 Y./.~.X.P <.|.<X4X:X9.&.2.r i 0 0.0.8 qXqXqXqXqXqXqXqXqXqX8 w.q.0 p W &.2.%X5X4X;XG.~ U #.^./.@.3 qXqXqXqX",
"qXqXqXqX:  ././.~.O.U %.G.-X<X4X=X9.R w -.&X>.< qXqXqXqXqXqXqXqXqX= < 3.XXW I *.+X1X1X-XI.5.P ` Y././.^.] : qXqXqXqX",
"qXqXqXqX= / W./././.r.` P *.F.+X:X<X$XF.^ 2.t 1 : qXqXqXqXqXqXqXqX> i r &.<.|.>X,X#XG.<.! U o.Q./././.e.K = qXqXqXqX",
"qXqXqXqX= / } T./././.Q.X.` U ! 4.K.;X<X-XF.R 1 1 : qXqXqXqXqXqX> p w %.|.:X>X+X6.%.U ` | Y.^././.^.e.' K = qXqXqXqX",
"qXqXqXqXqXK  ...#.~./././.Q.e.| Y P 1.K.;X<X#X4.w 1 = qXqXqXqX, 1 P G.:X,X@XU.! P ] @.W./././.^.Y...X...5 qXqXqXqXqX",
"qXqXqXqXqX3 | Y.@...$.Y.~./././.E.X.` P <.|.>X>XU.I = qXqXqX: 4 P J.<X-XG.~ U ] r.^././.^.T.@.O.O.T.T.' : qXqXqXqXqX",
"qXqXqXqXqX= K $././.).E.#.@.Y.^././.E.X.Y ! F.#X-X4.L = qXqX; E U.-X|.<.R ` e.^./.^.W.#.#.R.).}.`.^.| 3 = qXqXqXqXqX",
"qXqXqXqXqXqX3 / $./.[.{.].).E.#.e.W./.(.Y.} E <.I.K.<.- qXqX6 5.K.J.*.U X.Q./.^.Y.#.t.).}.[.{.].Q.| / : qXqXqXqXqXqX",
"qXqXqXqXqXqX: ( '  .!.'.[.{.[.'.(.#.$.!./.~.X.U *.J.J.! ; - ~ K.G.~ Q @.^./.r.O.R.`.[.{.[.]._.e.] | ( = qXqXqXqXqXqX",
"qXqXqXqXqXqXqX5  .O.O.+.E._.'.[.{.].(.X.r.^.^.$.U *.J.6.- I U.G.! ` Y./.^.O.O._.{.{.]._.W.e.@.#.O.| 3 qXqXqXqXqXqXqX",
"qXqXqXqXqXqXqX= / O.r.Q.!.R.#.t.)._._.E. .$././.r.U *.G.E ! F.~ ` Y./.^...O.!._._.t.+.t.(.).Q.e.X.K * qXqXqXqXqXqXqX",
"qXqXqXqXqXqXqXqX2 '  .+.X.,.y u j b b M y q [ E.~.O.U 4.~ *.*.Y O.Q.R.) 8 y M b x j u t ,.{ { | / = qXqXqXqXqXqXqXqX",
"qXqXqXqXqXqXqXqXqX2 0 % j S u.d.h.j.j.h.d.i.C M t ' } R ! E P o.` t b Z u.h.j.j.j.h.d.u.S j % < : qXqXqXqXqXqXqXqXqX",
"qXqXqXqXqXqXqXqXqX*   d l x x V G J i.p.s.d.m.B.v.b r Q L I ` e m v.B.m.d.p.p.i.F A B x l j d o qXqXqXqXqXqXqXqXqXqX",
"qXqXqXqXqXqXqXqXqXqX@   8 t q 9 @ % l F F B D s.M.V.J 8 4 - u a.Z.M.p.S V J S j % @ 9 e Y 9   qXqXqXqXqXqXqXqXqXqXqX",
"qXqXqXqXqXqXqXqXqXqXqXqX2 '  .| ( e e $ C D n V J b.D.J @ @ a.S.v.y.V B D V % e s ( ..| / : qXqXqXqXqXqXqXqXqXqXqXqX",
"qXqXqXqXqXqXqXqXqXqXqXqXqX: 5 ]  .' ' ) % S J C B y.b.Z.j V S.j.F n Z J C % _ ' ] ..' 3 * qXqXqXqXqXqXqXqXqXqXqXqXqX",
"qXqXqXqXqXqXqXqXqXqXqXqXqXqXqX: / ] ( ] ) d F y.V V p.B.H y.M.i.B C i.D % _ ] ( ] 5 : qXqXqXqXqXqXqXqXqXqXqXqXqXqXqX",
"qXqXqXqXqXqXqXqXqXqXqXqXqXqXqXqX* 3 5 K ] 8 x y.y.n F j.y.G h.G B y.y.j e ] 5 3 : qXqXqXqXqXqXqXqXqXqXqXqXqXqXqXqXqX",
"qXqXqXqXqXqXqXqXqXqXqXqXqXqXqXqXqXqX* : 3 < @ V J Z C s.c Z p.V G y.x @ , 2 = qXqXqXqXqXqXqXqXqXqXqXqXqXqXqXqXqXqXqX",
"qXqXqXqXqXqXqXqXqXqXqXqXqXqXqXqXqXqXqXqXqXqXqXO h h f h & f k $ k d X qXqXqXqXqXqXqXqXqXqXqXqXqXqXqXqXqXqXqXqXqXqXqX",
"qXqXqXqXqXqXqXqXqXqXqXqXqXqXqXqXqXqXqXqXqXqXqXqXqX. g =.l.l.N & . qXqXqXqXqXqXqXqXqXqXqXqXqXqXqXqXqXqXqXqXqXqXqXqXqX",
"qXqXqXqXqXqXqXqXqXqXqXqXqXqXqXqXX + d d # O . qXqX. v l.x.x.l.v qXqXqXo + d k d # X qXqXqXqXqXqXqXqXqXqXqXqXqXqXqXqX",
"qXqXqXqXqXqXqXqXqXqXqXqXqXqXqXX k C u.d.d.p.D l # . v l.x.x.l.v . d V y.s.d.s.y.V d . qXqXqXqXqXqXqXqXqXqXqXqXqXqXqX",
"qXqXqXqXqXqXqXqXqXqXqXqXqXqXqXX + $ k l S u.s.j.h.C g z.x.x.N $ H h.h.a.y.V j d + X qXqXqXqXqXqXqXqXqXqXqXqXqXqXqXqX",
"qXqXqXqXqXqXqXqXqXqXqXqXqXqXqXqXqX. O $ d k l Z f.Z.v.f z.=.d m.V.p.B j d d # X o qXqXqXqXqXqXqXqXqXqXqXqXqXqXqXqXqX",
"qXqXqXqXqXqXqXqXqXqXqXqXqXqXqXX # l Z F F l d l C j.D.g.& f M.D.f.B l $ c y.F C j O qXqXqXqXqXqXqXqXqXqXqXqXqXqXqXqX",
"qXqXqXqXqXqXqXqXqXqXqXqXqXqX+ c i.p.y.V n V d k c S B.Z.l S A.M.C n d j V B C i.y.y.l X qXqXqXqXqXqXqXqXqXqXqXqXqXqX",
"qXqXqXqXqXqXqXqXqXqXqXqXqX+ y.V.A.Z.N.f.H S c $ C x d.C.S F C.i.n n $ V G F g.B.Z.A.B.C X qXqXqXqXqXqXqXqXqXqXqXqXqX",
"qXqXqXqXqXqXqXqXqXqXqXqXqX# Z Z V J m.N.n.s.y.l j x Z s.l x s.B B d V i.s.n.B.b.J A F C O qXqXqXqXqXqXqXqXqXqXqXqXqX",
"qXqXqXqXqXqXqXqXqXqXqXqXqXqXqXqXqXqXO l u.j.d.F j + O $ O + $ O $ z i.h.k.y.j O qXqXqXqXqXqXqXqXqXqXqXqXqXqXqXqXqXqX",
"qXqXqXqXqXqXqXqXqXqXqXqXqXqXqXqXqXqXqXqXO j D i.C # . qXqXqXqX. $ D i.S h X qXqXqXqXqXqXqXqXqXqXqXqXqXqXqXqXqXqXqXqX",
"qXqXqXqXqXqXqXqXqXqXqXqXqXqXqXqXqXqXqXqXqXqX. + O qXqXqXqXqXqXqX. O O . qXqXqXqXqXqXqXqXqXqXqXqXqXqXqXqXqXqXqXqXqXqX"
};
