/* XPM */
static char *result[] = {
/* columns rows colors chars-per-pixel */
"58 60 206 2 ",
"   c #15171D",
".  c #0A2C0C",
"X  c #07290B",
"o  c #0F320E",
"O  c #10330F",
"+  c #1A2C1B",
"@  c #143611",
"#  c #153A12",
"$  c #1A3D14",
"%  c #1C361A",
"&  c #0D2B13",
"*  c #1E0A29",
"=  c #1C0B26",
"-  c #1D1628",
";  c #1A1834",
":  c #240D2C",
">  c #27152A",
",  c #35152B",
"<  c #280E31",
"1  c #2B1635",
"2  c #35143B",
"3  c #39173E",
"4  c #361E32",
"5  c #1C2534",
"6  c #2B2B2F",
"7  c #27222C",
"8  c #3A252F",
"9  c #283923",
"0  c #323D2B",
"q  c #2C2935",
"w  c #392B32",
"e  c #342835",
"r  c #3C3A3E",
"t  c #363539",
"y  c #21341F",
"u  c #431F2F",
"i  c #43222E",
"p  c #4C212F",
"a  c #432C38",
"s  c #0B431D",
"d  c #1D4215",
"f  c #164318",
"g  c #234A17",
"h  c #244A19",
"j  c #244819",
"k  c #2C531B",
"l  c #2F581B",
"z  c #335B1E",
"x  c #31561F",
"c  c #36601E",
"v  c #0B4B23",
"b  c #0B572C",
"n  c #0C5F30",
"m  c #365D21",
"M  c #3A5F24",
"N  c #35472B",
"B  c #0C6636",
"V  c #0D733F",
"C  c #3A6422",
"Z  c #3F6924",
"A  c #376020",
"S  c #426C25",
"D  c #4A762A",
"F  c #4D7A2A",
"G  c #487426",
"H  c #517E2B",
"J  c #517532",
"K  c #3D1841",
"L  c #272C47",
"P  c #332B4C",
"I  c #39294D",
"U  c #2B324D",
"Y  c #2A3245",
"T  c #3E2B50",
"R  c #2E3551",
"E  c #313A55",
"W  c #343C5A",
"Q  c #303754",
"!  c #393B49",
"~  c #1D2840",
"^  c #411B45",
"/  c #472648",
"(  c #492C56",
")  c #532353",
"_  c #5D2B5C",
"`  c #572B5A",
"'  c #523551",
"]  c #622D5E",
"[  c #5E3162",
"{  c #5C2F60",
"}  c #6E2E69",
"|  c #672C63",
" . c #6B3268",
".. c #73326D",
"X. c #763470",
"o. c #7B3673",
"O. c #7D3975",
"+. c #3A435E",
"@. c #39425A",
"#. c #0B7E46",
"$. c #3B4361",
"%. c #3D4862",
"&. c #454346",
"*. c #464B55",
"=. c #545456",
"-. c #56434D",
";. c #424B68",
":. c #495267",
">. c #585B62",
",. c #4B5472",
"<. c #535C7B",
"1. c #704267",
"2. c #666669",
"3. c #7B7B7C",
"4. c #747477",
"5. c #696C74",
"6. c #63535F",
"7. c #843B7B",
"8. c #863C7B",
"9. c #8A417E",
"0. c #55832D",
"q. c #5A8B2D",
"w. c #58862E",
"e. c #5C8B30",
"r. c #5F932C",
"t. c #62942F",
"y. c #628E35",
"u. c #649432",
"i. c #6A9C34",
"p. c #6C963A",
"a. c #6EA233",
"s. c #76A83A",
"d. c #09894C",
"f. c #088E50",
"g. c #069755",
"h. c #00AE63",
"j. c #00B065",
"k. c #02A65F",
"l. c #7BA941",
"z. c #82B73D",
"x. c #85AA4C",
"c. c #8EB74E",
"v. c #93C449",
"b. c #9BC456",
"n. c #8EC641",
"m. c #A4CC5A",
"M. c #A8D15C",
"N. c #B0D662",
"B. c #575E81",
"V. c #5E6488",
"C. c #646A8D",
"Z. c #61668B",
"A. c #66718D",
"S. c #686E93",
"D. c #6E7399",
"F. c #6B7494",
"G. c #737A9D",
"H. c #71799A",
"J. c #7B7C80",
"K. c #777DA2",
"L. c #8C3D82",
"P. c #913F86",
"I. c #964189",
"U. c #9A428D",
"Y. c #964588",
"T. c #9E4490",
"R. c #8F4382",
"E. c #A24694",
"W. c #A44A94",
"Q. c #AC4A9C",
"!. c #A74898",
"~. c #AA5296",
"^. c #B4579E",
"/. c #A04C8F",
"(. c #BA58A4",
"). c #C25BAB",
"_. c #CD64B2",
"`. c #D96BBB",
"'. c #D367B6",
"]. c #C660AC",
"[. c #7B83A4",
"{. c #878789",
"}. c #969697",
"|. c #828AAB",
" X c #8B94B5",
".X c #929ABC",
"XX c #8C92AE",
"oX c #96A1BD",
"OX c #A6A6A7",
"+X c #BBBCBC",
"@X c #AFAFB0",
"#X c #969DC2",
"$X c #9CA4C7",
"%X c #A2A9CD",
"&X c #A6ADD3",
"*X c #ACB3D7",
"=X c #B2BDDB",
"-X c #B6BFE1",
";X c #BDC7E6",
":X c #B5C0DE",
">X c #C7C7C7",
",X c #D0D0D0",
"<X c #C2CDEB",
"1X c #C5D1ED",
"2X c #C9D5F1",
"3X c None",
/* pixels */
"3X3X3X3X3X3X3X3X3X3X3X3X3X3X3X3X3X3X3X3X3X3X3X3X3X3X3X3X3X3X3X3X3X3X3X3X3X3X3X3X3X3X3X3X3X3X3X3X3X3X3X3X3X3X3X3X3X3X",
"3X3X3X3X3X3X3X3X3X3X3X3X3X3X3X3X3X3X3X3X3X3X3X3X3X3X3X3X3X3X3X3X3X3X3X3X3X3X3X3X3X3X3X3X3X3X3X3X3X3X3X3X3X3X3X3X3X3X",
"3X3X3X3X3X3X3X3X3X3X3X3X3X3X3X3X3X3X3X3X3X3X3X3X3X3X3X3X3X3X3X3X3X3X3X3X3X3X3X3X3X3X3X3X3X3X3X3X3X3X3X3X3X3X3X3X3X3X",
"3X3X3X3X3X3X3X3X3X3X3X3X3X3X3X3X3X3X3X3X3X3X3X3X3X3X3X3X3X3X3X3X3X3X3X3X3X3X3X3X3X3X3X3X3X3X3X3X3X3X3X3X3X3X3X3X3X3X",
"3X3X3X3X3X3X3X3X3X3X3X6 3X3X3X3X3X3X3X3X3X3X3X3X3X3X3X3X3X3X3X3X3X3X3X3X3X3X3X3X3X3X3X3X3X6 6 3X3X3X3X3X3X3X3X3X3X3X",
"3X3X3X3X3X3X3X3X3X4 =.&.3X3X3X3X3X3X3X3X3X3X3X3X3X3X3X3X3X3X3X3X3X3X3X3X3X3X3X3X3X3X3X3X3X6 =.&.3X3X3X3X3X3X3X3X3X3X",
"3X3X3X3X3X3X3X3Xw 4.OX&.3X3X3X3X3X3X3X3X3X3X3X3X3X3X3X3X3X3X3X3X3X3X3X3X3X3X3X3X3X3X3X3X3X3X2.@X>.6 3X3X3X3X3X3X3X3X",
"3X3X3X3X3X3X3X&.XX;Xl.6 3X3X3X3X3X3X3X3X3X3X3X3X3X3X3X3X3X3X3X3X3X3X3X3X3X3X3X3X3X3X3X3X3X3X! OX>X3.r 3X3X3X3X3X3X3X",
"3X3X3X3X5 %.E {.,X@X&.3X3X3X3X3X3X3X3X3X3X3X3X3X3X3X3X3X3X3X3X3X3X3X3X3X3X3X3X3X3X3X3X3X3X3X3X2.>X>X>.;.%.5 3X3X3X3X",
"3X3X3XU H.=X<.3.OX2.7 3X3X3X3X3X3X3X3X3X3X3X3X3X3X3X3X3X3X3X3X3X3X3X3X3X3X3X3X3X3X3X3X3X3X3X3Xq 3.OX:.[.=XA.U 3X3X3X",
"3X3X+.oX2X2XA.:.p.a > 3X3X3X3X3X3X3X3X3X3X3X3X3X3X3X3X3X3X3X3X3X3X3X3X3X3X3X3X3X3X3X3X3X3X3X* > =.3.@.oX2X1XXXE 3X3X",
"3XU .X1X<X2X X*.V.w u : > r t 3X3X3X3X3X3X3X3X3X3X3X3X3X3X3X3X3X3X3X3X3X3X3X3X3X3X3X3Xr t > , u t 2.*.:X2X;X;XG.~ 3X",
"3X@.#X$X&X-X-X;.I u p 4 ' {.&.3X3X3X3X3X3X3X3X3X3X3X3X3X3X3X3X3X3X3X3X3X3X3X3X3X3X3X3X2.{.q i p w t H.;X*X%X#XK.L 3X",
"3X$.D.D.K.|.&X XL p i r }.@Xr 3X3X3X3X3X3X3X3X3X3X3X3X3X3X3X3X3X3X3X3X3X3X3X3X3X3X3X3X=.>XJ.w p e $.&X#XK.D.F.Z.R 3X",
"3XU @.$.;.B.D.$XF.q e 2.,XOX6 = 3X3X6 3X3X3X3X3X3X3X3X3X3X3X3X3X3X3X3X3X3X3X6 6 3X3X= &.+X+X=.e U  X.XZ.,.$.E R ~ 3X",
"3X3X3X; L P $.D.%XA.U 3.>X{.8 , > r =.6 3X3X3X3X3X3X3X3X3X3X3X3X3X3X3X3X3X3Xt =.6 : , r OX+X=.E  X.XB.R I 1 3X3X3X3X",
"3X3X3X3XK  .T W G.%X[.@.5.=.8 u t }.4.> 3X3X3X3X3X3X3X3X3X3X3X3X3X3X3X3X3X3Xe }.4.w p w 5.:.:.oX$XV.R ` ..2 3X3X3X3X",
"3X3X3X3XK L.L.I +.[.*X$X<.Y e w 4.>X5.> = 3X3X6 3X3X3X3X3X3X3X3X3X3X3X3X3X- 7 }.+X=.8 q E S.=X$XV.R ` U.X.< 3X3X3X3X",
"3X3X3X3X2 O.Q.7.I +.G.*X:X|.+.Y 5.OX=.i , 7 r t 3X3X3X3X3X3X3X3X3X3XN N > , 8 3.OX=.Y ,.$X;X#XB.U ( P.Q. .: 3X3X3X3X",
"3X3X3X3X< } !.Q.7.T W A.%X;X=X[.*.&.@.w 8 -.[.t 3X3X3X3X3X3X3X3X3X3X@./.r i w *.@.,..X;X-X XB.R ` I.Q.!.) : 3X3X3X3X",
"3X3X3X3X* ) T.Q.!.8.( R <.[.%X-X=X[.$.q Y }.3.> * 3X3X3X3X3X3X3X3X* q }.4.q L ;.XX=X=X#XG.%.R [ U.Q.Q.I.K * 3X3X3X3X",
"3X3X3X3X* 2 X.Q.Q.Q.Y.| P W <.D..X*X$XK.$.*.! u , * 3X3X3X3X3X3X* , 8 *.*.;.[.&X&X XC.;.Q T X.T.Q.Q.T.| 1 3X3X3X3X3X",
"3X3X3X3X3XK ) 7.!.Q.Q.T.7.` I P @.V. X&X%XG.W q u , : 3X3X3X3X* , u 1 $.K.&X&X|.<.@.U T  .L.!.Q.Q.T. .) 1 3X3X3X3X3X",
"3X3X3X3X3X1 | | X.I.!.Q.Q.!.R...( P W V. X*X%XV.L 4 : 3X3X3X3X: 4 U A.%X&X XB.Q P ` o.I.!.Q.Q.T.L.} ..] : 3X3X3X3X3X",
"3X3X3X3X3X: ) L.L.} ..7.P.!.Q.Q.T.7.{ P W S.#X*XG.U 1 * 3X3X* 1 R [.*X#XZ.W P { 8.E.Q.Q.E.L.o.....P.O.K * 3X3X3X3X3X",
"3X3X3X3X3X3X< ] !.Q.(./.8.o.7.U.!.Q.T.O.( P ,.[.$XC.U * 3X3X; U S.$XK.,.P ( 7.E.Q.E.I.7.7.R.~.(.Q.P.) < 3X3X3X3X3X3X",
"3X3X3X3X3X3X: ^ | P._.`.'.)./.7.o.L.E.Q.P...P W F.K.<.L * ; q B.K.S.W I  .P.Q.E.8.7.8.~.].'.`.).P.) K * 3X3X3X3X3X3X",
"3X3X3X3X3X3X* ^ _ _ 8.(.'.`.`._.^.R.X.L.Q.!.7.( Q Z.D.%.; ; %.D.V.Q ( 7.!.Q.L.X.R.^.'.`.`._.^.X._ | K 3X3X3X3X3X3X3X",
"3X3X3X3X3X3X3X< _ ......9.T.(.'.`.'.^.X...E.Q.P.( Q Z.Z.L L Z.Z.E ( 8.Q.E.} 7.^.`.`._.^.Y.7...o.X.) : 3X3X3X3X3X3X3X",
"3X3X3X3X3X3X3X3X3  .O.U./.Y.9.8.~._.'.(.O.} P.Q.P.( W C.W $.C.W ( 8.Q.E.} 7.^.`._.W.8.9./.!.I.X.| 2 3X3X3X3X3X3X3X3X",
"3X3X3X3X3X3X3X3X: ^ ] X.Y.)._.^.1.X.~.T.E.7.} T.Q.o.T $.%.$.$.T 7.!.E...7.E.~.~.7.9.^.'.(.P..._ K = 3X3X3X3X3X3X3X3X",
"3X3X3X3X3X3X3X3X3X* 3 ) ]  .1.-.&.9 9 N t t q ` L.X.} Q W L P  .X.9._ t a w 0 9 9 &.1.1. .` ) 2 * 3X3X3X3X3X3X3X3X3X",
"3X3X3X3X3X3X3X3X3X3X: > + h Z q.u.a.a.s.a.r.F m 9 e | [ q ~ { { e 0 m D q.i.a.a.i.r.G c j + 1 > 3X3X3X3X3X3X3X3X3X3X",
"3X3X3X3X3X3X3X3X3X3X& d C F F 0.0.w.e.e.r.i.l.b.c.J 9 ( I I / 9 J c.b.l.i.u.u.e.q.w.w.0.F c % X 3X3X3X3X3X3X3X3X3X3X",
"3X3X3X3X3X3X3X3X3X3X& @ # @ @ % % j z D F m S w.l.m.x.j - - k c.m.s.w.S A F D m h $ 9 % # d @ X 3X3X3X3X3X3X3X3X3X3X",
"3X3X3X3X3X3X3X3X3X3X3X3X3X= < ^ _ / + # Z F C m D p.m.x.# 9 c.b.e.F m C F C $ + a ` / = = 3X3X3X3X3X3X3X3X3X3X3X3X3X",
"3X3X3X3X3X3X3X3X3X3X3X3X3X3X3X: 3 ` ) 4 % Z 0.S m D i.M.D J M.y.D m D H C + e ) _ K : 3X3X3X3X3X3X3X3X3X3X3X3X3X3X3X",
"3X3X3X3X3X3X3X3X3X3X3X3X3X3X3X3X3X: 2 2 e % D 0.G m 0.x.u.S s.F m D 0.G % / K 3 : 3X3X3X3X3X3X3X3X3X3X3X3X3X3X3X3X3X",
"3X3X3X3X3X3X3X3X3X3X3X3X3X3X3X3X3X3X3X* <   h 0.H C S i.t.c t.S C 0.F d - < * 3X3X3X3X3X3X3X3X3X3X3X3X3X3X3X3X3X3X3X",
"3X3X3X3X3X3X3X3X3X3X3X3X3X3X3X3X3X3X3X3X3X3X& k J G m 0.z k H z D D h & 3X3X3X3X3X3X3X3X3X3X3X3X3X3X3X3X3X3X3X3X3X3X",
"3X3X3X3X3X3X3X3X3X3X3X3X3X3X3X3X3X3X3X3X3X3X3X. # $ # f s s # o $ # . 3X3X3X3X3X3X3X3X3X3X3X3X3X3X3X3X3X3X3X3X3X3X3X",
"3X3X3X3X3X3X3X3X3X3X3X3X3X3X3X3X3X3X3X3X3X3X3X3X3XX v B V V V v X 3X3X3X3X3X3X3X3X3X3X3X3X3X3X3X3X3X3X3X3X3X3X3X3X3X",
"3X3X3X3X3X3X3X3X3X3X3X3X3X3X3X3X3X3X3X3X3X3X3X3X3X3Xv f.f.g.f.s 3X3X3X3X3X3X3X3X3X3X3X3X3X3X3X3X3X3X3X3X3X3X3X3X3X3X",
"3X3X3X3X3X3X3X3X3X3X3X3X3X3X3X3X3X3X3X3X3X3X3X3X3X3Xv g.j.j.f.# 3X3X3X3X3X3X3X3X3X3X3X3X3X3X3X3X3X3X3X3X3X3X3X3X3X3X",
"3X3X3X3X3X3X3X3X3X3X3X3X3X3X3X3X3X3X3X3X3X3X3X3X3X3Xv g.j.h.d.s 3X3X3X3X3X3X3X3X3X3X3X3X3X3X3X3X3X3X3X3X3X3X3X3X3X3X",
"3X3X3X3X3X3X3X3X3X3X3X3X3X3X3X3X3X3X3X3X3X3X3X3X3X3Xv f.j.h.d.s 3X3X3X3X3X3X3X3X3X3X3X3X3X3X3X3X3X3X3X3X3X3X3X3X3X3X",
"3X3X3X3X3X3X3X3X3X3X3X3X3X3X3X3X3X3X3X3X3X3X3X3X3X3Xv f.j.h.d.s 3X3X3X3X3X3X3X3X3X3X3X3X3X3X3X3X3X3X3X3X3X3X3X3X3X3X",
"3X3X3X3X3X3X3X3X3X3X3X3X3X3X3X3X3X3X3X3X3X3X3X3X3X3Xv g.j.j.f.v 3X3X3X3X3X3X3X3X3X3X3X3X3X3X3X3X3X3X3X3X3X3X3X3X3X3X",
"3X3X3X3X3X3X3X3X3X3X3X3X3X3X3X3X3X3X3X3X3X3X3X3X3X. b g.j.j.f.v 3X3X3X3X3X3X3X3X3X3X3X3X3X3X3X3X3X3X3X3X3X3X3X3X3X3X",
"3X3X3X3X3X3X3X3X3X3X3X3X3X3X3X3XO $ g g $ @ X 3X3X. B g.j.j.g.b . 3X3XX @ d h h $ o 3X3X3X3X3X3X3X3X3X3X3X3X3X3X3X3X",
"3X3X3X3X3X3X3X3X3X3X3X3X3X3X3X. g Z 0.i.i.t.F z @ & n d.h.k.d.b . $ z H t.a.i.H C $ . 3X3X3X3X3X3X3X3X3X3X3X3X3X3X3X",
"3X3X3X3X3X3X3X3X3X3X3X3X3X3X3X3XX o # k S w.t.a.i.S f B d.#.b f G a.s.t.0.c h @ . 3X3X3X3X3X3X3X3X3X3X3X3X3X3X3X3X3X",
"3X3X3X3X3X3X3X3X3X3X3X3X3X3X3X3X3X. @ j g g k S a.m.p.d B n d x.b.u.C k d d $ @ . 3X3X3X3X3X3X3X3X3X3X3X3X3X3X3X3X3X",
"3X3X3X3X3X3X3X3X3X3X3X3X3X3X3X@ h C F H D k $ k Z s.N.p.s f x.N.u.A k $ C H H G x $ . 3X3X3X3X3X3X3X3X3X3X3X3X3X3X3X",
"3X3X3X3X3X3X3X3X3X3X3X3X3X. z i.l.i.e.Z m m d g z G v.M.k Z N.c.Z A % h C m Z w.u.s.q.d 3X3X3X3X3X3X3X3X3X3X3X3X3X3X",
"3X3X3X3X3X3X3X3X3X3X3X3X3Xd t.c.b.N.m.s.0.D C # Z c i.n.G G n.w.m A $ Z G 0.s.m.M.m.c.q.# 3X3X3X3X3X3X3X3X3X3X3X3X3X",
"3X3X3X3X3X3X3X3X3X3X3X3X3X. # # % m y.c.z.r.0.k k z S u.z z u.c C g m 0.i.z.v.p.m j g $ . 3X3X3X3X3X3X3X3X3X3X3X3X3X",
"3X3X3X3X3X3X3X3X3X3X3X3X3X3X3X3X3X3XX d q.s.i.F g # @ d O @ $ @ # k 0.a.s.H d . 3X3X3X3X3X3X3X3X3X3X3X3X3X3X3X3X3X3X",
"3X3X3X3X3X3X3X3X3X3X3X3X3X3X3X3X3X3X3X3X. h G w.Z @ X 3X3X3X3XX $ G 0.G g X 3X3X3X3X3X3X3X3X3X3X3X3X3X3X3X3X3X3X3X3X",
"3X3X3X3X3X3X3X3X3X3X3X3X3X3X3X3X3X3X3X3X3X3X. o . 3X3X3X3X3X3X3X. o o X 3X3X3X3X3X3X3X3X3X3X3X3X3X3X3X3X3X3X3X3X3X3X"
};
