/* XPM */
static char *result[] = {
/* columns rows colors chars-per-pixel */
"58 60 211 2 ",
"   c #131A1A",
".  c #0A2B0C",
"X  c #06270B",
"o  c #0F310E",
"O  c #10340F",
"+  c #133511",
"@  c #163A12",
"#  c #193D14",
"$  c #1C3918",
"%  c #10311A",
"&  c #1C0927",
"*  c #1E0A29",
"=  c #1C1229",
"-  c #1D1833",
";  c #230C2B",
":  c #27142A",
">  c #37182C",
",  c #280F31",
"<  c #2D1235",
"1  c #261B34",
"2  c #36173B",
"3  c #1B243D",
"4  c #1A2822",
"5  c #2A2C2D",
"6  c #29242C",
"7  c #38242E",
"8  c #2D2C31",
"9  c #28263A",
"0  c #332B33",
"q  c #382735",
"w  c #323135",
"e  c #363539",
"r  c #3B3A3E",
"t  c #383635",
"y  c #313534",
"u  c #431C2E",
"i  c #46222E",
"p  c #432838",
"a  c #1E4315",
"s  c #164419",
"d  c #0B431B",
"f  c #244B17",
"g  c #264C19",
"h  c #2A4E1B",
"j  c #214617",
"k  c #2B531B",
"l  c #21501C",
"z  c #335C1E",
"x  c #30541F",
"c  c #3A631F",
"v  c #0B4E25",
"b  c #2C4423",
"n  c #344728",
"m  c #365E20",
"M  c #355820",
"N  c #056A37",
"B  c #3B6422",
"V  c #3E6823",
"C  c #376021",
"Z  c #416C25",
"A  c #45692B",
"S  c #4A742A",
"D  c #4E7A2B",
"F  c #487526",
"G  c #517E2B",
"H  c #577D32",
"J  c #3D1941",
"K  c #1E2942",
"L  c #2E2C4B",
"P  c #242B44",
"I  c #352A4C",
"U  c #2C334E",
"Y  c #26304B",
"T  c #343845",
"R  c #3E2B50",
"E  c #2E3551",
"W  c #323A54",
"Q  c #343D5A",
"!  c #461D48",
"~  c #4C204E",
"^  c #462A46",
"/  c #492A54",
"(  c #552454",
")  c #5B2759",
"_  c #5D2A5C",
"`  c #562C5B",
"'  c #4F374A",
"]  c #612C5E",
"[  c #5D3061",
"{  c #6A2D66",
"}  c #692D65",
"|  c #643264",
" . c #6C3269",
".. c #6B3465",
"X. c #73326D",
"o. c #733A6A",
"O. c #7B3673",
"+. c #7B3775",
"@. c #702F6B",
"#. c #3A425D",
"$. c #3A4356",
"%. c #3B414D",
"&. c #037F45",
"*. c #3C4563",
"=. c #3E4863",
"-. c #424245",
";. c #49484B",
":. c #474D59",
">. c #4A515E",
",. c #565658",
"<. c #444D6C",
"1. c #414A65",
"2. c #49536E",
"3. c #5A5C64",
"4. c #4C5573",
"5. c #535C7B",
"6. c #505778",
"7. c #596278",
"8. c #656668",
"9. c #76777A",
"0. c #6F6F71",
"q. c #79406F",
"w. c #843B7B",
"e. c #863B7D",
"r. c #89407D",
"t. c #55832D",
"y. c #5B8B2D",
"u. c #59862F",
"i. c #5D8C31",
"p. c #628938",
"a. c #639332",
"s. c #6A9C33",
"d. c #699736",
"f. c #6B9837",
"g. c #6FA236",
"h. c #74A936",
"j. c #74A738",
"k. c #7DB33B",
"l. c #059453",
"z. c #038B4D",
"x. c #00B166",
"c. c #00AE63",
"v. c #759B42",
"b. c #7CA942",
"n. c #82B93C",
"m. c #85AD49",
"M. c #85B445",
"N. c #95BD53",
"B. c #8FB750",
"V. c #95C44D",
"C. c #9BC753",
"Z. c #8EC641",
"A. c #A4CC5B",
"S. c #ACD45F",
"D. c #AFD563",
"F. c #575E81",
"G. c #5B6284",
"H. c #5F6789",
"J. c #636A8E",
"K. c #606888",
"L. c #7D7E81",
"P. c #676D92",
"I. c #6E7499",
"U. c #71789B",
"Y. c #787DA3",
"T. c #8D3D83",
"R. c #923E87",
"E. c #934385",
"W. c #964189",
"Q. c #9A438D",
"!. c #9B4C8B",
"~. c #9E4490",
"^. c #8E4481",
"/. c #A34694",
"(. c #AC4A9C",
"). c #A64B95",
"_. c #A95395",
"`. c #B3599D",
"'. c #BA59A3",
"]. c #C25EA9",
"[. c #CC64B2",
"{. c #D569B9",
"}. c #D96ABB",
"|. c #D367B7",
" X c #C861AE",
".X c #7A83A3",
"XX c #76829E",
"oX c #848485",
"OX c #99999A",
"+X c #838BAD",
"@X c #868CB2",
"#X c #8C94B6",
"$X c #9299BD",
"%X c #9399A8",
"&X c #A6A6A7",
"*X c #B4B4B4",
"=X c #AFAFB0",
"-X c #97A2BF",
";X c #969DC1",
":X c #9DA4C8",
">X c #A2ABCC",
",X c #A5ACD2",
"<X c #ABB4D6",
"1X c #B3BDDC",
"2X c #B7BFE2",
"3X c #BBC6E5",
"4X c #B5C0DE",
"5X c #C6C6C6",
"6X c #D0D0D0",
"7X c #C8D4F0",
"8X c None",
/* pixels */
"8X8X8X8X8X8X8X8X8X8X8X8X8X8X8X8X8X8X8X8X8X8X8X8X8X8X8X8X8X8X8X8X8X8X8X8X8X8X8X8X8X8X8X8X8X8X8X8X8X8X8X8X8X8X8X8X8X8X",
"8X8X8X8X8X8X8X8X8X8X8X8X8X8X8X8X8X8X8X8X8X8X8X8X8X8X8X8X8X8X8X8X8X8X8X8X8X8X8X8X8X8X8X8X8X8X8X8X8X8X8X8X8X8X8X8X8X8X",
"8X8X8X8X8X8X8X8X8X8X8X8X8X8X8X8X8X8X8X8X8X8X8X8X8X8X8X8X8X8X8X8X8X8X8X8X8X8X8X8X8X8X8X8X8X8X8X8X8X8X8X8X8X8X8X8X8X8X",
"8X8X8X8X8X8X8X8X8X8X8X8X8X8X8X8X8X8X8X8X8X8X8X8X8X8X8X8X8X8X8X8X8X8X8X8X8X8X8X8X8X8X8X8X8X8X8X8X8X8X8X8X8X8X8X8X8X8X",
"8X8X8X8X8X8X8X8X8X8X8X8X8X8X8X8X8X8X8X8X8X8X8X8X8X8X8X8X8X8X8X8X8X8X8X8X8X8X8X8X8X8X8X8X8X8X8X8X8X8X8X8X8X8X8X8X8X8X",
"8X8X8X8X8X8X8X8X8X8X8X8X8X8X8X8X8X8X8X8X8X8X8X8X8X8X8X8X8X8X8X8X8X8X8X8X8X8X8X8X8X8X8X8X8X8X8X8X8X8X8X8X8X8X8X8X8X8X",
"8X8X8X8X8X8X8X8X8X8X8X8X8X8X8X8X8X8X8X8X8X8X8X8X8X8X8X8X8X8X8X8X8X8X8X8X8X8X8X8X8X8X8X8X8X8X8X8X8X8X8X8X8X8X8X8X8X8X",
"8X8X8X8X8X8X8X8X8X8X8X8X8X8X8X8X8X8X8X8X8X8X8X8X8X8X8X8X8X8X8X8X8X8X8X8X8X8X8X8X8X8X8X8X8X8X8X8X8X8X8X8X8X8X8X8X8X8X",
"8X8X8X8X8X8X8X8X8X8X8X8X8X8X8X8X8X8X8X8X8X8X8X8X8X8X8X8X8X8X8X8X8X8X8X8X8X8X8X8X8X8X8X8X8X8X8X8X8X8X8X8X8X8X8X8X8X8X",
"8X8X8X8X8X8X8X8X8X8X8X8X8X8X8X8X8X8X8X8X8X8X8X8X8X8X8X8X8X8X8X8X8X8X8X8X8X8X8X8X8X8X8X8X8X8X8X8X8X8X8X8X8X8X8X8X8X8X",
"8X8X8X8X8X8X8X8X8X8X8X8X8X8X8X8X8X8X8X8X8X8X8X8X8X8X8X8X8X8X8X8X8X8X8X8X8X8X8X8X8X8X8X8X8X8X8X8X8X8X8X8X8X8X8X8X8X8X",
"8X8X8X8X8X8X8X8X8X8X8X8X8X8X8X8X8X8X8X8X8X8X8X8X8X8X8X8X8X8X8X8X8X8X8X8X8X8X8X8X8X8X8X8X8X8X8X8X8X8X8X8X8X8X8X8X8X8X",
"8X8X8X8X8X8X8X8X8X8X8X8X8X8X8X8X8X8X8X8X8X8X8X8X8X8X8X8X8X8X8X8X8X8X8X8X8X8X8X8X8X8X8X8X8X8X8X8X8X8X8X8X8X8X8X8X8X8X",
"8X8X8X8X8X8X8X8X8X8X8X8X8Xe w 8X8X8X8X8X8X8X8X8X8X8X8X8X8X8X8X8X8X8X8X8X8X8X8X8X8X8X8Xe -.8 8X8X8X8X8X8X8X8X8X8X8X8X",
"8X8X8X8X8X8X8X8X8X8X8Xe 8.9.e 8X8X8X8X8X8X8X8X8X8X8X8X8X8X8X8X8X8X8X8X8X8X8X8X8X8X8X8Xe oXoX-.8X8X8X8X8X8X8X8X8X8X8X",
"8X8X8X8X8X8X8X8X8X8 ,.OX5X8.8X8X8X8X8X8X8X8X8X8X8X8X8X8X8X8X8X8X8X8X8X8X8X8X8X8X8X8X8X8X,.5X=X8.e 3 8X8X8X8X8X8X8X8X",
"8X8X8X8X8X8XK #.#.2.*X5XoXw 8X8X8X8X8X8X8X8X8X8X8X8X8X8X8X8X8X8X8X8X8X8X8X8X8X8X8X8X8X8X0 oX5X5X>.7.4.P 8X8X8X8X8X8X",
"8X8X8X8X8XW I.1X.X3.*XOX-.8X8X8X8X8X8X8X8X8X8X8X8X8X8X8X8X8X8X8X8X8X8X8X8X8X8X8X8X8X8X8X8XT oX&X>.#X3X#X1.3 8X8X8X8X",
"8X8X8X8X2.>X7X7X+X:.oX,.8 8X8X8X8X8X8X8X8X8X8X8X8X8X8X8X8X8X8X8X8X8X8X8X8X8X8X8X8X8X8X8X8X6 ,.9.$.$X7X7X1X5.3 8X8X8X",
"8X8X8XU :X3X3X7X:X$.0.w : 8X8X8X8X8X8X8X8X8X8X8X8X8X8X8X8X8X8X8X8X8X8X8X8X8X8X8X8X8 8X8X8X: t 8.$.<X3X3X3X$XE 8X8X8X",
"8X8X8X#..X;X:X2X4X2.n q : 8X5 ;.r 8X8X8X8X8X8X8X8X8X8X8X8X8X8X8X8X8X8X8X8X8X8X8X8X-.3.w : u i e 7.3X<X$X+XY.Q 8X8X8X",
"8X8X8X*.H.J.I.@X<XXX9 i u 6 8.&X-.8X8X8X8X8X8X8X8X8X8X8X8X8X8X8X8X8X8X8X8X8X8X8X8X;.=X9.0 i i P #X:X.XJ.G.6.Q 8X8X8X",
"8X8X8XK P E *.F.Y.>X2.> i 3.5XOXw 8X8X8X8X8X8X8X8X8X8X8X8X8X8X8X8X8X8X8X8X8X8X8X8Xw OX5X8.7 9 K.:XI.<.E P K K 8X8X8X",
"8X8X8X8X8X- J L 2.+X-XQ T OX6X9.6 8X8X8X5 8X8X8X8X8X8X8X8X8X8X8X8X8X8X8X8X8 8X8X8X1 oX6XOXw 2.>XY.#.I I * 8X8X8X8X8X",
"8X8X8X8X8X* )  .L F.;X#X*.K.*X,.: ; 6 ;.r 8X8X8X8X8X8X8X8X8X8X8X8X8X8X8X8X-.,.6 : 7 3.OX3.4.:X+X1.I +.) * 8X8X8X8X8X",
"8X8X8X8X8X; _ Q.| E H.>X-X1.2.n i 6 3.&X-.8X8X8X8X8X8X8X8X8X8X8X8X8X8X8X8X;.=X8.7 7 r $.G.<X;X6.L O.Q.( * 8X8X8X8X8X",
"8X8X8X8X8X* ) /.Q./ W P.<X<X7.9 7 ;.*X&Xw 8X8X8X8X8X8X8X8X8X8X8X8X8X8X8X; e *X*X;.8 U XX3X:XF.L | /.~.( * 8X8X8X8X8X",
"8X8X8X8X8X; ! Q.(.T./ Q U.<X3XXXE :.OXoX7 : ; 5 8 8X8X8X8X8X8X8X8Xw 8 ; > 0 L.L.%.4.:X3X:XG.U [ ~.(.Q.! & 8X8X8X8X8X",
"8X8X8X8X8X* 2 T.(.(.T.R Q U.,X3X>X5.$.:.7 u 8 3.-.8X8X8X8X8X8X8X8X;.0.0 i 0 W *..X3X1X$XF.U ` W.(.(.e.< & 8X8X8X8X8X",
"8X8X8X8X8X8X< @.(.(./.T./ E G.@X<X4X+X#.9 0 9.OXw 8X8X8X8X8X8X8X8Xw &X9.0 L 7.,X1X;XI.1.L [ Q.(.(./._ < 8X8X8X8X8X8X",
"8X8X8X8X8X8X2 ( w.(.(.(.T.` L #.G.@X<X>XJ.E 8.8.1 ; 8X8X8X8X8X8X: > ,.>.=.+X<X:XI.<.E R X.~.(.(./.@.( < 8X8X8X8X8X8X",
"8X8X8X8X8X8X< } { +./.(.(.~.+./ U #.K.$X<X#X<.9 7 > * 8X8X8X8X; > 7 U P.>X>X.X<.U R  .T.(.(.(.R.@.@.} , 8X8X8X8X8X8X",
"8X8X8X8X8X8X; ) T.O.{ e.R.(.(.R.w.` L *.U.>X,XI.E 2 : 8X8X8X* > 1 1.#X<X;XF.E R  .R.).(.(.T.X.@.T.T.! & 8X8X8X8X8X8X",
"8X8X8X8X8X8X* 2 X.(.~.R.+.e./.(.(.~.X./ E 5.#X<X#XQ 1 ; 8X8X, 9 2.:X,XY.*.L [ T./.(.~.^.+.w._.(./.| < ; 8X8X8X8X8X8X",
"8X8X8X8X8X8X8X< ~ e.'.{. X).w.w.W.(.(.W.[ L =..X,X.XU : 8X* - Q ;X;XP.W R X.~.).~.T.+.E.'.{.{.(.@.! , 8X8X8X8X8X8X8X",
"8X8X8X8X8X8X8X; ( ( O.'.{.}.[.).w.O.W.(./.+.R Q U.@XF.P * - E J.@XF.E / T.).).T.+.W.].{.}.|.).{ ) ( ; 8X8X8X8X8X8X8X",
"8X8X8X8X8X8X8X* ! { { X.!.].{.}.[._.O.+./.(.+./ Q J.I.<.- 3 F.I.F.L ` R.(.~.X.^.'.{.{.[._.r. .X. .J 8X8X8X8X8X8X8X8X",
"8X8X8X8X8X8X8X8X< ] O.e.e.w.^.'.{.}. Xr.@.~.(.T./ Q P.P.Y E I.F.U ` R.(.R.{ !.|.}. X_.w.^.W.T.X.) ; 8X8X8X8X8X8X8X8X",
"8X8X8X8X8X8X8X8X& 2  .w./.`.r...q._.`.`.+.@.Q.(.T.R *.P.*.*.P.E / R.(.R.{ ^.'.'.!...o._.`.R.X.| < 8X8X8X8X8X8X8X8X8X",
"8X8X8X8X8X8X8X8X8X; 2 ^ t t n x g x n n t 8 ' ^./.+.I 4.F.Q *.R T.(.R.^ q e n n k g n n t 0 ^ < * 8X8X8X8X8X8X8X8X8X",
"8X8X8X8X8X8X8X8X8X8X  # z S y.s.g.h.h.h.s.t.c y ' X.[ U 2.P L ..| ' b B t.s.h.h.h.g.d.y.F x @   8X8X8X8X8X8X8X8X8X8X",
"8X8X8X8X8X8X8X8X8X8X. $ j f h x V S u.i.a.g.M.B.p.j I / U P / q b p.B.k.h.a.i.t.D c k g f j + . 8X8X8X8X8X8X8X8X8X8X",
"8X8X8X8X8X8X8X8X8X8X8X  = ^ ^ 0 4 $ k D F B D f.N.N.V 5 P P 5 A C.N.d.S c D S h @ 4 p ' q = 8X8X8X8X8X8X8X8X8X8X8X8X",
"8X8X8X8X8X8X8X8X8X8X8X8X8X< ) ..( q 0 $ Z F z V u.m.S.A 4   H S.b.t.B z S V $ 0 2 ] ..~ ; 8X8X8X8X8X8X8X8X8X8X8X8X8X",
"8X8X8X8X8X8X8X8X8X8X8X8X8X8X; ~ @.( ( ^ $ S G B V u.B.A.j x S.m.H C B t.Z $ ^ ~ ) } J ; 8X8X8X8X8X8X8X8X8X8X8X8X8X8X",
"8X8X8X8X8X8X8X8X8X8X8X8X8X8X8X* 2 _ ! ) I j G H m Z y.C.S u.V.u.B B t.D j ^ ) ~ ( < & 8X8X8X8X8X8X8X8X8X8X8X8X8X8X8X",
"8X8X8X8X8X8X8X8X8X8X8X8X8X8X8X8X8X, 2 J ] 5 m t.G M D k.t.F h.S m t.t.x 0 _ 2 < * 8X8X8X8X8X8X8X8X8X8X8X8X8X8X8X8X8X",
"8X8X8X8X8X8X8X8X8X8X8X8X8X8X8X8X8X8X& ; 2 7 + Z t.V Z s.c Z a.V Z t.C % < < ; 8X8X8X8X8X8X8X8X8X8X8X8X8X8X8X8X8X8X8X",
"8X8X8X8X8X8X8X8X8X8X8X8X8X8X8X8X8X8X8X8X8X&   O k h f h @ d k a k g O 8X8X8X8X8X8X8X8X8X8X8X8X8X8X8X8X8X8X8X8X8X8X8X",
"8X8X8X8X8X8X8X8X8X8X8X8X8X8X8X8Xo # f f a O . 8XX X d N z.z.N O . X X . @ j k f # o 8X8X8X8X8X8X8X8X8X8X8X8X8X8X8X8X",
"8X8X8X8X8X8X8X8X8X8X8X8X8X8X8X. a V t.s.s.a.t.z @ X v l.x.x.l.v X # B u.s.s.a.G m # . 8X8X8X8X8X8X8X8X8X8X8X8X8X8X8X",
"8X8X8X8X8X8X8X8X8X8X8X8X8X8X8X8X. o @ g c t.a.h.g.A s z.x.x.N s G h.g.y.G c j O . 8X8X8X8X8X8X8X8X8X8X8X8X8X8X8X8X8X",
"8X8X8X8X8X8X8X8X8X8X8X8X8X8X8X8X8X. + j a a g V s.A.f.s z.z.l m.C.i.C g a a @ o X 8X8X8X8X8X8X8X8X8X8X8X8X8X8X8X8X8X",
"8X8X8X8X8X8X8X8X8X8X8X8X8X8X8X. a x S G t.z a k V j.D.v.d s B.D.d.m k a B G D Z k O 8X8X8X8X8X8X8X8X8X8X8X8X8X8X8X8X",
"8X8X8X8X8X8X8X8X8X8X8X8X8X8X@ t.d.i.u.C m C a a z F V.A.h Z S.M.V m # g B B V t.u.u.c O 8X8X8X8X8X8X8X8X8X8X8X8X8X8X",
"8X8X8X8X8X8X8X8X8X8X8X8X8X@ a.C.A.S.C.g.G F c s c c s.Z.Z D Z.y.C m # B S G s.C.S.S.V.F o 8X8X8X8X8X8X8X8X8X8X8X8X8X",
"8X8X8X8X8X8X8X8X8X8X8X8X8X+ k k x A v.B.k.a.t.k f c V a.k z a.z C j B t.a.k.V.v.D B B z O 8X8X8X8X8X8X8X8X8X8X8X8X8X",
"8X8X8X8X8X8X8X8X8X8X8X8X8X8X8X8X8X8Xo f u.k.s.D g @ O @ o + # o @ k t.g.k.t.h o 8X8X8X8X8X8X8X8X8X8X8X8X8X8X8X8X8X8X",
"8X8X8X8X8X8X8X8X8X8X8X8X8X8X8X8X8X8X8X8Xo f F t.V @ X 8X8X8X8X. a S y.F f . 8X8X8X8X8X8X8X8X8X8X8X8X8X8X8X8X8X8X8X8X",
"8X8X8X8X8X8X8X8X8X8X8X8X8X8X8X8X8X8X8X8X8X8X. O o 8X8X8X8X8X8X8XX o o X 8X8X8X8X8X8X8X8X8X8X8X8X8X8X8X8X8X8X8X8X8X8X"
};
