/* XPM */
static char *result[] = {
/* columns rows colors chars-per-pixel */
"58 60 203 2 ",
"   c #131C1A",
".  c #0F1C15",
"X  c #092B0C",
"o  c #07290B",
"O  c #0E310E",
"+  c #11330F",
"@  c #0C3C18",
"#  c #133511",
"$  c #153911",
"%  c #193E14",
"&  c #1A3419",
"*  c #132815",
"=  c #1C0927",
"-  c #1D0928",
";  c #1C162E",
":  c #230D2B",
">  c #290F2A",
",  c #29162B",
"<  c #35172C",
"1  c #290F31",
"2  c #270E30",
"3  c #2E1435",
"4  c #331539",
"5  c #1C243D",
"6  c #2A2C2D",
"7  c #242727",
"8  c #37242E",
"9  c #2D2D32",
"0  c #292639",
"q  c #322B33",
"w  c #392734",
"e  c #3B343A",
"r  c #363538",
"t  c #2B3827",
"y  c #223B1C",
"u  c #471D2E",
"i  c #45222E",
"p  c #4D202F",
"a  c #413B3D",
"s  c #0C441D",
"d  c #1D4214",
"f  c #154318",
"g  c #214617",
"h  c #254B18",
"j  c #274D19",
"k  c #2C531B",
"l  c #335C1E",
"z  c #38621F",
"x  c #0B4B22",
"c  c #0B572B",
"v  c #0D5F30",
"b  c #2E4A21",
"n  c #355E20",
"m  c #325421",
"M  c #0C6334",
"N  c #3B6422",
"B  c #3E6924",
"V  c #376021",
"C  c #426C25",
"Z  c #476B2B",
"A  c #457126",
"S  c #4B752A",
"D  c #4E7A2B",
"F  c #4A7826",
"G  c #517E2C",
"H  c #3D1941",
"J  c #1E2942",
"K  c #2D2D4B",
"L  c #242B45",
"P  c #38294B",
"I  c #2B324D",
"U  c #2D3342",
"Y  c #393C47",
"T  c #2F3653",
"R  c #323B55",
"E  c #343C57",
"W  c #3E2B51",
"Q  c #461D49",
"!  c #4B264C",
"~  c #423B41",
"^  c #4A2B56",
"/  c #562858",
"(  c #563B50",
")  c #612A5E",
"_  c #5D3062",
"`  c #692D65",
"'  c #692D65",
"]  c #643265",
"[  c #6C3469",
"{  c #72336C",
"}  c #76396E",
"|  c #7B3673",
" . c #7C3975",
".. c #793674",
"X. c #3B445C",
"o. c #364058",
"O. c #0E7742",
"+. c #3C4563",
"@. c #464548",
"#. c #474C57",
"$. c #565759",
"%. c #4E5057",
"&. c #444D6B",
"*. c #424D66",
"=. c #4B5374",
"-. c #4E5873",
";. c #535B7C",
":. c #535967",
">. c #6A6A6B",
",. c #77787A",
"<. c #6D6E71",
"1. c #5C526A",
"2. c #813A77",
"3. c #843B7B",
"4. c #883A7E",
"5. c #86437A",
"6. c #55832D",
"7. c #5B8C2D",
"8. c #58872E",
"9. c #5D8D31",
"0. c #5B8234",
"q. c #5F932C",
"w. c #659533",
"e. c #6A9C34",
"r. c #699737",
"t. c #629330",
"y. c #6EA234",
"u. c #76A83A",
"i. c #09884C",
"p. c #079453",
"a. c #069856",
"s. c #088F50",
"d. c #00AE63",
"f. c #00B064",
"g. c #789C47",
"h. c #79A440",
"j. c #84BB3D",
"k. c #87B646",
"l. c #96BD54",
"z. c #86AF49",
"x. c #9AC553",
"c. c #93C648",
"v. c #A5CA5E",
"b. c #A9D25C",
"n. c #B0D563",
"m. c #575E81",
"M. c #5C6385",
"N. c #636C8C",
"B. c #60668A",
"V. c #676C92",
"C. c #6D7496",
"Z. c #72799C",
"A. c #707789",
"S. c #787DA3",
"D. c #8D3D83",
"F. c #923F87",
"G. c #964289",
"H. c #9B438E",
"J. c #944686",
"K. c #9E4490",
"L. c #8F4382",
"P. c #A34694",
"I. c #A44B93",
"U. c #AB4A9B",
"Y. c #A74898",
"T. c #B2559D",
"R. c #B5589F",
"E. c #AC519A",
"W. c #B858A2",
"Q. c #C45DAD",
"!. c #CD63B2",
"~. c #D166B5",
"^. c #D86ABA",
"/. c #C661AD",
"(. c #75809D",
"). c #7D84A7",
"_. c #858587",
"`. c #949495",
"'. c #8C8E90",
"]. c #8189AA",
"[. c #8E95B9",
"{. c #9299BD",
"}. c #878EB1",
"|. c #98A3BF",
" X c #ACACAC",
".X c #A0A0A0",
"XX c #B6B7B7",
"oX c #AFB0B0",
"OX c #969CC2",
"+X c #9CA4C8",
"@X c #A2AACD",
"#X c #ABB3D6",
"$X c #ABB4D6",
"%X c #B1BADB",
"&X c #A4ABD0",
"*X c #B5BDE0",
"=X c #BAC4E5",
"-X c #B7C1E0",
";X c #B6C0DF",
":X c #CBCBCA",
">X c #C8D4F1",
",X c #C3CFEC",
"<X c None",
/* pixels */
"<X<X<X<X<X<X<X<X<X<X<X<X<X<X<X<X<X<X<X<X<X<X<X<X<X<X<X<X<X<X<X<X<X<X<X<X<X<X<X<X<X<X<X<X<X<X<X<X<X<X<X<X<X<X<X<X<X<X",
"<X<X<X<X<X<X<X<X<X<X<X<X<X<X<X<X<X<X<X<X<X<X<X<X<X<X<X<X<X<X<X<X<X<X<X<X<X<X<X<X<X<X<X<X<X<X<X<X<X<X<X<X<X<X<X<X<X<X",
"<X<X<X<X<X<X<X<X<X<X6 r <X<X<X<X<X<X<X<X<X<X<X<X<X<X<X<X<X<X<X<X<X<X<X<X<X<X<X<X<X<X<X<X<Xq r <X<X<X<X<X<X<X<X<X<X<X",
"<X<X<X<X<X<X<X<X<Xr <.$.<X<X<X<X<X<X<X<X<X<X<X<X<X<X<X<X<X<X<X<X<X<X<X<X<X<X<X<X<X<X<X<X<Xa ,.%.6 <X<X<X<X<X<X<X<X<X",
"<X<X<X<X<X<X<X<X@.`. X@.<X<X<X<X<X<X<X<X<X<X<X<X<X<X<X<X<X<X<X<X<X<X<X<X<X<X<X<X<X<X<X<X<X6 ,.XX<.K <X<X<X<X<X<X<X<X",
"<X<X<X<X<X5 5 %.oX:X,.6 <X<X<X<X<X<X<X<X<X<X<X<X<X<X<X<X<X<X<X<X<X<X<X<X<X<X<X<X<X<X<X<X<X<Xo.oX:Xz.o.5 <X<X<X<X<X<X",
"<X<X<X<XI N.-.A.:X.Xe <X<X<X<X<X<X<X<X<X<X<X<X<X<X<X<X<X<X<X<X<X<X<X<X<X<X<X<X<X<X<X<X<X<X<X6 >.$XXXX.(.;.L <X<X<X<X",
"<X<X5 *.|.>XA.:.`.$.8 : <X<X<X<X<X<X<X<X<X<X<X<X<X<X<X<X<X<X<X<X<X<X<X<X<X<X<X<X<X<X<X<X<X<X: r g.J.X.%X=X).o.<X<X<X",
"<X<X-.%X>X>X}.#.,.e i < = <X6 <X<X<X<X<X<X<X<X<X<X<X<X<X<X<X<X<X<X<X<X<X<X<X<X<X<X<X<Xb <X= < w ;.<.*.=X>X>XOXE <X<X",
"<XI {.=X=X,X$X+.%.q p p 8 @.@.<X<X<X<X<X<X<X<X<X<X<X<X<X<X<X<X<X<X<X<X<X<X<X<X<X<X<Xr $.e , u i @.#.C.,X=X*X*XB.5 <X",
"<XR ).}.[.&X=XC.0 i p i $. X%.<X<X<X<X<X<X<X<X<X<X<X<X<X<X<X<X<X<X<X<X<X<X<X<X<X<X<X6 J.'.e i p 6 o.@X%XOX}.].m.J <X",
"<XE M.M.V.Z.[.&X+.8 i ~  XXXe = <X<X<X<X<X<X<X<X<X<X<X<X<X<X<X<X<X<X<X<X<X<X<X<X<X<X7 <.:X,.q i 0 (.+X).V.M.m.=.L <X",
"<XJ L I I +.m.}.+Xo.9 <.:X Xe < : <Xr 9 <X<X<X<X<X<X<X<X<X<X<X<X<X<X<X<X<X<X9 9 <X- , $.:XoX@.0 N.+XC.&.T L J J <X<X",
"<X<X<X<X3 ^ K m.[.+X+.:. X'.w p < @.<.9 <X<X<X<X<X<X<X<X<X<X<X<X<X<X<X<X<X<X@.>.9 < i @.oX'.o.N.&XZ.X.W ^ 2 <X<X<X<X",
"<X<X<X<X4 ..] K ;.{.$X;.o.%.q i b  X_., <X<X<X<X<X<X<X<X<X<X<X<X<X<X<X<X<X<Xe oX,.w i e %.X.).#X).+.W  .` : <X<X<X<X",
"<X<X<X<X3  .K._ I ;.{.;X}.X.9 6 ,.:X,.8 > - 6 9 <X<X<X<X<X<X<X<X<X<X6 <X- > e oXoX@.0 U ;.@X%XS.+.P  .P.` - <X<X<X<X",
"<X<X<X<X1 { U.K._ K ;.[.=X;XZ.E *.A.$.i u 8 %.r <X<X<X<X<X<X<X<X<X<XY e < i r ,.,.o.*.[.=X%XS.+.P  .Y.K./ - <X<X<X<X",
"<X<X<X<X: / P.U.H._ K =.).$X=X$XC.#.U w 8 >.`.q <X<X<X<X<X<X<X<X<X<X%.'.a i 9 R *.].;X=X+XV.E W  .Y.U.F.H - <X<X<X<X",
"<X<X<X<X- 4 F.U.U.K.[ P E M.].+X*X#XC.E 0 A.<.8 , <X<X<X<X<X<X<X<X> a `.:.0 o.).%X%X|.Z.=.I ^ D.Y.U.U.{ 2 <X<X<X<X<X",
"<X<X<X<X<X4 / K.U.U.Y.3./ K R =.C.OX#X+XC.+.U 8 u > <X<X<X<X<X<X: u w E #.C.+X$X[.V.*.T P ] G.U.U.U.D.Q 2 <X<X<X<X<X",
"<X<X<X<X<X3 / ` G.U.U.U.K.2./ W K +.B.{.#X+XV.I 4 u : <X<X<X<X: < w K N.+X#X[.B.E K ^ ] 4.P.U.U.Y.3.) / : <X<X<X<X<X",
"<X<X<X<X<X: ) | [ ..D.P.U.U.U.G...^ K +.V.OX#XOX&.0 < - <X<X= < 0 &.{.#XOXV.E K /  .G.U.U.U.K.3.{ { | Q - <X<X<X<X<X",
"<X<X<X<X<X- H ..P.D.....2.F.Y.E.Y.H. .^ K +.S.@X+X*.0 : <X<X: 0 &.OX&XS.&.K ^  .K.U.U.P.L.| | 2.F.K.` 1 <X<X<X<X<X<X",
"<X<X<X<X<X<X: Q D.U.!.Q.E.5.2.3.G.U.U.H.{ W R M.[.S.+.5 - - ; +.).OXM.T W { H.U.U.G.2. .L.T.!./.U.{ H - <X<X<X<X<X<X",
"<X<X<X<X<X<X- Q / { T.^.^.^./.I.2...D.U.Y.L./ K =.C.V.T ; - T V.Z.;.K / D.Y.Y.D.} 3.E./.^.^.~.P.` / 4 - <X<X<X<X<X<X",
"<X<X<X<X<X<X<X3 ) ` ` F.W.~.^.^.!.T.3.{ G.U.H.' K =.V.m.5 J m.C.=.K _ F.U.H...2.T.~.^.^.!.T.3.` ` ) 2 <X<X<X<X<X<X<X",
"<X<X<X<X<X<X<X- ! {  .2.2.3.J.R.~.^.~.G.` D.U.P.[ K =.V.T T V.=.K ] H.U.D.` G.!.^.~.R.J.3.2.4.| ` H = <X<X<X<X<X<X<X",
"<X<X<X<X<X<X<X<X1 / { D.U.R.I.3.4.T.~.Q.F.` 3.U.P.[ K m.=.&.m.K ] P.U.D.` G.Q.^.R.5.5.I.W.Y.4.{ / : <X<X<X<X<X<X<X<X",
"<X<X<X<X<X<X<X<X<X3 / ' 2.I.!.!.T.2.2.H.I.G.` D.U.2./ R =.T T ^ 4.U.F.` G.Y.E.5.3.T.!./.P...] Q 2 <X<X<X<X<X<X<X<X<X",
"<X<X<X<X<X<X<X<X<X- 2 Q / ) 2.5.1.a y t t r w e [ [ [ ^ K J W { { } ! w a a q 6 ( 5.H.3.) ! Q 2 - <X<X<X<X<X<X<X<X<X",
"<X<X<X<X<X<X<X<X<X<X- 4 u 7 y l F q.y.y.y.e.7.S k 6 ! ] K L ] ! 6 b Z G q.t.q.q.6.z j 7 8 ! 4 - <X<X<X<X<X<X<X<X<X<X",
"<X<X<X<X<X<X<X<X<X<X<X  & N q.e.e.w.9.9.9.w.u.l.v.g.b q H P 9 m g.x.l.j.e.w.t.e.e.y.e.8.k &   <X<X<X<X<X<X<X<X<X<X<X",
"<X<X<X<X<X<X<X<X<X<X<Xd V n k h h k N D D V N G r.x.v.B     S v.x.r.G C n D G Z N l l B A N d <X<X<X<X<X<X<X<X<X<X<X",
"<X<X<X<X<X<X<X<X<X<X<XO O X . ; 4 e 7 % N D N n A 0.l.v.k m n.z.0.A n N D B d & 6 7   * O $ $ X <X<X<X<X<X<X<X<X<X<X",
"<X<X<X<X<X<X<X<X<X<X<X<X<X<X<X<X2 H ! 8 & V 6.S l A 9.x.9.S c.9.Z n S 6.N & 0 ! ! 2 - <X<X<X<X<X<X<X<X<X<X<X<X<X<X<X",
"<X<X<X<X<X<X<X<X<X<X<X<X<X<X<X<X<X<X: 2 , # A 6.D l D u.r.V e.S n D 6.B & < 3 1 = <X<X<X<X<X<X<X<X<X<X<X<X<X<X<X<X<X",
"<X<X<X<X<X<X<X<X<X<X<X<X<X<X<X<X<X<X<X<X-   d D 6.B N r.8.z 9.V A 6.S %   : - <X<X<X<X<X<X<X<X<X<X<X<X<X<X<X<X<X<X<X",
"<X<X<X<X<X<X<X<X<X<X<X<X<X<X<X<X<X<X<X<X<X<XX g B C k N d d z k Z B d X <X<X<X<X<X<X<X<X<X<X<X<X<X<X<X<X<X<X<X<X<X<X",
"<X<X<X<X<X<X<X<X<X<X<X<X<X<X<X<X<X<X<X<X<X<X<X<X@ # @ s c c s @ + O <X<X<X<X<X<X<X<X<X<X<X<X<X<X<X<X<X<X<X<X<X<X<X<X",
"<X<X<X<X<X<X<X<X<X<X<X<X<X<X<X<X<X<X<X<X<X<X<X<X<X<Xx O.O.O.O.s <X<X<X<X<X<X<X<X<X<X<X<X<X<X<X<X<X<X<X<X<X<X<X<X<X<X",
"<X<X<X<X<X<X<X<X<X<X<X<X<X<X<X<X<X<X<X<X<X<X<X<X<X<Xx i.i.i.O.x <X<X<X<X<X<X<X<X<X<X<X<X<X<X<X<X<X<X<X<X<X<X<X<X<X<X",
"<X<X<X<X<X<X<X<X<X<X<X<X<X<X<X<X<X<X<X<X<X<X<X<X<X<Xx p.d.d.s.@ <X<X<X<X<X<X<X<X<X<X<X<X<X<X<X<X<X<X<X<X<X<X<X<X<X<X",
"<X<X<X<X<X<X<X<X<X<X<X<X<X<X<X<X<X<X<X<X<X<X<X<X<X<Xx s.d.d.i.x <X<X<X<X<X<X<X<X<X<X<X<X<X<X<X<X<X<X<X<X<X<X<X<X<X<X",
"<X<X<X<X<X<X<X<X<X<X<X<X<X<X<X<X<X<X<X<X<X<X<X<X<X<Xx i.d.d.i.@ <X<X<X<X<X<X<X<X<X<X<X<X<X<X<X<X<X<X<X<X<X<X<X<X<X<X",
"<X<X<X<X<X<X<X<X<X<X<X<X<X<X<X<X<X<X<X<X<X<X<X<X<X<Xx i.f.d.i.@ <X<X<X<X<X<X<X<X<X<X<X<X<X<X<X<X<X<X<X<X<X<X<X<X<X<X",
"<X<X<X<X<X<X<X<X<X<X<X<X<X<X<X<X<X<X<X<X<X<X<X<X<X<Xx s.d.d.i.@ <X<X<X<X<X<X<X<X<X<X<X<X<X<X<X<X<X<X<X<X<X<X<X<X<X<X",
"<X<X<X<X<X<X<X<X<X<X<X<X<X<X<X<X<X<X<X<X<X<X<X<X<X<Xx p.d.d.i.x <X<X<X<X<X<X<X<X<X<X<X<X<X<X<X<X<X<X<X<X<X<X<X<X<X<X",
"<X<X<X<X<X<X<X<X<X<X<X<X<X<X<X<X<X<X<X<X<X<X<X<X<X<Xc a.d.d.s.x <X<X<X<X<X<X<X<X<X<X<X<X<X<X<X<X<X<X<X<X<X<X<X<X<X<X",
"<X<X<X<X<X<X<X<X<X<X<X<X<X<X<X<X<X<X<X<X<X<X<X<X<XX c a.f.f.a.c <X<X<X<X<X<X<X<X<X<X<X<X<X<X<X<X<X<X<X<X<X<X<X<X<X<X",
"<X<X<X<X<X<X<X<X<X<X<X<X<X<X<XX # h l l j $ X <X<XX M p.f.f.s.c X <X<XO d k z l h # X <X<X<X<X<X<X<X<X<X<X<X<X<X<X<X",
"<X<X<X<X<X<X<X<X<X<X<X<X<X<X<XX $ k S w.y.e.6.z % X M O.p.s.O.c X d z 7.y.e.7.C h # <X<X<X<X<X<X<X<X<X<X<X<X<X<X<X<X",
"<X<X<X<X<X<X<X<X<X<X<X<X<X<X<X<X<Xo O % l 6.9.y.y.C s M O.O.v f S y.y.7.D k $ X <X<X<X<X<X<X<X<X<X<X<X<X<X<X<X<X<X<X",
"<X<X<X<X<X<X<X<X<X<X<X<X<X<X<X<XX # g k g d j B r.v.r.f M v d z.x.9.V j % h g $ X <X<X<X<X<X<X<X<X<X<X<X<X<X<X<X<X<X",
"<X<X<X<X<X<X<X<X<X<X<X<X<X<XO j V A 6.D D l d k N u.n.r.@ f z.n.w.l k % N G G S N j $ <X<X<X<X<X<X<X<X<X<X<X<X<X<X<X",
"<X<X<X<X<X<X<X<X<X<X<X<X<X$ 7.c.x.z.r.B n n d d l S c.b.k C n.k.B n d h V l B 9.r.k.u.z O <X<X<X<X<X<X<X<X<X<X<X<X<X",
"<X<X<X<X<X<X<X<X<X<X<X<X<X$ z 0.g.l.b.k.9.D N % B l e.c.F F c.7.n V % B S 6.k.b.v.l.u.6.$ <X<X<X<X<X<X<X<X<X<X<X<X<X",
"<X<X<X<X<X<X<X<X<X<X<X<X<X<X<X<XX % Z u.j.w.6.k k z C e.l z w.V N d V 8.r.j.k.0.k $ O X <X<X<X<X<X<X<X<X<X<X<X<X<X<X",
"<X<X<X<X<X<X<X<X<X<X<X<X<X<X<X<X<X<X<Xd F u.y.D g $ # d O $ d + $ k 8.y.u.F g X <X<X<X<X<X<X<X<X<X<X<X<X<X<X<X<X<X<X",
"<X<X<X<X<X<X<X<X<X<X<X<X<X<X<X<X<X<X<X<XX d A 6.N # o <X<X<X<Xo % A 6.A d X <X<X<X<X<X<X<X<X<X<X<X<X<X<X<X<X<X<X<X<X",
"<X<X<X<X<X<X<X<X<X<X<X<X<X<X<X<X<X<X<X<X<X<Xo O O <X<X<X<X<X<X<XX O O o <X<X<X<X<X<X<X<X<X<X<X<X<X<X<X<X<X<X<X<X<X<X"
};
