/* XPM */
static char *result[] = {
/* columns rows colors chars-per-pixel */
"58 60 205 2 ",
"   c #12181A",
".  c #07280B",
"X  c #0A2C0D",
"o  c #06270A",
"O  c #0E310E",
"+  c #11340F",
"@  c #0E2611",
"#  c #0C3E19",
"$  c #133412",
"%  c #153A12",
"&  c #1A3E13",
"*  c #1D3819",
"=  c #17261B",
"-  c #1D0A28",
";  c #1C0B26",
":  c #1C162E",
">  c #220C2B",
",  c #28132B",
"<  c #37182C",
"1  c #290F31",
"2  c #2D1135",
"3  c #2B1E30",
"4  c #351739",
"5  c #1B243D",
"6  c #1C2324",
"7  c #27262B",
"8  c #3C252F",
"9  c #253722",
"0  c #2D2C31",
"q  c #2A2638",
"w  c #382934",
"e  c #383539",
"r  c #2F3033",
"t  c #4A1E2E",
"y  c #411F30",
"u  c #4C202F",
"i  c #44222E",
"p  c #402738",
"a  c #0B441D",
"s  c #1D4214",
"d  c #154218",
"f  c #214617",
"g  c #254B19",
"h  c #27491A",
"j  c #2C531B",
"k  c #335C1E",
"l  c #30501F",
"z  c #38621F",
"x  c #0B4A22",
"c  c #0C572B",
"v  c #0D5E30",
"b  c #355E20",
"n  c #395F22",
"m  c #334927",
"M  c #0C6636",
"N  c #0E743F",
"B  c #3B6522",
"V  c #3E6823",
"C  c #396023",
"Z  c #426C24",
"A  c #416528",
"S  c #457125",
"D  c #4E7A2B",
"F  c #4A7627",
"G  c #517E2D",
"H  c #557B31",
"J  c #3D1942",
"K  c #1E2740",
"L  c #242C45",
"P  c #2D2E4C",
"I  c #292944",
"U  c #342B4C",
"Y  c #3A2A4F",
"T  c #2C334C",
"R  c #27314C",
"E  c #3D3E43",
"W  c #2E3551",
"Q  c #343C54",
"!  c #333B58",
"~  c #3E2A51",
"^  c #471D49",
"/  c #4A274A",
"(  c #4A2C57",
")  c #542454",
"_  c #542E5C",
"`  c #5B2A5B",
"'  c #592758",
"]  c #4F364C",
"[  c #5F2F61",
"{  c #6A2E65",
"}  c #692D65",
"|  c #6C336A",
" . c #6A3465",
".. c #72316C",
"X. c #743D6B",
"o. c #7B3574",
"O. c #7C3875",
"+. c #763672",
"@. c #712F6C",
"#. c #602A5D",
"$. c #3B445C",
"%. c #3F434C",
"&. c #0E7842",
"*. c #3C4563",
"=. c #3E4863",
"-. c #464549",
";. c #4D4E53",
":. c #565759",
">. c #4A505D",
",. c #434C6B",
"<. c #434C66",
"1. c #5C5E65",
"2. c #4B5373",
"3. c #535B7B",
"4. c #4A526A",
"5. c #56617C",
"6. c #5E636F",
"7. c #67676A",
"8. c #757576",
"9. c #6C6E73",
"0. c #843B7B",
"q. c #823A79",
"w. c #86417B",
"e. c #54822D",
"r. c #5B8B2E",
"t. c #56852C",
"y. c #5D8B30",
"u. c #649433",
"i. c #6A9C34",
"p. c #6A9737",
"a. c #608D31",
"s. c #6EA135",
"d. c #75A938",
"f. c #7CB13B",
"g. c #088C4E",
"h. c #0A854A",
"j. c #079353",
"k. c #059C59",
"l. c #088F50",
"z. c #00AF64",
"x. c #00B065",
"c. c #769B46",
"v. c #7EA24A",
"b. c #85BC3D",
"n. c #85AA4C",
"m. c #88B747",
"M. c #90B751",
"N. c #97C84C",
"B. c #A6CD5D",
"V. c #A9D25D",
"C. c #B1D763",
"Z. c #585E81",
"A. c #5C6485",
"S. c #626A8B",
"D. c #696D93",
"F. c #72799B",
"G. c #72768C",
"H. c #777CA2",
"J. c #8C3D82",
"K. c #913F86",
"L. c #924286",
"P. c #964289",
"I. c #9A448D",
"U. c #9B4A8B",
"Y. c #9E4490",
"T. c #8D4281",
"R. c #A44796",
"E. c #A54896",
"W. c #A74898",
"Q. c #AB4A9C",
"!. c #AC5299",
"~. c #B3559E",
"^. c #BD5AA6",
"/. c #C35DAB",
"(. c #C861AE",
"). c #CD63B2",
"_. c #D86ABB",
"`. c #D568B8",
"'. c #7C8290",
"]. c #7D82A8",
"[. c #88888A",
"{. c #969798",
"}. c #8289AC",
"|. c #8C95B6",
" X c #929ABD",
".X c #868FB1",
"XX c #9BA1B1",
"oX c #A8A8A9",
"OX c #BABABA",
"+X c #AFAFB0",
"@X c #969CC2",
"#X c #9CA5C7",
"$X c #A2AACD",
"%X c #A5ACD1",
"&X c #A8AFD3",
"*X c #ABB3D6",
"=X c #B2BBDC",
"-X c #B0B7DC",
";X c #A6B1CF",
":X c #BBC6E4",
">X c #C9C8C8",
",X c #D0D0D0",
"<X c #C6D1EE",
"1X c #C7D3F0",
"2X c None",
/* pixels */
"2X2X2X2X2X2X2X2X2X2X2X2X2X2X2X2X2X2X2X2X2X2X2X2X2X2X2X2X2X2X2X2X2X2X2X2X2X2X2X2X2X2X2X2X2X2X2X2X2X2X2X2X2X2X2X2X2X2X",
"2X2X2X2X2X2X2X2X2X2X2X2X2X2X2X2X2X2X2X2X2X2X2X2X2X2X2X2X2X2X2X2X2X2X2X2X2X2X2X2X2X2X2X2X2X2X2X2X2X2X2X2X2X2X2X2X2X2X",
"2X2X2X2X2X2X2X2X2X2Xe m 0 2X2X2X2X2X2X2X2X2X2X2X2X2X2X2X2X2X2X2X2X2X2X2X2X2X2X2X2X2X2X2X2Xe E 2X2X2X2X2X2X2X2X2X2X2X",
"2X2X2X2X2X2X2X2X2X-.[.7.2X2X2X2X2X2X2X2X2X2X2X2X2X2X2X2X2X2X2X2X2X2X2X2X2X2X2X2X2X2X2X2X2Xe {.7.r 2X2X2X2X2X2X2X2X2X",
"2X2X2X2X2X2X2X0 1.+X+Xp 2X2X2X2X2X2X2X2X2X2X2X2X2X2X2X2X2X2X2X2X2X2X2X2X2X2X2X2X2X2X2X2X2X7 8.>X[.%.2X2X2X2X2X2X2X2X",
"2X2X2X2X2XL R 1.OX,X7.7 2X2X2X2X2X2X2X2X2X2X2X2X2X2X2X2X2X2X2X2X2X2X2X2X2X2X2X2X2X2X2X2X2X2X-.oX,X{.T $.K 2X2X2X2X2X",
"2X2X2X5 $.|.A.9.OX[.e > 2X2X2X2X2X2X2X2X2X2X2X2X2X2X2X2X2X2X2X2X2X2X2X2X2X2X2X2X2X2X2X2X2X2X7 :.oXoX=.#X'.Q 2X2X2X2X",
"2X2X5 S.=X1X].>.[.;.8 < - 2X2X2X2X2X2X2X2X2X2X2X2X2X2X2X2X2X2X2X2X2X2X2X2X2X2X2X2X2X2X2X2X2X, e 8.9.=.:X1X#X,.2X2X2X",
"2X5 S.:X1X1X#X$.9.e u u , 7 r 2X2X2X2X2X2X2X2X2X2X2X2X2X2X2X2X2X2X2X2X2X2X2X2X2X2X2Xr r 2X> y 8 :.1.5.<X1X<X&X*.2X2X",
"2XT  X=X-X:X:X,.-.8 u u r 7.;.2X2X2X2X2X2X2X2X2X2X2X2X2X2X2X2X2X2X2X2X2X2X2X2X2X2X2Xr 9.-.< u i e %.|.:X-X&X%XZ.5 2X",
"2XQ F.].}.@X=X.XL i u 8 7.OX;.2X2X2X2X2X2X2X2X2X2X2X2X2X2X2X2X2X2X2X2X2X2X2X2X2X2X2X7 [.oXe i u 0 2.=X#X].H.H.Z.K 2X",
"2XR 2.2.Z.S.].$XS.q i -.OXOXp , 2X2X2X2X2X2X2X2X2X2X2X2X2X2X2X2X2X2X2X2X2X2X2X2X2X2X3 8.>X[.w 8 Q  X|.D.Z.2.*.! K 2X",
"2X5 5 5 L T ,.H.#X5.q 9.>XoXp i , 7 e r 2X2X2X2X2X2X2X2X2X2X2X2X2X2X2X2X2X2Xr e 2X, < 7.>XoX-.T |. XZ.! I : 2X2X2X2X",
"2X2X2X2X2 } U =.].;XS.$.!.v.e i i 1.[.0 2X2X2X2X2X2X2X2X2X2X2X2X2X2X2X2X2X2X;.'.e < i -.{.6.=. X@XA.T _ ' 1 2X2X2X2X",
"2X2X2X2X2 O.O.U <.].=X.X=.$.r r ;.OX[., > 2X2X2X2X2X2X2X2X2X2X2X2X2X2X2X2X; -.OX[.r i r Q 5.&X#XA.W _ L.#.- 2X2X2X2X",
"2X2X2X2X2 +.W.O.U <.].=X*XS.R 5 9.OX8.8 < , q r 2X2X2X2X2X2X2X2X2X0 r 2X> < p oXoX-.q $.}.:X#XS.W _ P.Y.' - 2X2X2X2X",
"2X2X2X2X1 } W.W.+.U *.H.*X:X#X5.%.6.:.8 t w 7.] 2X2X2X2X2X2X2X2X2X2X;.-.8 t e 9.4.$.F.=X:X@XA.W _ K.Q.K.^ - 2X2X2X2X",
"2X2X2X2X- ^ Y.Q.W.O.Y ! D.@X-X:X X5.T q w 8.{.r ; 2X2X2X2X2X2X2X2X, :.{.-.8 q Q G.;X:X;X.X2.P _ K.Q.Q.q.2 2X2X2X2X2X",
"2X2X2X2X- 2 o.Q.Q.W.0._ P ,.D..X&X=X|.3.T 1.1.i < - 2X2X2X2X2X2X- , e '.;.L A.#X=X$X].5.! U | I.Q.Q.R.' > 2X2X2X2X2X",
"2X2X2X2X2X2 ) J.Q.Q.W.I.| ~ T ! 3.].#X*X|.3.R q u < - 2X2X2X2X- , i 0 $.3. X*X@XF.2.W P _ O.R.Q.Q.Q.@./ 1 2X2X2X2X2X",
"2X2X2X2X2X2 ` } O.R.Q.Q.R.K.o.` U T ,.H.#X*X.X2.q i , 2X2X2X2X> q q =.].*X#XF.=.P ~ } O.Y.Q.Q.Q.K.@.} ) > 2X2X2X2X2X",
"2X2X2X2X2X> ) 0.o.@.o.K.R.Q.Q.E.J.| ( P 2.].%X&XS.I 4 - 2X2X- < R S.%X%X].2.P ( | K.W.Q.Q.Y.0.| @.J...J 2X2X2X2X2X2X",
"2X2X2X2X2X2X2 { R.Y.P.w.X.q.P.E.Q.W.K.| U W A.|.$XA.I , 2X2X, L S.;X@XA.! U | K.W.Q.W.K.O.O.L.E.Q.K.) > 2X2X2X2X2X2X",
"2X2X2X2X2X2X> J ..W.).`.(.!.w.O.0.Y.Q.W.J._ P ,.].H.2.L - - 5 2.!.}.,.R _ J.W.Q.Y.0.o.T.!.)._./.K.` 4 - 2X2X2X2X2X2X",
"2X2X2X2X2X2X- J ) } P.)._._.`.^.U.o.o.Y.Q.Y.| Y =.D.D.*.: : *.D.D.,.U } I.Q.Y.o.O.U./.`._._./.0.} ) 4 2X2X2X2X2X2X2X",
"2X2X2X2X2X2X2X1 #.} } o.U.^.)._._.(.U.@.0.W.W.O.~ ! D.S.R L S.D.*.U ..R.W.J...I.(._.`.(.~.P...{ { ) > 2X2X2X2X2X2X2X",
"2X2X2X2X2X2X2X- J @.q.K.0.0.0.U.^._._.Q.@...E.Q.0.Y *.D.*.*.D.*.Y o.W.W.+.@.Q._._.^.U.q.w.P.K.+.} 2 2X2X2X2X2X2X2X2X",
"2X2X2X2X2X2X2X2X> / { o.E./.^.U.q.P././.Q.o...E.Q.O.U ,.2.*.2.U +.W.Q.o.+.R.(.(.U.q.U././.I.+.} ^ - 2X2X2X2X2X2X2X2X",
"2X2X2X2X2X2X2X2X2X> ^ ' ..L./.).^.X._  .X. .] ..I.O.[ T *.R P [ 0.W.o.` q.0.q. .w.(.).^.J.{ ' J - 2X2X2X2X2X2X2X2X2X",
"2X2X2X2X2X2X2X2X2X2X> ^ / / ` ] m m z z B b l 9 r /  ._ R K ( } / e 9 h l l j f m ] X.} ) ^ J > 2X2X2X2X2X2X2X2X2X2X",
"2X2X2X2X2X2X2X2X2X2X2X2 w 7 j F i.d.d.f.d.f.m.M.v.A 7 / U I / 9 A c.M.m.f.f.f.d.i.t.k * 7 / 1 2X2X2X2X2X2X2X2X2X2X2X",
"2X2X2X2X2X2X2X2X2X2X2X@ f S r.t.e.D e.t.G S e.p.m.B.v.h 7 : h v.B.m.p.r.F e.t.r.r.u.i.r.C *   2X2X2X2X2X2X2X2X2X2X2X",
"2X2X2X2X2X2X2X2X2X2X2X& b j f * * s g B D V b B e.p.B.M.% * M.B.p.G V k z D S k g f g b A B s 2X2X2X2X2X2X2X2X2X2X2X",
"2X2X2X2X2X2X2X2X2X2X2XO O 2X  ; 4 ) w 6 s D D B b D p.V.H F V.u.D b B D e.j $ 7 p q   @ O % $ X 2X2X2X2X2X2X2X2X2X2X",
"2X2X2X2X2X2X2X2X2X2X2X2X2X2X2X2X- 2 ^ J 7 f D e.V b D f.u.V d.D b S e.D f 7 J / J > 2X2X2X2X2X2X2X2X2X2X2X2X2X2X2X2X",
"2X2X2X2X2X2X2X2X2X2X2X2X2X2X2X2X2X2X- > 2 = k e.e.B S i.a.B u.V B e.e.j 6 4 1 > 2X2X2X2X2X2X2X2X2X2X2X2X2X2X2X2X2X2X",
"2X2X2X2X2X2X2X2X2X2X2X2X2X2X2X2X2X2X2X2X2X  O C e.D b G k j G b D G b @ ; - 2X2X2X2X2X2X2X2X2X2X2X2X2X2X2X2X2X2X2X2X",
"2X2X2X2X2X2X2X2X2X2X2X2X2X2X2X2X2X2X2X2X2X2X2XX s s & # a a % $ g & X 2X2X2X2X2X2X2X2X2X2X2X2X2X2X2X2X2X2X2X2X2X2X2X",
"2X2X2X2X2X2X2X2X2X2X2X2X2X2X2X2X2X2X2X2X2X2X2X2X2XX x M &.N M a o 2X2X2X2X2X2X2X2X2X2X2X2X2X2X2X2X2X2X2X2X2X2X2X2X2X",
"2X2X2X2X2X2X2X2X2X2X2X2X2X2X2X2X2X2X2X2X2X2X2X2X2X2Xc &.&.&.&.x 2X2X2X2X2X2X2X2X2X2X2X2X2X2X2X2X2X2X2X2X2X2X2X2X2X2X",
"2X2X2X2X2X2X2X2X2X2X2X2X2X2X2X2X2X2X2X2X2X2X2X2X2X2Xx g.g.l.h.x 2X2X2X2X2X2X2X2X2X2X2X2X2X2X2X2X2X2X2X2X2X2X2X2X2X2X",
"2X2X2X2X2X2X2X2X2X2X2X2X2X2X2X2X2X2X2X2X2X2X2X2X2X2Xx j.z.z.g.# 2X2X2X2X2X2X2X2X2X2X2X2X2X2X2X2X2X2X2X2X2X2X2X2X2X2X",
"2X2X2X2X2X2X2X2X2X2X2X2X2X2X2X2X2X2X2X2X2X2X2X2X2X2Xa l.z.z.g.# 2X2X2X2X2X2X2X2X2X2X2X2X2X2X2X2X2X2X2X2X2X2X2X2X2X2X",
"2X2X2X2X2X2X2X2X2X2X2X2X2X2X2X2X2X2X2X2X2X2X2X2X2X2Xx l.z.z.h.# 2X2X2X2X2X2X2X2X2X2X2X2X2X2X2X2X2X2X2X2X2X2X2X2X2X2X",
"2X2X2X2X2X2X2X2X2X2X2X2X2X2X2X2X2X2X2X2X2X2X2X2X2X2Xx g.z.z.h.# 2X2X2X2X2X2X2X2X2X2X2X2X2X2X2X2X2X2X2X2X2X2X2X2X2X2X",
"2X2X2X2X2X2X2X2X2X2X2X2X2X2X2X2X2X2X2X2X2X2X2X2X2X2Xx g.z.z.h.a 2X2X2X2X2X2X2X2X2X2X2X2X2X2X2X2X2X2X2X2X2X2X2X2X2X2X",
"2X2X2X2X2X2X2X2X2X2X2X2X2X2X2X2X2X2X2X2X2X2X2X2X2X2Xx j.z.z.h.x 2X2X2X2X2X2X2X2X2X2X2X2X2X2X2X2X2X2X2X2X2X2X2X2X2X2X",
"2X2X2X2X2X2X2X2X2X2X2X2X2X2X2X2X2X2X2X2X2X2X2X2X2X2Xc k.z.z.j.x 2X2X2X2X2X2X2X2X2X2X2X2X2X2X2X2X2X2X2X2X2X2X2X2X2X2X",
"2X2X2X2X2X2X2X2X2X2X2X2X2X2X2X2X2X2X2X2X2X2X2X2X2XX c k.x.x.j.c 2X2X2X2X2X2X2XX X 2X2X2X2X2X2X2X2X2X2X2X2X2X2X2X2X2X",
"2X2X2X2X2X2X2X2X2X2X2X2X2X2X2XX $ j z V j s O 2X2XX v j.x.x.g.c X 2X2XO f z Z B j + 2X2X2X2X2X2X2X2X2X2X2X2X2X2X2X2X",
"2X2X2X2X2X2X2X2X2X2X2X2X2X2X2X2X$ g V r.s.s.r.z & X M &.l.g.&.c X s z a.s.i.e.k s X 2X2X2X2X2X2X2X2X2X2X2X2X2X2X2X2X",
"2X2X2X2X2X2X2X2X2X2X2X2X2X2X2X2X2Xo X % j D r.s.i.V a M &.&.v d F d.s.r.F g O X 2X2X2X2X2X2X2X2X2X2X2X2X2X2X2X2X2X2X",
"2X2X2X2X2X2X2X2X2X2X2X2X2X2X2X2XX % g b j s g V u.N.c.& M c s n.N.r.C g & g f & O 2X2X2X2X2X2X2X2X2X2X2X2X2X2X2X2X2X",
"2X2X2X2X2X2X2X2X2X2X2X2X2X2Xs z S D G D F k & j B d.C.p.# d m.C.u.k j s V e.G D B j s o 2X2X2X2X2X2X2X2X2X2X2X2X2X2X",
"2X2X2X2X2X2X2X2X2X2X2X2X2Xs u.N.B.M.s.S b b s f z F N.V.j Z V.m.V b & g z k Z y.d.M.m.F $ 2X2X2X2X2X2X2X2X2X2X2X2X2X",
"2X2X2X2X2X2X2X2X2X2X2X2X2XO g A a.n.V.m.u.D V & z k i.N.F F N.r.b n & V F r.m.V.B.n.u.S $ 2X2X2X2X2X2X2X2X2X2X2X2X2X",
"2X2X2X2X2X2X2X2X2X2X2X2X2X2X2X2Xo $ n d.b.u.t.j j C Z i.k z u.B B f C e.i.b.m.G g O X 2X2X2X2X2X2X2X2X2X2X2X2X2X2X2X",
"2X2X2X2X2X2X2X2X2X2X2X2X2X2X2X2X2X2X2X$ S d.s.D s % % s + % s % % g e.d.d.F s o 2X2X2X2X2X2X2X2X2X2X2X2X2X2X2X2X2X2X",
"2X2X2X2X2X2X2X2X2X2X2X2X2X2X2X2X2X2X2X2X. s S e.V + o 2X2X2X2Xo % S t.S s X 2X2X2X2X2X2X2X2X2X2X2X2X2X2X2X2X2X2X2X2X",
"2X2X2X2X2X2X2X2X2X2X2X2X2X2X2X2X2X2X2X2X2X2Xo O O 2X2X2X2X2X2X2XX O O o 2X2X2X2X2X2X2X2X2X2X2X2X2X2X2X2X2X2X2X2X2X2X"
};
