/* XPM */
static char *result[] = {
/* columns rows colors chars-per-pixel */
"58 60 216 2 ",
"   c #07290B",
".  c #0A2C0D",
"X  c #07270A",
"o  c #0E310E",
"O  c #10340F",
"+  c #162D17",
"@  c #143412",
"#  c #153A12",
"$  c #193D14",
"%  c #1B381A",
"&  c #0F3815",
"*  c #1B0A26",
"=  c #1E0A29",
"-  c #1F1228",
";  c #220B2B",
":  c #2A0F2A",
">  c #26152A",
",  c #38192C",
"<  c #281432",
"1  c #36183A",
"2  c #280F31",
"3  c #1B253E",
"4  c #2B2C2E",
"5  c #28262B",
"6  c #3A232E",
"7  c #2D2C32",
"8  c #282A39",
"9  c #352635",
"0  c #323234",
"q  c #3A3939",
"w  c #2B3328",
"e  c #44222F",
"r  c #412738",
"t  c #481D2E",
"y  c #1D4215",
"u  c #154619",
"i  c #0B421B",
"p  c #214616",
"a  c #234A17",
"s  c #254B19",
"d  c #284E1A",
"f  c #2C541B",
"g  c #2F581C",
"h  c #335C1E",
"j  c #31561E",
"k  c #0A4821",
"l  c #0B5227",
"z  c #365E20",
"x  c #395826",
"c  c #304A23",
"v  c #076937",
"b  c #376021",
"n  c #3A6422",
"m  c #3E6923",
"M  c #37611E",
"N  c #426C25",
"B  c #426728",
"V  c #457125",
"C  c #497529",
"Z  c #4E7A2B",
"A  c #4B7826",
"S  c #517D2D",
"D  c #5B7F37",
"F  c #3C1941",
"G  c #1E2841",
"H  c #2E2D4C",
"J  c #252C44",
"K  c #342B4D",
"L  c #38294B",
"P  c #2B324D",
"I  c #293147",
"U  c #3C3C43",
"Y  c #323A4B",
"T  c #3B2C51",
"R  c #2D3551",
"E  c #2E3854",
"W  c #333B55",
"Q  c #343C5A",
"!  c #303653",
"~  c #421B45",
"^  c #491F4B",
"/  c #461D49",
"(  c #492649",
")  c #483747",
"_  c #432B53",
"`  c #4B2C57",
"'  c #572959",
"]  c #593555",
"[  c #622A5F",
"{  c #643B5D",
"}  c #5E3163",
"|  c #652C61",
" . c #6A2D66",
".. c #6D2E68",
"X. c #6D326A",
"o. c #6B3766",
"O. c #73336D",
"+. c #763D6D",
"@. c #7B3673",
"#. c #7C3874",
"$. c #722F6D",
"%. c #384259",
"&. c #077942",
"*. c #3C4563",
"=. c #3F4863",
"-. c #434245",
";. c #4B4B4D",
":. c #464649",
">. c #4C4E54",
",. c #565658",
"<. c #505158",
"1. c #444C6B",
"2. c #404867",
"3. c #565B66",
"4. c #4C5474",
"5. c #4E5872",
"6. c #535C7A",
"7. c #475069",
"8. c #78476C",
"9. c #59637E",
"0. c #65676C",
"q. c #6C6D71",
"w. c #777778",
"e. c #6F7276",
"r. c #853B7B",
"t. c #843A7A",
"y. c #8A417E",
"u. c #55832D",
"i. c #5A892E",
"p. c #58872E",
"a. c #5E8C31",
"s. c #5C8334",
"d. c #5F902E",
"f. c #639232",
"g. c #6A9B33",
"h. c #6B9937",
"j. c #658F36",
"k. c #6FA136",
"l. c #79AD3A",
"z. c #74A639",
"x. c #7EB43B",
"c. c #05894C",
"v. c #069654",
"b. c #01AD63",
"n. c #00B165",
"m. c #729741",
"M. c #7CA645",
"N. c #83B93C",
"B. c #83AA49",
"V. c #8CB94A",
"C. c #95C44C",
"Z. c #9CC653",
"A. c #8EC641",
"S. c #A5CC5C",
"D. c #AAD25D",
"F. c #ADD362",
"G. c #B7DC67",
"H. c #5C6485",
"J. c #63698C",
"K. c #676D92",
"L. c #6A7293",
"P. c #6E7598",
"I. c #737A9C",
"U. c #72779C",
"Y. c #707687",
"T. c #767CA1",
"R. c #585F82",
"E. c #8C3D82",
"W. c #913E86",
"Q. c #933F88",
"!. c #934385",
"~. c #964189",
"^. c #9A428D",
"/. c #9D4B8C",
"(. c #9E4491",
"). c #8E4381",
"_. c #A34694",
"`. c #AC4A9C",
"'. c #A64C95",
"]. c #AC5398",
"[. c #B2579D",
"{. c #A84C97",
"}. c #BA58A3",
"|. c #C35EAB",
" X c #CC64B2",
".X c #D569B9",
"XX c #D96ABB",
"oX c #D267B6",
"OX c #C962AF",
"+X c #77829E",
"@X c #7E87A7",
"#X c #888889",
"$X c #9A9A9B",
"%X c #8D8F93",
"&X c #8289AC",
"*X c #878EB3",
"=X c #8D95B8",
"-X c #9299BC",
";X c #8792AE",
":X c #A6A6A6",
">X c #B8B8B8",
",X c #9FA0A0",
"<X c #969CC2",
"1X c #9CA3C8",
"2X c #A2AACD",
"3X c #A6ACD3",
"4X c #ABB3D6",
"5X c #B2BBDD",
"6X c #B6BFE1",
"7X c #BAC4E4",
"8X c #BCC6E6",
"9X c #CBCBCB",
"0X c #C2CEEB",
"qX c #C6D2EE",
"wX c #CBD7F3",
"eX c None",
/* pixels */
"eXeXeXeXeXeXeXeXeXeXeXeXeXeXeXeXeXeXeXeXeXeXeXeXeXeXeXeXeXeXeXeXeXeXeXeXeXeXeXeXeXeXeXeXeXeXeXeXeXeXeXeXeXeXeXeXeXeX",
"eXeXeXeXeXeXeXeXeXeXeXeXeXeXeXeXeXeXeXeXeXeXeXeXeXeXeXeXeXeXeXeXeXeXeXeXeXeXeXeXeXeXeXeXeXeXeXeXeXeXeXeXeXeXeXeXeXeX",
"eXeXeXeXeXeXeXeXeXeXeXeXeXeXeXeXeXeXeXeXeXeXeXeXeXeXeXeXeXeXeXeXeXeXeXeXeXeXeXeXeXeXeXeXeXeXeXeXeXeXeXeXeXeXeXeXeXeX",
"eXeXeXeXeXeXeXeXeXeXeXeXeXeXeXeXeXeXeXeXeXeXeXeXeXeXeXeXeXeXeXeXeXeXeXeXeXeXeXeXeXeXeXeXeXeXeXeXeXeXeXeXeXeXeXeXeXeX",
"eXeXeXeXeXeXeXeXeXeXeXeXeXeXeXeXeXeXeXeXeXeXeXeXeXeXeXeXeXeXeXeXeXeXeXeXeXeXeXeXeXeXeXeXeXeXeXeXeXeXeXeXeXeXeXeXeXeX",
"eXeXeXeXeXeXeXeXeXeXeXeXeXeXeXeXeXeXeXeXeXeXeXeXeXeXeXeXeXeXeXeXeXeXeXeXeXeXeXeXeXeXeXeXeXeXeXeXeXeXeXeXeXeXeXeXeXeX",
"eXeXeXeXeXeXeXeXeXeXeXeXeXeXeXeXeXeXeXeXeXeXeXeXeXeXeXeXeXeXeXeXeXeXeXeXeXeXeXeXeXeXeXeXeXeXeXeXeXeXeXeXeXeXeXeXeXeX",
"eXeXeXeXeXeXeXeXeXeXeXeXeXeXeXeXeXeXeXeXeXeXeXeXeXeXeXeXeXeXeXeXeXeXeXeXeXeXeXeXeXeXeXeXeXeXeXeXeXeXeXeXeXeXeXeXeXeX",
"eXeXeXeXeXeXeXeXeXeXeXeXeXeXeXeXeXeXeXeXeXeXeXeXeXeXeXeXeXeXeXeXeXeXeXeXeXeXeXeXeXeXeXeXeXeXeXeXeXeXeXeXeXeXeXeXeXeX",
"eXeXeXeXeXeXeXeXeXeXeXeXeXeXeXeXeXeXeXeXeXeXeXeXeXeXeXeXeXeXeXeXeXeXeXeXeXeXeXeXeXeXeXeXeXeXeXeXeXeXeXeXeXeXeXeXeXeX",
"eXeXeXeXeXeXeXeXeXeXeXeXeXeXeXeXeXeXeXeXeXeXeXeXeXeXeXeXeXeXeXeXeXeXeXeXeXeXeXeXeXeXeXeXeXeXeXeXeXeXeXeXeXeXeXeXeXeX",
"eXeXeXeXeXeXeXeXeXeXeXeXeXeXeXeXeXeX0 -.%.4 eXeXeXeXeXeXeXeXeXeXeXeXeXeX7 :.;.0 eXeXeXeXeXeXeXeXeXeXeXeXeXeXeXeXeXeX",
"eXeXeXeXeXeXeXeXeXeXeXeXeX3 3 8 :.q.,X$X-.eXeXeXeXeXeXeXeXeXeXeXeXeXeXeXeX>.:X,Xq.:.8 G G eXeXeXeXeXeXeXeXeXeXeXeXeX",
"eXeXeXeXeXeXeXeXeXeX3 %.6.+X6.3.>X9X>X;.eXeXeXeXeXeXeXeXeXeXeXeXeXeXeXeXeXeX,.>X9X>X>.K.@XR.Q 3 eXeXeXeXeXeXeXeXeXeX",
"eXeXeXeXeXeXeXeXeXR I.4X0XqX9.w.>X:X;.eXeXeXeXeXeXeXeXeXeXeXeXeXeXeXeXeXeXeX7 <.:X5X3.P.wXqX4XP.P eXeXeXeXeXeXeXeXeX",
"eXeXeXeXeXeXeXeX3 L.7X8XqX0X5.0.w.:.4 eXeXeXeXeXeXeXeXeXeXeXeXeXeXeXeXeXeXeXeX9 >.m.3.H.qXqX8X5XH.3 eXeXeXeXeXeXeXeX",
"eXeXeXeXeXeXeXeXE P.*X1X7X0X5.3.<.5 eXeXeXeXeXeXeXeXeXeXeXeXeXeXeXeXeXeXeXeXeXeX5 ,.3.J.0X5X<X*XK.P eXeXeXeXeXeXeXeX",
"eXeXeXeXeXeXeXeXE 6.K.T.-X8XH.U 6 > eXeXeXeXeXeXeXeXeXeXeXeXeXeXeXeXeXeXeXeXeX* , 0 U +X6X*XT.H.4.I eXeXeXeXeXeXeXeX",
"eXeXeXeXeXeXeXeXeXG P 4.L.1X&X8 e , > 0 >.c eXeXeXeXeXeXeXeXeXeXeXeXeXeX-.,.7 < t e J -X<XH.=.J 3 eXeXeXeXeXeXeXeXeX",
"eXeXeXeXeXeXeXeXeXeX2 H *.T.1XW e 6 ) %X,Xr eXeXeXeXeXeXeXeXeXeXeXeXeXeX:.:X#Xq 6 6 7.1XK.Q K ; eXeXeXeXeXeXeXeXeXeX",
"eXeXeXeXeXeXeXeXeXeXF  .K 4.<XL.8 :.,X9Xq.eXeXeXeXeXeXeXeXeXeXeXeXeXeXeXw +X9X$X:.8 &X=X2._ ..1 eXeXeXeXeXeXeXeXeXeX",
"eXeXeXeXeXeXeXeXeXeX/ E.} W T.3X%.0.9X>Xq eXeXeXeXeXeXeXeXeXeXeXeXeXeXeXeX>.>X>X<.6.2XK.R o.E.F eXeXeXeXeXeXeXeXeXeX",
"eXeXeXeXeXeXeXeXeX* ' ^.E.K 4.1X-X%.%Xq.9 * eXw 0 eXeXeXeXeXeXeXeX0 7 eX: 6 w.w.=.2X=X2._ ~.^.^ * eXeXeXeXeXeXeXeXeX",
"eXeXeXeXeXeXeXeXeX= ' _._.} E T.5X+X%.q 6 , %.q.:.eXeXeXeXeXeXeXeX;.w.q 6 6 U %.-X4XJ.P O.`.(.( = eXeXeXeXeXeXeXeXeX",
"eXeXeXeXeXeXeXeXeX; ' _.`.W.T 1.-X8XL.8 9 <.>X$Xq eXeXeXeXeXeXeXeXU :X:X;.9 I ;X7X&XQ ` Q.`.(./ = eXeXeXeXeXeXeXeXeX",
"eXeXeXeXeXeXeXeXeX; / ^.`.`.X.H H.2X7XY.I w.>Xq.< eXeXeXeXeXeXeXeX5 #X>X0.P ;X8X<X4.K t.`.`.Q.~ ; eXeXeXeXeXeXeXeXeX",
"eXeXeXeXeXeXeXeXeX2 ^ t.`.`.(.' E P.3X7XL.%.w.-., ; eXeX4 7 eX- : , ;.q.%.;X7X1XH.H  ._.`.`.$.^ ; eXeXeXeXeXeXeXeXeX",
"eXeXeXeXeXeXeXeXeX2 |  .Q.`.`.W._ W L.1X7X+XE 9 e 9 U :.4 7 ;.U 6 e 7 Q =X7X=XH.R ' (.`.`.Q.| ' ; eXeXeXeXeXeXeXeXeX",
"eXeXeXeXeXeXeXeXeX2 | r. .^.`.`.)._ R R.<X5XT.J 9 0.,X>.eXeX,.:X,.8 W =X5X&X1.H } Q.`.`.Q. .r.' ; eXeXeXeXeXeXeXeXeX",
"eXeXeXeXeXeXeXeXeX; ( Q.E. .E.`.`.!.} H 1.*X4X@XR q.e.5 ; ; 4 e.3.*.-X4XT.Q K X.^.`._.t.$.Q.Q.~ ; eXeXeXeXeXeXeXeXeX",
"eXeXeXeXeXeXeXeXeX= F @.`.`.t.#._.`.(.O.L Q @X4X*XQ 0 , ; : e 8 1.1X3XK.R _ t._.`.^.@.E.`.`...1 = eXeXeXeXeXeXeXeXeX",
"eXeXeXeXeXeXeXeXeX= / ' Q. X X/.@.~.`._.t._ W I.4X=XQ , , : 9 1.1X2XJ.R ' E.`.`.E.#.].oX|.t.' ~ = eXeXeXeXeXeXeXeXeX",
"eXeXeXeXeXeXeXeXeXeX~ | [ '.XX.X[.y.y./.{.r.` W I.4X=XW 1 < =.1X1XH.E ' !.`._.t.r.|.XX.X~.[ [ F eXeXeXeXeXeXeXeXeXeX",
"eXeXeXeXeXeXeXeXeXeX1 X.O.$.'.oX.XOXy.t.(.`.r.( Q T.4XU.G H &X3XL.R } ~.`.~.@./.oXXXoXy.O.O. .: eXeXeXeXeXeXeXeXeXeX",
"eXeXeXeXeXeXeXeXeXeX; [ @.Q.#.y.}..XoX/.O.^.`.r.L *.&X=X*.*.<XT.E ` ).`.W.@.[..X.X[.y.t.Q.O.' ; eXeXeXeXeXeXeXeXeXeX",
"eXeXeXeXeXeXeXeXeXeX= F  .r.].'.y.]..XoX]...^.`.t.L 4.T.H.E K.*.T E.`.E.O.[..XoX/.t.].'.t.| 1 eXeXeXeXeXeXeXeXeXeXeX",
"eXeXeXeXeXeXeXeXeXeXeX; ^ ..Q.|.}.y.y.oX.X~. ._._...P H.P.*.Q H @.`.^. .'.XXOXy.!.OX}.t.[ ~ ; eXeXeXeXeXeXeXeXeXeXeX",
"eXeXeXeXeXeXeXeXeXeXeX= < 9 ( { y.{ ;.y.[.`.@.t.`.Q.` %.K.4.G } (.`.$.r.`.[.{ ] 8.8.{ ( 1 < * eXeXeXeXeXeXeXeXeXeXeX",
"eXeXeXeXeXeXeXeXeXeXeX. $ d M N N N M g c q ) ( Q.`.r.K 6.R.K E.`.r.( ) q d j m V N m h a % . eXeXeXeXeXeXeXeXeXeXeX",
"eXeXeXeXeXeXeXeXeXeX. p z A u.d.g.k.l.l.l.g.Z c 0 +.E.' Q R.T E.o.0 x Z g.l.l.z.k.g.a.u.V h y . eXeXeXeXeXeXeXeXeXeX",
"eXeXeXeXeXeXeXeXeXeXeX. @ o + $ d n Z u.i.f.B.C.m.x 7 } K 1.J 5 B B.V.l.f.p.s.S M s y @ o o . eXeXeXeXeXeXeXeXeXeXeX",
"eXeXeXeXeXeXeXeXeXeXeXeXeXeX- 1 L w y N S h N a.V.S.s.w L 3 % m.S.B.a.N z S n % w r < * eXeXeXeXeXeXeXeXeXeXeXeXeXeX",
"eXeXeXeXeXeXeXeXeXeXeXeXeXeXeX; ^  .9 % M Z z b S z.F.s.% + m.F.m.Z z n S h % 9 | ( = eXeXeXeXeXeXeXeXeXeXeXeXeXeXeX",
"eXeXeXeXeXeXeXeXeXeXeXeXeXeXeXeX= ^ ' 1 % N u.B z S M.D.x B F.z.C z N s.n + 1 ' ~ = eXeXeXeXeXeXeXeXeXeXeXeXeXeXeXeX",
"eXeXeXeXeXeXeXeXeXeXeXeXeXeXeXeXeX; 1 / ( $ Z u.B n a.C.u.S V.p.z N s.C % ( ~ 1 = eXeXeXeXeXeXeXeXeXeXeXeXeXeXeXeXeX",
"eXeXeXeXeXeXeXeXeXeXeXeXeXeXeXeXeXeX= ; ( 4 g u.S z C z.i.N g.V n S u.d 4 ~ ; eXeXeXeXeXeXeXeXeXeXeXeXeXeXeXeXeXeXeX",
"eXeXeXeXeXeXeXeXeXeXeXeXeXeXeXeXeXeXeXeX= - + b u.N m f.m m a.n C S g + ; = eXeXeXeXeXeXeXeXeXeXeXeXeXeXeXeXeXeXeXeX",
"eXeXeXeXeXeXeXeXeXeXeXeXeXeXeXeXeXeXeXeXeXeXeXo y a $ a & & a $ a y . eXeXeXeXeXeXeXeXeXeXeXeXeXeXeXeXeXeXeXeXeXeXeX",
"eXeXeXeXeXeXeXeXeXeXeXeXeXeXeXeXeXeXeXeXeXeXeXeXeX. k v &.&.v i   eXeXeXeXeXeXeXeXeXeXeXeXeXeXeXeXeXeXeXeXeXeXeXeXeX",
"eXeXeXeXeXeXeXeXeXeXeXeXeXeXeXeXo # y y # o . eXeXeXl v.b.b.v.k eXeXeX. o # y y O o eXeXeXeXeXeXeXeXeXeXeXeXeXeXeXeX",
"eXeXeXeXeXeXeXeXeXeXeXeXeXeXeX. a N i.g.g.d.A f # . l v.b.b.c.k   $ h Z d.g.g.u.m y . eXeXeXeXeXeXeXeXeXeXeXeXeXeXeX",
"eXeXeXeXeXeXeXeXeXeXeXeXeXeXeXeX. # y g V i.f.z.g.N & c.b.b.v u C k.z.d.i.N f y @ . eXeXeXeXeXeXeXeXeXeXeXeXeXeXeXeX",
"eXeXeXeXeXeXeXeXeXeXeXeXeXeXeXeXeX. @ y y p f N h.S.h.u c.&.u B.Z.j.n f y y $ o . eXeXeXeXeXeXeXeXeXeXeXeXeXeXeXeXeX",
"eXeXeXeXeXeXeXeXeXeXeXeXeXeXeXo y b C u.Z f y f m z.G.m.i u V.G.h.n f $ h S S N j # . eXeXeXeXeXeXeXeXeXeXeXeXeXeXeX",
"eXeXeXeXeXeXeXeXeXeXeXeXeXeXy i.h.f.u.b z z y a h A C.D.g m D.V.m b $ a n z m p.f.f.V # eXeXeXeXeXeXeXeXeXeXeXeXeXeX",
"eXeXeXeXeXeXeXeXeXeXeXeXeX$ g.Z.S.F.Z.z.S C b # m h g.A.V A A.i.z n $ n C u.z.Z.D.D.C.u.O eXeXeXeXeXeXeXeXeXeXeXeXeX",
"eXeXeXeXeXeXeXeXeXeXeXeXeXO s s d B m.C.x.d.u.f f h m f.g h f.z n y b s.f.N.C.h.B x f d o eXeXeXeXeXeXeXeXeXeXeXeXeX",
"eXeXeXeXeXeXeXeXeXeXeXeXeXeXeXeXeXeX. s i.l.g.Z a @ @ # o O # o # f u.k.l.u.s . eXeXeXeXeXeXeXeXeXeXeXeXeXeXeXeXeXeX",
"eXeXeXeXeXeXeXeXeXeXeXeXeXeXeXeXeXeXeXeXo d A i.m #   eXeXeXeX. u A i.V a . eXeXeXeXeXeXeXeXeXeXeXeXeXeXeXeXeXeXeXeX",
"eXeXeXeXeXeXeXeXeXeXeXeXeXeXeXeXeXeXeXeXeXeX. O o eXeXeXeXeXeXeX. O o   eXeXeXeXeXeXeXeXeXeXeXeXeXeXeXeXeXeXeXeXeXeX"
};
