/* XPM */
static char *result[] = {
/* columns rows colors chars-per-pixel */
"58 60 208 2 ",
"   c #07280B",
".  c #0A2C0D",
"X  c #07270A",
"o  c #0E310E",
"O  c #10340F",
"+  c #0E3E18",
"@  c #133511",
"#  c #163A11",
"$  c #1A3D14",
"%  c #1D3819",
"&  c #112615",
"*  c #21381D",
"=  c #1B0A26",
"-  c #1D0A29",
";  c #1B1833",
":  c #1E112A",
">  c #230C2B",
",  c #2A0F2A",
"<  c #23142A",
"1  c #28192B",
"2  c #371A2C",
"3  c #280F31",
"4  c #2C1536",
"5  c #35153B",
"6  c #36173A",
"7  c #1C2326",
"8  c #1D243B",
"9  c #29292C",
"0  c #3B242E",
"q  c #273424",
"w  c #2D2C31",
"e  c #2A263A",
"r  c #322235",
"t  c #372B33",
"y  c #3B3A3D",
"u  c #353438",
"i  c #30392C",
"p  c #101D17",
"a  c #451C2E",
"s  c #45222E",
"d  c #432130",
"f  c #0C441D",
"g  c #1C4115",
"h  c #154318",
"j  c #244B19",
"k  c #244819",
"l  c #2C531B",
"z  c #335B1E",
"x  c #39631F",
"c  c #0B4B23",
"v  c #0C5429",
"b  c #365E20",
"n  c #395B24",
"m  c #2F4624",
"M  c #096E3B",
"N  c #376021",
"B  c #3B6422",
"V  c #3E6923",
"C  c #426C25",
"Z  c #43642A",
"A  c #4A7429",
"S  c #4E7B2B",
"D  c #487526",
"F  c #517E2C",
"G  c #517531",
"H  c #3D1941",
"J  c #1F2842",
"K  c #2D2E4C",
"L  c #262843",
"P  c #332B4C",
"I  c #3B2B4C",
"U  c #2C334C",
"Y  c #2A3145",
"T  c #3D3C42",
"R  c #313644",
"E  c #3D2B50",
"W  c #2D3651",
"Q  c #323B56",
"!  c #353E5B",
"~  c #313754",
"^  c #451D48",
"/  c #4D224E",
"(  c #462A46",
")  c #493245",
"_  c #462C55",
"`  c #542353",
"'  c #5D2C5B",
"]  c #582B58",
"[  c #5D3259",
"{  c #512F4E",
"}  c #612B5E",
"|  c #653A5E",
" . c #692D65",
".. c #692D65",
"X. c #6A3269",
"o. c #72336D",
"O. c #743C6B",
"+. c #753571",
"@. c #7B3573",
"#. c #7D3975",
"$. c #5E3062",
"%. c #3A435D",
"&. c #3B4358",
"*. c #3C4562",
"=. c #3F4867",
"-. c #0C7540",
";. c #474649",
":. c #575759",
">. c #474D5C",
",. c #454D6D",
"<. c #424C66",
"1. c #495269",
"2. c #5A5C60",
"3. c #4B5372",
"4. c #4F5778",
"5. c #535C7A",
"6. c #79426E",
"7. c #67686B",
"8. c #737374",
"9. c #78787B",
"0. c #6A6C70",
"q. c #5E636E",
"w. c #843B7B",
"e. c #863A7D",
"r. c #864879",
"t. c #8D517D",
"y. c #55832E",
"u. c #5B8B2D",
"i. c #58862F",
"p. c #5D8B30",
"a. c #598630",
"s. c #5F902D",
"d. c #639432",
"f. c #6B9A37",
"g. c #6EA234",
"h. c #75A839",
"j. c #7CB23A",
"k. c #079554",
"l. c #078B4D",
"z. c #03A45D",
"x. c #01AE63",
"c. c #00B065",
"v. c #729742",
"b. c #7FA647",
"n. c #83B93D",
"m. c #86AB4C",
"M. c #8CB94A",
"N. c #96C54D",
"B. c #96C64C",
"V. c #A5CD5B",
"C. c #AAD35D",
"Z. c #ADD360",
"A. c #B7DC67",
"S. c #5B6484",
"D. c #5F6A85",
"F. c #646A8D",
"G. c #61678C",
"H. c #696E93",
"J. c #6D7497",
"K. c #71769D",
"L. c #717A9B",
"P. c #6E7688",
"I. c #767BA1",
"U. c #8D3D83",
"Y. c #923F86",
"T. c #99438C",
"R. c #964488",
"E. c #9F4491",
"W. c #A44695",
"Q. c #AB4A9B",
"!. c #A54B94",
"~. c #B2569D",
"^. c #AB5099",
"/. c #BA5AA4",
"(. c #C761AE",
"). c #D669B9",
"_. c #CB63B1",
"`. c #C15EA9",
"'. c #7C84A7",
"]. c #7E8086",
"[. c #848485",
"{. c #979798",
"}. c #8C8E91",
"|. c #8189AB",
" X c #878CB2",
".X c #8D95B7",
"XX c #9197BC",
"oX c #A3A3A4",
"OX c #ABABAB",
"+X c #97A3BE",
"@X c #969CC2",
"#X c #9BA3C6",
"$X c #A1AACB",
"%X c #A6ADD1",
"&X c #A8AFD5",
"*X c #ACB3D7",
"=X c #B1BADC",
"-X c #A5B0CC",
";X c #B5BEE0",
":X c #B6C1DF",
">X c #BCC6E6",
",X c #CBCBCB",
"<X c #C5C5C5",
"1X c #D0D0D0",
"2X c #C1CCEA",
"3X c #C6D2EE",
"4X c #C8D4F0",
"5X c None",
/* pixels */
"5X5X5X5X5X5X5X5X5X5X5X5X5X5X5X5X5X5X5X5X5X5X5X5X5X5X5X5X5X5X5X5X5X5X5X5X5X5X5X5X5X5X5X5X5X5X5X5X5X5X5X5X5X5X5X5X5X5X",
"5X5X5X5X5X5X5X5X5X5X5X5X5X5X5X5X5X5X5X5X5X5X5X5X5X5X5X5X5X5X5X5X5X5X5X5X5X5X5X5X5X5X5X5X5X5X5X5X5X5X5X5X5X5X5X5X5X5X",
"5X5X5X5X5X5X5X5X5X5X5X5X5X5X5X5X5X5X5X5X5X5X5X5X5X5X5X5X5X5X5X5X5X5X5X5X5X5X5X5X5X5X5X5X5X5X5X5X5X5X5X5X5X5X5X5X5X5X",
"5X5X5X5X5X5X5X5X5X5X5X5X5X5X5X5X5X5X5X5X5X5X5X5X5X5X5X5X5X5X5X5X5X5X5X5X5X5X5X5X5X5X5X5X5X5X5X5X5X5X5X5X5X5X5X5X5X5X",
"5X5X5X5X5X5X5X5X5X5X5X5X5X5X5X5X5X5X5X5X5X5X5X5X5X5X5X5X5X5X5X5X5X5X5X5X5X5X5X5X5X5X5X5X5X5X5X5X5X5X5X5X5X5X5X5X5X5X",
"5X5X5X5X5X5X5X5X5X5X5X5X5X5X5X5X5X5X5X5X5X5X5X5X5X5X5X5X5X5X5X5X5X5X5X5X5X5X5X5X5X5X5X5X5X5X5X5X5X5X5X5X5X5X5X5X5X5X",
"5X5X5X5X5X5X5X5X5X5X5X5X5X5X5X5X5X5X5X5X5X5X5X5X5X5X5X5X5X5X5X5X5X5X5X5X5X5X5X5X5X5X5X5X5X5X5X5X5X5X5X5X5X5X5X5X5X5X",
"5X5X5X5X5X5X5X5X5X5X5X5X5X5X5X5X5X5X5X5X5X5X5X5X5X5X5X5X5X5X5X5X5X5X5X5X5X5X5X5X5X5X5X5X5X5X5X5X5X5X5X5X5X5X5X5X5X5X",
"5X5X5X5X5X5X5X5X5X5X5X5X5X5X5X5X5X5X5X5X5X5X5X5X5X5X5X5X5X5X5X5X5X5X5X5X5X5X5X5X5X5X5X5X5X5X5X5X5X5X5X5X5X5X5X5X5X5X",
"5X5X5X5X5X5X5X5X5X5X5Xw 5X5X5X5X5X5X5X5X5X5X5X5X5X5X5X5X5X5X5X5X5X5X5X5X5X5X5X5X5X5X5X5X5X5Xw 5X5X5X5X5X5X5X5X5X5X5X",
"5X5X5X5X5X5X5X5X5Xw ;.m 5X5X5X5X5X5X5X5X5X5X5X5X5X5X5X5X5X5X5X5X5X5X5X5X5X5X5X5X5X5X5X5X5X5X;.:.w 5X5X5X5X5X5X5X5X5X",
"5X5X5X5X5X5X5X5Xy P.{.) 5X5X5X5X5X5X5X5X5X5X5X5X5X5X5X5X5X5X5X5X5X5X5X5X5X5X5X5X5X5X5X5X5X5X;.oX9.y 5X5X5X5X5X5X5X5X",
"5X5X5X5X5X5X5X;.{.<X9.5X5X5X5X5X5X5X5X5X5X5X5X5X5X5X5X5X5X5X5X5X5X5X5X5X5X5X5X5X5X5X5X5X5X5Xw 9.,X{.;.8 5X5X5X5X5X5X",
"5X5X5X5X8 %.W {.1XoXm 5X5X5X5X5X5X5X5X5X5X5X5X5X5X5X5X5X5X5X5X5X5X5X5X5X5X5X5X5X5X5X5X5X5X5X5X;.OX1X}.Q 1.J 5X5X5X5X",
"5X5X5XU L.-X<.{.OX:.5X5X5X5X5X5X5X5X5X5X5X5X5X5X5X5X5X5X5X5X5X5X5X5X5X5X5X5X5X5X5X5X5X5X5X5X5X9 7.oX8.5.:X'.&.5X5X5X",
"5X5X*.+X3X>X4.7.8.u 5X5X5X5X5X5X5X5X5X5X5X5X5X5X5X5X5X5X5X5X5X5X5X5X5X5X5X5X5X5X5X5X5X5X5X5X5X, u 9.2.F.3X4X#X=.5X5X",
"5X~ #X3X3X4XL.>.:.r < 5X5Xy w 5X5X5X5X5X5X5X5X5X5X5X5X5X5X5X5X5X5X5X5X5X5X5X5X5X5X5X5Xy y 5X= 2 t 2.&..X4X>X2X@XW 5X",
"5X,.$X%X=X>X$X! y d a 9 ;.[.y 5X5X5X5X5X5X5X5X5X5X5X5X5X5X5X5X5X5X5X5X5X5X5X5X5X5X5X5X;.{.;.2 s s u 1.=X;X%X#XXX%.5X",
"8 ,.K.I.'.XX=XH.e s s s oX{.u 5X5X5X5X5X5X5X5X5X5X5X5X5X5X5X5X5X5X5X5X5X5X5X5X5X5X5X5Xy OXoXy s d Y .X%X XI.J.H.*.5X",
"J Q <.,.4.G.'.$X3.r t 9.1X}.9 5X5X5Xw 5X5X5X5X5X5X5X5X5X5X5X5X5X5X5X5X5X5X5X5Xw 5X5X5Xw oX,X8.w e L.#XK.4.=.%.! K 5X",
"5X5X5X; L K 3.|.#X1.R }.,X8.1 > 5X) ;.5X5X5X5X5X5X5X5X5X5X5X5X5X5X5X5X5X5X5X9 :.T < , 0 [.<X9.W J.#XJ.*.P 4 ; 5X5X5X",
"5X5X5X= ^  .K ,. X-XS.>.].:.0 2 T {.7.5X5X5X5X5X5X5X5X5X5X5X5X5X5X5X5X5X5X5X9 9.{.u s 0 :.q.&.'.-XL.! E o.^ 5X5X5X5X",
"5X5X5X= ^ R.+.K 3. X=X'.&.R 0 t ].,X:.: 5X5X5X5X5X5X5X5X5X5X5X5X5X5Xw 5X5X- < 0.,X8.t r Y 5.-X*XK.*.E U.U.H 5X5X5X5X",
"5X5X5X5XH U.Q.X.U 3.|.>X*XF.U R ].OX;.2 , 9 y w 5X5X5X5X5X5X5X5X5X5Xu y 1 , 0 :.oX7.Y <..X>X-XJ.! E #.Q.w.5 5X5X5X5X",
"5X5X5X5X5 w.Q.W.X.K ,.I.*X2X$XD.&.>.T 0 0 :.8.w 5X5X5X5X5X5X5X5X5X5Xu t.:.i t T &.=.'.>X>X@XG.~ E e.Q.Q.o.3 5X5X5X5X",
"5X5X5X5X> } Q.Q.W.+.P ! F.XX*X>X#XD.U e y oX7.< 5X5X5X5X5X5X5X5X5X> < 9.{.u e *.'.*X>X#X'.3.W ] U.Q.Q.E./ - 5X5X5X5X",
"5X5X5X5X- ^ U.Q.Q.Q.U._ K =.S.'.$X=X@XS.Q 1.T 2 > 5X5X5X5X5X5X5X- , 2 T >.*.'.%X*XXXH.,.~ E  .Y.Q.Q.Q.@.6 - 5X5X5X5X",
"5X5X5X5X- H ] Y.Q.Q.Q.T.+._ P W ,.K.#X*X#Xq.U 6 a > 5X5X5X5X5X5X3 d r ! L.$X-X XS.%.K E $.U.Q.Q.Q.W.#.` H 5X5X5X5X5X",
"5X5X5X5X5X6 ....@.E.Q.Q.Q.T.U.$._ K =.J.#X*XXX3.e 4 - 5X5X5X5X> 4 Y D.#X&XXXS.Q U ] +.R.W.Q.Q.W.U.o.X. .4 5X5X5X5X5X",
"5X5X5X5X5X3 } U.@. .+.U.E.Q.Q.Q.R.o._ U ,.I.$X&XD.L 3 5X5X5X- < K J.*X@XH.! K ] w.T.Q.Q.Q.Y.w...o.Y.U.` > 5X5X5X5X5X",
"5X5X5X5X5X- 6 +.Q.Q.^.R.#.#.U.E.Q.Q.Y.o.E W S..X@X5.L - 5X5X: K S.@X'.3.K _ #.E.Q.Q.T.e.@.r.Q./.Q.W.' 3 5X5X5X5X5X5X",
"5X5X5X5X5X5X3 ^ +.!.).)._.~.R.@.#.R.Q.Q.U.] K ,.I.K.3.; 5X- 8 4.K.K.*.K X.T.Q.W.U.#.r.E.`.).)._.Y. .^ 3 5X5X5X5X5X5X",
"5X5X5X5X5X5X> ^ `  .R._.).).).(.!.#.+.R.Q.E.o.P *.F.H.Q ; ; ! J.F.! E @.W.Q.U.o.r.~._.).)._./.w.} ' ^ = 5X5X5X5X5X5X",
"5X5X5X5X5X5X5X5  .X.o.@.R.~.(.).)._.!.o.w.Q.Q.e.E *.F.S.8 J S.F.~ _ w.Q.W.@.o.~.).).)./.!.r.+.@.o.} 3 5X5X5X5X5X5X5X",
"5X5X5X5X5X5X5X- ^ o.w.T.r.O.[ 6.t.t.t.6.] o.W.Q.U.E *.F.W Q G.%._ U.Q.E. .' 6.t.t.r.| [ r.E.T.w.X.H - 5X5X5X5X5X5X5X",
"5X5X5X5X5X5X5X5X3 ` } ) u m l x V x B z k * d 6.Y.+.P ,.*.*.=.I +.Y.O.u * m n B Z x z l m u ) } ^ - 5X5X5X5X5X5X5X5X",
"5X5X5X5X5X5X5X5X5X> 7 g x F u.f.g.h.h.h.h.g.y.n i ( [ W Q W P ] t i Z p.h.h.j.h.f.f.d.u.D x g 7 > 5X5X5X5X5X5X5X5X5X",
"5X5X5X5X5X5X5X5X5X5X& % * * $ k l V y.y.i.s.b.N.m.Z 9 I J J I q G M.M.h.p.p.y.S V l k $ * * O p 5X5X5X5X5X5X5X5X5X5X",
"5X5X5X5X5X5X5X5X5X5X= < ( ] d r 9 7 k V S N C a.b.V.v.* ; 8 * b.V.v.y.B b S V $ q 9 r { ' ( = 5X5X5X5X5X5X5X5X5X5X5X",
"5X5X5X5X5X5X5X5X5X5X5X5X3 ` X. ./ / ( % N S B N S f.Z.v.o % m.V.d.G b C S l q ( ^ ^  . .^ > 5X5X5X5X5X5X5X5X5X5X5X5X",
"5X5X5X5X5X5X5X5X5X5X5X5X5X- 6 '  .` ` ] * B y.C z S h.Z.B A C.f.A z D y.z q ' ` ` o.] 5 = 5X5X5X5X5X5X5X5X5X5X5X5X5X",
"5X5X5X5X5X5X5X5X5X5X5X5X5X5X5X3 ^ ' / ] { % D y.C B y.M.p.D m.F b D y.C % ] ] ` ] ^ > 5X5X5X5X5X5X5X5X5X5X5X5X5X5X5X",
"5X5X5X5X5X5X5X5X5X5X5X5X5X5X5X5X- 3 6 H } t l y.y.b D h.u.V f.C B y.F k ( ' 6 6 > = 5X5X5X5X5X5X5X5X5X5X5X5X5X5X5X5X",
"5X5X5X5X5X5X5X5X5X5X5X5X5X5X5X5X5X5X- > 3 5 & l F C B u.x z i.b D S j p 5 3 - 5X5X5X5X5X5X5X5X5X5X5X5X5X5X5X5X5X5X5X",
"5X5X5X5X5X5X5X5X5X5X5X5X5X5X5X5X5X5X5X5X5X5X5X. $ $ # g f + g @ g # . 5X5X5X5X5X5X5X5X5X5X5X5X5X5X5X5X5X5X5X5X5X5X5X",
"5X5X5X5X5X5X5X5X5X5X5X5X5X5X5X5X5X5X5X5X5X5X5X5X5X. c M -.-.M f   5X5X5X5X5X5X5X5X5X5X5X5X5X5X5X5X5X5X5X5X5X5X5X5X5X",
"5X5X5X5X5X5X5X5X5X5X5X5X5X5X5X5X5X5X5X5X5X5X5X5X5X5Xv k.z.z.k.c 5X5X5X5X5X5X5X5X5X5X5X5X5X5X5X5X5X5X5X5X5X5X5X5X5X5X",
"5X5X5X5X5X5X5X5X5X5X5X5X5X5X5X5X5X5X5X5X5X5X5X5X5X5Xc k.c.c.l.f 5X5X5X5X5X5X5X5X5X5X5X5X5X5X5X5X5X5X5X5X5X5X5X5X5X5X",
"5X5X5X5X5X5X5X5X5X5X5X5X5X5X5X5X5X5X5X5X5X5X5X5X5X5Xv k.x.x.l.f 5X5X5X5X5X5X5X5X5X5X5X5X5X5X5X5X5X5X5X5X5X5X5X5X5X5X",
"5X5X5X5X5X5X5X5X5X5X5X5X5X5X5X5X. @ # # @ o 5X5X5X. v k.c.x.k.v 5X5X5X5X. @ # # o . 5X5X5X5X5X5X5X5X5X5X5X5X5X5X5X5X",
"5X5X5X5X5X5X5X5X5X5X5X5X5X5X5X. j C i.d.d.u.D l @   v z.c.x.k.v . $ z D u.d.d.i.B g . 5X5X5X5X5X5X5X5X5X5X5X5X5X5X5X",
"5X5X5X5X5X5X5X5X5X5X5X5X5X5X5X. @ g j B S s.d.h.f.V f l.x.x.M h A f.h.d.u.D x j $ @ 5X5X5X5X5X5X5X5X5X5X5X5X5X5X5X5X",
"5X5X5X5X5X5X5X5X5X5X5X5X5X5X5X5X5X  o g g k l C g.V.v.h M M g m.V.d.V l j $ # o X 5X5X5X5X5X5X5X5X5X5X5X5X5X5X5X5X5X",
"5X5X5X5X5X5X5X5X5X5X5X5X5X5X5XX $ l A S D l g l V h.A.v.O h M.C.f.N l $ z S S C l @   5X5X5X5X5X5X5X5X5X5X5X5X5X5X5X",
"5X5X5X5X5X5X5X5X5X5X5X5X5X5X# D p.p.F B N B g j z D B.C.l V C.M.V b g k B n C y.p.p.x O 5X5X5X5X5X5X5X5X5X5X5X5X5X5X",
"5X5X5X5X5X5X5X5X5X5X5X5X5X# u.V.Z.V.N.f.S D z # V z g.n.D S B.p.b N $ B A F h.N.C.C.B.D O 5X5X5X5X5X5X5X5X5X5X5X5X5X",
"5X5X5X5X5X5X5X5X5X5X5X5X5X# x B n G b.B.j.s.y.l j x V s.l b d.N B g N y.d.n.B.v.A B B z O 5X5X5X5X5X5X5X5X5X5X5X5X5X",
"5X5X5X5X5X5X5X5X5X5X5X5X5X5X5X5X5X5XO l u.j.f.S j # o $ . @ # o # l y.g.j.y.j . 5X5X5X5X5X5X5X5X5X5X5X5X5X5X5X5X5X5X",
"5X5X5X5X5X5X5X5X5X5X5X5X5X5X5X5X5X5X5X5Xo l S i.V #   5X5X5X5X. g A p.D j . 5X5X5X5X5X5X5X5X5X5X5X5X5X5X5X5X5X5X5X5X",
"5X5X5X5X5X5X5X5X5X5X5X5X5X5X5X5X5X5X5X5X5X5X. @ o 5X5X5X5X5X5X5X  o o   5X5X5X5X5X5X5X5X5X5X5X5X5X5X5X5X5X5X5X5X5X5X"
};
