/* XPM */
static char *result[] = {
/* columns rows colors chars-per-pixel */
"58 60 202 2 ",
"   c #13191A",
".  c #07290B",
"X  c #092B0C",
"o  c #06270A",
"O  c #0F320E",
"+  c #11340F",
"@  c #172E17",
"#  c #0C3A16",
"$  c #133511",
"%  c #193E13",
"&  c #183914",
"*  c #1C0927",
"=  c #1E0A28",
"-  c #1D142B",
";  c #1D1C37",
":  c #230D2C",
">  c #290F2A",
",  c #29162B",
"<  c #381A2D",
"1  c #280E31",
"2  c #2C1533",
"3  c #34163A",
"4  c #1C253E",
"5  c #2B2B2D",
"6  c #262728",
"7  c #38232E",
"8  c #2D2C31",
"9  c #28273A",
"0  c #372834",
"q  c #323135",
"w  c #393639",
"e  c #2E3A28",
"r  c #243E1C",
"t  c #461D2E",
"y  c #42232E",
"u  c #4D212F",
"i  c #4B2934",
"p  c #0C431C",
"a  c #1D4215",
"s  c #154318",
"d  c #214616",
"f  c #254B19",
"g  c #244A18",
"h  c #2C531B",
"j  c #325B1E",
"k  c #38621F",
"l  c #0B4B22",
"z  c #0B562A",
"x  c #0C5E30",
"c  c #2B4721",
"v  c #355E20",
"b  c #365A23",
"n  c #33402B",
"m  c #0C6334",
"M  c #3A6422",
"N  c #3E6924",
"B  c #376021",
"V  c #426C25",
"C  c #466A2B",
"Z  c #4A752A",
"A  c #4E7A2B",
"S  c #487426",
"D  c #517E2C",
"F  c #507E27",
"G  c #527830",
"H  c #45403D",
"J  c #3C1A42",
"K  c #1E2741",
"L  c #2E2D4B",
"P  c #252C45",
"I  c #322B4C",
"U  c #3B2748",
"Y  c #2C334B",
"T  c #383D48",
"R  c #3D2B50",
"E  c #2E3551",
"W  c #343C59",
"Q  c #313956",
"!  c #441C47",
"~  c #4D214E",
"^  c #492C47",
"/  c #482C55",
"(  c #5C2B5D",
")  c #562957",
"_  c #553550",
"`  c #63305E",
"'  c #5C3061",
"]  c #5A2F60",
"[  c #652B61",
"{  c #6C2D67",
"}  c #702F6B",
"|  c #6C336A",
" . c #693566",
".. c #72326C",
"X. c #7B3673",
"o. c #7D3975",
"O. c #753772",
"+. c #3B4359",
"@. c #0D7842",
"#. c #3C4462",
"$. c #3E4860",
"%. c #464649",
"&. c #464A54",
"*. c #58585A",
"=. c #504B54",
"-. c #444C6B",
";. c #414B66",
":. c #485269",
">. c #4C5574",
",. c #4E5872",
"<. c #535A7C",
"1. c #505878",
"2. c #51576A",
"3. c #5C616E",
"4. c #68686A",
"5. c #6B6D71",
"6. c #777779",
"7. c #6E7178",
"8. c #843B7A",
"9. c #863B7C",
"0. c #8B417E",
"q. c #55832D",
"w. c #5A892E",
"e. c #57862C",
"r. c #5C8B30",
"t. c #5D8535",
"y. c #5F9030",
"u. c #608E33",
"i. c #639332",
"p. c #6A9B34",
"a. c #699637",
"s. c #62962E",
"d. c #6DA133",
"f. c #75A839",
"g. c #098B4E",
"h. c #0A8349",
"j. c #069655",
"k. c #088F50",
"l. c #00AF64",
"z. c #00B065",
"x. c #739943",
"c. c #7EAD40",
"v. c #83BA3D",
"b. c #88B746",
"n. c #8CB34E",
"m. c #9BC356",
"M. c #92C646",
"N. c #A3CA5A",
"B. c #A8D25C",
"V. c #AFD663",
"C. c #575E81",
"Z. c #596183",
"A. c #626A8A",
"S. c #696D94",
"D. c #6C7396",
"F. c #6D7397",
"G. c #727A9C",
"H. c #6E7588",
"J. c #777CA2",
"K. c #8C3C82",
"L. c #913F86",
"P. c #8E4281",
"I. c #9B448E",
"U. c #974489",
"Y. c #9F4591",
"T. c #A34694",
"R. c #A44995",
"E. c #AC4A9B",
"W. c #AB5297",
"Q. c #B3579E",
"!. c #BC5AA6",
"~. c #C55DAD",
"^. c #CC64B2",
"/. c #D568B9",
"(. c #C761AD",
"). c #7C8395",
"_. c #7B83A4",
"`. c #87888A",
"'. c #989898",
"]. c #828AAC",
"[. c #878DB3",
"{. c #8D93B8",
"}. c #8E98B8",
"|. c #A6A6A7",
" X c #B8B8B8",
".X c #AFAFB0",
"XX c #979DC2",
"oX c #9AA3C4",
"OX c #9DA5C8",
"+X c #A2AACD",
"@X c #A6ADD3",
"#X c #AAB4D5",
"$X c #ADB6D8",
"%X c #B2BBDC",
"&X c #B6BFE2",
"*X c #B9C3E3",
"=X c #BDC9E6",
"-X c #C6C6C6",
";X c #D0D0D0",
":X c #C8D4F0",
">X c #C3CEEC",
",X c None",
/* pixels */
",X,X,X,X,X,X,X,X,X,X,X,X,X,X,X,X,X,X,X,X,X,X,X,X,X,X,X,X,X,X,X,X,X,X,X,X,X,X,X,X,X,X,X,X,X,X,X,X,X,X,X,X,X,X,X,X,X,X",
",X,X,X,X,X,X,X,X,X,X,X,X,X,X,X,X,X,X,X,X,X,X,X,X,X,X,X,X,X,X,X,X,X,X,X,X,X,X,X,X,X,X,X,X,X,X,X,X,X,X,X,X,X,X,X,X,X,X",
",X,X,X,X,X,X,X,X,X,X,X,X,X,X,X,X,X,X,X,X,X,X,X,X,X,X,X,X,X,X,X,X,X,X,X,X,X,X,X,X,X,X,X,X,X,X,X,X,X,X,X,X,X,X,X,X,X,X",
",X,X,X,X,X,X,X,X,X,Xq w ,X,X,X,X,X,X,X,X,X,X,X,X,X,X,X,X,X,X,X,X,X,X,X,X,X,X,X,X,X,X,X,X,Xq w ,X,X,X,X,X,X,X,X,X,X,X",
",X,X,X,X,X,X,X,X,X%.6.*.,X,X,X,X,X,X,X,X,X,X,X,X,X,X,X,X,X,X,X,X,X,X,X,X,X,X,X,X,X,X,X,X,Xq 6.5.q ,X,X,X,X,X,X,X,X,X",
",X,X,X,X,X,X,X5 *.|.|.w ,X,X,X,X,X,X,X,X,X,X,X,X,X,X,X,X,X,X,X,X,X,X,X,X,X,X,X,X,X,X,X,X,X,X*.-X`.%.,X,X,X,X,X,X,X,X",
",X,X,X,X,X4 P 3.-X-X4.,X,X,X,X,X,X,X,X,X,X,X,X,X,X,X,X,X,X,X,X,X,X,X,X,X,X,X,X,X,X,X,X,X,X,Xw '.;X|.+.9 4 ,X,X,X,X,X",
",X,X,X,X+.).2.).-X`.q ,X,X,X,X,X,X,X,X,X,X,X,X,X,X,X,X,X,X,X,X,X,X,X,X,X,X,X,X,X,X,X,X,X,X,X,X=..X X:._.D.E ,X,X,X,X",
",X,XK <.#X:XA.3.`.=.6 = ,X,X,X,X,X,X,X,X,X,X,X,X,X,X,X,X,X,X,X,X,X,X,X,X,X,X,X,X,X,X,X,X,X,X: 8 4.`.+.OX:XoX-.4 ,X,X",
",XK A.=X:X:X].&.7.w y > ,X8 8 ,X,X,X,X,X,X,X,X,X,X,X,X,X,X,X,X,X,X,X,X,X,X,X,X,X,X,X,X5 ,X,X> 7 =.5.$.%X:X:X$X-.,X,X",
",XE oX&X*X=X#X$.=.0 u t 5 *.%.,X,X,X,X,X,X,X,X,X,X,X,X,X,X,X,X,X,X,X,X,X,X,X,X,X,X,X5 *.%., t u e +.7.=X&X%X%XG.4 ,X",
",XW J.].{.OX*XD.9 u u 7 4..X%.,X,X,X,X,X,X,X,X,X,X,X,X,X,X,X,X,X,X,X,X,X,X,X,X,X,X,X,X7..X%.y u 0 +.OX$XXX].J.A.P ,X",
",XW <.Z.A.F.[.+X:.7 0 %. X.Xw ,X,X,X,X,X,X,X,X,X,X,X,X,X,X,X,X,X,X,X,X,X,X,X,X,X,X,X- *.;X'.q 7 9 ).OXJ.S.C.1.-.P ,X",
",X4 K P P W <.[.oX+.5 6.-X|.0 1 = 5 w 8 ,X,X,X,X,X,X,X,X,X,X,X,X,X,X,X,X,X,Xq e ,X: , =.-X X=.9 A.OXF.-.L 4 4 K ,X,X",
",X,X,X,XJ ) L >.{.OX:.:.|.x.J u 0 *.7.5 ,X,X,X,X,X,X,X,X,X,X,X,X,X,X,X,X,X,X+.6.w < t i '.`.+.D.@XG.+.I ] 1 ,X,X,X,X",
",X,X,X,X3 8. .L 1.{.#XS.+.+.0 y =. X6., ,X,X,X,X,X,X,X,X,X,X,X,X,X,X,X,X,X,Xq |.'.w y q +.$.].#XJ.#.I K.} 1 ,X,X,X,X",
",X,X,X,X3 8.Y.{ L 1.{.*XXX:.9 8 6.-X4.7 > : 5 q ,X,X,X,X,X,X,X,X,X,X8 ,X= > 8 '. X*.6 L A.#X$XJ.#.I 8.T.{ : ,X,X,X,X",
",X,X,X,X1 ..E.Y. .L >.[.&X*X].;.+.7.*.7 t 0 *.w ,X,X,X,X,X,X,X,X,X,X%.%.< t 0 5.5.+.,.oX=X@XG.#.R X.E.T.( : ,X,X,X,X",
",X,X,X,X= ) E.E.Y. .L ;._.OX*X%X_.-.q 8 0 6.'.8 ,X,X,X,X,X,X,X,X,X,X%.'.=.0 5 T ,.}.*X&XXXA.Q R o.E.E.U.J = ,X,X,X,X",
",X,X,X,X* J L.E.E.Y.O.R Q 1.J.XX%X#X_.#.Y 7.*.< , ,X,X,X,X,X,X,X,X> 0 `.3.9 -.].%X$X{.D.-.E ) K.E.E.E...1 ,X,X,X,X,X",
",X,X,X,X* 3 ) L.E.E.E.K.' I E ;.A.{.@X@X_.;.P 7 t > ,X,X,X,X,X,X> t 0 Y -._.@X@X].Z.#.L R | I.E.E.E.K.~ 1 ,X,X,X,X,X",
",X,X,X,X,X3 ( [ L.E.E.E.R.9.| / L W C.[.@X@XG.W 0 < : ,X,X,X,X: < 9 W G.@X@X].<.Q I / ..K.E.E.E.T.X.[ ) 1 ,X,X,X,X,X",
",X,X,X,X,X1 ( o.} } K.L.E.E.E.I.8.) I Q Z.{.#XOX>.9 2 = ,X,X= , 3 >.oX#X{.C.E I ' 9.Y.E.E.R.U.X.{ X.X.! = ,X,X,X,X,X",
",X,X,X,X,X* J X.T.U.K.X.X.0.Y.R.E.T.9.] L #.F.oXoX>.9 : ,X,X: 9 >.OXOXF.#.I ] K.R.E.E.I.K.X.8.P.L.T.{ 1 ,X,X,X,X,X,X",
",X,X,X,X,X,X: ! 9.E./.^.Q.U.8.o.L.T.E.T.X./ E <.[.J.-.; = * ; #.J.{.C.E / O.Y.E.T.P.O.0.Y.!./.^.E.} J : ,X,X,X,X,X,X",
",X,X,X,X,X,X= ! ~ { R./././.(.Q.9.X.9.T.E.L.' L >.S.S.W : ; W S.F.>.L ] L.E.T.9.O.0.Q.^././.^.I.[ ) J * ,X,X,X,X,X,X",
",X,X,X,X,X,X,X3 [ [ } 9.Q.(./././.!.9.} L.E.Y.| I -.S.C.K K C.F.-.I  .I.E.L.} K.!./././.(.W.X.{ { ( 1 ,X,X,X,X,X,X,X",
",X,X,X,X,X,X,X* ~ ..8.9.0.0.0.W.^././.Y.{ 8.E.T...I -.S.Q W S.-.I | Y.E.8.{ Y././.^.W.0.o.0.K.8.{ J * ,X,X,X,X,X,X,X",
",X,X,X,X,X,X,X,X: ( ..9.R.~.W.0.9.W.^.!.T...X.E.E.| I 1.-.#.C.L | T.E.8.} Y.~.^.W.0.0.Q.~.T.8.} ~ : ,X,X,X,X,X,X,X,X",
",X,X,X,X,X,X,X,X,X1 ~ [ X.R.(./.Q.o...P.I.I.} 9.T.X.] E -.E L ] 8.E.K.{ I.R.I.X.8.Q.^.(.I...( ! 1 ,X,X,X,X,X,X,X,X,X",
",X,X,X,X,X,X,X,X,X= > ! ~ ) ` _ H e d c n e 0 0 [ | ../ P K / } | { i w w e r r i =. . .) ~ ! : ,X,X,X,X,X,X,X,X,X,X",
",X,X,X,X,X,X,X,X,X,X= 2 6 % j F s.d.f.f.f.p.i.G f 5 / { I P  .) 8 c C r.s.d.d.d.s.e.N h @ 0 2 = ,X,X,X,X,X,X,X,X,X,X",
",X,X,X,X,X,X,X,X,X,X,X$ j A w.r.q.e.w.e.r.u.f.n.N.x.c 0 J U 8 c x.N.n.b.a.y.u.u.i.i.i.r.A f @ ,X,X,X,X,X,X,X,X,X,X,X",
",X,X,X,X,X,X,X,X,X,XX % g % & & r d j Z D v N D a.m.N.b     V N.n.a.D N j D F v f d a a f j a . ,X,X,X,X,X,X,X,X,X,X",
",X,X,X,X,X,X,X,X,X,X,X,X,X,X* - U ^ 5 & v D V b Z r.n.N.f b B.n.q.S b N D M % 6 i U -   ,X. X ,X,X,X,X,X,X,X,X,X,X,X",
",X,X,X,X,X,X,X,X,X,X,X,X,X,X,X,X: 3 ~ 2 @ B D Z b C y.B.t.Z m.r.V b S q.j @ 9 ~ J 1 ,X,X,X,X,X,X,X,X,X,X,X,X,X,X,X,X",
",X,X,X,X,X,X,X,X,X,X,X,X,X,X,X,X,X,X: 1 , $ V q.Z j Z f.p.k d.A b A q.N @ 2 2 1 = ,X,X,X,X,X,X,X,X,X,X,X,X,X,X,X,X,X",
",X,X,X,X,X,X,X,X,X,X,X,X,X,X,X,X,X,X,X,X*   d A q.N V p.w.j i.M S q.Z a   = ,X,X,X,X,X,X,X,X,X,X,X,X,X,X,X,X,X,X,X,X",
",X,X,X,X,X,X,X,X,X,X,X,X,X,X,X,X,X,X,X,X,X,XX g V V h V f d V h C N a X ,X,X,X,X,X,X,X,X,X,X,X,X,X,X,X,X,X,X,X,X,X,X",
",X,X,X,X,X,X,X,X,X,X,X,X,X,X,X,X,X,X,X,X,X,X,X,X# $ # p z z # $ $ O ,X,X,X,X,X,X,X,X,X,X,X,X,X,X,X,X,X,X,X,X,X,X,X,X",
",X,X,X,X,X,X,X,X,X,X,X,X,X,X,X,X,X,X,X,X,X,X,X,X,X,Xl @.@.@.@.p ,X,X,X,X,X,X,X,X,X,X,X,X,X,X,X,X,X,X,X,X,X,X,X,X,X,X",
",X,X,X,X,X,X,X,X,X,X,X,X,X,X,X,X,X,X,X,X,X,X,X,X,X,Xl k.j.j.h.l ,X,X,X,X,X,X,X,X,X,X,X,X,X,X,X,X,X,X,X,X,X,X,X,X,X,X",
",X,X,X,X,X,X,X,X,X,X,X,X,X,X,X,X,X,X,X,X,X,X,X,X,X,Xp j.z.z.k.# ,X,X,X,X,X,X,X,X,X,X,X,X,X,X,X,X,X,X,X,X,X,X,X,X,X,X",
",X,X,X,X,X,X,X,X,X,X,X,X,X,X,X,X,X,X,X,X,X,X,X,X,X,Xl j.z.z.g.# ,X,X,X,X,X,X,X,X,X,X,X,X,X,X,X,X,X,X,X,X,X,X,X,X,X,X",
",X,X,X,X,X,X,X,X,X,X,X,X,X,X,X,X,X,X,X,X,X,X,X,X,X,Xl g.l.l.h.p ,X,X,X,X,X,X,X,X,X,X,X,X,X,X,X,X,X,X,X,X,X,X,X,X,X,X",
",X,X,X,X,X,X,X,X,X,X,X,X,X,X,X,X,X,X,X,X,X,X,X,X,X,Xl g.l.l.h.p ,X,X,X,X,X,X,X,X,X,X,X,X,X,X,X,X,X,X,X,X,X,X,X,X,X,X",
",X,X,X,X,X,X,X,X,X,X,X,X,X,X,X,X,X,X,X,X,X,X,X,X,X,Xl k.z.l.g.l ,X,X,X,X,X,X,X,X,X,X,X,X,X,X,X,X,X,X,X,X,X,X,X,X,X,X",
",X,X,X,X,X,X,X,X,X,X,X,X,X,X,X,X,X,X,X,X,X,X,X,X,X,Xz j.z.l.k.l ,X,X,X,X,X,X,X,X,X,X,X,X,X,X,X,X,X,X,X,X,X,X,X,X,X,X",
",X,X,X,X,X,X,X,X,X,X,X,X,X,X,X,X,X,X,X,X,X,X,X,X,XX z j.z.z.j.l ,X,X,X,X,X,X,X,X,X,X,X,X,X,X,X,X,X,X,X,X,X,X,X,X,X,X",
",X,X,X,X,X,X,X,X,X,X,X,X,X,X,XX $ a h h d + X ,X,XX x j.z.z.j.z X ,X,XX & g h h a + ,X,X,X,X,X,X,X,X,X,X,X,X,X,X,X,X",
",X,X,X,X,X,X,X,X,X,X,X,X,X,X,XX a B D p.d.i.q.j & . x h.j.j.h.z X % k w.p.d.i.Z h & X ,X,X,X,X,X,X,X,X,X,X,X,X,X,X,X",
",X,X,X,X,X,X,X,X,X,X,X,X,X,X,X,X,XX + d M e.y.d.p.V p m h.@.x s S f.d.r.A j a O X ,X,X,X,X,X,X,X,X,X,X,X,X,X,X,X,X,X",
",X,X,X,X,X,X,X,X,X,X,X,X,X,X,X,X,X+ % h d a h N a.N.a.s m x a b.m.y.M f a d a $ X ,X,X,X,X,X,X,X,X,X,X,X,X,X,X,X,X,X",
",X,X,X,X,X,X,X,X,X,X,X,X,X,X. % h N A A A j % h N f.V.x.# # n.V.a.B h % M D q.S b a O ,X,X,X,X,X,X,X,X,X,X,X,X,X,X,X",
",X,X,X,X,X,X,X,X,X,X,X,X,X+ S v.b.f.w.N j j a d j Z M.B.h V V.b.N v a f B b N w.a.c.p.h X ,X,X,X,X,X,X,X,X,X,X,X,X,X",
",X,X,X,X,X,X,X,X,X,X,X,X,X% e.x.n.N.B.b.r.A M % N j p.M.S F M.w.v k % N S e.c.B.B.m.b.w.& ,X,X,X,X,X,X,X,X,X,X,X,X,X",
",X,X,X,X,X,X,X,X,X,X,X,X,X,XX X $ f G b.v.i.q.h h B V p.j j p.k M a v q.p.v.b.u.b a & O ,X,X,X,X,X,X,X,X,X,X,X,X,X,X",
",X,X,X,X,X,X,X,X,X,X,X,X,X,X,X,X,X,Xo a F f.p.A g $ $ % O $ % + % h q.d.f.F d X ,X,X,X,X,X,X,X,X,X,X,X,X,X,X,X,X,X,X",
",X,X,X,X,X,X,X,X,X,X,X,X,X,X,X,X,X,X,X,XX g S e.M $ . ,X,X,X,X. % S e.S d X ,X,X,X,X,X,X,X,X,X,X,X,X,X,X,X,X,X,X,X,X",
",X,X,X,X,X,X,X,X,X,X,X,X,X,X,X,X,X,X,X,X,X,X. O O ,X,X,X,X,X,X,X. O O o ,X,X,X,X,X,X,X,X,X,X,X,X,X,X,X,X,X,X,X,X,X,X"
};
