/* XPM */
static char *result[] = {
/* columns rows colors chars-per-pixel */
"58 60 211 2 ",
"   c #13171C",
".  c #07290B",
"X  c #0A2C0D",
"o  c #06270B",
"O  c #0E310E",
"+  c #0E2514",
"@  c #172919",
"#  c #133611",
"$  c #153912",
"%  c #193D14",
"&  c #1D361A",
"*  c #11340F",
"=  c #1B0926",
"-  c #1E0A29",
";  c #160E20",
":  c #1C122C",
">  c #1C1733",
",  c #220C2B",
"<  c #27162A",
"1  c #38192C",
"2  c #290F31",
"3  c #2A1634",
"4  c #34163A",
"5  c #1C243D",
"6  c #2B2B2D",
"7  c #2A262C",
"8  c #37252E",
"9  c #273425",
"0  c #2D2D31",
"q  c #2A293A",
"w  c #342933",
"e  c #373539",
"r  c #303E28",
"t  c #23381E",
"y  c #44222E",
"u  c #4D212F",
"i  c #432334",
"p  c #461E2E",
"a  c #1C4215",
"s  c #15451A",
"d  c #0A421C",
"f  c #254B19",
"g  c #234917",
"h  c #2C521B",
"j  c #29551D",
"k  c #325B1E",
"l  c #30571D",
"z  c #37601E",
"x  c #095024",
"c  c #314526",
"v  c #365E20",
"b  c #365525",
"n  c #3B6422",
"m  c #3E6A23",
"M  c #376121",
"N  c #056F3A",
"B  c #44423C",
"V  c #426C24",
"C  c #45672C",
"Z  c #467126",
"A  c #4D7A2B",
"S  c #4A7628",
"D  c #517D2B",
"F  c #577B34",
"G  c #3D1941",
"H  c #1E2942",
"J  c #1D2740",
"K  c #2D2D4C",
"L  c #242A44",
"P  c #342B4D",
"I  c #3A294D",
"U  c #2C324D",
"Y  c #2A3247",
"T  c #393B45",
"R  c #2D3551",
"E  c #2F3955",
"W  c #333B55",
"Q  c #353D5A",
"!  c #303754",
"~  c #3E2B51",
"^  c #421B45",
"/  c #481E4B",
"(  c #4D214E",
")  c #4B2D49",
"_  c #4A2C55",
"`  c #492A54",
"'  c #542454",
"]  c #5C2B5D",
"[  c #562A59",
"{  c #4D384B",
"}  c #612A5E",
"|  c #682D64",
" . c #633164",
".. c #6C3368",
"X. c #73326D",
"o. c #733A6B",
"O. c #7A3572",
"+. c #7D3975",
"@. c #793874",
"#. c #702F6B",
"$. c #5B3060",
"%. c #3B445C",
"&. c #3A4356",
"*. c #057C43",
"=. c #3C4563",
"-. c #3F4A62",
";. c #434245",
":. c #48484C",
">. c #59595B",
",. c #4B4F59",
"<. c #444C6B",
"1. c #434C67",
"2. c #4E5774",
"3. c #535B7B",
"4. c #505779",
"5. c #4D566B",
"6. c #59647E",
"7. c #656568",
"8. c #6A6C72",
"9. c #777779",
"0. c #6D7074",
"q. c #624458",
"w. c #843B7B",
"e. c #843A7A",
"r. c #89417D",
"t. c #55832E",
"y. c #5B8A2E",
"u. c #58872D",
"i. c #5C8A30",
"p. c #598730",
"a. c #64972F",
"s. c #639332",
"d. c #6A9B35",
"f. c #699735",
"g. c #719C3C",
"h. c #618639",
"j. c #6FA236",
"k. c #75AA37",
"l. c #75A838",
"z. c #7EB43B",
"x. c #048649",
"c. c #00AE63",
"v. c #00A75E",
"b. c #729743",
"n. c #7DA943",
"m. c #82B83C",
"M. c #86AC4B",
"N. c #89B846",
"B. c #92BE4D",
"V. c #95C54C",
"C. c #9AC454",
"Z. c #8EC641",
"A. c #A5CD5B",
"S. c #AAD35D",
"D. c #B1D763",
"F. c #585E81",
"G. c #5C6385",
"H. c #5E6488",
"J. c #636A8D",
"K. c #606989",
"L. c #7C7D81",
"P. c #676C91",
"I. c #6D7497",
"U. c #727A9A",
"Y. c #67728D",
"T. c #787DA3",
"R. c #8C3D81",
"E. c #913E86",
"W. c #943F88",
"Q. c #934385",
"!. c #96428A",
"~. c #9B438D",
"^. c #9D4C8C",
"/. c #9E4490",
"(. c #964E86",
"). c #A34694",
"_. c #AC4A9C",
"`. c #A64897",
"'. c #AB5597",
"]. c #B1549D",
"[. c #BA58A5",
"{. c #C861AE",
"}. c #CB63B1",
"|. c #D669B9",
" X c #D86ABA",
".X c #7C85A4",
"XX c #77839E",
"oX c #88898A",
"OX c #989899",
"+X c #838AAE",
"@X c #8287AE",
"#X c #8C95B6",
"$X c #9197BE",
"%X c #8A90AD",
"&X c #A8A8A9",
"*X c #B8B8B8",
"=X c #969DC2",
"-X c #9DA5C8",
";X c #A1AACC",
":X c #A7ADD3",
">X c #AAB3D5",
",X c #ADB6D8",
"<X c #B1BBDC",
"1X c #BFBFC0",
"2X c #B6BFE1",
"3X c #BBC5E4",
"4X c #C9C9C9",
"5X c #C0CBE8",
"6X c #C6D2EF",
"7X c #C9D5F1",
"8X c None",
/* pixels */
"8X8X8X8X8X8X8X8X8X8X8X8X8X8X8X8X8X8X8X8X8X8X8X8X8X8X8X8X8X8X8X8X8X8X8X8X8X8X8X8X8X8X8X8X8X8X8X8X8X8X8X8X8X8X8X8X8X8X",
"8X8X8X8X8X8X8X8X8X8X8X8X8X8X8X8X8X8X8X8X8X8X8X8X8X8X8X8X8X8X8X8X8X8X8X8X8X8X8X8X8X8X8X8X8X8X8X8X8X8X8X8X8X8X8X8X8X8X",
"8X8X8X8X8X8X8X8X8X8X8X8X8X8X8X8X8X8X8X8X8X8X8X8X8X8X8X8X8X8X8X8X8X8X8X8X8X8X8X8X8X8X8X8X8X8X8X8X8X8X8X8X8X8X8X8X8X8X",
"8X8X8X8X8X8X8X8X8X8X8X8X8X8X8X8X8X8X8X8X8X8X8X8X8X8X8X8X8X8X8X8X8X8X8X8X8X8X8X8X8X8X8X8X8X8X8X8X8X8X8X8X8X8X8X8X8X8X",
"8X8X8X8X8X8X8X8X8X8X8X8X8X8X8X8X8X8X8X8X8X8X8X8X8X8X8X8X8X8X8X8X8X8X8X8X8X8X8X8X8X8X8X8X8X8X8X8X8X8X8X8X8X8X8X8X8X8X",
"8X8X8X8X8X8X8X8X8X8X8X8X8X8X8X8X8X8X8X8X8X8X8X8X8X8X8X8X8X8X8X8X8X8X8X8X8X8X8X8X8X8X8X8X8X8X8X8X8X8X8X8X8X8X8X8X8X8X",
"8X8X8X8X8X8X8X8X8X8X8X8X8X8X8X8X8X8X8X8X8X8X8X8X8X8X8X8X8X8X8X8X8X8X8X8X8X8X8X8X8X8X8X8X8X8X8X8X8X8X8X8X8X8X8X8X8X8X",
"8X8X8X8X8X8X8X8X8X8X8X8X8X8X8X8X8X8X8X8X8X8X8X8X8X8X8X8X8X8X8X8X8X8X8X8X8X8X8X8X8X8X8X8X8X8X8X8X8X8X8X8X8X8X8X8X8X8X",
"8X8X8X8X8X8X8X8X8X8X8X8X8X8X8X8X8X8X8X8X8X8X8X8X8X8X8X8X8X8X8X8X8X8X8X8X8X8X8X8X8X8X8X8X8X8X8X8X8X8X8X8X8X8X8X8X8X8X",
"8X8X8X8X8X8X8X8X8X8X8X8X8X8X8X8X8X8X8X8X8X8X8X8X8X8X8X8X8X8X8X8X8X8X8X8X8X8X8X8X8X8X8X8X8X8X8X8X8X8X8X8X8X8X8X8X8X8X",
"8X8X8X8X8X8X8X8X8X8X8X8X8X8X8X8X8X8X8X8X8X8X8X8X8X8X8X8X8X8X8X8X8X8X8X8X8X8X8X8X8X8X8X8X8X8X8X8X8X8X8X8X8X8X8X8X8X8X",
"8X8X8X8X8X8X8X8X8X8X8X8X8X8X8X8X8X8X8X8X8X8X8X8X8X8X8X8X8X8X8X8X8X8X8X8X8X8X8X8X8X8X8X8X8X8X8X8X8X8X8X8X8X8X8X8X8X8X",
"8X8X8X8X8X8X8X8X8X8X8X8X8X8X8X8X8X8X8X8X8X8X8X8X8X8X8X8X8X8X8X8X8X8X8X8X8X8X8X8X8X8X8X8X8X8X8X8X8X8X8X8X8X8X8X8X8X8X",
"8X8X8X8X8X8X8X8X8X8X8X8X8X8X8X8X8X8X8X8X8X8X8X8X8X8X8X8X8X8X8X8X8X8X8X8X8X8X8X8X8X8X8X8X8X8X8X8X8X8X8X8X8X8X8X8X8X8X",
"8X8X8X8X8X8X8X8X8X8X0 0 8X8X8X8X8X8X8X8X8X8X8X8X8X8X8X8X8X8X8X8X8X8X8X8X8X8X8X8X8X8X8X8X8X8Xw I 8X8X8X8X8X8X8X8X8X8X",
"8X8X8X8X8X8X8X8X8X;.8.e 8X8X8X8X8X8X8X8X8X8X8X8X8X8X8X8X8X8X8X8X8X8X8X8X8X8X8X8X8X8X8X8X8X8XP M.>.0 8X8X8X8X8X8X8X8X",
"8X8X8X8X8X8X8X0 >.&XL.0 8X8X8X8X8X8X8X8X8X8X8X8X8X8X8X8X8X8X8X8X8X8X8X8X8X8X8X8X8X8X8X8X8X8X8X0.4X9.e 8X8X8X8X8X8X8X",
"8X8X8X8X8X5 q 0.4X*X:.8X8X8X8X8X8X8X8X8X8X8X8X8X8X8X8X8X8X8X8X8X8X8X8X8X8X8X8X8X8X8X8X8X8X8X8X&.&X4XoXP H 8X8X8X8X8X",
"8X8X8X8X%.G.:.*X4X0.0 8X8X8X8X8X8X8X8X8X8X8X8X8X8X8X8X8X8X8X8X8X8X8X8X8X8X8X8X8X8X8X8X8X8X8X8X6 7.*X>X<..X2.J 8X8X8X",
"8X8X5 6.>X>X1.oXoXe 8X8X8X8X8X8X8X8X8X8X8X8X8X8X8X8X8X8X8X8X8X8X8X8X8X8X8X8X8X8X8X8X8X8X8X8X8X8Xe 9.b.%.2X3XXXR 8X8X",
"8XY XX3X7X3X1.8.7.6 8X8X8X8X8X8X8X8X8X8X8X8X8X8X8X8X8X8X8X8X8X8X8X8X8X8X8X8X8X8X8X8X8X0 0 8X8X, 8 >.7.2.3X7X6X#XR 8X",
"8X3.2X3X5X6XY.,.;.< , 8Xc ,.Y 8X8X8X8X8X8X8X8X8X8X8X8X8X8X8X8X8X8X8X8X8X8X8X8X8X8X8X8X0 7.;., 1 y { &..X6X3X3X<X3.8X",
"5 G.$X$X;X2X;X! w p < w (.oX0 8X8X8X8X8X8X8X8X8X8X8X8X8X8X8X8X8X8X8X8X8X8X8X8X8X8X8X8X0 oXOXe u u 6 %.<X:X$X+X@X4.5 ",
"5 2.P.Y.I.+X>XU.q p 8 7.5Xb.8X8X8X8X8X8X8X8X8X8X8X8X8X8X8X8X8X8X8X8X8X8X8X8X8X8X8X8X8X7 oX4X0.8 8 Y #X-XT.P.G.G.<.H ",
"5 Y R R =.2.U.;XG.q e OX4X0.< 8X8X0 0 8X8X8X8X8X8X8X8X8X8X8X8X8X8X8X8X8X8X8X8Xe 0 8X- < 0.4XOXT Y .X=XP.=.U H H H 8X",
"8X8X8X> I P =.T.;XH.&.oX*X>.< < 0 7.:.8X8X8X8X8X8X8X8X8X8X8X8X8X8X8X8X8X8X8X8X>.9.0 1 8 >.&X8.%.%X-XP.! ` ( - 8X8X8X",
"8X8X8X- ' @.I =..X>X.X%.7.&.y 0 7.*X:.8X8X8X8X8X8X8X8X8X8X8X8X8X8X8X8X8X8X8X8X,.4X0.w y T &.2.-X;XP.R _ w.[ - 8X8X8X",
"8X8X8X- ' W.+.I =..X<X-X3.L 7 i &X*X;.< 8X8X0 0 8X8X8X8X8X8X8X8X8X8X0 0 8X, < :.*XOXe q %..X3X-XJ.! _ E.~.( - 8X8X8X",
"8X8X8X= / W._.@.I =.T.,X3X#X1.W 8.oXe 1 < e :.0 8X8X8X8X8X8X8X8X8X8X0 >.;.w i e 0.,.%.XX<X3X=XH.R _ R._.E.^ 8X8X8X8X",
"8X8X8X8X4 w._.`.+.I Q P.-X3X2X%X<.&.0 y e oX7.< 8X8X8X8X8X8X8X8X8X8X< 7.OXi 8 q %.U.>X3X:X@X4.K $.Q._._.@.2 8X8X8X8X",
"8X8X8X8X, | _._._.w._ R 2.U.=X<X<X+X<.L &.OX:., 8X8X8X8X8X8X8X8X8X- 1 ;.XX&.Q I.;X2X-X.XH.Q P ..W._._.).' , 8X8X8X8X",
"8X8X8X8X- G R._._._.!. .P ! 1.J.%X:X>X+X5.W 0 p < 8X8X8X8X8X8X8X= 1 y 6 &.Y.-X,X$XP.<.E K [ +.`._._.`.#.G , 8X8X8X8X",
"8X8X8X8X- / [ e._._._.`.R.| ` K E 3..X:X:X.X-.L 1 , 8X8X8X8X8X- 2 1 ! J.-X,X=XJ.Q K `  .+./._._._.W.#.} ^ - 8X8X8X8X",
"8X8X8X8X8XG #.#.#.w./._._.`.~.e.$.I E 3.+X:X:XI.P 3 - 8X8X8X8X, q Q #X,X=XP.Q K _ @.W.`._._./.R.#.#.e.#.4 8X8X8X8X8X",
"8X8X8X8X8X2 ] ~.W.O.X.O.R./._._.).R. .P Q H.$X:XI.U > 8X8X8X- 3 =.+X;XT.<.K _ @.W._._.).E.@.@.R.E.).E./ , 8X8X8X8X8X",
"8X8X8X8X8X= 4 | `.[.{.].Q.e.+.E.`._.`.w.[ K -.T.#XG.Y : 8X8X> ! P.+XJ.Q P ..~._._.W.R.@.Q.].{.|.[.W.' 2 = 8X8X8X8X8X",
"8X8X8X8X8X8X2 / | ~.}. X X{.'.Q.@.w./._.~.X.P %.P.I.F.5 8X: H F.I.F.R _ R.`._.R.X.r.'.{.|.|. X[.+.' ( 2 8X8X8X8X8X8X",
"8X8X8X8X8X8X, ( ] } e.].}. X X|.[.(.X.w.`.`.e.` ! H.I.Q > > <.I.4.K  .W._.W.X.@.'.}.|.|.{.[.Q.#.| | ^ - 8X8X8X8X8X8X",
"8X8X8X8X8X8X8X2 | X.e.@.+.Q.'.}.|. X[.O.X./._.Q._ ! J.F.J H F.F.K  .W._.W.| R.}. X|.[.Q.w.e.R.w.O.] , 8X8X8X8X8X8X8X",
"8X8X8X8X8X8X8X- ^ #.+./.].'.w.o.(.'.'.!.X.| ~._.W._ E H.R E F.R ] W._.W.| w.~.'.^.o.o.^.[.[.Q.O.| 4 8X8X8X8X8X8X8X8X",
"8X8X8X8X8X8X8X8X- ^ } ..o.q.i c f b b c r 9 ) +.Q.#.` =.Q Q Q _ X.R.e.w 9 c c b l f c B { $.} ' 4 - 8X8X8X8X8X8X8X8X",
"8X8X8X8X8X8X8X8X8X, 3 & g m u.j.j.l.l.l.j.a.D b 0 )  .P L H ~  .) r b D a.j.k.k.l.j.s.u.V f & < - 8X8X8X8X8X8X8X8X8X",
"8X8X8X8X8X8X8X8X8X8X+ g M n z z V A u.y.y.s.n.C.M.v 0 ` H L _ 9 C M.C.l.s.i.p.u.A m v v k l a + 8X8X8X8X8X8X8X8X8X8X",
"8X8X8X8X8X8X8X8X8X8X8X+ @ 0 0 9 @ & h S S z Z y.M.A.i.t 3 : t b.A.n.p.V v D V f & @ w e w   + 8X8X8X8X8X8X8X8X8X8X8X",
"8X8X8X8X8X8X8X8X8X8X8X8X- G  .| ' 4 w t n A n M A g.D.i.+ # b.S.f.A v n D k & w 4 ] ..' 2 , 8X8X8X8X8X8X8X8X8X8X8X8X",
"8X8X8X8X8X8X8X8X8X8X8X8X8X- 2 ( | ] ( ) & m t.m M D n.A.j n D.b.A v V t.v t ' ( } } G , 8X8X8X8X8X8X8X8X8X8X8X8X8X8X",
"8X8X8X8X8X8X8X8X8X8X8X8X8X8X8X- 4 ( ( ' _ & S t.m n p.V.S t.N.t.M C t.Z & [ ( / ^ 2 - 8X8X8X8X8X8X8X8X8X8X8X8X8X8X8X",
"8X8X8X8X8X8X8X8X8X8X8X8X8X8X8X8X8X, 2 2 ' 6 h t.F v A l.A A j.Z n t.D g 7 / 2 , - 8X8X8X8X8X8X8X8X8X8X8X8X8X8X8X8X8X",
"8X8X8X8X8X8X8X8X8X8X8X8X8X8X8X8X8X8X8X; = - O b A m m i.j M p.M Z A h + ; ;   8X8X8X8X8X8X8X8X8X8X8X8X8X8X8X8X8X8X8X",
"8X8X8X8X8X8X8X8X8X8X8X8X8X8X8X8XX # g f a O X . % % $ s x x s $ a $ . X % g j f % O 8X8X8X8X8X8X8X8X8X8X8X8X8X8X8X8X",
"8X8X8X8X8X8X8X8X8X8X8X8X8X8X8XX a n u.d.d.a.D l $ o d x.c.c.*.$ . a m y.j.d.a.S l $ X 8X8X8X8X8X8X8X8X8X8X8X8X8X8X8X",
"8X8X8X8X8X8X8X8X8X8X8X8X8X8X8XX * # % f z t.s.l.j.m % x.c.c.N a D l.j.y.S l a # O 8X8X8X8X8X8X8X8X8X8X8X8X8X8X8X8X8X",
"8X8X8X8X8X8X8X8X8X8X8X8X8X8X8X8X8X. O % g a h m d.A.g.s x.x.j M.C.p.v f a a # X 8X8X8X8X8X8X8X8X8X8X8X8X8X8X8X8X8X8X",
"8X8X8X8X8X8X8X8X8X8X8X8X8X8X8X. # h V A D k a h n l.D.b.d s M.D.s.v h % V t.A n a O 8X8X8X8X8X8X8X8X8X8X8X8X8X8X8X8X",
"8X8X8X8X8X8X8X8X8X8X8X8X8X8XO z t.p.t.n n n g a k S V.A.j Z S.N.n v % l V n V D t.S f . 8X8X8X8X8X8X8X8X8X8X8X8X8X8X",
"8X8X8X8X8X8X8X8X8X8X8X8X8XX Z V.A.A.B.d.A Z M % n z a.Z.V D Z.u.M k % n Z S f.B.C.A.N.l 8X8X8X8X8X8X8X8X8X8X8X8X8X8X",
"8X8X8X8X8X8X8X8X8X8X8X8X8X# V S C F n.V.m.s.t.l f z m s.h z s.M M a n t.s.m.C.M.h.F y.V O 8X8X8X8X8X8X8X8X8X8X8X8X8X",
"8X8X8X8X8X8X8X8X8X8X8X8X8X8X8X8X8X8XO h y.k.d.D f $ * % O # % O % l p.j.k.u.h * o 8X. X 8X8X8X8X8X8X8X8X8X8X8X8X8X8X",
"8X8X8X8X8X8X8X8X8X8X8X8X8X8X8X8X8X8X8X8XX f S u.V $ . 8X8X8X8X. a Z u.Z g X 8X8X8X8X8X8X8X8X8X8X8X8X8X8X8X8X8X8X8X8X",
"8X8X8X8X8X8X8X8X8X8X8X8X8X8X8X8X8X8X8X8X8X8X. O O 8X8X8X8X8X8X8X. * * o 8X8X8X8X8X8X8X8X8X8X8X8X8X8X8X8X8X8X8X8X8X8X"
};
