/* XPM */
static char *result[] = {
/* columns rows colors chars-per-pixel */
"58 60 208 2 ",
"   c #07280B",
".  c #0A2C0D",
"X  c #07270A",
"o  c #0E310E",
"O  c #10330F",
"+  c #143511",
"@  c #153A12",
"#  c #193D13",
"$  c #1D371B",
"%  c #142C18",
"&  c #1B0B25",
"*  c #1E0B29",
"=  c #1C1027",
"-  c #230C2C",
";  c #231B2A",
":  c #27152A",
">  c #290F31",
",  c #270E30",
"<  c #2C1433",
"1  c #351739",
"2  c #37172C",
"3  c #1C273B",
"4  c #1F2522",
"5  c #2C2C2E",
"6  c #2B232E",
"7  c #39232E",
"8  c #283A22",
"9  c #2E2E31",
"0  c #2A2837",
"q  c #382D33",
"w  c #342633",
"e  c #35353A",
"r  c #38353A",
"t  c #2A3239",
"y  c #263C1F",
"u  c #431D2E",
"i  c #46222F",
"p  c #41373D",
"a  c #0C421C",
"s  c #1C4115",
"d  c #154419",
"f  c #234917",
"g  c #244C19",
"h  c #234818",
"j  c #2C531B",
"k  c #335C1E",
"l  c #30551D",
"z  c #0B4B22",
"x  c #0B5127",
"c  c #365E20",
"v  c #325620",
"b  c #2E4125",
"n  c #07743E",
"m  c #3A6322",
"M  c #3E6923",
"N  c #376021",
"B  c #426D25",
"V  c #466B2A",
"C  c #467225",
"Z  c #4C7B25",
"A  c #4A7529",
"S  c #4E7A2B",
"D  c #477327",
"F  c #517E2B",
"G  c #557834",
"H  c #3E1A42",
"J  c #1E2841",
"K  c #222A44",
"L  c #2C2A47",
"P  c #322B4C",
"I  c #3A2A4F",
"U  c #2D324D",
"Y  c #3B3B43",
"T  c #3E2A50",
"R  c #2E3651",
"E  c #313A55",
"W  c #353B59",
"Q  c #303754",
"!  c #461D48",
"~  c #49254A",
"^  c #4E324B",
"/  c #482C55",
"(  c #532353",
")  c #5C2C5C",
"_  c #582A5A",
"`  c #53344F",
"'  c #612A5E",
"]  c #6E2E69",
"[  c #672D64",
"{  c #6A3369",
"}  c #73336D",
"|  c #733F69",
" . c #7A3673",
".. c #7C3975",
"X. c #763470",
"o. c #712F6C",
"O. c #5E3163",
"+. c #3A435B",
"@. c #374159",
"#. c #057C43",
"$. c #3C4563",
"%. c #3F4966",
"&. c #464649",
"*. c #484C54",
"=. c #555558",
"-. c #4B515E",
";. c #67435D",
":. c #434C6B",
">. c #424C66",
",. c #47526B",
"<. c #595C65",
"1. c #4C5574",
"2. c #525C79",
"3. c #76456B",
"4. c #656568",
"5. c #777879",
"6. c #6C6D71",
"7. c #843B7B",
"8. c #883B7F",
"9. c #813A78",
"0. c #8A407E",
"q. c #55832E",
"w. c #5B8A2D",
"e. c #58862E",
"r. c #5D8B31",
"t. c #649432",
"y. c #6B9A36",
"u. c #689636",
"i. c #6FA236",
"p. c #75A838",
"a. c #7DB23A",
"s. c #06874B",
"d. c #069554",
"f. c #00AF64",
"g. c #00B165",
"h. c #779D45",
"j. c #82B53E",
"k. c #86AB4B",
"l. c #95BC54",
"z. c #8CB84A",
"x. c #96C54D",
"c. c #9CC853",
"v. c #8EC641",
"b. c #A4CC5B",
"n. c #AAD25E",
"m. c #B3D965",
"M. c #575E81",
"N. c #5E6686",
"B. c #62698B",
"V. c #666C91",
"C. c #6B7196",
"Z. c #6F7499",
"A. c #72799D",
"S. c #737987",
"D. c #767BA1",
"F. c #8C3D81",
"G. c #913F86",
"H. c #8E4283",
"J. c #914384",
"K. c #96418A",
"L. c #9A438D",
"P. c #994889",
"I. c #9F4491",
"U. c #A34694",
"Y. c #A34C93",
"T. c #AC4A9C",
"R. c #A74A98",
"E. c #B1559C",
"W. c #AA5097",
"Q. c #BB58A5",
"!. c #C45EAB",
"~. c #CC63B2",
"^. c #D367B6",
"/. c #D769BA",
"(. c #C660AD",
"). c #7B81A6",
"_. c #77829E",
"`. c #878888",
"'. c #969799",
"]. c #8389AE",
"[. c #888EB3",
"{. c #8A93B4",
"}. c #8E95B9",
"|. c #9299BC",
" X c #8691AD",
".X c #A4A4A4",
"XX c #ACACAC",
"oX c #B5B5B6",
"OX c #AEAEB0",
"+X c #95A0BD",
"@X c #989FC5",
"#X c #9BA3C5",
"$X c #9EA8C7",
"%X c #A2ABCC",
"&X c #A5ACD1",
"*X c #A9B1D5",
"=X c #ACB4D7",
"-X c #B2BCDC",
";X c #A5B1CD",
":X c #B5BEE1",
">X c #B6C2DE",
",X c #BAC4E5",
"<X c #C7C7C7",
"1X c #D0D0D0",
"2X c #C2CDEB",
"3X c #C5D0ED",
"4X c #C9D5F1",
"5X c None",
/* pixels */
"5X5X5X5X5X5X5X5X5X5X5X5X5X5X5X5X5X5X5X5X5X5X5X5X5X5X5X5X5X5X5X5X5X5X5X5X5X5X5X5X5X5X5X5X5X5X5X5X5X5X5X5X5X5X5X5X5X5X",
"5X5X5X5X5X5X5X5X5X5X5X5X5X5X5X5X5X5X5X5X5X5X5X5X5X5X5X5X5X5X5X5X5X5X5X5X5X5X5X5X5X5X5X5X5X5X5X5X5X5X5X5X5X5X5X5X5X5X",
"5X5X5X5X5X5X5X5X5X5X5X5X5X5X5X5X5X5X5X5X5X5X5X5X5X5X5X5X5X5X5X5X5X5X5X5X5X5X5X5X5X5X5X5X5X5X5X5X5X5X5X5X5X5X5X5X5X5X",
"5X5X5X5X5X5X5X5X5X5X5X5X5X5X5X5X5X5X5X5X5X5X5X5X5X5X5X5X5X5X5X5X5X5X5X5X5X5X5X5X5X5X5X5X5X5X5X5X5X5X5X5X5X5X5X5X5X5X",
"5X5X5X5X5X5X5X5X5X5X5X5X5X5X5X5X5X5X5X5X5X5X5X5X5X5X5X5X5X5X5X5X5X5X5X5X5X5X5X5X5X5X5X5X5X5X5X5X5X5X5X5X5X5X5X5X5X5X",
"5X5X5X5X5X5X5X5X5X5X5X5X5X5X5X5X5X5X5X5X5X5X5X5X5X5X5X5X5X5X5X5X5X5X5X5X5X5X5X5X5X5X5X5X5X5X5X5X5X5X5X5X5X5X5X5X5X5X",
"5X5X5X5X5X5X5X5X5X5X5X5X5X5X5X5X5X5X5X5X5X5X5X5X5X5X5X5X5X5X5X5X5X5X5X5X5X5X5X5X5X5X5X5X5X5X5X5X5X5X5X5X5X5X5X5X5X5X",
"5X5X5X5X5X5X5X5X5X5X5X5X5X5X5X5X5X5X5X5X5X5X5X5X5X5X5X5X5X5X5X5X5X5X5X5X5X5X5X5X5X5X5X5X5X5X5X5X5X5X5X5X5X5X5X5X5X5X",
"5X5X5X5X5X5X5X5X5X5X5X5X5X5X5X5X5X5X5X5X5X5X5X5X5X5X5X5X5X5X5X5X5X5X5X5X5X5X5X5X5X5X5X5X5X5X5X5X5X5X5X5X5X5X5X5X5X5X",
"5X5X5X5X5X5X5X5X5X5X5X5X5X5X5X5X5X5X5X5X5X5X5X5X5X5X5X5X5X5X5X5X5X5X5X5X5X5X5X5X5X5X5X5X5X5X5X5X5X5X5X5X5X5X5X5X5X5X",
"5X5X5X5X5X5X5X5X5X5X5X5X5X5X5X5X5X5X5X5X5X9 9 5X5X5X5X5X5X5X5X5X5X5X5X9 e 5X5X5X5X5X5X5X5X5X5X5X5X5X5X5X5X5X5X5X5X5X",
"5X5X5X5X5X5X5X5X5X5X5X5X5X5X5X5X5X5Xr *.5.6.e 5X5X5X5X5X5X5X5X5X5X5X5XY 5.6.=.e 5X5X5X5X5X5X5X5X5X5X5X5X5X5X5X5X5X5X",
"5X5X5X5X5X5X5X5X5X5X5X5XK @.2.N.E 6..X>XOX=.5X5X5X5X5X5X5X5X5X5X5X5X5Xq 4.oX>X.X<.@.C.2.@.J 5X5X5X5X5X5X5X5X5X5X5X5X",
"5X5X5X5X5X5X5X5X5X5XJ 1.{.-X3X;X*.OX<X.X=.5X5X5X5X5X5X5X5X5X5X5X5X5X5X5X5 =.XX<X'.>.>X2X-X[.>.J 5X5X5X5X5X5X5X5X5X5X",
"5X5X5X5X5X5X5X5X5X5X+.$X2X3X4X}.*.`.k./ 5X5X5X5X5X5X5X5X5X5X5X5X5X5X5X5X5X9 *.`.k.+.;X4X2X,X@XU 5X5X5X5X5X5X5X5X5X5X",
"5X5X5X5X5X5X5X5X5XK M.].#X-X3X X>.5.Y 5X5X5X5X5X5X5X5X5X5X5X5X5X5X5X5X5X5X5X6 ^ C.+.$X,X*X@XD.1.J 5X5X5X5X5X5X5X5X5X",
"5X5X5X5X5X5X5X5X5XK :.N.Z.[.:X}.E &.: 5X5X5X5X5X5X5X5X5X5X5X5X5X5X5X5X5X5X5X- 6 &.+.%X=X].C.M.$.J 5X5X5X5X5X5X5X5X5X",
"5X5X5X5X5X5X5X5X5X5XJ K :.V.}.#XU 7 u - 5X9 e 5X5X5X5X5X5X5X5X5X5X5X9 e 5X5X: i 7 @.;X XN.W K 5X5X5X5X5X5X5X5X5X5X5X",
"5X5X5X5X5X5X5X5X5X5X5X- L W C.%X>.u u 6 &.5.=.5X5X5X5X5X5X5X5X5X5X5X5 4.5.^ 6 i 7 N.#XN.Q L * 5X5X5X5X5X5X5X5X5X5X5X",
"5X5X5X5X5X5X5X5X5X5X5X> [ T :.}.A.0 q 4.oXXXr 5X5X5X5X5X5X5X5X5X5X5X5X*.oXOX=.q L {.].W / [ , 5X5X5X5X5X5X5X5X5X5X5X",
"5X5X5X5X5X5X5X5X5X5X5XH 7.{ Q Z.%X+.=.oX<X4.5X5X5X5X5X5X5X5X5X5X5X5X5X5 k.1X.X@.1.%XN.U  ...1 5X5X5X5X5X5X5X5X5X5X5X",
"5X5X5X5X5X5X5X5X5X5X* ! L.G.I 1.#X X+.XX.Xr & 5X5X5X5X5X5X5X5X5X5X5X5X- / OX'.@.#X{.%./ I.G.H 5X5X5X5X5X5X5X5X5X5X5X",
"5X5X5X5X5X5X5X5X5X5X* ( I.R.O.Q D.-XN.-.=.7 : 6 r r 5X5X5X5X5X5 r r ; 2 1 <.*._.=XV.U } R.G.! * 5X5X5X5X5X5X5X5X5X5X",
"5X5X5X5X5X5X5X5X5X5X* ( U.T.F.P 1.$X-X,.0 7 q 4.'.&.5X5X5X5X5X5X=.'.<.q 7 K N.,X}.>./ J.T.I.! * 5X5X5X5X5X5X5X5X5X5X",
"5X5X5X5X5X5X5X5X5X5X- ! U.T.U.[ R Z.:X;X@.t 5.<X`.5 5X5X5X5X5X5X9 .X<X4.0 1.-X=XN.P o.T.T.G.! - 5X5X5X5X5X5X5X5X5X5X",
"5X5X5X5X5X5X5X5X5X5X< ( F.T.T.G.T %.[.,X#X+.4.XX=.: 5X5X5X5X5X* ; 4.'.<.,.=X:XD.W _ G.T.T. .! , 5X5X5X5X5X5X5X5X5X5X",
"5X5X5X5X5X5X5X5X5X5X1 ' [ U.T.T. .P 1.[.,X+X+.-.q u : 6 9 9 ; , i r -.,.;X-X).%.I F.T.T.G.] ' > 5X5X5X5X5X5X5X5X5X5X",
"5X5X5X5X5X5X5X5X5X5X> } X.o.R.T.U.{ U 1.).-X|.W 6 7 q =.&.&.=.q i 0 %.%X=XA.%.P  .U.T.U.o.9.[ , 5X5X5X5X5X5X5X5X5X5X",
"5X5X5X5X5X5X5X5X5X5X- [ I.X.} I.T.U.} P $.D.=X[.Q e `.'.e r .X5.K >.#X&XC.W I ..U.T.G.o.9.G.( - 5X5X5X5X5X5X5X5X5X5X",
"5X5X5X5X5X5X5X5X5X5X- ! G.T.J.X.G.T.R...I E D.*X{.@.6.&.: : =.<.%.@X&XB.U / F.R.T.F.X.I.T.F.! , 5X5X5X5X5X5X5X5X5X5X",
"5X5X5X5X5X5X5X5X5X5X, ( [ T.^.E. .F.T.R.F./ Q D.*X[.E w 2 - 0 $.@X&XN.U _ H.T.T...H.Q.^.U.) ~ - 5X5X5X5X5X5X5X5X5X5X",
"5X5X5X5X5X5X5X5X5X5X- ) ) ..~./.!.F.7.U.T.F./ Q D.*X XQ 7 < @.#X&XB.U O.K.T.I...J.^./.Q.o.' ( * 5X5X5X5X5X5X5X5X5X5X",
"5X5X5X5X5X5X5X5X5X5X* ( } ] H.~./.^.P...P.W.8./ W ).=X).J R }.&XC.R _ K.W.L. .Y.^./.!. .] } ! & 5X5X5X5X5X5X5X5X5X5X",
"5X5X5X5X5X5X5X5X5X5X5XH o.7...9.E.^./.Y.X.I.T.8.T +.[.%X1.:.&XD.W / G.T.J...E././.E.9.7.7.] 1 5X5X5X5X5X5X5X5X5X5X5X",
"5X5X5X5X5X5X5X5X5X5X5X> ) X.U.Y.0.Y.^./.W.} L.R. .P 1.}.Z.W Z.%.I F.T.G.X.E./.~.P.0.W.L.} ( - 5X5X5X5X5X5X5X5X5X5X5X",
"5X5X5X5X5X5X5X5X5X5X5X* 1 ) 9.Q.Q.0.P.^./.Y.] U.U.[ R B.Z.%.Q P X.T.G.{ E./.~.0.0.(.E. .( 1 * 5X5X5X5X5X5X5X5X5X5X5X",
"5X5X5X5X5X5X5X5X5X5X5X5X> ~ ) F.!.~.0.P.^.!. . .T.L./ $.C.M.J O.I.U.o.8.~.^.0.Y.~.!.7.( ! - 5X5X5X5X5X5X5X5X5X5X5X5X",
"5X5X5X5X5X5X5X5X5X5X5X5X& 1 ; w ^ ;.;.^ 0.U.U.] G.T...U M.B.Q ..T.F.} R.Y.| ^ ;.;.^ w 6 1 = 5X5X5X5X5X5X5X5X5X5X5X5X",
"5X5X5X5X5X5X5X5X5X5X5X. # j B D Z q.Z M j 8 r ^ [ T.U._ W V.W G.R.) ^ r 8 l M Z Z Z C m g @ o 5X5X5X5X5X5X5X5X5X5X5X",
"5X5X5X5X5X5X5X5X5X5X  h m D F w.t.y.i.p.a.p.t.V 8 ` 0.{ U M.W } ^ 8 V u.p.a.p.i.y.t.w.F D N s   5X5X5X5X5X5X5X5X5X5X",
"5X5X5X5X5X5X5X5X5X5X5X. O O + + h c S q.q.e.p.l.l.G 8 _ / $.t 8 G l.l.i.q.q.q.D k h @ + . o . 5X5X5X5X5X5X5X5X5X5X5X",
"5X5X5X5X5X5X5X5X5X5X5X5X5X5X5X& 6 5 $ N F k m q.h.b.h.8 ~ 3 h k.b.i.S m m Z k $ 9 : & 5X5X5X5X5X5X5X5X5X5X5X5X5X5X5X",
"5X5X5X5X5X5X5X5X5X5X5X5X5X5X5X5X, ( ~ % l F B c A t.n.h.% s k.b.t.A k M S j % ( ~ - 5X5X5X5X5X5X5X5X5X5X5X5X5X5X5X5X",
"5X5X5X5X5X5X5X5X5X5X5X5X5X5X5X5X5X, ~ H % m q.V v S i.n.m G n.u.A v A q.k 4 ! ! - 5X5X5X5X5X5X5X5X5X5X5X5X5X5X5X5X5X",
"5X5X5X5X5X5X5X5X5X5X5X5X5X5X5X5X5X5X- < ~ y A e.C N q.z.w.A j.F c A q.M $ ! > * 5X5X5X5X5X5X5X5X5X5X5X5X5X5X5X5X5X5X",
"5X5X5X5X5X5X5X5X5X5X5X5X5X5X5X5X5X5X5X* < = g F q.N C p.e.B u.B M q.G s ; < * 5X5X5X5X5X5X5X5X5X5X5X5X5X5X5X5X5X5X5X",
"5X5X5X5X5X5X5X5X5X5X5X5X5X5X5X5X5X5X5X5X5X= . j S M m q.k k F k A A g % & 5X5X5X5X5X5X5X5X5X5X5X5X5X5X5X5X5X5X5X5X5X",
"5X5X5X5X5X5X5X5X5X5X5X5X5X5X5X5X5X5X5X5X5X5X5X. @ # + d a a # + # +   5X5X5X5X5X5X5X5X5X5X5X5X5X5X5X5X5X5X5X5X5X5X5X",
"5X5X5X5X5X5X5X5X5X5X5X5X5X5X5X5X5X5X5X5X5X5X5X5X5X  z #.s.s.n z   5X5X5X5X5X5X5X5X5X5X5X5X5X5X5X5X5X5X5X5X5X5X5X5X5X",
"5X5X5X5X5X5X5X5X5X5X5X5X5X5X5X5Xo + s s @ . 5X5X5X5Xx d.f.f.d.z 5X5X5X  o @ # # + o 5X5X5X5X5X5X5X5X5X5X5X5X5X5X5X5X",
"5X5X5X5X5X5X5X5X5X5X5X5X5X5X5X. g M w.u.t.w.D j +   x d.f.f.s.z X # k Z w.t.t.e.m s . 5X5X5X5X5X5X5X5X5X5X5X5X5X5X5X",
"5X5X5X5X5X5X5X5X5X5X5X5X5X5X5X5Xo # f k Z w.u.p.y.M @ s.g.f.#.# A i.i.t.w.C k f @ o 5X5X5X5X5X5X5X5X5X5X5X5X5X5X5X5X",
"5X5X5X5X5X5X5X5X5X5X5X5X5X5X5X5X5X  O s s h j B i.b.y.d s.s.g k.c.t.M j h s # .   5X5X5X5X5X5X5X5X5X5X5X5X5X5X5X5X5X",
"5X5X5X5X5X5X5X5X5X5X5X5X5X5X5X. # k D F Z j s j M p.m.h.a d k.m.y.m j # k S F B j +   5X5X5X5X5X5X5X5X5X5X5X5X5X5X5X",
"5X5X5X5X5X5X5X5X5X5X5X5X5X5Xs Z t.r.q.m k m s g k Z x.b.j M n.z.M c s h m c M e.w.t.B O 5X5X5X5X5X5X5X5X5X5X5X5X5X5X",
"5X5X5X5X5X5X5X5X5X5X5X5X5X# t.b.n.n.c.y.F A c @ M N t.v.C Z v.w.c m # m D F p.c.n.n.x.F O 5X5X5X5X5X5X5X5X5X5X5X5X5X",
"5X5X5X5X5X5X5X5X5X5X5X5X5X+ j l v V h.x.a.r.q.j j c M t.j c r.N m d c q.t.j.x.i.V c c l O 5X5X5X5X5X5X5X5X5X5X5X5X5X",
"5X5X5X5X5X5X5X5X5X5X5X5X5X5X5X5X5X5Xo j w.a.y.Z g + o @ o + # o $ j q.p.a.q.f . 5X5X5X5X5X5X5X5X5X5X5X5X5X5X5X5X5X5X",
"5X5X5X5X5X5X5X5X5X5X5X5X5X5X5X5X5X5X5X5Xo j Z e.M @   5X5X5X5X. s D q.D f . 5X5X5X5X5X5X5X5X5X5X5X5X5X5X5X5X5X5X5X5X",
"5X5X5X5X5X5X5X5X5X5X5X5X5X5X5X5X5X5X5X5X5X5X  + o 5X5X5X5X5X5X5X. o O   5X5X5X5X5X5X5X5X5X5X5X5X5X5X5X5X5X5X5X5X5X5X"
};
