/* XPM */
static char *result[] = {
/* columns rows colors chars-per-pixel */
"58 60 212 2 ",
"   c #141B1B",
".  c #092B0C",
"X  c #07280B",
"o  c #0E310E",
"O  c #10340F",
"+  c #132917",
"@  c #153A12",
"#  c #1A3D13",
"$  c #1C341A",
"%  c #153613",
"&  c #0D2312",
"*  c #213A1E",
"=  c #1C0927",
"-  c #1E0A29",
";  c #1B162D",
":  c #220C2B",
">  c #2A0F2A",
",  c #26152A",
"<  c #37192C",
"1  c #290F32",
"2  c #2D1235",
"3  c #2B1830",
"4  c #34143A",
"5  c #39183C",
"6  c #1C263A",
"7  c #2B2C2D",
"8  c #262828",
"9  c #38262E",
"0  c #273226",
"q  c #2E2E31",
"w  c #28283A",
"e  c #3C2431",
"r  c #352937",
"t  c #313135",
"y  c #35343A",
"u  c #3B363B",
"i  c #323E2B",
"p  c #45222E",
"a  c #412E37",
"s  c #421F2F",
"d  c #0B441D",
"f  c #1D4215",
"g  c #154419",
"h  c #244B17",
"j  c #254C19",
"k  c #244819",
"l  c #2D541B",
"z  c #2F581D",
"x  c #335B1E",
"c  c #32571F",
"v  c #38621E",
"b  c #0A4E24",
"n  c #355E20",
"m  c #355922",
"M  c #2E4126",
"N  c #376021",
"B  c #3A6322",
"V  c #3F6924",
"C  c #06703B",
"Z  c #426D25",
"A  c #466A2B",
"S  c #457125",
"D  c #4A7529",
"F  c #4E7A2B",
"G  c #497626",
"H  c #517E2C",
"J  c #507E27",
"K  c #4F7231",
"L  c #3C1941",
"P  c #1D2841",
"I  c #2D2D4C",
"U  c #262B44",
"Y  c #332B4C",
"T  c #3D2A4C",
"R  c #2B324D",
"E  c #2A3247",
"W  c #373A46",
"Q  c #3D2B50",
"!  c #2D3451",
"~  c #323A54",
"^  c #353F5B",
"/  c #471D4A",
"(  c #48234A",
")  c #472953",
"_  c #542453",
"`  c #5D2A5C",
"'  c #572A58",
"]  c #5A3555",
"[  c #4E3849",
"{  c #612B5E",
"}  c #633B5C",
"|  c #5D3062",
" . c #652C61",
".. c #6A2D65",
"X. c #6F2F6A",
"o. c #633164",
"O. c #6A3369",
"+. c #6C3067",
"@. c #74336E",
"#. c #753D6C",
"$. c #7B3673",
"%. c #7C3875",
"&. c #773773",
"*. c #3B445A",
"=. c #3D424E",
"-. c #047F45",
";. c #3D4563",
":. c #3F4865",
">. c #48474A",
",. c #4A4C54",
"<. c #535356",
"1. c #574953",
"2. c #65455A",
"3. c #424B66",
"4. c #48526A",
"5. c #5E5E60",
"6. c #4B5474",
"7. c #4F5973",
"8. c #545B7D",
"9. c #515779",
"0. c #7B476F",
"q. c #58627F",
"w. c #666669",
"e. c #696B72",
"r. c #7A7A7B",
"t. c #747578",
"y. c #843A7B",
"u. c #833A7A",
"i. c #8A407E",
"p. c #55832D",
"a. c #59892D",
"s. c #55862B",
"d. c #5D8C31",
"f. c #639332",
"g. c #6B9D35",
"h. c #6A9738",
"j. c #70973E",
"k. c #6EA136",
"l. c #74A33C",
"z. c #75AA37",
"x. c #7FB63B",
"c. c #059755",
"v. c #048A4C",
"b. c #00B165",
"n. c #00AE64",
"m. c #719642",
"M. c #7CA346",
"N. c #82B93C",
"B. c #93BB53",
"V. c #88B447",
"C. c #8EC443",
"Z. c #96C44E",
"A. c #9CC754",
"S. c #A4CC5A",
"D. c #ABD25F",
"F. c #ACD360",
"G. c #B6DB66",
"H. c #5C6385",
"J. c #5E6488",
"K. c #61698B",
"L. c #676C92",
"P. c #6D7397",
"I. c #727A9B",
"U. c #727988",
"Y. c #787DA3",
"T. c #8D3D82",
"R. c #923F87",
"E. c #934386",
"W. c #9B438D",
"Q. c #98448A",
"!. c #9E4491",
"~. c #9F4890",
"^. c #8E4281",
"/. c #A34694",
"(. c #AC4A9B",
"). c #A74997",
"_. c #AA5196",
"`. c #AC5099",
"'. c #BE5CA6",
"]. c #C65EAD",
"[. c #CD64B2",
"{. c #D669B9",
"}. c #D769B9",
"|. c #C861AE",
" X c #7D83A8",
".X c #7F8082",
"XX c #858587",
"oX c #969697",
"OX c #8E8F92",
"+X c #828AAC",
"@X c #868CB2",
"#X c #8C95B6",
"$X c #929ABD",
"%X c #8893AF",
"&X c #96A1BE",
"*X c #A6A6A7",
"=X c #B8B8B8",
"-X c #979DC3",
";X c #9DA6C7",
":X c #A1AACD",
">X c #A0A6CC",
",X c #A5ACD2",
"<X c #ACB4D7",
"1X c #B3BCDE",
"2X c #B6BFE1",
"3X c #B6C1DE",
"4X c #BAC4E5",
"5X c #BEC9E7",
"6X c #C8C8C8",
"7X c #C1CCEA",
"8X c #C8D4F0",
"9X c None",
/* pixels */
"9X9X9X9X9X9X9X9X9X9X9X9X9X9X9X9X9X9X9X9X9X9X9X9X9X9X9X9X9X9X9X9X9X9X9X9X9X9X9X9X9X9X9X9X9X9X9X9X9X9X9X9X9X9X9X9X9X9X",
"9X9X9X9X9X9X9X9X9X9X9X9X9X9X9X9X9X9X9X9X9X9X9X9X9X9X9X9X9X9X9X9X9X9X9X9X9X9X9X9X9X9X9X9X9X9X9X9X9X9X9X9X9X9X9X9X9X9X",
"9X9X9X9X9X9X9X9X9X9X9X9X9X9X9X9X9X9X9X9X9X9X9X9X9X9X9X9X9X9X9X9X9X9X9X9X9X9X9X9X9X9X9X9X9X9X9X9X9X9X9X9X9X9X9X9X9X9X",
"9X9X9X9X9X9X9X9X9X9X9X9X9X9X9X9X9X9X9X9X9X9X9X9X9X9X9X9X9X9X9X9X9X9X9X9X9X9X9X9X9X9X9X9X9X9X9X9X9X9X9X9X9X9X9X9X9X9X",
"9X9X9X9X9X9X9X9X9X9X9X9X9X9X9X9X9X9X9X9X9X9X9X9X9X9X9X9X9X9X9X9X9X9X9X9X9X9X9X9X9X9X9X9X9X9X9X9X9X9X9X9X9X9X9X9X9X9X",
"9X9X9X9X9X9X9X9X9X9X9X9X9X9X9X9X9X9X9X9X9X9X9X9X9X9X9X9X9X9X9X9X9X9X9X9X9X9X9X9X9X9X9X9X9X9X9X9X9X9X9X9X9X9X9X9X9X9X",
"9X9X9X9X9X9X9X9X9X9X9X9X9X9X9X9X9X9X9X9X9X9X9X9X9X9X9X9X9X9X9X9X9X9X9X9X9X9X9X9X9X9X9X9X9X9X9X9X9X9X9X9X9X9X9X9X9X9X",
"9X9X9X9X9X9X9X9X9X9X9X9X9X9X9X9X9X9X9X9X9X9X9X9X9X9X9X9X9X9X9X9X9X9X9X9X9X9X9X9X9X9X9X9X9X9X9X9X9X9X9X9X9X9X9X9X9X9X",
"9X9X9X9X9X9X9X9X9X9X9X9X9X9X9X9X9X9X9X9X9X9X9X9X9X9X9X9X9X9X9X9X9X9X9X9X9X9X9X9X9X9X9X9X9X9X9X9X9X9X9X9X9X9X9X9X9X9X",
"9X9X9X9X9X9X9X9X9X9X9X9X9X9X9X9X9X9X9X9X9X9X9X9X9X9X9X9X9X9X9X9X9X9X9X9X9X9X9X9X9X9X9X9X9X9X9X9X9X9X9X9X9X9X9X9X9X9X",
"9X9X9X9X9X9X9X9X9X9X9X9X9X9X9X9X9X9X9X9X9X9X9X9X9X9X9X9X9X9X9X9X9X9X9X9X9X9X9X9X9X9X9X9X9X9X9X9X9X9X9X9X9X9X9X9X9X9X",
"9X9X9X9X9X9X9X9X9X9X9X9X9X9X9X9X9X9X9X9X9X9X9X9X9X9X9X9X9X9X9X9X9X9X9X9X9X9X9X9X9X9X9X9X9X9X9X9X9X9X9X9X9X9X9X9X9X9X",
"9X9X9X9X9X9X9X9X9X9X9X9X9X9X9X7 9X9X9X9X9X9X9X9X9X9X9X9X9X9X9X9X9X9X9X9X9X9X9X9X9Xq t 9X9X9X9X9X9X9X9X9X9X9X9X9X9X9X",
"9X9X9X9X9X9X9X9X9X9X9X9X9Xt <.<.7 9X9X9X9X9X9X9X9X9X9X9X9X9X9X9X9X9X9X9X9X9X9X9X9Xt <.w.u 9X9X9X9X9X9X9X9X9X9X9X9X9X",
"9X9X9X9X9X9X9X9X9X9X9Xq <.oX*X,.9X9X9X9X9X9X9X9X9X9X9X9X9X9X9X9X9X9X9X9X9X9X9X9X9X9X<.=X*X<.t 9X9X9X9X9X9X9X9X9X9X9X",
"9X9X9X9X9X9X9X9XU ^ E t.=X6Xe.7 9X9X9X9X9X9X9X9X9X9X9X9X9X9X9X9X9X9X9X9X9X9X9X9X9X9X8 w.6X6X.XR 4.R 9X9X9X9X9X9X9X9X",
"9X9X9X9X9X9XP 6.%X;X3.>X6XXXt 9X9X9X9X9X9X9X9X9X9X9X9X9X9X9X9X9X9X9X9X9X9X9X9X9X9X9X9Xt r.=XoX3.3X;XH.E 9X9X9X9X9X9X",
"9X9X9X9X9X~  X5X8X<X| m.r.u 9X9X9X9X9X9X9X9X9X9X9X9X9X9X9X9X9X9X9X9X9X9X9X9X9X9X9X9X9X9Xu t.r.3.3X8X7X#X^ 9X9X9X9X9X",
"9X9X9X9XP  X2X5X8X3X*.t.<.8 9X9X9X9X9X9X9X9X9X9X9X9X9X9X9X9X9X9X9X9X9X9X9X9X9X9X9X9X9X9X8 <.w.4.5X5X4X2XI.P 9X9X9X9X",
"9X9X9X9XR I.-X>X3X5X8.,.r > 9X9X7 t 9X9X9X9X9X9X9X9X9X9X9X9X9X9X9X9X9X9X9X9X9X9Xy t 9X: < u =.L.5X<X-X@XL.R 9X9X9X9X",
"9X9X9X9X~ J.L.I. X1X XU e < , t t.<.9X9X9X9X9X9X9X9X9X9X9X9X9X9X9X9X9X9X9X9X9X9X<.XXu < p e E &X;X XL.J.9.R 9X9X9X9X",
"9X9X9X9XP U ! :.J. X:X:.9 p u OX=X>.9X9X9X9X9X9X9X9X9X9X9X9X9X9X9X9X9X9X9X9X9X9X>.6XoXu p r H.;XI.6.~ U P 6 9X9X9X9X",
"9X9X9X9X9X9X- U R 6.#X#Xw t .X6XoXt 9X9X9X9X9X9X9X9X9X9X9X9X9X9X9X9X9X9X9X9X9X9Xt *X6Xr.q *.;XY.:.Y L ; 9X9X9X9X9X9X",
"9X9X9X9X9X9X- _ o.R H.;X X~ OX6Xt., 9X9X7 q 9X9X9X9X9X9X9X9X9X9X9X9X9X9Xt q 9X- 3 r.6Xt.^ #X$X6.Y O._ = 9X9X9X9X9X9X",
"9X9X9X9X9X9X- ` R.| ~ I.<XP.;..X>.< > q w.>.9X9X9X9X9X9X9X9X9X9X9X9X9X9X>.t.t < e ,.e.*.#X>XJ.R O.W._ - 9X9X9X9X9X9X",
"9X9X9X9X9X9X: { /.R.Q ;. X1XI.~ t p t XX*Xu 9X9X9X9X9X9X9X9X9X9X9X9X9X9Xu =XOXu e w *.;X1XP.^ ' !.!.` = 9X9X9X9X9X9X",
"9X9X9X9X9X9X- _ (.(.%.Y H.@X4X#X~ w 5.6XOX7 9X9X9X9X9X9X9X9X9X9X9X9X9X- q oX=X<.w 7.<X2X X;.Q T.(.!.) = 9X9X9X9X9X9X",
"9X9X9X9X9X9X= / R.(./.X.U H.-X4X:X7.,.U.w.9 > ; q q 9X9X9X9X9X9Xt t , < e w.e.*.I.3X2X X:.Y %.(.(.R.L = 9X9X9X9X9X9X",
"9X9X9X9X9X9X- 4 T.(.(.R.| I H.#X1X3XI.=.W e e u e.u 9X9X9X9X9X9Xu r.>.e t E :.-X4X;XY.;.Y &.).(.(.@.4 - 9X9X9X9X9X9X",
"9X9X9X9X9X9X- L  .R.(.(.R.o.U :.P.-X1X&X3.6 u oX^.8 9X9X9X9X9X9X, XXOXt E K.<X<X+X8.~ Q $.).(.(.T._ L 9X9X9X9X9X9X9X",
"9X9X9X9X9X9X9X/  ...R.(.(./.&.Q R 4.Y.,X:XL.*.w.,.0 - 9X9X9X9X: 3 >.<.3.+X<X-XJ.^ Y ' T.).(.(.y.....L 9X9X9X9X9X9X9X",
"9X9X9X9X9X9X9X4 X.T.X.T.).(.).R.O.Q ! 8.-X<X X:.q 9 > 9X9X9X= < e w H.>X,XY.:.I ' %.!.(.(.R.@.X.R.X.2 9X9X9X9X9X9X9X",
"9X9X9X9X9X9X9X: _ W.!.$.@.T./.(.).y...Y *.I.,X>XH.w < : 9X9X1 r Y Y.<X-XJ.! ) @.!.(.`.W.%.%.E.).T./ : 9X9X9X9X9X9X9X",
"9X9X9X9X9X9X9X- 5 ..(.|.'.E.&.T.).(./.u.) ! K.-X<XK.w 2 - - 2 R  X<X@X6.I ` ^.).(.W.%.u._.[.].W.` 4 = 9X9X9X9X9X9X9X",
"9X9X9X9X9X9X9X= L _ X.`.}.}.'.E.u.y.).(.^.' R 8.#X;X6.w - : U L.>X X:.Y O.W.(.W.%.%._.[.}.{.~. .' 5 9X9X9X9X9X9X9X9X",
"9X9X9X9X9X9X9X9X2 .. .X._.[.}.{.'.y.$.Q.(.W.o.I 6.@XY.^ : 6 :.Y.Y.;.Y &./.(.T.@.~.[.}.}.].^.....{ 1 9X9X9X9X9X9X9X9X",
"9X9X9X9X9X9X9X9X= _ @.y.$.u._.[.}.{._.@.y.(.W.O.I 9.P.H.P ! L.L.:.Y %.)./.&.u.'.}.}.].E.%.y.y.@./ = 9X9X9X9X9X9X9X9X",
"9X9X9X9X9X9X9X9X9X4 ..$./.).i.i.`.[.}.].@.$.(./.O.I H.P.;.;.P.6.Y &.)./.@.y.[.{.[.i.u.~.`.W.@.{ 2 9X9X9X9X9X9X9X9X9X",
"9X9X9X9X9X9X9X9X9X: L ' ] 2.1.a 7 >.2.0.&.` u.(.R.| ! K.H.^ H.I O./.(.@. .0.0.2.a i [ 2.} ' _ 2 = 9X9X9X9X9X9X9X9X9X",
"9X9X9X9X9X9X9X9X9X9X  % k v G s.a.s.s.Z m k 8 } !.R.) :.H.R U ) !.W.] 8 M c Z s.a.a.J G x k +   9X9X9X9X9X9X9X9X9X9X",
"9X9X9X9X9X9X9X9X9X9X. # m B S H d.f.g.l.z.z.f.A M ] o.I 6.R T o.[ i A f.z.z.z.g.f.d.F Z v z @ . 9X9X9X9X9X9X9X9X9X9X",
"9X9X9X9X9X9X9X9X9X9X9X&   7 7 $ # z D H p.a.l.B.B.A 0 T R E ( 0 K B.Z.j.a.p.p.Z z f 0 8 8   & 9X9X9X9X9X9X9X9X9X9X9X",
"9X9X9X9X9X9X9X9X9X9X9X9X- L  .{ e 8 $ x F n B p.M.S.m.$ 6 6 * M.S.m.H B B F x $ 8 a  .` 2 9X9X9X9X9X9X9X9X9X9X9X9X9X",
"9X9X9X9X9X9X9X9X9X9X9X9X9X= 5 { ..( ( 0 z H V n F h.F.j.+ O M.D.f.F n V H l 0 ( / +.` 1 9X9X9X9X9X9X9X9X9X9X9X9X9X9X",
"9X9X9X9X9X9X9X9X9X9X9X9X9X9X= 2 ' { / ' * B p.A n F M.D.c A D.g.F m D p.x 0 ' / ..( 1 9X9X9X9X9X9X9X9X9X9X9X9X9X9X9X",
"9X9X9X9X9X9X9X9X9X9X9X9X9X9X9X9X: / _ _ ' $ F p.V B p.C.H H V.s.n S p.S $ ' _ / 5 - 9X9X9X9X9X9X9X9X9X9X9X9X9X9X9X9X",
"9X9X9X9X9X9X9X9X9X9X9X9X9X9X9X9X9X- 1 5 ` t j p.p.N D z.J G k.A B p.F j r ' 2 1 9X9X9X9X9X9X9X9X9X9X9X9X9X9X9X9X9X9X",
"9X9X9X9X9X9X9X9X9X9X9X9X9X9X9X9X9X9X9X= 2 2 + z F V B d.z x a.B A F j + 2 : = 9X9X9X9X9X9X9X9X9X9X9X9X9X9X9X9X9X9X9X",
"9X9X9X9X9X9X9X9X9X9X9X9X9X9X9X9X9X9X9X9X9X9X9X. @ # @ # d d g O # # . 9X9X9X9X9X9X9X9X9X9X9X9X9X9X9X9X9X9X9X9X9X9X9X",
"9X9X9X9X9X9X9X9X9X9X9X9X9X9X9X9Xo f h h f @ . 9X9XX b v.c.c.-.d X 9X9X. @ f h h # o 9X9X9X9X9X9X9X9X9X9X9X9X9X9X9X9X",
"9X9X9X9X9X9X9X9X9X9X9X9X9X9X9X. f V p.h.k.f.p.x @ X b c.b.b.c.b X # v s.f.g.f.p.B # . 9X9X9X9X9X9X9X9X9X9X9X9X9X9X9X",
"9X9X9X9X9X9X9X9X9X9X9X9X9X9X9X9X. o @ j V s.f.k.k.Z g v.b.n.C # D z.k.d.s.B h @ . 9X9X9X9X9X9X9X9X9X9X9X9X9X9X9X9X9X",
"9X9X9X9X9X9X9X9X9X9X9X9X9X9X9X9X9X. O k f f l V h.S.j.g v.v.f V.A.f.V j f f # . X 9X9X9X9X9X9X9X9X9X9X9X9X9X9X9X9X9X",
"9X9X9X9X9X9X9X9X9X9X9X9X9X9X9Xo k B D H F z # l V z.G.j.d g V.G.h.n l # B H H Z z @ . 9X9X9X9X9X9X9X9X9X9X9X9X9X9X9X",
"9X9X9X9X9X9X9X9X9X9X9X9X9X9Xh f.l.f.a.B n v f k x G Z.S.l V D.V.V n # j B n Z p.a.f.D @ 9X9X9X9X9X9X9X9X9X9X9X9X9X9X",
"9X9X9X9X9X9X9X9X9X9X9X9X9Xf f.B.S.F.A.l.p.D B @ V v f.C.S F C.a.n n # V S p.l.A.D.D.Z.s.O 9X9X9X9X9X9X9X9X9X9X9X9X9X",
"9X9X9X9X9X9X9X9X9X9X9X9X9Xo f k f m m.B.x.f.p.l j v V f.z x f.N B k n p.f.N.Z.j.A m l j o 9X9X9X9X9X9X9X9X9X9X9X9X9X",
"9X9X9X9X9X9X9X9X9X9X9X9X9X9X9X9X9X9X. h s.x.h.F j @ O @ o O @ o @ l p.k.z.s.j o 9X9X9X9X9X9X9X9X9X9X9X9X9X9X9X9X9X9X",
"9X9X9X9X9X9X9X9X9X9X9X9X9X9X9X9X9X9X9X9X. h G a.V @ X 9X9X9X9X. f D a.D k . 9X9X9X9X9X9X9X9X9X9X9X9X9X9X9X9X9X9X9X9X",
"9X9X9X9X9X9X9X9X9X9X9X9X9X9X9X9X9X9X9X9X9X9X. O o 9X9X9X9X9X9X9XX o o X 9X9X9X9X9X9X9X9X9X9X9X9X9X9X9X9X9X9X9X9X9X9X"
};
