/* XPM */
static char *result[] = {
/* columns rows colors chars-per-pixel */
"58 60 209 2 ",
"   c #131B1A",
".  c #07280B",
"X  c #0A2B0C",
"o  c #0E310E",
"O  c #10340F",
"+  c #142A18",
"@  c #143313",
"#  c #163A12",
"$  c #1A3D14",
"%  c #1A3818",
"&  c #0A3D18",
"*  c #1B0A26",
"=  c #1E0A29",
"-  c #1F1128",
";  c #220C2B",
":  c #290F2A",
">  c #29152B",
",  c #35192C",
"<  c #280E30",
"1  c #291534",
"2  c #34153B",
"3  c #35183A",
"4  c #1A253D",
"5  c #182A25",
"6  c #2B2B2E",
"7  c #27222C",
"8  c #3B242F",
"9  c #293725",
"0  c #2E2D31",
"q  c #272838",
"w  c #362834",
"e  c #383739",
"r  c #24381F",
"t  c #421C2E",
"y  c #47222F",
"u  c #1D4215",
"i  c #15461A",
"p  c #0C421A",
"a  c #204616",
"s  c #244A17",
"d  c #254C19",
"f  c #2B4E1C",
"g  c #234519",
"h  c #2C531C",
"j  c #335C1E",
"k  c #32561F",
"l  c #0A4D23",
"z  c #0B5329",
"x  c #365E20",
"c  c #375B22",
"v  c #324528",
"b  c #096635",
"n  c #3B6422",
"m  c #3F6924",
"M  c #396122",
"N  c #426D25",
"B  c #42632A",
"V  c #467226",
"C  c #4A7529",
"Z  c #4E7A2A",
"A  c #4A7627",
"S  c #517D2C",
"D  c #577C34",
"F  c #3D1941",
"G  c #1E2842",
"H  c #232C44",
"J  c #2E2E4C",
"K  c #282A43",
"L  c #322B4C",
"P  c #3A2A4E",
"I  c #2A324C",
"U  c #3D3D43",
"Y  c #3D2B50",
"T  c #2E3451",
"R  c #2F3952",
"E  c #353D5A",
"W  c #333A55",
"Q  c #451D48",
"!  c #4A284A",
"~  c #4A2B55",
"^  c #522352",
"/  c #5D2A5A",
"(  c #552957",
")  c #543350",
"_  c #612A5F",
"`  c #61315C",
"'  c #5C3061",
"]  c #6B2D66",
"[  c #6D3269",
"{  c #643166",
"}  c #73336D",
"|  c #7A3673",
" . c #7C3974",
".. c #763671",
"X. c #702F6B",
"o. c #3C455B",
"O. c #384156",
"+. c #047F45",
"@. c #3C4562",
"#. c #3F4863",
"$. c #444448",
"%. c #555558",
"&. c #484E5B",
"*. c #434C6B",
"=. c #424C67",
"-. c #49536E",
";. c #5B5D62",
":. c #4B5374",
">. c #4F5A75",
",. c #535A7B",
"<. c #7A426F",
"1. c #5E6168",
"2. c #5A647F",
"3. c #636364",
"4. c #6B6B6C",
"5. c #65666A",
"6. c #78797B",
"7. c #6D7078",
"8. c #833B7A",
"9. c #863A7D",
"0. c #88457B",
"q. c #55832E",
"w. c #58872E",
"e. c #5A892D",
"r. c #508127",
"t. c #5C8A30",
"y. c #639332",
"u. c #6A9B34",
"i. c #6B9738",
"p. c #669435",
"a. c #6EA135",
"s. c #72A536",
"d. c #76A939",
"f. c #7EB43B",
"g. c #069252",
"h. c #03A45D",
"j. c #00B165",
"k. c #00AE64",
"l. c #82B63D",
"z. c #84AC48",
"x. c #89B548",
"c. c #92BA51",
"v. c #96C44E",
"b. c #9CC555",
"n. c #8EC641",
"m. c #A3CC59",
"M. c #AAD35C",
"N. c #A9CD61",
"B. c #B2D864",
"V. c #5B6284",
"C. c #5F6589",
"Z. c #686D92",
"A. c #6F7399",
"S. c #6A7394",
"D. c #727A9B",
"F. c #646B8C",
"G. c #777CA2",
"H. c #595F83",
"J. c #8E3E83",
"K. c #913F86",
"L. c #964189",
"P. c #9B438E",
"I. c #974788",
"U. c #9E4491",
"Y. c #985287",
"T. c #A34694",
"R. c #AB4A9B",
"E. c #A54C95",
"W. c #AB5297",
"Q. c #B3569E",
"!. c #BA58A4",
"~. c #BC60A4",
"^. c #C25EAA",
"/. c #C762AE",
"(. c #CD65B2",
"). c #D669B9",
"_. c #D96ABB",
"`. c #D267B6",
"'. c #7C82A7",
"]. c #78829F",
"[. c #979899",
"{. c #8B8B8C",
"}. c #828AAC",
"|. c #868CB1",
" X c #888EB3",
".X c #8A94B3",
"XX c #8D94B9",
"oX c #919ABC",
"OX c #949AA8",
"+X c #9BA1B1",
"@X c #A7A7A7",
"#X c #BCBCBC",
"$X c #979EC3",
"%X c #9DA5C8",
"&X c #A1AACC",
"*X c #A6AED2",
"=X c #A9AFD4",
"-X c #ACB4D6",
";X c #B2BCDC",
":X c #A7B2CF",
">X c #B6BFE0",
",X c #BBC5E5",
"<X c #B5C1DD",
"1X c #C2C2C2",
"2X c #CBCBCB",
"3X c #D0D0CF",
"4X c #C2CCEB",
"5X c #C9D5F1",
"6X c None",
/* pixels */
"6X6X6X6X6X6X6X6X6X6X6X6X6X6X6X6X6X6X6X6X6X6X6X6X6X6X6X6X6X6X6X6X6X6X6X6X6X6X6X6X6X6X6X6X6X6X6X6X6X6X6X6X6X6X6X6X6X6X",
"6X6X6X6X6X6X6X6X6X6X6X6X6X6X6X6X6X6X6X6X6X6X6X6X6X6X6X6X6X6X6X6X6X6X6X6X6X6X6X6X6X6X6X6X6X6X6X6X6X6X6X6X6X6X6X6X6X6X",
"6X6X6X6X6X6X6X6X6X6X6X6X6X6X6X6X6X6X6X6X6X6X6X6X6X6X6X6X6X6X6X6X6X6X6X6X6X6X6X6X6X6X6X6X6X6X6X6X6X6X6X6X6X6X6X6X6X6X",
"6X6X6X6X6X6X6X6X6X6X6X6X6X6X6X6X6X6X6X6X6X6X6X6X6X6X6X6X6X6X6X6X6X6X6X6X6X6X6X6X6X6X6X6X6X6X6X6X6X6X6X6X6X6X6X6X6X6X",
"6X6X6X6X6X6X6X6X6X6X6X6X6X6X6X6X6X6X6X6X6X6X6X6X6X6X6X6X6X6X6X6X6X6X6X6X6X6X6X6X6X6X6X6X6X6X6X6X6X6X6X6X6X6X6X6X6X6X",
"6X6X6X6X6X6X6X6X6X6X6X6X6X6X6X6X6X6X6X6X6X6X6X6X6X6X6X6X6X6X6X6X6X6X6X6X6X6X6X6X6X6X6X6X6X6X6X6X6X6X6X6X6X6X6X6X6X6X",
"6X6X6X6X6X6X6X6X6X6X6X6X6X6X6X6X6X6X6X6X6X6X6X6X6X6X6X6X6X6X6X6X6X6X6X6X6X6X6X6X6X6X6X6X6X6X6X6X6X6X6X6X6X6X6X6X6X6X",
"6X6X6X6X6X6X6X6X6X6X6X6X6X6X6X6X6X6X6X6X6X6X6X6X6X6X6X6X6X6X6X6X6X6X6X6X6X6X6X6X6X6X6X6X6X6X6X6X6X6X6X6X6X6X6X6X6X6X",
"6X6X6X6X6X6X6X6X6X6X6X6X6X6X6X6X6X6X6X6X6X6X6X6X6X6X6X6X6X6X6X6X6X6X6X6X6X6X6X6X6X6X6X6X6X6X6X6X6X6X6X6X6X6X6X6X6X6X",
"6X6X6X6X6X6X6X6X6X6X6X6X6X6X6X6X6X6X6X6X6X6X6X6X6X6X6X6X6X6X6X6X6X6X6X6X6X6X6X6X6X6X6X6X6X6X6X6X6X6X6X6X6X6X6X6X6X6X",
"6X6X6X6X6X6X6X6X6X6X6X6X6X6X6X6X6X6X6X6X6X6X6X6X6X6X6X6X6X6X6X6X6X6X6X6X6X6X6X6X6X6X6X6X6X6X6X6X6X6X6X6X6X6X6X6X6X6X",
"6X6X6X6X6X6X6X6X6X6X6X6X6X6X6X6X6X6X0 6X6X6X6X6X6X6X6X6X6X6X6X6X6X6X6X6X6X6X0 0 6X6X6X6X6X6X6X6X6X6X6X6X6X6X6X6X6X6X",
"6X6X6X6X6X6X6X6X6X6X6X6X6X6X6X6Xe 1.%.e 6X6X6X6X6X6X6X6X6X6X6X6X6X6X6X6X6X6Xw 4.3.v 0 6X6X6X6X6X6X6X6X6X6X6X6X6X6X6X",
"6X6X6X6X6X6X6X6X6X6X6X6XG q O.4.@X@X%.6X6X6X6X6X6X6X6X6X6X6X6X6X6X6X6X6X6X6X6X%.#X@XS.$.H H 4 6X6X6X6X6X6X6X6X6X6X6X",
"6X6X6X6X6X6X6X6X6XG o.S.'.O.@X2X1X3.6 6X6X6X6X6X6X6X6X6X6X6X6X6X6X6X6X6X6X6X6X6 3.1X3X[.o..XD.=.H 6X6X6X6X6X6X6X6X6X",
"6X6X6X6X6X6X6X6X@.}.<X5X%Xo.@X@X3.6 6X6X6X6X6X6X6X6X6X6X6X6X6X6X6X6X6X6X6X6X6X6X0 3.@X[.o.-X5X,X.X#.6X6X6X6X6X6X6X6X",
"6X6X6X6X6X6X6XT oX4X4X5XoX&.].%.0 6X6X6X6X6X6X6X6X6X6X6X6X6X6X6X6X6X6X6X6X6X6X6X6X0 1.6.o.:X4X4X,X.XI 6X6X6X6X6X6X6X",
"6X6X6X6X6X6X6X*.|.$X;X4X%X$.3.e > 6X6X6X6X6X6X6X6X6X6X6X6X6X6X6X6X6X6X6X6X6X6X6X6X> e 3.o.;X,X*X$XG.@.6X6X6X6X6X6X6X",
"6X6X6X6X6X6XG *.C.A.'.*X;Xo.e , ; 6X6X0 6 6X6X6X6X6X6X6X6X6X6X6X6X6X6X6X6X0 e 6X; : 8 e :.;X%XG.Z.H.@.4 6X6X6X6X6X6X",
"6X6X6X6X6X6X6XG I @.V.D.:X2.w y , 7 %.4.e 6X6X6X6X6X6X6X6X6X6X6X6X6X6X6X6Xe 6.%.7 t y q D.%XA.:.W G 4 6X6X6X6X6X6X6X",
"6X6X6X6X6X6X6X6X6X1 J :.|.XXJ y w 4.#X6.6X6X6X6X6X6X6X6X6X6X6X6X6X6X6X6X6X6 {.1X4.8 8 W %XG.@.L 1 6X6X6X6X6X6X6X6X6X",
"6X6X6X6X6X6X6X6X6XQ ' J C.%X2.q 3.1X#X$.6X6X6X6X6X6X6X6X6X6X6X6X6X6X6X6X6X6X&.1X#X3.q ].$X:.L [ F 6X6X6X6X6X6X6X6X6X",
"6X6X6X6X6X6X6X6X* ^ J.~ E '.%X@.7.2X{.7 6X6X6X6X6X6X6X6X6X6X6X6X6X6X0 6X6X= 0 [.#X;.>.*XA.R ' J.Q * 6X6X6X6X6X6X6X6X",
"6X6X6X6X6X6X6X6X= ( U.J.L ,.%X$Xo.6.%., > 7 $.e 6X6X6X6X6X6X6X6X6X6X$.$.7 > 8 %.5.*.*XXX*.P L.U.^ = 6X6X6X6X6X6X6X6X",
"6X6X6X6X6X6X6X6X= _ T.T._ T A.;X.XO.0 y w 4.[.U 6X6X6X6X6X6X6X6X6X6X$.@X7.8 y 0 @.&X*XC.L ..R.T.^ = 6X6X6X6X6X6X6X6X",
"6X6X6X6X6X6X6X6X; ^ T.R.K.Y #.|.<X.XT 0 5.2X{.6 6X6X6X6X6X6X6X6X6X6X0 [.1X3.q =.:X>XG.E ~ K.R.U.Q = 6X6X6X6X6X6X6X6X",
"6X6X6X6X6X6X6X6X; Q K.R.R...J ,.%X,XoXO.1.@X;.> = 6X6X6X6X6X6X6X6X; 1 4.[.&.-.:X,X|.#.P J.R.R.K.F = 6X6X6X6X6X6X6X6X",
"6X6X6X6X6X6X6X6X< Q 9.R.R.U.{ J V.oX<X%X=.&.U y , 7 e 0 6X6X0 U 6 , y U O.2.;X;X|.*.L ..R.R.T.] Q < 6X6X6X6X6X6X6X6X",
"6X6X6X6X6X6X6X6X; / _ J.R.R.P.' I :.}.-X=X:.q 8 e 6.3.6 6X6X0 4.z.Y F H S.;X*XA.@.L } T.R.R.9.{ ( ; 6X6X6X6X6X6X6X6X",
"6X6X6X6X6X6X6X6X; ( 8.] K.R.R.U.{ L E S.%X*XC.H 3.@XU = 6X6X; $.OX%.J G.-XoX,.T Y | T.R.T.8.X.9.^ = 6X6X6X6X6X6X6X6X",
"6X6X6X6X6X6X6X6X= Q J.L.] | U.R.T.9.~ T H.$X-XD.O.$.8 : 6X6X> 8 W #. X=X}.*.J ' J.R.R.P.} } T.| F * 6X6X6X6X6X6X6X6X",
"6X6X6X6X6X6X6X6X= 1 ] R.R.I.| K.R.R.K.{ J #.|.;X'.R 8 , = : , w #.$X=XG.E P ..U.R.T.8. .R.R.T./ 1 6X6X6X6X6X6X6X6X6X",
"6X6X6X6X6X6X6X6X6X2 ^ | !.).!.9. .P.R.E.| P E '.=XXXE 8 : : w -.%X&XZ.T ~ 8.E.R.L. .I./._.Q.] ^ 2 6X6X6X6X6X6X6X6X6X",
"6X6X6X6X6X6X6X6X6X2 _ / 9.(._.`.E.| 9.R.E.8.~ E G.=X|.I 1 1 E $X&XZ.T ~ J.R.T.8.8.Q.`._.!.| / _ < 6X6X6X6X6X6X6X6X6X",
"6X6X6X6X6X6X6X6X6X; / } X.0.!._._.^.0. .T.R.9.P E G.%XV.H H A.$XZ.T ( K.R.P...I.(._.`.Q.| } } ^ = 6X6X6X6X6X6X6X6X6X",
"6X6X6X6X6X6X6X6X6X* Q [ 9.9.8.I./._.(.I.} P.R.8.Y @.G.G.E @.G.A.E ~ K.R.J.} W.).).!.0.8.K.9.} 2 6X6X6X6X6X6X6X6X6X6X",
"6X6X6X6X6X6X6X6X6X6X< ^ } P.!.I.8.Q._.`.E.] U.R. .L :.A.H.R F.@.Y J.R.K.] Q._.).E.8.W.!.K.} Q : 6X6X6X6X6X6X6X6X6X6X",
"6X6X6X6X6X6X6X6X6X6X; 2 ^ ` 0.Y.<.) 0./.^.9.X.T.T.[ J V.Z.E @.J ..R.U.] K./.!. .) 0.Y. ./ ! 1 6X6X6X6X6X6X6X6X6X6X6X",
"6X6X6X6X6X6X6X6X6X6X6X+ % g h j j k h k e ) ! } R.U.~ @.Z.@.G ' U.R.{ ) ) v v k j c c f g +   6X6X6X6X6X6X6X6X6X6X6X",
"6X6X6X6X6X6X6X6X6X6XX u M Z e.p.s.s.d.s.u.r.k 9 ` I. .L ,.:.P J.L.) r h r.u.d.d.s.s.y.e.A M $ X 6X6X6X6X6X6X6X6X6X6X",
"6X6X6X6X6X6X6X6X6X6X6XX @ @ % d k C q.e.y.s.x.z.D 9 ~ ( W -.P ! e t.x.f.s.y.t.w.C k s $ % @ o 6X6X6X6X6X6X6X6X6X6X6X",
"6X6X6X6X6X6X6X6X6X6X6X6X6X* w ! 0 % f A S n S s.b.c.x w L T + B c.c.i.Z n Z C d % w ! > * 6X6X6X6X6X6X6X6X6X6X6X6X6X",
"6X6X6X6X6X6X6X6X6X6X6X6X6X6X< ^ [ ! 7 % N C j N w.x.N.M 5 5 C N.z.w.m x C m % > ^ X.Q ; 6X6X6X6X6X6X6X6X6X6X6X6X6X6X",
"6X6X6X6X6X6X6X6X6X6X6X6X6X6X6X; Q ] Q w % C S j m q.c.b.u h m.x.q.n M q.V % w ^ { 3 ; 6X6X6X6X6X6X6X6X6X6X6X6X6X6X6X",
"6X6X6X6X6X6X6X6X6X6X6X6X6X6X6X6X; Q ^ ^ e i S q.M N y.b.C D b.e.m n q.Z a y ~ ^ 2 = 6X6X6X6X6X6X6X6X6X6X6X6X6X6X6X6X",
"6X6X6X6X6X6X6X6X6X6X6X6X6X6X6X6X6X= 1 F _ 9 n q.Z x S f.q.V d.Z x S q.x 6 ( 3 1 = 6X6X6X6X6X6X6X6X6X6X6X6X6X6X6X6X6X",
"6X6X6X6X6X6X6X6X6X6X6X6X6X6X6X6X6X6X6X= 2 3 % V q.m V u.V V y.m m q.m @ 3 2 = 6X6X6X6X6X6X6X6X6X6X6X6X6X6X6X6X6X6X6X",
"6X6X6X6X6X6X6X6X6X6X6X6X6X6X6X6X6X6X6X6X6X;   # j k f x $ a j s x k @   = 6X6X6X6X6X6X6X6X6X6X6X6X6X6X6X6X6X6X6X6X6X",
"6X6X6X6X6X6X6X6X6X6X6X6X6X6X6X6X6X6X6X6X6X6X6X6XX X & z b b l & X X 6X6X6X6X6X6X6X6X6X6X6X6X6X6X6X6X6X6X6X6X6X6X6X6X",
"6X6X6X6X6X6X6X6X6X6X6X6X6X6X6XX O $ s s u o . 6X6XX z g.h.h.g.l 6X6X6X. @ u a u # o 6X6X6X6X6X6X6X6X6X6X6X6X6X6X6X6X",
"6X6X6X6X6X6X6X6X6X6X6X6X6X6X6XX a m w.p.u.y.Z j # . l g.k.k.g.l X $ x Z y.u.u.q.n u X 6X6X6X6X6X6X6X6X6X6X6X6X6X6X6X",
"6X6X6X6X6X6X6X6X6X6X6X6X6X6X6X6XX O $ h N e.y.s.a.m % g.k.k.b i C a.s.y.e.m f $ O X 6X6X6X6X6X6X6X6X6X6X6X6X6X6X6X6X",
"6X6X6X6X6X6X6X6X6X6X6X6X6X6X6X6X6XX # u u a h N u.m.i.d g.g.d z.b.y.n h u u u o X 6X6X6X6X6X6X6X6X6X6X6X6X6X6X6X6X6X",
"6X6X6X6X6X6X6X6X6X6X6X6X6X6X6Xo s n C q.A h u h m d.B.i.& i z.B.u.M h $ j Z Z V h $ X 6X6X6X6X6X6X6X6X6X6X6X6X6X6X6X",
"6X6X6X6X6X6X6X6X6X6X6X6X6X6Xs u.d.p.w.n x M u a j A v.m.s N M.x.m x u s M j m w.y.p.S # 6X6X6X6X6X6X6X6X6X6X6X6X6X6X",
"6X6X6X6X6X6X6X6X6X6X6X6X6Xu u.c.m.N.b.s.q.A M # N j u.n.V A n.e.x M $ n A q.d.b.M.M.v.e.O 6X6X6X6X6X6X6X6X6X6X6X6X6X",
"6X6X6X6X6X6X6X6X6X6X6X6X6X@ u u u c i.c.f.t.q.h h M m t.h M t.M n u M w.y.l.v.i.B h f a o 6X6X6X6X6X6X6X6X6X6X6X6X6X",
"6X6X6X6X6X6X6X6X6X6X6X6X6X6X6X6X6X6XX d e.f.u.Z a # o u o O u o # h q.a.f.q.s X 6X6X6X6X6X6X6X6X6X6X6X6X6X6X6X6X6X6X",
"6X6X6X6X6X6X6X6X6X6X6X6X6X6X6X6X6X6X6X6Xo d A w.m # . 6X6X6X6X. u A w.A a X 6X6X6X6X6X6X6X6X6X6X6X6X6X6X6X6X6X6X6X6X",
"6X6X6X6X6X6X6X6X6X6X6X6X6X6X6X6X6X6X6X6X6X6XX @ o 6X6X6X6X6X6X6X. o o . 6X6X6X6X6X6X6X6X6X6X6X6X6X6X6X6X6X6X6X6X6X6X"
};
