/* XPM */
static char *result[] = {
/* columns rows colors chars-per-pixel */
"58 60 204 2 ",
"   c #16191E",
".  c #0E1E15",
"X  c #0A2B0D",
"o  c #07290C",
"O  c #0E310E",
"+  c #10330F",
"@  c #0C2411",
"#  c #0E3B15",
"$  c #123610",
"%  c #163A11",
"&  c #1A3D14",
"*  c #1B3419",
"=  c #1A2D1B",
"-  c #1C0927",
";  c #1D0A29",
":  c #1B1A35",
">  c #1A1A22",
",  c #230C2B",
"<  c #290F2A",
"1  c #26172B",
"2  c #381A2D",
"3  c #290F32",
"4  c #2D1336",
"5  c #33143A",
"6  c #38163E",
"7  c #1B243D",
"8  c #292B29",
"9  c #3A252E",
"0  c #2E2D31",
"q  c #2A2639",
"w  c #362633",
"e  c #323235",
"r  c #39363A",
"t  c #27362B",
"y  c #451C2E",
"u  c #48212F",
"i  c #402230",
"p  c #0C431C",
"a  c #1D4215",
"s  c #164218",
"d  c #254B19",
"f  c #294F1A",
"g  c #224817",
"h  c #2C541B",
"j  c #2F591C",
"k  c #335B1E",
"l  c #38621F",
"z  c #0B4B23",
"x  c #0B4720",
"c  c #0C572B",
"v  c #2B4621",
"b  c #365E20",
"n  c #345422",
"m  c #344928",
"M  c #0B6434",
"N  c #3B6422",
"B  c #3E6923",
"V  c #376021",
"C  c #426D25",
"Z  c #416628",
"A  c #467226",
"S  c #4A7529",
"D  c #4E7A2B",
"F  c #4B7926",
"G  c #517C2D",
"H  c #547932",
"J  c #3E1942",
"K  c #232B43",
"L  c #2E2D4C",
"P  c #292843",
"I  c #342B4C",
"U  c #3B2A4F",
"Y  c #2C334E",
"T  c #293249",
"R  c #3D3E42",
"E  c #323846",
"W  c #2D3551",
"Q  c #2E3852",
"!  c #333B57",
"~  c #3E2B51",
"^  c #1E2540",
"/  c #411B45",
"(  c #481E4B",
")  c #482948",
"_  c #4A2A54",
"`  c #572957",
"'  c #543350",
"]  c #612B5F",
"[  c #5C2F60",
"{  c #642C61",
"}  c #6A2E66",
"|  c #6D2E68",
" . c #6E336B",
".. c #663367",
"X. c #73336D",
"o. c #783F6E",
"O. c #7B3574",
"+. c #7D3A75",
"@. c #7A3774",
"#. c #712F6C",
"$. c #39425B",
"%. c #394259",
"&. c #0C7942",
"*. c #3C4563",
"=. c #47474A",
"-. c #494E5A",
";. c #565658",
":. c #444C6C",
">. c #414966",
",. c #485169",
"<. c #4C5474",
"1. c #4D5871",
"2. c #545D7C",
"3. c #515C76",
"4. c #5A5D65",
"5. c #75436B",
"6. c #5B6275",
"7. c #68686B",
"8. c #6B6C72",
"9. c #78787A",
"0. c #853B7B",
"q. c #883C7E",
"w. c #803877",
"e. c #884C7A",
"r. c #55832E",
"t. c #5A8A2D",
"y. c #58872E",
"u. c #5E8C31",
"i. c #5E902F",
"p. c #649333",
"a. c #6A9B34",
"s. c #6C9839",
"d. c #628E35",
"f. c #6FA136",
"g. c #75A938",
"h. c #7FB43C",
"j. c #088F50",
"k. c #069655",
"l. c #09894C",
"z. c #02A55E",
"x. c #00AF64",
"c. c #00B065",
"v. c #729742",
"b. c #83BA3D",
"n. c #8DB54E",
"m. c #95C34D",
"M. c #9DC656",
"N. c #8FC641",
"B. c #A4CB5B",
"V. c #AAD25E",
"C. c #B6DC66",
"Z. c #585F82",
"A. c #5A6283",
"S. c #626B8A",
"D. c #696E94",
"F. c #676C91",
"G. c #6D7496",
"H. c #737A9D",
"J. c #6F7689",
"K. c #787CA3",
"L. c #8D3D82",
"P. c #923F86",
"I. c #964289",
"U. c #9A438D",
"Y. c #974788",
"T. c #9E4491",
"R. c #934685",
"E. c #A34694",
"W. c #A54B95",
"Q. c #AB4A9B",
"!. c #A74898",
"~. c #AC5398",
"^. c #BC5BA5",
"/. c #C35FAA",
"(. c #C660AD",
"). c #CD64B2",
"_. c #D96ABB",
"`. c #D568B8",
"'. c #76819E",
"]. c #7F8081",
"[. c #7C83A6",
"{. c #858687",
"}. c #969797",
"|. c #8F9196",
" X c #8389AD",
".X c #888EB4",
"XX c #8B93B7",
"oX c #929BBC",
"OX c #96A1BD",
"+X c #B8B8B8",
"@X c #A4A4A5",
"#X c #979EC3",
"$X c #9CA4C7",
"%X c #A2ABCC",
"&X c #A1A7CE",
"*X c #A6ADD2",
"=X c #ABB3D6",
"-X c #ADB5D9",
";X c #B2BBDD",
":X c #BBC6E5",
">X c #C8C7C7",
",X c #C5D1EE",
"<X c #C7D2EF",
"1X c None",
/* pixels */
"1X1X1X1X1X1X1X1X1X1X1X1X1X1X1X1X1X1X1X1X1X1X1X1X1X1X1X1X1X1X1X1X1X1X1X1X1X1X1X1X1X1X1X1X1X1X1X1X1X1X1X1X1X1X1X1X1X1X",
"1X1X1X1X1X1X1X1X1X1X1X1X1X1X1X1X1X1X1X1X1X1X1X1X1X1X1X1X1X1X1X1X1X1X1X1X1X1X1X1X1X1X1X1X1X1X1X1X1X1X1X1X1X1X1X1X1X1X",
"1X1X1X1X1X1X1X1X1X1X1X1X1X1X1X1X1X1X1X1X1X1X1X1X1X1X1X1X1X1X1X1X1X1X1X1X1X1X1X1X1X1X1X1X1X1X1X1X1X1X1X1X1X1X1X1X1X1X",
"1X1X1X1X1X1X1X1X1X1X1X1X1X1X1X1X1X1X1X1X1X1X1X1X1X1X1X1X1X1X1X1X1X1X1X1X1X1X1X1X1X1X1X1X1X1X1X1X1X1X1X1X1X1X1X1X1X1X",
"1X1X1X1X1X1X1X1X1X1X1X1X1X1X1X1X1X1X1X1X1X1X1X1X1X1X1X1X1X1X1X1X1X1X1X1X1X1X1X1X1X1X1X1X1X1X1X1X1X1X1X1X1X1X1X1X1X1X",
"1X1X1X1X1X1X1X1X1X1X1X1X1X1X1X1X1X1X1X1X1X1X1X1X1X1X1X1X1X1X1X1X1X1X1X1X1X1X1X1X1X1X1X1X1X1X1X1X1X1X1X1X1X1X1X1X1X1X",
"1X1X1X1X1X1X1X1X1X1X1X1X1X1X1X1X1X1X1X1X1X1X1X1X1X1X1X1X1X1X1X1X1X1X1X1X1X1X1X1X1X1X1X1X1X1X1X1X1X1X1X1X1X1X1X1X1X1X",
"1X1X1X1X1X1X1X1X1X1X=.r 1X1X1X1X1X1X1X1X1X1X1X1X1X1X1X1X1X1X1X1X1X1X1X1X1X1X1X1X1X1X1X1X1X0 =.m 1X1X1X1X1X1X1X1X1X1X",
"1X1X1X1X1X1X1X1X0 ;.}.=.1X1X1X1X1X1X1X1X1X1X1X1X1X1X1X1X1X1X1X1X1X1X1X1X1X1X1X1X1X1X1X1X1X1X4.}.4.9 1X1X1X1X1X1X1X1X",
"1X1X1X1X1X1X1Xr 9.>X{.0 1X1X1X1X1X1X1X1X1X1X1X1X1X1X1X1X1X1X1X1X1X1X1X1X1X1X1X1X1X1X1X1X1X1Xr @X=X8.r 1X1X1X1X1X1X1X",
"1X1X1X1X1XY T ].>X+X=.1X1X1X1X1X1X1X1X1X1X1X1X1X1X1X1X1X1X1X1X1X1X1X1X1X1X1X1X1X1X1X1X1X1X1X1X4.>X>X8.Y Q 1X1X1X1X1X",
"1X1X1XK 2.OX:.|.+X8.0 1X1X1X1X1X1X1X1X1X1X1X1X1X1X1X1X1X1X1X1X1X1X1X1X1X1X1X1X1X1X1X1X1X1X1X1Xe 9.+X8.S.%X3.K 1X1X1X",
"1X1XQ [.,X,X3.7.n.U 1 1X1X1X1X1X1X1X1X1X1X1X1X1X1X1X1X1X1X1X1X1X1X1X1X1X1X1X1X1X1X1X1X1X1X1X1X1 =.n.-.'.<X,X'.T 1X1X",
"1XT  X,X,X,X'.-.6.J < , 1Xe e 1X1X1X1X1X1X1X1X1X1X1X1X1X1X1X1X1X1X1X1X1X1X1X1X1X1X1X1Xr r 1X1 2 U Z.%.$X,X,X,XK.K 1X",
"1X*.*X-X;X:X%X$.R 9 y < r 9.r 1X1X1X1X1X1X1X1X1X1X1X1X1X1X1X1X1X1X1X1X1X1X1X1X1X1X1X1X;.R.e 2 u i E 3.:X;X-X*XXXW 1X",
"1X*.K.K. X$X;XJ.q u u r |.@Xr 1X1X1X1X1X1X1X1X1X1X1X1X1X1X1X1X1X1X1X1X1X1X1X1X1X1X1X1X=.;Xv.9 u y P oX=XXXK.H.G.! 1X",
"7 ! <.<.Z.D. X&X<.w 9 7.>X}.0 1X1X1X0 1X1X1X1X1X1X1X1X1X1X1X1X1X1X1X1X1X1X1X1X1X1X1X1Xr +X+X;.w q G.#XK.Z.<.:.*.T 1X",
"1X^ ^ 7 P W <. X$X*.e {.>X{.1 , 1Xe R 1X1X1X1X1X1X1X1X1X1X1X1X1X1X1X1X1X1X1X0 =.0 ; < r @X>X8.q S.&XG.*.L q : 1X1X1X",
"1X1X1X1XJ [ L <..X$X3.-.}.7.9 y 0 9.7.1X1X1X1X1X1X1X1X1X1X1X1X1X1X1X1X1X1X1X0 {.8.8 u w 8.J.%.H.*XK.*.U ..J 1X1X1X1X",
"1X1X1X1X/ L. .L 3.XX;X'.%.E 9 w 8.>X7.1 1X1X1X1X1X1X1X1X1X1X1X1X1X1X1X1X1X1X1 {.>X;.9 w E ,.OX=XK.$.I L.+.5 1X1X1X1X",
"1X1X1X1XJ L.T...L <..X:X$XA.K e {.+X;.2 < > e e 1X1X1X1X1X1X1X1X1X1Xe e 1 < 9 8.+X7.q %.'.;X=XK.$.U +.Q.O.4 1X1X1X1X",
"1X1X1X1X4 O.Q.E...L <.[.;X:XOX3.%.4.=.i 2 =.8.e 1X1X1X1X1X1X1X1X1X1Xr 8.r u i -.-.! G.-X:X$XG.! ~ O.!.Q.} 3 1X1X1X1X",
"1X1X1X1X, ] Q.Q.E. .I *.G.#X;X:XXX3.T w r |.9.1 1X1X1X1X1X1X1X1X1X1X8 }.9.w q ! J.%X:X*XXXA.W _ L.Q.Q.T.( ; 1X1X1X1X",
"1X1X1X1X; J P.Q.Q.!.O.~ W :.F.XX=X-X.X1.E 7.=.2 < 1X1X1X1X1X1X1X1X< 9 ;.4.Q A.#X;X$XK.A.$.L [ R.!.Q.Q.O.5 ; 1X1X1X1X",
"1X1X1X1X; 6 ` P.Q.Q.Q.P.X.) L ! 2.K.&X=XXX<.K 6 y , 1X1X1X1X1X1X< y w Y A.#X-X#XH.*.W I _ O.E.Q.Q.!.L.( J 1X1X1X1X1X",
"1X1X1X1X1X6 { | 0.!.Q.Q.!.I.@.[ I W <.K.*X=X X:.q 2 , 1X1X1X1X, 2 P :.XX-X#XG.*.W _ ..0.T.Q.Q.Q.P.X.} { 3 1X1X1X1X1X",
"1X1X1X1X1X3 { q.X.| w.P.E.Q.Q.E.L...U W <.[.&X&X2.P 1 ; 1X1X- 1 P S.*X*XK.:.L _  .P.!.Q.Q.T.q.#.#.L.L.( , 1X1X1X1X1X",
"1X1X1X1X1X- 5 O.!.T.Y.q.@.0.I.!.Q.!.I...I ! S.#X#X<.P ; 1X1X; P Z.#XXXZ.Q ~  .I.Q.Q.E.L.0.+.R.~.Q.E.] 3 1X1X1X1X1X1X",
"1X1X1X1X1X1X, ( O.Q.`.`./.W.e.+.L.T.Q.E.L._ Y <.K.K.:.: ; - : <.K.K.:.L ` L.E.Q.U.0.@.R.~.)._.).E.| J , 1X1X1X1X1X1X",
"1X1X1X1X1X1X; ( ` } T.)._._.).^.I.@.O.T.Q.U...L *.D.D.! : : ! D.D.*.I  .T.Q.U.@.+.W.(.`._.`.(.L.] ` / ; 1X1X1X1X1X1X",
"1X1X1X1X1X1X1X5 } } | w.W.^.)._.`.(.I. .L.!.T.@.U *.D.Z.^ ^ A.D.*.I @.E.Q.0. .W.)._.`.(.~.R.@.X.| { 3 1X1X1X1X1X1X1X",
"1X1X1X1X1X1X1X; ( X.0.P.e.0.0.W.(._._.!.#.O.Q.!.+.U >.F.W ! D.*.U O.!.!.@.#.~._.`.^.Y.0.R.U.I.O.| J - 1X1X1X1X1X1X1X",
"1X1X1X1X1X1X1X1X, ` X.0.Q.^.Y...' 5.e.5.5.} X.Q.!. .L <.*.>.:.L X.Q.Q.X.` 0.e.e.5.' 5.~./.W.+. .( , 1X1X1X1X1X1X1X1X",
"1X1X1X1X1X1X1X1X1X3 ( ) r r n k l B l l n v 8 ' +.X.{ W *.W I ..X.@.' 8 v h k N l k m m r i ) J , 1X1X1X1X1X1X1X1X1X",
"1X1X1X1X1X1X1X1X1X-   & j F p.a.f.f.g.g.g.g.a.H t 0 ` ' K ^ ` ` 0 m H a.g.h.g.g.f.f.a.t.A h * > 1X1X1X1X1X1X1X1X1X1X",
"1X1X1X1X1X1X1X1X1X1XX & d d g f k C H r.r.r.s.m.M.v.d U P P r v v.M.n.a.r.r.r.D C k h f f f & X 1X1X1X1X1X1X1X1X1X1X",
"1X1X1X1X1X1X1X1X1X1X1X@   2 ) ) 8 = & B D V N D s.B.n.m > > b B.m.p.D V V D l a = 8 r ) 1   @ 1X1X1X1X1X1X1X1X1X1X1X",
"1X1X1X1X1X1X1X1X1X1X1X1X1X, J { | ( 2 = j G C n A t.B.n.& d B.n.y.A k C D h 8 2 ( } { J , 1X1X1X1X1X1X1X1X1X1X1X1X1X",
"1X1X1X1X1X1X1X1X1X1X1X1X1X1X; 3 ( { ( ) t j r.S k S p.B.H H B.u.A b D r.h 8 _ _ { ( 3 1X1X1X1X1X1X1X1X1X1X1X1X1X1X1X",
"1X1X1X1X1X1X1X1X1X1X1X1X1X1X1X1X- 5 ( / _ * A r.F k G b.p.B g.S k D r.N t ` / / 5 - 1X1X1X1X1X1X1X1X1X1X1X1X1X1X1X1X",
"1X1X1X1X1X1X1X1X1X1X1X1X1X1X1X1X1X1X; , 5 > g D r.B B f.t.l p.N C r.S & 1 5 , ; 1X1X1X1X1X1X1X1X1X1X1X1X1X1X1X1X1X1X",
"1X1X1X1X1X1X1X1X1X1X1X1X1X1X1X1X1X1X1X1X1X1X@ d A B b S h f S j A C a @ ; 1X1X1X1X1X1X1X1X1X1X1X1X1X1X1X1X1X1X1X1X1X",
"1X1X1X1X1X1X1X1X1X1X1X1X1X1X1X1X1X1X1X1X1X1X1X1X# $ # % z z # # $ O 1X1X1X1X1X1X1X1X1X1X1X1X1X1X1X1X1X1X1X1X1X1X1X1X",
"1X1X1X1X1X1X1X1X1X1X1X1X1X1X1X1X1X1X1X1X1X1X1X1X1Xo z &.&.&.&.x 1X1X1X1X1X1X1X1X1X1X1X1X1X1X1X1X1X1X1X1X1X1X1X1X1X1X",
"1X1X1X1X1X1X1X1X1X1X1X1X1X1X1X1X1X1X1X1X1X1X1X1X1X1Xz k.z.z.j.p 1X1X1X1X1X1X1X1X1X1X1X1X1X1X1X1X1X1X1X1X1X1X1X1X1X1X",
"1X1X1X1X1X1X1X1X1X1X1X1X1X1X1X1X1X1X1X1X1X1X1X1X1X1Xz k.x.x.j.p 1X1X1X1X1X1X1X1X1X1X1X1X1X1X1X1X1X1X1X1X1X1X1X1X1X1X",
"1X1X1X1X1X1X1X1X1X1X1X1X1X1X1X1X1X1X1X1X1X1X1X1X1X1Xz j.x.x.j.p 1X1X1X1X1X1X1X1X1X1X1X1X1X1X1X1X1X1X1X1X1X1X1X1X1X1X",
"1X1X1X1X1X1X1X1X1X1X1X1X1X1X1X1X1X1X1X1X1X1X1X1X1X1Xz j.x.x.l.p 1X1X1X1X1X1X1X1X1X1X1X1X1X1X1X1X1X1X1X1X1X1X1X1X1X1X",
"1X1X1X1X1X1X1X1X1X1X1X1X1X1X1X1X1X1X1X1X1X1X1X1X1Xo c k.x.x.j.z 1X1X1X1X1X1X1X1X1X1X1X1X1X1X1X1X1X1X1X1X1X1X1X1X1X1X",
"1X1X1X1X1X1X1X1X1X1X1X1X1X1X1X1XX % a a % O 1X1X1XX c z.c.x.k.c o 1X1Xo + % a a % X 1X1X1X1X1X1X1X1X1X1X1X1X1X1X1X1X",
"1X1X1X1X1X1X1X1X1X1X1X1X1X1X1XX d C t.a.a.t.F h % o M z.x.c.k.c o & k F i.a.a.r.N a X 1X1X1X1X1X1X1X1X1X1X1X1X1X1X1X",
"1X1X1X1X1X1X1X1X1X1X1X1X1X1X1X1XO $ a n A t.p.g.a.B s M k.j.M s S f.g.p.y.C h a % X 1X1X1X1X1X1X1X1X1X1X1X1X1X1X1X1X",
"1X1X1X1X1X1X1X1X1X1X1X1X1X1X1X1X1XX $ a a g h C s.B.s.s M c a n.M.p.N f a a & O o 1X1X1X1X1X1X1X1X1X1X1X1X1X1X1X1X1X",
"1X1X1X1X1X1X1X1X1X1X1X1X1X1X1XO a V S G F h & j B g.C.v.# # n.C.a.N h & k G D A j % X 1X1X1X1X1X1X1X1X1X1X1X1X1X1X1X",
"1X1X1X1X1X1X1X1X1X1X1X1X1X1Xa t.s.p.r.N b V a g l A m.B.h l V.n.C k a g N k C r.p.p.A $ 1X1X1X1X1X1X1X1X1X1X1X1X1X1X",
"1X1X1X1X1X1X1X1X1X1X1X1X1X& a.M.B.V.M.f.r.S V % l l a.N.A r.N.t.b N & N S r.g.M.V.V.m.r.$ 1X1X1X1X1X1X1X1X1X1X1X1X1X",
"1X1X1X1X1X1X1X1X1X1X1X1X1X$ d d v Z v.m.h.i.r.h h k C p.j k p.V N a V r.a.b.m.s.Z h h f + 1X1X1X1X1X1X1X1X1X1X1X1X1X",
"1X1X1X1X1X1X1X1X1X1X1X1X1X1X1X1X1X1XO f t.g.a.G g $ + & O $ % O % f r.f.g.r.g X 1X1X1X1X1X1X1X1X1X1X1X1X1X1X1X1X1X1X",
"1X1X1X1X1X1X1X1X1X1X1X1X1X1X1X1X1X1X1X1XX h F t.B % o 1X1X1X1Xo & A t.A g o 1X1X1X1X1X1X1X1X1X1X1X1X1X1X1X1X1X1X1X1X",
"1X1X1X1X1X1X1X1X1X1X1X1X1X1X1X1X1X1X1X1X1X1Xo + O 1X1X1X1X1X1X1XX O + o 1X1X1X1X1X1X1X1X1X1X1X1X1X1X1X1X1X1X1X1X1X1X"
};
