/* XPM */
static char *result[] = {
/* columns rows colors chars-per-pixel */
"58 60 217 2 ",
"   c #12171A",
".  c #0A2C0D",
"X  c #06270B",
"o  c #0E310E",
"O  c #11340F",
"+  c #122914",
"@  c #153A11",
"#  c #1A3D14",
"$  c #173415",
"%  c #0D2B14",
"&  c #21341E",
"*  c #23381E",
"=  c #1B0B26",
"-  c #1E0A29",
";  c #1C142B",
":  c #1C1833",
">  c #220C2B",
",  c #2A0F2A",
"<  c #27182B",
"1  c #36182C",
"2  c #270E30",
"3  c #2D1434",
"4  c #36163A",
"5  c #1C243C",
"6  c #1F283D",
"7  c #1C202C",
"8  c #2B2B2D",
"9  c #242428",
"0  c #3A242F",
"q  c #263623",
"w  c #2D2D32",
"e  c #28273A",
"r  c #352935",
"t  c #363339",
"y  c #373438",
"u  c #2F3033",
"i  c #441D2E",
"p  c #46222E",
"a  c #452030",
"s  c #1D4315",
"d  c #13471B",
"f  c #0B441B",
"g  c #254C19",
"h  c #2B4D1C",
"j  c #234916",
"k  c #2C541B",
"l  c #22501D",
"z  c #335C1E",
"x  c #30571D",
"c  c #0A4A21",
"v  c #0A5127",
"b  c #355E20",
"n  c #365625",
"m  c #2C4621",
"M  c #05703A",
"N  c #3B6422",
"B  c #3F6923",
"V  c #376021",
"C  c #426C25",
"Z  c #4A6E2D",
"A  c #457125",
"S  c #497625",
"D  c #4A752A",
"F  c #4E7A2B",
"G  c #497627",
"H  c #517E2B",
"J  c #50762F",
"K  c #577C34",
"L  c #3D1941",
"P  c #1D2841",
"I  c #2E2D4C",
"U  c #252A44",
"Y  c #342B4C",
"T  c #3A294A",
"R  c #2C334E",
"E  c #283149",
"W  c #3C3D44",
"Q  c #3E2B51",
"!  c #2E3450",
"~  c #323A55",
"^  c #353D5A",
"/  c #461D48",
"(  c #4C224D",
")  c #47234B",
"_  c #483845",
"`  c #462A53",
"'  c #532453",
"]  c #5A2659",
"[  c #5C2C5C",
"{  c #542D55",
"}  c #5E3559",
"|  c #612B5E",
" . c #633A5C",
".. c #5E3163",
"X. c #5C2E60",
"o. c #6A2E66",
"O. c #6B2E67",
"+. c #6D326A",
"@. c #653266",
"#. c #73336E",
"$. c #753B6D",
"%. c #7C3674",
"&. c #7C3975",
"*. c #753370",
"=. c #3A435D",
"-. c #384258",
";. c #3C424E",
":. c #3C4563",
">. c #027F44",
",. c #464649",
"<. c #4B4A4D",
"1. c #454347",
"2. c #4E515A",
"3. c #555558",
"4. c #4D4854",
"5. c #434C6A",
"6. c #434D67",
"7. c #485269",
"8. c #565A62",
"9. c #4B5373",
"0. c #4F5876",
"q. c #535B7C",
"w. c #515B78",
"e. c #77476B",
"r. c #58637D",
"t. c #666669",
"y. c #79797A",
"u. c #676A71",
"i. c #604456",
"p. c #843B7B",
"a. c #863B7C",
"s. c #89417E",
"d. c #55842D",
"f. c #59892C",
"g. c #5D8C31",
"h. c #639333",
"j. c #6A9C35",
"k. c #6D993A",
"l. c #689139",
"z. c #6FA136",
"x. c #79AD3A",
"c. c #74A738",
"v. c #7FB53B",
"b. c #058C4E",
"n. c #00B165",
"m. c #00AE63",
"M. c #749844",
"N. c #7DA447",
"B. c #83B83E",
"V. c #87AD4C",
"C. c #8EB64F",
"Z. c #93C24C",
"A. c #9BC554",
"S. c #8EC641",
"D. c #A4CD5A",
"F. c #ABD45E",
"G. c #B5DB66",
"H. c #595F83",
"J. c #5C6485",
"K. c #62698B",
"L. c #686D93",
"P. c #6B7493",
"I. c #6E7498",
"U. c #717A9A",
"Y. c #6F7687",
"T. c #777DA2",
"R. c #8C3D82",
"E. c #923F86",
"W. c #934486",
"Q. c #954089",
"!. c #9C438E",
"~. c #984A89",
"^. c #9D4490",
"/. c #904682",
"(. c #A34694",
"). c #AC4A9C",
"_. c #A54A95",
"`. c #AD5399",
"'. c #AA5297",
"]. c #B757A2",
"[. c #C45EAC",
"{. c #C862AE",
"}. c #D669B9",
"|. c #D96BBB",
" X c #D167B5",
".X c #CD64B2",
"XX c #7B8190",
"oX c #7C83A6",
"OX c #878889",
"+X c #969697",
"@X c #888B91",
"#X c #8389AF",
"$X c #888EB4",
"%X c #8C93B7",
"&X c #9199BB",
"*X c #9E9FA0",
"=X c #95A0BD",
"-X c #ABABAB",
";X c #A2A2A3",
":X c #B9B9BA",
">X c #9CA3C9",
",X c #9BA3C6",
"<X c #A2AACC",
"1X c #A1A7CE",
"2X c #A8AFD4",
"3X c #AAB3D5",
"4X c #ABB2D8",
"5X c #B3BCDC",
"6X c #B6BEE1",
"7X c #989FC3",
"8X c #B7C2DF",
"9X c #BBC5E5",
"0X c #CBCBCB",
"qX c #D0D0D0",
"wX c #C6D2EE",
"eX c #C6D2EE",
"rX c None",
/* pixels */
"rXrXrXrXrXrXrXrXrXrXrXrXrXrXrXrXrXrXrXrXrXrXrXrXrXrXrXrXrXrXrXrXrXrXrXrXrXrXrXrXrXrXrXrXrXrXrXrXrXrXrXrXrXrXrXrXrXrX",
"rXrXrXrXrXrXrXrXrXrXrXrXrXrXrXrXrXrXrXrXrXrXrXrXrXrXrXrXrXrXrXrXrXrXrXrXrXrXrXrXrXrXrXrXrXrXrXrXrXrXrXrXrXrXrXrXrXrX",
"rXrXrXrXrXrXrXrXrXrXrXrXrXrXrXrXrXrXrXrXrXrXrXrXrXrXrXrXrXrXrXrXrXrXrXrXrXrXrXrXrXrXrXrXrXrXrXrXrXrXrXrXrXrXrXrXrXrX",
"rXrXrXrXrXrXrXrXrXrXrXrXrXrXrXrXrXrXrXrXrXrXrXrXrXrXrXrXrXrXrXrXrXrXrXrXrXrXrXrXrXrXrXrXrXrXrXrXrXrXrXrXrXrXrXrXrXrX",
"rXrXrXrXrXrXrXrXrXrXrXrXrXrXrXrXrXrXrXrXrXrXrXrXrXrXrXrXrXrXrXrXrXrXrXrXrXrXrXrXrXrXrXrXrXrXrXrXrXrXrXrXrXrXrXrXrXrX",
"rXrXrXrXrXrXrXrXrXrXrXrXrXrXrXrXrXrXrXrXrXrXrXrXrXrXrXrXrXrXrXrXrXrXrXrXrXrXrXrXrXrXrXrXrXrXrXrXrXrXrXrXrXrXrXrXrXrX",
"rXrXrXrXrXrXrXrXrXrXrXrXrXrXrXrXrXrXrXrXrXrXrXrXrXrXrXrXrXrXrXrXrXrXrXrXrXrXrXrXrXrXrXrXrXrXrXrXrXrXrXrXrXrXrXrXrXrX",
"rXrXrXrXrXrXrXrXrXrXrXrXrXrXrXrXrXrXrXrXrXrXrXrXrXrXrXrXrXrXrXrXrXrXrXrXrXrXrXrXrXrXrXrXrXrXrXrXrXrXrXrXrXrXrXrXrXrX",
"rXrXrXrXrXrXrXrXrXrXrXrXrXrXrXrXrXrXrXrXrXrXrXrXrXrXrXrXrXrXrXrXrXrXrXrXrXrXrXrXrXrXrXrXrXrXrXrXrXrXrXrXrXrXrXrXrXrX",
"rXrXrXrXrXrXrXrXrXrXrXrXrXrXrXrXrXrXrXrXrXrXrXrXrXrXrXrXrXrXrXrXrXrXrXrXrXrXrXrXrXrXrXrXrXrXrXrXrXrXrXrXrXrXrXrXrXrX",
"rXrXrXrXrXrXrXrXrXrXrXrXrXrXrXrXrXrXrXrXrXrXrXrXrXrXrXrXrXrXrXrXrXrXrXrXrXrXrXrXrXrXrXrXrXrXrXrXrXrXrXrXrXrXrXrXrXrX",
"rXrXrXrXrXrXrXrXrXrXrXrXrXrXrXrXrXrXrXrXrXrXrXrXrXrXrXrXrXrXrXrXrXrXrXrXrXrXrXrXrXrXrXrXrXrXrXrXrXrXrXrXrXrXrXrXrXrX",
"rXrXrXrXrXrXrXrXrXrXrXrXrXrXrXrXrXrXrXrXrXrXrXrXrXrXrXrXrXrXrXrXrXrXrXrXrXrXrXrXrXrXrXrXrXrXrXrXrXrXrXrXrXrXrXrXrXrX",
"rXrXrXrXrXrXrXrXrXrXrXrX8 rXrXrXrXrXrXrXrXrXrXrXrXrXrXrXrXrXrXrXrXrXrXrXrXrXrXrXrXrXrXrXrXw rXrXrXrXrXrXrXrXrXrXrXrX",
"rXrXrXrXrXrXrXrXrXrX8 ,.,.8 rXrXrXrXrXrXrXrXrXrXrXrXrXrXrXrXrXrXrXrXrXrXrXrXrXrXrXrXrXrX8 3.3.u rXrXrXrXrXrXrXrXrXrX",
"rXrXrXrXrXrXrXrXrXt u.;X3.rXrXrXrXrXrXrXrXrXrXrXrXrXrXrXrXrXrXrXrXrXrXrXrXrXrXrXrXrXrXrXrX3.-XOX1.rXrXrXrXrXrXrXrXrX",
"rXrXrXrXrXrXrX6 1.+X0XOXu rXrXrXrXrXrXrXrXrXrXrXrXrXrXrXrXrXrXrXrXrXrXrXrXrXrXrXrXrXrXrXrX8 y.0X-X2.6 5 rXrXrXrXrXrX",
"rXrXrXrXrXE w.-.@XqX-X1.rXrXrXrXrXrXrXrXrXrXrXrXrXrXrXrXrXrXrXrXrXrXrXrXrXrXrXrXrXrXrXrXrXrX1.;X0X@X6.P.-.5 rXrXrXrX",
"rXrXrX6 7.=X9Xw.Y.;Xt.8 rXrXrXrXrXrXrXrXrXrXrXrXrXrXrXrXrXrXrXrXrXrXrXrXrXrXrXrXrXrXrXrXrXrX8 3.+Xt.r.wX3XJ.E rXrXrX",
"rXrXU J.8XwXwXJ.3.y.y rXrXrXrXrXrXrXrXrXrXrXrXrXrXrXrXrXrXrXrXrXrXrXrXrXrXrXrXrXrXrXrXrXrXrX> t y.2.P.wXwXwXT.U rXrX",
"rXrX:.3X9X9XeX#X2.3.9 - rXrXt u rXrXrXrXrXrXrXrXrXrXrXrXrXrXrXrXrXrXrXrXrXrXrXrXrXrXy 1.rX= 1 0 2.-.=XwX9X6X2X5.rXrX",
"rXrX9.%X&X>X6X4X=.t 1 , 9 ,.y.y rXrXrXrXrXrXrXrXrXrXrXrXrXrXrXrXrXrXrXrXrXrXrXrXrXrXy +X3.< a p w 7.8X2X&X#XT.5.rXrX",
"rX5 5.K.L.I.#X3XU.e p p _ -X+Xu rXrXrXrXrXrXrXrXrXrXrXrXrXrXrXrXrXrXrXrXrXrXrXrXrXrXt *X:X<.p a U %X,XU.K.H.q.:.P rX",
"rXrXE E R :.q.T.>X0.r y OXqXy.8 rXrXrXrXrXrXrXrXrXrXrXrXrXrXrXrXrXrXrXrXrXrX8 rXrXrX9 Y.qX@Xy u P.,XL.5.! U P P rXrX",
"rXrXrXrX; T Y :.T.>X7.~ *X0Xt.; rXrXy y rXrXrXrXrXrXrXrXrXrXrXrXrXrXrXrXrXrXy ,.9 = < t.0XOX! L.<XP.^ Q ) - rXrXrXrX",
"rXrXrXrX> ] *.Y 9.$X2Xw.2.OX,.1 < 1.@X<.rXrXrXrXrXrXrXrXrXrXrXrXrXrXrXrXrXrX3.+X,.0 p ,.t.-.oX4XT.=.Q p.] - rXrXrXrX",
"rXrXrXrX- ] ^.#.I 9.&X5XP.-.u 0 y +X:Xy rXrXrXrXrXrXrXrXrXrXrXrXrXrXrXrXrX= 1.0X+Xy r w :.=X6XT.:.Y a.!.' - rXrXrXrX",
"rXrXrXrX- ' ^.^...I H.&X9X=X5.e <.-X;Xt > rXrXu w rXrXrXrXrXrXrXrX8 t w > 1 y +X+X;.R P.8X8XoX:.Y %.).!.( - rXrXrXrX",
"rXrXrXrX- L E.).^.@.I q.%X9X8XoX=.2.t.t p < <.<.rXrXrXrXrXrXrXrXrXrX3.3.0 a t 2.-.r.>X9X4XT.:.Y %.).).R.4 rXrXrXrXrX",
"rXrXrXrXrX3 %.).).^...I 5.oX1X9X3XP.~ e 0 <.;X<.rXrXrXrXrXrXrXrXrX> ,.-X2.r e 9.&X9X4X%XJ.^ Q %.(.).).O.2 rXrXrXrXrX",
"rXrXrXrXrX2 ] ^.).).(.#.Y ~ q.T.>X6X=Xr.E 3.y.r > rXrXrXrXrXrXrX- , y u.;.:.oX3X2X$XJ.:.I { R.).).).R./ 2 rXrXrXrXrX",
"rXrXrXrXrX2 ( o.^.).).(.a.X.Y ! 5.I.,X3X%X0.R r 1 > rXrXrXrXrXrX, i e ~ P.<X2X#Xq.-.Y ` *.E.).).).R.| ' 2 rXrXrXrXrX",
"rXrXrXrXrX> ] +.O.R.(.).).(.R.@.Q I 5.T.1X2XoX^ r 3 > rXrXrXrX> 1 U q.,X4X%XJ.! Y X.p.^.).).(.E.#.O.%.( - rXrXrXrXrX",
"rXrXrXrXrX- L %.E.#.+.%.E.).).).Q.+.Q ! 0.$X2X>X0.e > rXrXrX> 3 I P.3X,XI.:.I X.R.^.).).^.p.*.*.R.^.O.4 rXrXrXrXrXrX",
"rXrXrXrXrXrX> ( E.).].(.p.&.R.(.).).Q.@.Y =.L.>X>X9.e - rXrX2 U J.1X$Xq.I ` %.(.).(.Q.&.p.~.].[.).p./ > rXrXrXrXrXrX",
"rXrXrXrXrXrX- L ] E.[.|. X].W.&.p.!.).(.&.` ! H.$XT.:.: rX- 5 9.T.T.5.I ..W.).(.R.%.s.'.{.|.|.].%.( L - rXrXrXrXrXrX",
"rXrXrXrXrXrXrXL [ ] p.].}.|.}.[.~.&.&.^.).E.X.I 9.I.L.R - : :.L.L.:.Y #.^.)./.#.s.]. X}.}.{._.O.| | 3 rXrXrXrXrXrXrX",
"rXrXrXrXrXrXrX2 ] #.#.#./.'.{.}.}.{.~.+.E.).!.+.I 9.I.0.5 P H.L.:.Q %.).).%.#.`. X|..X].W.p.*.&.*./ > rXrXrXrXrXrXrX",
"rXrXrXrXrXrXrXrX4 O.&.Q.!.W.p.~.{.}.}._.O.a.).(.+.I 0.L.R ^ L.:.Y %.).(.*.*.].}. X`.s.s.'._.Q.$.| 3 rXrXrXrXrXrXrXrX",
"rXrXrXrXrXrXrXrX> / o.*.W.~.e.y p 4.i. .} ( %.).^.@.! H.:.:.9.I #.).(.+.' @. .i.p u 1.s.s.p.#.] 4 - rXrXrXrXrXrXrXrX",
"rXrXrXrXrXrXrXrXrX> 4 w * h N S d.f.d.S B k q _ e.*.{ ~ :.^ ! X.#.#._ * k B S f.h.f.S N h # 8 3 - rXrXrXrXrXrXrXrXrX",
"rXrXrXrXrXrXrXrXrXrX+ s N F d.g.h.h.j.z.x.x.x.g.n w { Q E e ` { 8 n l.x.x.x.z.k.j.h.d.d.S V s   rXrXrXrXrXrXrXrXrXrX",
"rXrXrXrXrXrXrXrXrXrX. + $ & & # s x A d.H S h.C.D.M.m T U U T m M.D.V.h.S d.H C k s # q q + % rXrXrXrXrXrXrXrXrXrXrX",
"rXrXrXrXrXrXrXrXrXrXrXrX> ) | { r 9 & x S N b F l.C.C.h 7 ; n A.Z.h.G z N G k & 9 r [ | 4 = rXrXrXrXrXrXrXrXrXrXrXrX",
"rXrXrXrXrXrXrXrXrXrXrXrXrX> / o.o./ ) 8 h H A b D g.D.V.$ # C.C.f.C n D F j w ) ' O.[ 4 - rXrXrXrXrXrXrXrXrXrXrXrXrX",
"rXrXrXrXrXrXrXrXrXrXrXrXrXrX= 3 ' @./ [ 8 k d.F n D k.F.N D F.l.A b F d.k w ] ( | / > rXrXrXrXrXrXrXrXrXrXrXrXrXrXrX",
"rXrXrXrXrXrXrXrXrXrXrXrXrXrXrXrX> L / / X.$ C d.G z H V.F d.x.J b F d.N q | / L 3 - rXrXrXrXrXrXrXrXrXrXrXrXrXrXrXrX",
"rXrXrXrXrXrXrXrXrXrXrXrXrXrXrXrXrXrX> 2 / r s F d.N A c.S D z.C B d.D $ 3 4 > - rXrXrXrXrXrXrXrXrXrXrXrXrXrXrXrXrXrX",
"rXrXrXrXrXrXrXrXrXrXrXrXrXrXrXrXrXrXrXrX= = + s B V b C s g A k N N # + =   rXrXrXrXrXrXrXrXrXrXrXrXrXrXrXrXrXrXrXrX",
"rXrXrXrXrXrXrXrXrXrXrXrXrXrXrXrX. @ j j s O X X . o O v M M c o o . X . O s k g # o rXrXrXrXrXrXrXrXrXrXrXrXrXrXrXrX",
"rXrXrXrXrXrXrXrXrXrXrXrXrXrXrX. s B d.j.j.h.F z @ X v b.n.n.b.c . s B f.j.z.h.F b @ . rXrXrXrXrXrXrXrXrXrXrXrXrXrXrX",
"rXrXrXrXrXrXrXrXrXrXrXrXrXrXrXrXo O # g B d.h.c.z.C @ b.n.n.M s H c.z.g.F b s O . rXrXrXrXrXrXrXrXrXrXrXrXrXrXrXrXrX",
"rXrXrXrXrXrXrXrXrXrXrXrXrXrXrXrXrX. o # s j g B j.D.M.d b.>.l V.A.g.b g s s @ . rXrXrXrXrXrXrXrXrXrXrXrXrXrXrXrXrXrX",
"rXrXrXrXrXrXrXrXrXrXrXrXrXrXrXX @ x A H F z s k N c.G.k.f d V.G.h.b k # N d.F N g o rXrXrXrXrXrXrXrXrXrXrXrXrXrXrXrX",
"rXrXrXrXrXrXrXrXrXrXrXrXrXrXO A g.g.d.N N N j j z S S.D.k A F.V.B b # k N N C d.d.H x . rXrXrXrXrXrXrXrXrXrXrXrXrXrX",
"rXrXrXrXrXrXrXrXrXrXrXrXrXO f.A.F.D.Z.k.H A z @ B z j.S.B d.S.f.b b # B A H z.C.D.F.S.B . rXrXrXrXrXrXrXrXrXrXrXrXrX",
"rXrXrXrXrXrXrXrXrXrXrXrXrXO b N n J M.Z.B.g.d.k g z B h.k V h.z V s N d.h.B.A.N.H Z D N o rXrXrXrXrXrXrXrXrXrXrXrXrX",
"rXrXrXrXrXrXrXrXrXrXrXrXrXrXrXrXrXrX. k f.x.j.d.g @ O # o O # o @ x d.z.x.d.k o rXrXrXrXrXrXrXrXrXrXrXrXrXrXrXrXrXrX",
"rXrXrXrXrXrXrXrXrXrXrXrXrXrXrXrXrXrXrXrX. g G f.B @ X rXrXrXrX. s D g.A j . rXrXrXrXrXrXrXrXrXrXrXrXrXrXrXrXrXrXrXrX",
"rXrXrXrXrXrXrXrXrXrXrXrXrXrXrXrXrXrXrXrXrXrX. O o rXrXrXrXrXrXrXX o o X rXrXrXrXrXrXrXrXrXrXrXrXrXrXrXrXrXrXrXrXrXrX"
};
