/* XPM */
static char *result[] = {
/* columns rows colors chars-per-pixel */
"58 60 209 2 ",
"   c #15171D",
".  c #0A2C0C",
"X  c #07280B",
"o  c #0E310E",
"O  c #10340F",
"+  c #123610",
"@  c #153A12",
"#  c #193D14",
"$  c #1D371A",
"%  c #132E17",
"&  c #1C0927",
"*  c #1E0929",
"=  c #1B1427",
"-  c #230C2C",
";  c #27182A",
":  c #290F31",
">  c #2D1135",
",  c #211C39",
"<  c #34143A",
"1  c #37193C",
"2  c #36172C",
"3  c #1A253D",
"4  c #1E2621",
"5  c #2B2B2E",
"6  c #26252A",
"7  c #3A252F",
"8  c #2E2D31",
"9  c #282739",
"0  c #372733",
"q  c #313134",
"w  c #35353B",
"e  c #3B3A3D",
"r  c #3A3537",
"t  c #263B21",
"y  c #441D2E",
"u  c #47222F",
"i  c #41323E",
"p  c #0B441D",
"a  c #1C4114",
"s  c #144519",
"d  c #214717",
"f  c #254B19",
"g  c #25491A",
"h  c #2C541B",
"j  c #335B1E",
"k  c #38621F",
"l  c #0A4C24",
"z  c #0B5027",
"x  c #2B4621",
"c  c #365E20",
"v  c #3B5F25",
"b  c #376021",
"n  c #3A6322",
"m  c #3F6923",
"M  c #05723D",
"N  c #416C24",
"B  c #436928",
"V  c #467225",
"C  c #4B7A25",
"Z  c #477228",
"A  c #4A7429",
"S  c #4E7A2B",
"D  c #497625",
"F  c #517E2C",
"G  c #537832",
"H  c #3D1942",
"J  c #1D2841",
"K  c #282D47",
"L  c #352B4D",
"P  c #3B2B4F",
"I  c #2C324E",
"U  c #2D3843",
"Y  c #3E2B50",
"T  c #2E3451",
"R  c #2E3952",
"E  c #323A55",
"W  c #343C59",
"Q  c #313755",
"!  c #3A3B42",
"~  c #461D49",
"^  c #4D214E",
"/  c #472B48",
"(  c #443A43",
")  c #442B53",
"_  c #4B2B56",
"`  c #5D2A5C",
"'  c #552957",
"]  c #573655",
"[  c #53334F",
"{  c #612A5E",
"}  c #673D5F",
"|  c #6A2D66",
" . c #6C2E67",
".. c #6D336B",
"X. c #633265",
"o. c #73336D",
"O. c #763370",
"+. c #7B3673",
"@. c #7D3976",
"#. c #7D3A78",
"$. c #6F3470",
"%. c #5B3061",
"&. c #39425A",
"*. c #3F4042",
"=. c #067D44",
"-. c #3B4361",
";. c #3E4861",
":. c #434245",
">. c #47484C",
",. c #464952",
"<. c #575759",
"1. c #424C65",
"2. c #434B6B",
"3. c #49536C",
"4. c #595C63",
"5. c #4D5575",
"6. c #515C76",
"7. c #6C4262",
"8. c #56617B",
"9. c #5F626B",
"0. c #67686B",
"q. c #767778",
"w. c #6B6E76",
"e. c #68415F",
"r. c #853B7C",
"t. c #893C7F",
"y. c #813977",
"u. c #8A417E",
"i. c #55832E",
"p. c #5A8A2D",
"a. c #5D8C30",
"s. c #5F902D",
"d. c #649432",
"f. c #6A9B35",
"g. c #6B9938",
"h. c #6D973C",
"j. c #6FA236",
"k. c #76A939",
"l. c #7CB13A",
"z. c #06894C",
"x. c #079454",
"c. c #00B064",
"v. c #00AF64",
"b. c #7AA145",
"n. c #83B93C",
"m. c #83A84A",
"M. c #94BA54",
"N. c #8AB847",
"B. c #96C44D",
"V. c #9CC656",
"C. c #8EC641",
"Z. c #A5CE5A",
"A. c #AAD35D",
"S. c #B3D965",
"D. c #5D6386",
"F. c #62688C",
"G. c #686E93",
"H. c #6D7596",
"J. c #71779C",
"K. c #737987",
"L. c #787EA3",
"P. c #8C3D82",
"I. c #923F86",
"U. c #933F88",
"Y. c #934386",
"T. c #9A438D",
"R. c #99468A",
"E. c #9E4490",
"W. c #8D4380",
"Q. c #A34694",
"!. c #A44A93",
"~. c #AB4A9B",
"^. c #A74898",
"/. c #AB5298",
"(. c #A04D8F",
"). c #BA58A4",
"_. c #C45DAC",
"`. c #CA5FB2",
"'. c #CD64B2",
"]. c #D166B6",
"[. c #D669B9",
"{. c #D86ABA",
"}. c #C661AC",
"|. c #7A8192",
" X c #7B83A6",
".X c #868687",
"XX c #979798",
"oX c #828AAC",
"OX c #878DB2",
"+X c #8C94B7",
"@X c #929ABC",
"#X c #8590AD",
"$X c #A6A6A6",
"%X c #B5B5B5",
"&X c #95A1BC",
"*X c #979EC3",
"=X c #9DA4C9",
"-X c #A1ABCB",
";X c #A7AED3",
":X c #AAB3D4",
">X c #ADB4D9",
",X c #AEB9D7",
"<X c #B2BBDD",
"1X c #BBC6E4",
"2X c #C8C8C8",
"3X c #D0D0D0",
"4X c #C5D1EE",
"5X c #C7D3F0",
"6X c None",
/* pixels */
"6X6X6X6X6X6X6X6X6X6X6X6X6X6X6X6X6X6X6X6X6X6X6X6X6X6X6X6X6X6X6X6X6X6X6X6X6X6X6X6X6X6X6X6X6X6X6X6X6X6X6X6X6X6X6X6X6X6X",
"6X6X6X6X6X6X6X6X6X6X6X6X6X6X6X6X6X6X6X6X6X6X6X6X6X6X6X6X6X6X6X6X6X6X6X6X6X6X6X6X6X6X6X6X6X6X6X6X6X6X6X6X6X6X6X6X6X6X",
"6X6X6X6X6X6X6X6X6X6X6X6X6X6X6X6X6X6X6X6X6X6X6X6X6X6X6X6X6X6X6X6X6X6X6X6X6X6X6X6X6X6X6X6X6X6X6X6X6X6X6X6X6X6X6X6X6X6X",
"6X6X6X6X6X6X6X6X6X6X6X6X6X6X6X6X6X6X6X6X6X6X6X6X6X6X6X6X6X6X6X6X6X6X6X6X6X6X6X6X6X6X6X6X6X6X6X6X6X6X6X6X6X6X6X6X6X6X",
"6X6X6X6X6X6X6X6X6X6X6X6X6X6X6X6X6X6X6X6X6X6X6X6X6X6X6X6X6X6X6X6X6X6X6X6X6X6X6X6X6X6X6X6X6X6X6X6X6X6X6X6X6X6X6X6X6X6X",
"6X6X6X6X6X6X6X6X6X6X6X6X6X6X6X6X6X6X6X6X6X6X6X6X6X6X6X6X6X6X6X6X6X6X6X6X6X6X6X6X6X6X6X6X6X6X6X6X6X6X6X6X6X6X6X6X6X6X",
"6X6X6X6X6X6X6X6X6X6X6X6X6X6X6X6X6X6X6X6X6X6X6X6X6X6X6X6X6X6X6X6X6X6X6X6X6X6X6X6X6X6X6X6X6X6X6X6X6X6X6X6X6X6X6X6X6X6X",
"6X6X6X6X6X6X6X6X6X6X6X6X6X6X6X6X6X6X6X6X6X6X6X6X6X6X6X6X6X6X6X6X6X6X6X6X6X6X6X6X6X6X6X6X6X6X6X6X6X6X6X6X6X6X6X6X6X6X",
"6X6X6X6X6X6X6X6X6X6X6X6X6X6X6X6X6X6X6X6X6X6X6X6X6X6X6X6X6X6X6X6X6X6X6X6X6X6X6X6X6X6X6X6X6X6X6X6X6X6X6X6X6X6X6X6X6X6X",
"6X6X6X6X6X6X6X6X6X6X6X6X6X6X6X6X6X6X6X6X6X6X6X6X6X6X6X6X6X6X6X6X6X6X6X6X6X6X6X6X6X6X6X6X6X6X6X6X6X6X6X6X6X6X6X6X6X6X",
"6X6X6X6X6X6X6X6X6X6X6X6X6X6X6X6X6X6X6X6X6X5 w e 8 6X6X6X6X6X6X6X6Xq e q 5 6X6X6X6X6X6X6X6X6X6X6X6X6X6X6X6X6X6X6X6X6X",
"6X6X6X6X6X6X6X6X6X6X6X6X6X6X3 K R R 9 >.0..XXX<.8 6X6X6X6X6X6X6X6X8 0.XXK.4.:.9 E R K 6X6X6X6X6X6X6X6X6X6X6X6X6X6X6X",
"6X6X6X6X6X6X6X6X6X6X6X6XK 3. X&X,XH.4.%X3X2X0.q 6X6X6X6X6X6X6X6X6X6Xe .X2X2X%X-.oX:X&XH.;.J 6X6X6X6X6X6X6X6X6X6X6X6X",
"6X6X6X6X6X6X6X6X6X6X6X3 D.<X5X5X4X6.w.%X$X<.6 6X6X6X6X6X6X6X6X6X6X6X6Xq 0.$X%X5.H.5X5X4X:X5.J 6X6X6X6X6X6X6X6X6X6X6X",
"6X6X6X6X6X6X6X6X6X6X6XW  X=X<X1X1X1.w.q.:.5 6X6X6X6X6X6X6X6X6X6X6X6X6X6X0 >.b.D.8.4X1X,X*XH.I 6X6X6X6X6X6X6X6X6X6X6X",
"6X6X6X6X6X6X6X6X6X6X3 -.F.J.+X<X<X;.0.*.; 6X6X6X6X6X6X6X6X6X6X6X6X6X6X6X6X2 >.4.6.1X:X#XJ.D.E 6X6X6X6X6X6X6X6X6X6X6X",
"6X6X6X6X6X6X6X6X6X6X6XJ T 2.G.OX,X1.w 7 - 6X6X6X6X6X6X6X6X6X6X6X6X6X6X6X6X- 7 w D.,XoXF.1.K J 6X6X6X6X6X6X6X6X6X6X6X",
"6X6X6X6X6X6X6X6X6X6X6X6X= , -.G.-X8.0 u ; ; q e q 6X6X6X6X6X6X6X6Xq e 8 ; 2 u 5 H.=XD.E , 6X6X6X6X6X6X6X6X6X6X6X6X6X",
"6X6X6X6X6X6X6X6X6X6X6X6X- ^ P 2.+X X9 u 0 <.XXw.5 6X6X6X6X6X6X6X6Xq q..X>.7 u K @X XW _ ~ & 6X6X6X6X6X6X6X6X6X6X6X6X",
"6X6X6X6X6X6X6X6X6X6X6X6X: O...T H.=XE w q.%X%X:.6X6X6X6X6X6X6X6X6X6X<.2X%X0.9 3.=XD.I #.| - 6X6X6X6X6X6X6X6X6X6X6X6X",
"6X6X6X6X6X6X6X6X6X6X6X6XH P.U.P 5.=XH.,.%X2X0.6 6X6X6X6X6X6X6X6X6X6Xq .X3XXXE #X@X2.) T.#.< 6X6X6X6X6X6X6X6X6X6X6X6X",
"6X6X6X6X6X6X6X6X6X6X6X* ~ U.Q.%.W oX:X1.|.XXr = 6X6X6X6X6X6X6X6X6X6X; :.$Xw.6.>XJ.T ..~.P.H 6X6X6X6X6X6X6X6X6X6X6X6X",
"6X6X6X6X6X6X6X6X6X6X6X* ^ Q.~.y.L D.:X+X*.*.7 2 6 :.e 6X6X6X5 e e ; 2 0 >.&.=X=X5.P P.~.U.H & 6X6X6X6X6X6X6X6X6X6X6X",
"6X6X6X6X6X6X6X6X6X6X6X- ^ Q.~.Q._ -.OX1XG.3 0 *..XXX:.6X6X6X6X<.$Xq.r 8 9 #X1XL.Q %.Q.~.E.~ * 6X6X6X6X6X6X6X6X6X6X6X",
"6X6X6X6X6X6X6X6X6X6X6X> ^ U.~.~.#.T D.;X1X6.w .X3Xq.; 6X6X6X6X8 XX2Xw.K G.1X=X5.P t.~.~.P.~ : 6X6X6X6X6X6X6X6X6X6X6X",
"6X6X6X6X6X6X6X6X6X6X6X1 { O.~.~.E._ E L.,X,X;.9.XX:.; 6X6X6X* ; ,.XX<.6.1X:XG.I X.Q.~.^. .` > 6X6X6X6X6X6X6X6X6X6X6X",
"6X6X6X6X6X6X6X6X6X6X6X1 O. .P.~.~.P.P -. X<X=X;.,.0 y 6 5 8 ; u r ,.3.>X-XH.W _ U.~.~.t. .o.> 6X6X6X6X6X6X6X6X6X6X6X",
"6X6X6X6X6X6X6X6X6X6X6X> O.U.| U.~.^.+.L -.L.>X*XR 0 7 ( 4.e r u 9 ;.;X;XH.E ) r.~.~.P. .U. .> 6X6X6X6X6X6X6X6X6X6X6X",
"6X6X6X6X6X6X6X6X6X6X6X> ` ^.Y.o.P.^.^.#.Y W L.:X XI *.$Xq.<.XXU W *X;XG.T _ r.^.^.r.o.U.Q.^ : 6X6X6X6X6X6X6X6X6X6X6X",
"6X6X6X6X6X6X6X6X6X6X6X< ^ P._.).#.P.~.~.r.) E L.>X X&.0.r :.0.&.+X;XG.I ' Y.~.^.y.t._.).y.~ > 6X6X6X6X6X6X6X6X6X6X6X",
"6X6X6X6X6X6X6X6X6X6X6X< { { /.{.`.u.#.^.~.P.) W  X>XJ.K 7 7 I #X:XH.R ' Y.~.Q.y.Y.].{.Q.` ` > 6X6X6X6X6X6X6X6X6X6X6X",
"6X6X6X6X6X6X6X6X6X6X6X: | | o._.{.'.Y.@.Q.~.P.Y -.OX>XG.9 K L.>XL.Q _ Y.~.T.@.R.].{.). . .X.- 6X6X6X6X6X6X6X6X6X6X6X",
"6X6X6X6X6X6X6X6X6X6X6X- X.O.y.@.).{.].(.+.(.~.y.L 3.@X;X5.3.;X X-.Y P.~.R.+./.{.{.).+.y.+.' - 6X6X6X6X6X6X6X6X6X6X6X",
"6X6X6X6X6X6X6X6X6X6X6X* ~ o.I.T.y./.{.].(.O.E.^.o.K D.-X X-. X5.L #.~.E.o./.].].(.@.R.t. .~ & 6X6X6X6X6X6X6X6X6X6X6X",
"6X6X6X6X6X6X6X6X6X6X6X6X> ' +.~.).@.(.[.].R.o.^.E.` T J.+X2.W T ..Q.E.$./.[.].R.u.).!.o.' - 6X6X6X6X6X6X6X6X6X6X6X6X",
"6X6X6X6X6X6X6X6X6X6X6X6X- H ` r._.}.u.(.[.].@.y.~.P.Y 2.J.D.J _ T.~.O.P.].].R.u.'.).@.' 1 * 6X6X6X6X6X6X6X6X6X6X6X6X",
"6X6X6X6X6X6X6X6X6X6X6X6X& 1 ~ ` Y.`._.r./.].Q.| U.~...I F.G.R $.^.P. .~.].!.u.'._.t.^ ' < 6X6X6X6X6X6X6X6X6X6X6X6X6X",
"6X6X6X6X6X6X6X6X6X6X6X6X6X; / ; q ] 7.} ' Y.^.P.O.~.T.) -.H.-.#.^.$.I.!.u.[ 7.e.[ 9 0 0 - 6X6X6X6X6X6X6X6X6X6X6X6X6X",
"6X6X6X6X6X6X6X6X6X6X6X. @ f c V D C D m j x e ] ' T.~...T F.2.O.U.' ] r x j m D C D V j d + . 6X6X6X6X6X6X6X6X6X6X6X",
"6X6X6X6X6X6X6X6X6X6X. d m C i.p.f.f.j.k.k.k.f.A t [ t.+.Y 5.2._ / g G f.k.l.k.j.f.d.p.i.A n a . 6X6X6X6X6X6X6X6X6X6X",
"6X6X6X6X6X6X6X6X6X6X. O + + + # f n C i.i.i.j.M.M.G t _ ' &.R $ a.V.N.g.i.i.i.A j g # + + + O 6X6X6X6X6X6X6X6X6X6X6X",
"6X6X6X6X6X6X6X6X6X6X6X6X6X6X6X6X  4 $ n C b b i.b.Z.m.x / 3 f M.Z.h.S b n S j $ 6   6X6X6X6X6X6X6X6X6X6X6X6X6X6X6X6X",
"6X6X6X6X6X6X6X6X6X6X6X6X6X6X6X6X* < / 4 h i.m j A d.Z.m.$ d M.V.a.B c B S f 6 / : 6X6X6X6X6X6X6X6X6X6X6X6X6X6X6X6X6X",
"6X6X6X6X6X6X6X6X6X6X6X6X6X6X6X6X6X& < 1 4 b i.Z c A g.A.B G A.d.Z v C i.j 4 1 > 6X6X6X6X6X6X6X6X6X6X6X6X6X6X6X6X6X6X",
"6X6X6X6X6X6X6X6X6X6X6X6X6X6X6X6X6X6X* - 0 $ A i.Z c i.N.a.Z l.S c A i.B $ < - 6X6X6X6X6X6X6X6X6X6X6X6X6X6X6X6X6X6X6X",
"6X6X6X6X6X6X6X6X6X6X6X6X6X6X6X6X6X6X6X6X* = g F i.c Z j.i.m f.m n i.S a = - 6X6X6X6X6X6X6X6X6X6X6X6X6X6X6X6X6X6X6X6X",
"6X6X6X6X6X6X6X6X6X6X6X6X6X6X6X6X6X6X6X6X6X6X. f A m c i.h j F c Z Z a % 6X6X6X6X6X6X6X6X6X6X6X6X6X6X6X6X6X6X6X6X6X6X",
"6X6X6X6X6X6X6X6X6X6X6X6X6X6X6X6X6X6X6X6X6X6X6X. @ @ + @ @ l @ + @ + 6X6X6X6X6X6X6X6X6X6X6X6X6X6X6X6X6X6X6X6X6X6X6X6X",
"6X6X6X6X6X6X6X6X6X6X6X6X6X6X6X6X6X6X6X6X6X6X6X6X6XX z =.z.z.=.p X 6X6X6X6X6X6X6X6X6X6X6X6X6X6X6X6X6X6X6X6X6X6X6X6X6X",
"6X6X6X6X6X6X6X6X6X6X6X6X6X6X6X6X. O @ # O . 6X6X6X6Xz x.c.c.x.p 6X6X6X6X. + @ @ + X 6X6X6X6X6X6X6X6X6X6X6X6X6X6X6X6X",
"6X6X6X6X6X6X6X6X6X6X6X6X6X6X6X. f N p.d.d.p.V h + X z x.c.c.z.l X @ j D p.d.d.p.m a . 6X6X6X6X6X6X6X6X6X6X6X6X6X6X6X",
"6X6X6X6X6X6X6X6X6X6X6X6X6X6X6X. + a f n C p.f.k.g.m $ z.c.c.=.@ A j.k.d.s.A j f # + 6X6X6X6X6X6X6X6X6X6X6X6X6X6X6X6X",
"6X6X6X6X6X6X6X6X6X6X6X6X6X6X6X6X6XX o # a d h V j.Z.h.s z.z.f m.V.g.m h d a # . X 6X6X6X6X6X6X6X6X6X6X6X6X6X6X6X6X6X",
"6X6X6X6X6X6X6X6X6X6X6X6X6X6X6X. @ j Z F A h a h N k.S.h.p s m.S.g.n f # j S F N h + X 6X6X6X6X6X6X6X6X6X6X6X6X6X6X6X",
"6X6X6X6X6X6X6X6X6X6X6X6X6X6X@ V a.a.F n c n a f j D B.Z.h m A.N.N c a g n c m p.a.p.m . 6X6X6X6X6X6X6X6X6X6X6X6X6X6X",
"6X6X6X6X6X6X6X6X6X6X6X6X6X@ p.Z.A.Z.B.g.S Z c @ m j f.C.V C C.p.c n @ m Z F j.V.A.A.B.C o 6X6X6X6X6X6X6X6X6X6X6X6X6X",
"6X6X6X6X6X6X6X6X6X6X6X6X6X@ k n v G b.B.l.s.i.h f c m d.h j d.c b a b i.d.n.B.h.A v m j O 6X6X6X6X6X6X6X6X6X6X6X6X6X",
"6X6X6X6X6X6X6X6X6X6X6X6X6X6X6X6X6X6Xo j p.l.g.S f @ + @ o + @ o @ h i.j.l.i.f o 6X6X6X6X6X6X6X6X6X6X6X6X6X6X6X6X6X6X",
"6X6X6X6X6X6X6X6X6X6X6X6X6X6X6X6X6X6X6X6Xo h C p.m @ X 6X6X6X6XX a A a.V d . 6X6X6X6X6X6X6X6X6X6X6X6X6X6X6X6X6X6X6X6X",
"6X6X6X6X6X6X6X6X6X6X6X6X6X6X6X6X6X6X6X6X6X6XX + o 6X6X6X6X6X6X6X. o o X 6X6X6X6X6X6X6X6X6X6X6X6X6X6X6X6X6X6X6X6X6X6X"
};
